<svg width="64" height="65" viewBox="0 0 64 65" fill="none" xmlns="http://www.w3.org/2000/svg">
<circle cx="32" cy="32.6001" r="32" fill="url(#paint0_linear_1410_17668)" fill-opacity="0.4"/>
<circle cx="32" cy="32.6001" r="31.5" stroke="url(#paint1_linear_1410_17668)" stroke-opacity="0.16"/>
<path fill-rule="evenodd" clip-rule="evenodd" d="M31.54 46.8537L32.0008 46.2001L31.54 46.8537ZM32.4616 46.8537L32.4648 46.8521L32.4728 46.8465L32.4968 46.8281L32.5912 46.7601C32.6712 46.7009 32.788 46.6145 32.9352 46.5009C33.2296 46.2753 33.6472 45.9433 34.1456 45.5169C35.4539 44.3986 36.6773 43.1846 37.8056 41.8849C40.452 38.8241 43.2008 34.4553 43.2008 29.4609C43.2008 26.4769 42.0216 23.6129 39.9224 21.5009C38.8848 20.4556 37.6508 19.6258 36.2912 19.0593C34.9317 18.4928 33.4736 18.2008 32.0008 18.2001C30.528 18.2007 29.0699 18.4926 27.7104 19.059C26.3509 19.6253 25.1168 20.4549 24.0792 21.5001C21.9779 23.6169 20.7994 26.479 20.8008 29.4617C20.8008 34.4553 23.5496 38.8241 26.196 41.8849C27.3243 43.1846 28.5477 44.3986 29.856 45.5169C30.3552 45.9433 30.772 46.2753 31.0664 46.5009C31.2108 46.6122 31.3567 46.7215 31.504 46.8289L31.5296 46.8465L31.5368 46.8521L31.54 46.8537C31.816 47.0481 32.1856 47.0481 32.4616 46.8537ZM32.0008 46.2001L32.4616 46.8537L32.0008 46.2001ZM36.0008 29.4001C36.0008 30.4609 35.5794 31.4784 34.8292 32.2285C34.0791 32.9786 33.0616 33.4001 32.0008 33.4001C30.9399 33.4001 29.9225 32.9786 29.1724 32.2285C28.4222 31.4784 28.0008 30.4609 28.0008 29.4001C28.0008 28.3392 28.4222 27.3218 29.1724 26.5716C29.9225 25.8215 30.9399 25.4001 32.0008 25.4001C33.0616 25.4001 34.0791 25.8215 34.8292 26.5716C35.5794 27.3218 36.0008 28.3392 36.0008 29.4001Z" fill="url(#paint2_linear_1410_17668)"/>
<defs>
<linearGradient id="paint0_linear_1410_17668" x1="32" y1="0.600098" x2="32" y2="64.6001" gradientUnits="userSpaceOnUse">
<stop stop-color="#0CAF58" stop-opacity="0"/>
<stop offset="1" stop-color="#0CAF58" stop-opacity="0.24"/>
</linearGradient>
<linearGradient id="paint1_linear_1410_17668" x1="32" y1="0.600098" x2="32" y2="64.6001" gradientUnits="userSpaceOnUse">
<stop stop-color="#3DE19D"/>
<stop offset="1" stop-color="#3DE19D" stop-opacity="0"/>
</linearGradient>
<linearGradient id="paint2_linear_1410_17668" x1="48.1179" y1="13.2831" x2="20.5629" y2="53.2722" gradientUnits="userSpaceOnUse">
<stop stop-color="#BBFFAA"/>
<stop offset="1" stop-color="#EEFF86"/>
</linearGradient>
</defs>
</svg>
