<svg width="64" height="65" viewBox="0 0 64 65" fill="none" xmlns="http://www.w3.org/2000/svg">
<circle cx="32" cy="32.2002" r="32" fill="url(#paint0_linear_1410_17664)" fill-opacity="0.4"/>
<circle cx="32" cy="32.2002" r="31.5" stroke="url(#paint1_linear_1410_17664)" stroke-opacity="0.16"/>
<g filter="url(#filter0_d_1410_17664)">
<path d="M24.3206 23.5433V20.5117C24.3206 19.6781 24.6217 18.9641 25.2238 18.3699C25.8249 17.7768 26.5478 17.4802 27.3926 17.4802H36.6086C37.4534 17.4802 38.1769 17.7768 38.779 18.3699C39.3801 18.9641 39.6806 19.6781 39.6806 20.5117V23.5433H44.2886C45.1334 23.5433 45.8569 23.8404 46.459 24.4346C47.0601 25.0278 47.3606 25.7412 47.3606 26.5749V43.2486C47.3606 44.0823 47.0601 44.7962 46.459 45.3904C45.8569 45.9836 45.1334 46.2802 44.2886 46.2802H19.7126C18.8678 46.2802 18.1449 45.9836 17.5438 45.3904C16.9417 44.7962 16.6406 44.0823 16.6406 43.2486V26.5749C16.6406 25.7412 16.9417 25.0278 17.5438 24.4346C18.1449 23.8404 18.8678 23.5433 19.7126 23.5433H24.3206ZM27.3926 23.5433H36.6086V20.5117H27.3926V23.5433ZM19.7126 40.217H44.2886V35.6696H19.7126V40.217Z" fill="url(#paint2_linear_1410_17664)"/>
</g>
<defs>
<filter id="filter0_d_1410_17664" x="14.8121" y="17.4802" width="34.3759" height="32.4571" filterUnits="userSpaceOnUse" color-interpolation-filters="sRGB">
<feFlood flood-opacity="0" result="BackgroundImageFix"/>
<feColorMatrix in="SourceAlpha" type="matrix" values="0 0 0 0 0 0 0 0 0 0 0 0 0 0 0 0 0 0 127 0" result="hardAlpha"/>
<feOffset dy="1.82857"/>
<feGaussianBlur stdDeviation="0.914286"/>
<feComposite in2="hardAlpha" operator="out"/>
<feColorMatrix type="matrix" values="0 0 0 0 0 0 0 0 0 0 0 0 0 0 0 0 0 0 0.12 0"/>
<feBlend mode="normal" in2="BackgroundImageFix" result="effect1_dropShadow_1410_17664"/>
<feBlend mode="normal" in="SourceGraphic" in2="effect1_dropShadow_1410_17664" result="shape"/>
</filter>
<linearGradient id="paint0_linear_1410_17664" x1="32" y1="0.200195" x2="32" y2="64.2002" gradientUnits="userSpaceOnUse">
<stop stop-color="#0CAF58" stop-opacity="0"/>
<stop offset="1" stop-color="#0CAF58" stop-opacity="0.24"/>
</linearGradient>
<linearGradient id="paint1_linear_1410_17664" x1="32" y1="0.200195" x2="32" y2="64.2002" gradientUnits="userSpaceOnUse">
<stop stop-color="#3DE19D"/>
<stop offset="1" stop-color="#3DE19D" stop-opacity="0"/>
</linearGradient>
<linearGradient id="paint2_linear_1410_17664" x1="54.104" y1="12.5631" x2="30.444" y2="59.6524" gradientUnits="userSpaceOnUse">
<stop stop-color="#BBFFAA"/>
<stop offset="1" stop-color="#EEFF86"/>
</linearGradient>
</defs>
</svg>
