<svg width="32" height="32" viewBox="0 0 32 32" fill="none" xmlns="http://www.w3.org/2000/svg">
<g clip-path="url(#clip0_1070_24046)">
<circle cx="16" cy="16" r="16" fill="#EDF0F4"/>
<path fill-rule="evenodd" clip-rule="evenodd" d="M11.8495 25.8285C13.1647 26.3842 14.5613 26.6666 16.0013 26.6666C17.4417 26.6666 18.8375 26.3842 20.1531 25.824C22.7097 24.7401 24.7449 22.7049 25.8286 20.1482C26.3844 18.833 26.6668 17.4365 26.6668 15.9965C26.6706 11.7085 24.1038 7.8361 20.1531 6.16926C18.8375 5.61353 17.437 5.33332 15.999 5.33332C11.711 5.32954 7.83853 7.8963 6.17168 11.847C5.61595 13.1626 5.3335 14.5585 5.3335 15.9988C5.3335 17.4391 5.61595 18.8354 6.17403 20.1529C7.25784 22.7095 9.29299 24.7446 11.8495 25.8285ZM10.1336 10.1312C11.7011 8.56618 13.7852 7.70218 16.0012 7.70218L16.001 7.7024C18.217 7.7024 20.3006 8.56608 21.8686 10.1314C23.4336 11.699 24.2976 13.783 24.2976 15.999C24.2976 18.215 23.4339 20.2987 21.8686 21.8667C20.301 23.4317 18.217 24.2957 16.001 24.2957C13.785 24.2957 11.7014 23.432 10.1334 21.8667C8.56824 20.2987 7.70456 18.2148 7.70456 15.9988C7.70456 13.7828 8.56557 11.6992 10.1336 10.1312Z" fill="black"/>
<path d="M15.3599 18.6548H19.9817V20.9774H17.1359C17.1822 21.6419 17.2077 22.2574 17.254 22.9201H14.8595V21.0001H12.0136C12.0136 20.2407 11.9187 19.4834 12.0599 18.7725C12.1317 18.3928 12.5577 18.0617 12.8194 17.7305C13.7202 16.6629 14.6209 15.621 15.5448 14.5535C15.9014 14.1506 16.2557 13.7709 16.6587 13.3216H12.2267V10.9996H14.8572V9.05676H17.1565V10.9532H20.0258C20.0258 11.7358 20.1207 12.493 19.9795 13.2062C19.9077 13.5859 19.4817 13.917 19.1969 14.2482C18.2961 15.3157 17.3954 16.3577 16.4715 17.4252C16.1195 17.849 15.7652 18.2264 15.36 18.6547" fill="black"/>
</g>
<defs>
<clipPath id="clip0_1070_24046">
<rect width="32" height="32" fill="white"/>
</clipPath>
</defs>
</svg>
