<svg width="32" height="32" viewBox="0 0 32 32" fill="none" xmlns="http://www.w3.org/2000/svg">
<circle cx="16.1334" cy="15.8666" r="14.2667" fill="white"/>
<path fill-rule="evenodd" clip-rule="evenodd" d="M0 16C0 7.16344 7.16341 0 15.9999 0H16.0929C20.324 0.0123117 24.377 1.70494 27.3601 4.70553C30.3432 7.70611 32.0122 11.7689 31.9999 16C31.9999 24.8366 24.8365 32 15.9999 32C7.16341 32 0 24.8366 0 16ZM14.6053 22.1598L16.2711 16.5424L18.8667 15.8063L19.4091 13.9467L16.8522 14.7216L19.5641 5.50122V5.354C19.56 5.23479 19.5088 5.12208 19.4216 5.04069C19.3344 4.9593 19.2184 4.91592 19.0992 4.9201H15.6513C15.3827 4.91183 15.143 5.0876 15.0702 5.34626L11.8547 16.2712L9.29778 17.046L8.71667 18.8281L11.2736 18.0533L8.98785 25.8402H22.6246C22.8941 25.8514 23.1353 25.6744 23.2057 25.4141L23.9805 22.7409V22.5937C23.9765 22.4745 23.9252 22.3618 23.838 22.2804C23.7508 22.199 23.6348 22.1556 23.5156 22.1598H14.6053Z" fill="#345D9D"/>
</svg>
