<svg width="32" height="32" viewBox="0 0 32 32" fill="none" xmlns="http://www.w3.org/2000/svg">
<circle cx="16" cy="16" r="16" fill="#988430"/>
<circle cx="16.0002" cy="16" r="15.4875" fill="#7A6A2A"/>
<circle cx="16" cy="16" r="15.1612" fill="#BA9F33"/>
<path fill-rule="evenodd" clip-rule="evenodd" d="M6.99557 14.2913C6.90495 14.2085 6.80921 14.1256 6.72114 14.0428C6.63308 13.96 6.54262 13.8771 6.452 13.7943L6.18269 13.5383C6.13866 13.4943 6.09206 13.4555 6.04803 13.4113C6.004 13.3726 5.95229 13.3286 5.90826 13.2896C5.55088 12.9505 5.19146 12.6114 4.83903 12.2721C5.20409 12.6061 5.56146 12.9377 5.92652 13.2767L6.05332 13.4036C6.09736 13.4475 6.14395 13.4864 6.18798 13.5305L6.45712 13.7789C6.54774 13.8617 6.63581 13.9447 6.72643 14.0349C6.81706 14.1252 6.90512 14.2083 6.99574 14.2909L6.99557 14.2913ZM2.25257 14.2401C2.25257 14.2401 3.5522 14.3746 4.18657 14.4652C4.77417 14.5481 6.61242 14.8303 6.61242 14.8303L2.25257 14.2401ZM2.25261 14.2401C2.61767 14.2711 2.98272 14.3099 3.34778 14.3488C3.53415 14.3669 3.71284 14.3875 3.89152 14.4056L4.16579 14.4369C4.25641 14.4497 4.34447 14.4626 4.4351 14.4756L5.52259 14.649L6.06616 14.7396C6.24485 14.7707 6.42354 14.8045 6.6099 14.8355C6.43122 14.8175 6.24485 14.7915 6.06616 14.7656L5.52259 14.6879L4.4351 14.5275C4.34447 14.5145 4.25641 14.4963 4.16579 14.4835L3.89135 14.4519C3.71267 14.4338 3.5263 14.4079 3.34761 14.387C2.98255 14.3432 2.6175 14.2964 2.25244 14.2396L2.25261 14.2401ZM6.48309 15.1689C6.48309 15.1689 5.0954 15.5211 4.62675 15.6558C4.16595 15.7826 2.77041 16.2072 2.77041 16.2072L6.48292 15.169L6.48309 15.1689Z" fill="#CFB66C"/>
<path fill-rule="evenodd" clip-rule="evenodd" d="M6.48286 15.1689C6.17481 15.2595 5.86846 15.3475 5.55597 15.4305L4.62908 15.679C4.32103 15.7696 4.01468 15.8577 3.70748 15.9483L3.24668 16.0751C3.09394 16.1191 2.93863 16.1579 2.78076 16.2021C2.93334 16.1509 3.08882 16.0985 3.24156 16.0544L3.70236 15.907C4.01042 15.8111 4.31676 15.7204 4.62396 15.6247C4.93714 15.5471 5.24536 15.4641 5.55853 15.389C5.85618 15.3139 6.16952 15.239 6.48286 15.169V15.1689ZM2.96458 17.0616C3.11716 17.0045 4.87776 16.184 5.28684 15.9923C5.49164 15.8964 6.08693 15.6851 6.08693 15.6851L2.96458 17.0616Z" fill="#CFB66C"/>
<path fill-rule="evenodd" clip-rule="evenodd" d="M2.96453 17.0615C3.09901 17.0103 3.22599 16.9477 3.35535 16.8882L3.7385 16.7095L4.50752 16.3393C4.76352 16.2176 5.01236 16.0833 5.27638 15.9689C5.41103 15.9121 5.54569 15.8655 5.68017 15.8215L5.88497 15.7568C5.95478 15.7387 6.01963 15.7179 6.08977 15.6998C5.83377 15.8215 5.56429 15.9251 5.30795 16.044C5.05195 16.171 4.79015 16.2746 4.52596 16.3884L3.74413 16.7327C3.48165 16.839 3.22565 16.9528 2.96436 17.0615H2.96453ZM3.13516 17.7783C3.13516 17.7783 4.72987 16.8438 5.27873 16.5434C5.56613 16.383 6.49558 15.922 6.49558 15.922L3.13516 17.7783Z" fill="#CFB66C"/>
<path fill-rule="evenodd" clip-rule="evenodd" d="M3.13525 17.7787C3.4044 17.613 3.67883 17.4447 3.95326 17.2739L4.36286 17.0252C4.50264 16.9424 4.63729 16.8648 4.7798 16.782C4.91957 16.6991 5.05423 16.6163 5.19657 16.5386C5.26433 16.4968 5.33532 16.4604 5.40888 16.4299L5.6263 16.3212C5.91371 16.1814 6.20111 16.0389 6.50404 15.9172C6.22961 16.0908 5.94733 16.2384 5.66522 16.391C5.52544 16.4687 5.38293 16.5386 5.24316 16.6163C5.10338 16.6939 4.96873 16.7769 4.82622 16.852C4.68644 16.9348 4.55179 17.0124 4.40945 17.0875L3.98739 17.3179L3.1356 17.7787H3.13525ZM6.48277 16.1268C6.48277 16.1268 5.4912 16.888 5.17017 17.1314C4.84915 17.3747 3.90417 18.0582 3.90417 18.0582L6.48277 16.1268Z" fill="#CFB66C"/>
<path fill-rule="evenodd" clip-rule="evenodd" d="M12.1734 22.2653L11.666 21.3048L11.9611 20.1035L14.0659 19.2906L13.1701 17.4525L13.6128 15.5962L14.444 13.9339L17.0123 13.5301L18.8996 11.7308L22.9747 12.0388L23.7746 16.3961L22.2342 21.8822L21.3566 24.7224L17.7993 24.8571L16.1476 23.7128L14.2136 22.9048L12.1734 22.2653Z" fill="#E2CC85"/>
<path fill-rule="evenodd" clip-rule="evenodd" d="M18.413 22.2343C18.413 22.2343 17.921 22.4596 17.0818 22.4077C16.839 22.0815 15.1381 21.9288 15.1381 21.9288C15.1381 21.9288 14.9258 21.8641 14.5503 22.0194C14.1725 22.173 13.8151 22.1541 13.4811 22.2368C13.1471 22.3196 12.8155 21.8848 12.5595 21.7941C12.3035 21.6984 11.964 21.468 11.964 21.468L11.2472 21.398L9.80783 20.7896L7.52106 18.5114L6.89967 19.4842L6.70801 20.688L7.39938 22.1146L9.26084 23.8104L12.8906 24.732L15.042 24.0981L17.7372 22.9589L18.413 22.2341V22.2343Z" fill="#F1D789"/>
<path fill-rule="evenodd" clip-rule="evenodd" d="M5.51706 14.1826L5.97786 12.7872L6.5269 11.8861L8.295 11.7385L7.76423 13.2868L6.28609 15.9172L6.89963 18.2654L5.81232 18.809L5.47815 18.2965L5.20901 17.1211L5.19092 15.8007L5.51706 14.1826Z" fill="#F4ECB4"/>
<path fill-rule="evenodd" clip-rule="evenodd" d="M7.5005 22.1385L7.16138 21.6648C7.16138 21.6648 7.07076 21.4395 7.12264 21.2427C7.17384 21.0434 7.1665 21.0304 7.14073 20.9553C7.11496 20.8802 6.89736 20.6213 6.91033 20.3986C6.92313 20.1733 6.89224 20.0982 7.05779 19.9197C7.23118 19.7463 7.17947 19.4459 7.17947 19.4459L7.40475 19.5857L7.45595 19.5081C7.45595 19.5081 7.53872 19.5727 7.53872 19.6738C7.55682 19.534 7.48172 18.8867 7.65256 18.7392C7.8234 18.5917 8.12633 19.4304 8.12633 19.4304L7.93996 18.2136L7.4609 16.9658L6.6091 15.8266L6.5579 14.5708V14.4621C6.5579 14.4621 6.16691 15.0629 6.05819 15.5373C5.98054 15.8635 6.16691 16.2596 6.12816 16.7282C6.09693 17.1943 6.05819 17.158 6.17203 17.3426C6.28586 17.5273 6.56302 17.907 6.45431 18.1815C6.35856 18.4172 6.03225 18.2514 6.03225 18.2514C6.03225 18.2514 5.96757 18.4429 5.8795 18.5129C5.84844 18.3991 5.81482 18.3265 5.7527 18.2569C5.74741 18.3009 5.73461 18.3605 5.73461 18.3605C5.73461 18.3605 5.6776 18.1818 5.6206 17.9565C5.54312 17.6563 5.46018 17.2602 5.38508 17.0479C5.35402 17.1696 5.27637 17.5398 5.27637 17.5398L5.3204 18.1094L5.53271 18.8913L5.73751 19.4033L5.93685 20.0298L6.11007 20.4507L6.24985 20.7717L6.37154 21.4941L6.95914 22.1153L7.27248 22.2553L7.50015 22.1387L7.5005 22.1385Z" fill="#F3E19D"/>
<path fill-rule="evenodd" clip-rule="evenodd" d="M5.82534 13.0434C5.82534 13.0434 5.40328 13.7602 5.28177 14.4828C5.16026 15.2054 5.05137 15.9689 5.12817 16.9527C5.20582 17.9444 5.35345 18.5527 5.47258 18.9877C5.67738 19.7101 6.20781 20.7147 6.20781 20.7147L6.2259 20.6758C6.13674 20.5068 6.06558 20.3289 6.01359 20.145C5.94362 19.8706 5.91767 19.5444 5.85299 19.3968C5.79599 19.2493 5.70024 19.1224 5.65365 18.9411C5.60962 18.7677 5.60245 18.4933 5.46728 18.2888C5.41028 18.2059 5.34031 17.9884 5.31966 17.771C5.29372 17.4447 5.33263 17.0796 5.30157 16.7794C5.24456 16.2797 5.20582 15.9406 5.25754 15.679C5.30925 15.4174 5.57873 14.6746 5.74445 14.0843C5.85316 13.7062 5.78831 13.3878 5.98765 13.0589C6.18699 12.7328 6.30884 12.4454 6.3527 12.246C6.4039 12.0648 5.82466 13.0434 5.82466 13.0434H5.82534Z" fill="#F2E8B0"/>
<path fill-rule="evenodd" clip-rule="evenodd" d="M7.82678 12.756C7.82678 12.756 7.60935 12.8208 7.50576 12.9347C7.40216 13.0434 7.35813 13.134 7.21835 13.3178C7.07858 13.5016 7.07073 13.6518 6.95672 13.8822C6.84289 14.1075 6.59167 14.4466 6.56061 14.5683C6.52954 14.69 6.47783 15.2595 6.41315 15.5288C6.35615 15.7981 6.47783 16.1295 6.47783 16.1295L6.62529 16.0983C6.62529 16.0983 6.62529 16.29 6.77291 16.4195C6.92037 16.5463 6.94631 15.9896 6.94631 15.9896L7.49774 14.1281L8.32871 13.5637L8.41934 13.1081L7.82644 12.756H7.82678Z" fill="#F5EEC0"/>
<path fill-rule="evenodd" clip-rule="evenodd" d="M8.23037 13.6001C8.23037 13.6001 7.83937 13.6258 7.64788 13.7658C7.57023 13.8226 7.53917 13.8692 7.4564 13.9392C7.30365 14.066 7.14817 14.1826 7.07325 14.3488C6.9903 14.5143 6.89968 14.7656 6.83756 15.2393C6.81162 15.4387 6.81162 15.6225 6.79353 15.7831C6.76758 16.0005 6.72884 16.1739 6.74949 16.2951C6.77544 16.5436 7.03178 16.6731 7.05669 16.9552L7.58747 16.6861L8.08718 14.7157L9.14873 14.0501L8.54798 13.377L8.22969 13.5989L8.23037 13.6001Z" fill="#E6DB9D"/>
<path fill-rule="evenodd" clip-rule="evenodd" d="M5.43035 26.8679C5.43257 26.8484 5.43478 26.829 5.437 26.809C5.51449 26.1434 5.52763 25.6389 5.58446 25.323C5.66723 24.8752 5.72423 24.7086 5.71126 24.541C5.69317 24.2719 5.67252 24.0751 5.69846 23.8679C5.73721 23.5935 6.00652 23.2673 5.99884 23.042C5.99355 22.8633 5.90292 22.747 5.82527 22.6382C5.74762 22.5295 5.68549 22.4389 5.68549 22.4389C5.68549 22.4389 6.21627 22.0738 6.21115 20.6032C6.22199 20.6063 6.23242 20.6106 6.24221 20.6162L6.50367 21.3591L6.68236 21.5765L7.36844 22.8555L8.2513 23.7126L9.55604 24.5902L10.3742 25.4805L10.457 27.8547L9.38777 29.2424L9.21266 29.5595C7.82151 28.8611 6.54582 27.9532 5.43018 26.8677L5.43035 26.8679Z" fill="#E5CB7A"/>
<path fill-rule="evenodd" clip-rule="evenodd" d="M8.69629 29.1391C8.69629 29.1391 8.71438 28.844 8.95775 28.6524C8.99666 28.7171 9.02243 28.7794 9.01475 28.8258C9.05879 28.7483 9.36684 28.2512 10.0633 28.1216C10.7598 27.9948 10.9281 27.4874 10.9281 27.4874L12.4062 26.1438L14.0969 24.5878L16.1525 23.8654L17.1132 23.6297C17.1132 23.6297 17.1313 23.6996 17.0951 23.8549C17.2737 23.8421 17.6698 23.7515 18.0814 23.6065C18.2471 23.5418 18.4026 23.5158 18.4854 23.6013C18.6071 23.7152 18.6252 23.9845 18.6328 24.1449C18.8322 24.1009 19.0626 23.9094 19.2472 23.9275C19.5425 23.9585 19.804 24.3055 20.1043 24.3055C20.5004 24.3055 20.679 24.0621 20.9561 23.8705C21.1218 23.7566 21.3599 23.6145 21.4946 23.5184C21.8156 23.2827 25.2124 22.2445 25.2124 22.2445L26.4033 22.3222L26.595 23.6012L26.4926 26.9445C26.4799 26.9566 26.4673 26.9693 26.4545 26.9814L21.0396 29.8095L13.5337 30.9601C11.8523 30.6854 10.2298 30.1273 8.7352 29.3096L8.6968 29.139L8.69629 29.1391Z" fill="#D8C173"/>
<path fill-rule="evenodd" clip-rule="evenodd" d="M5.88525 27.2932C5.99192 27.0701 6.08784 26.8836 6.10473 26.8169C6.11804 26.9513 6.14245 27.2464 6.1916 27.5601C6.0884 27.4724 5.98629 27.3834 5.88525 27.293V27.2932Z" fill="#F1D789"/>
<path fill-rule="evenodd" clip-rule="evenodd" d="M11.3684 30.4396L12.3391 30.1696L12.4219 30.1955C12.4219 30.1955 12.4659 30.2215 12.4659 30.3094C12.5876 30.2396 12.6912 30.2524 12.7663 30.206C12.8051 30.2887 12.8438 30.5632 13.0148 30.5968C13.1933 30.6357 13.385 30.5191 13.5792 30.3717C13.7707 30.2189 13.9888 30.0273 14.1538 29.9496C14.2144 30.061 14.268 30.1759 14.3144 30.2938C14.5319 30.1205 14.9099 29.4163 15.4483 29.4291C15.604 29.0613 15.864 28.7472 16.1962 28.5256C16.6959 28.1865 17.0091 28.1605 17.4001 28.1916C17.5554 27.9898 17.7467 27.8187 17.9645 27.6867C18.0292 27.7127 18.2078 27.8214 18.4306 27.7178C18.6558 27.6144 18.9095 27.213 19.2435 27.1613C19.4234 27.1365 19.6064 27.1749 19.7613 27.27C19.7613 27.27 20.7341 26.3042 21.4053 25.9832C21.3793 25.9055 21.3276 25.613 22.1146 24.9656C22.1586 25.0045 22.1276 25.1133 22.1586 25.1192C22.1714 25.1192 22.3634 25.0365 22.6064 24.8499C22.9068 24.6248 23.2666 24.3891 23.484 24.3244C23.8936 24.2028 24.3281 24.4512 24.3281 24.4512C24.3651 24.4253 24.4063 24.406 24.4498 24.3942C24.5532 24.3762 24.6283 24.3632 24.6853 24.343C24.6802 24.4777 24.7553 24.7081 24.6853 24.9074C24.7664 24.953 24.8522 24.9895 24.9413 25.0162C24.8975 25.1119 24.8016 25.3553 24.6411 25.4718C24.7756 25.5365 24.7937 25.6116 24.9854 25.6766C24.9077 25.7853 24.7806 25.9719 24.7239 26.0862C24.6669 26.2079 24.4623 26.7128 24.3716 26.9042C24.2759 27.0959 24.1465 27.448 24.0842 27.5186C24.022 27.5893 23.7968 27.8888 23.6234 28.0363C23.777 27.9793 24.4054 27.7878 24.672 27.7152C24.5927 27.8316 24.1904 28.4285 23.8037 29.0024C20.0578 31.2476 15.5269 31.7721 11.3672 30.4422L11.3684 30.4396Z" fill="#E0CD81"/>
<path fill-rule="evenodd" clip-rule="evenodd" d="M8.29448 13.5301C8.29448 13.5301 8.06937 13.5301 8.02534 13.5612C7.98131 13.5922 8.25062 13.6571 8.33339 13.6881C8.41616 13.7192 8.59485 13.8615 8.64144 13.9755C8.68548 14.0843 10.2595 14.7185 10.2595 14.7185L11.3728 14.6615L11.7566 14.1312L11.0265 13.4917L11.5385 11.9823L10.8603 12.091L9.22922 13.0638L8.41104 13.3772L8.29448 13.5301Z" fill="#DFC57C"/>
<path fill-rule="evenodd" clip-rule="evenodd" d="M10.7393 14.0298C10.772 14.0828 10.8305 14.1144 10.8929 14.1126C11.1233 14.1126 11.3354 14.1696 11.4235 14.286C11.5711 14.4725 11.9802 15.068 11.9802 15.068L12.9588 15.4201L13.0219 14.2677L11.9527 13.5248L10.7358 13.9726V14.0296H10.7386L10.7393 14.0298Z" fill="#E5CC7C"/>
<path fill-rule="evenodd" clip-rule="evenodd" d="M10.5471 14.457C10.5471 14.457 10.7257 14.47 10.9509 14.387C11.1762 14.3041 11.5464 14.1256 11.707 14.1955C11.9321 14.2913 11.8855 14.5917 12.1291 14.8611C12.2765 15.0269 12.5458 15.0217 12.6986 15.2004C12.8513 15.3791 13.3768 15.2962 13.3768 15.2962L13.5761 16.3714L12.7762 17.3967L12.5146 18.6704H11.4329L10.4447 18.2784L9.95801 17.1008L10.2014 15.9099L10.5471 14.457Z" fill="#D2C281"/>
<path fill-rule="evenodd" clip-rule="evenodd" d="M12.6397 14.5087C12.6665 14.517 12.6944 14.5214 12.7224 14.5217C12.6914 14.5476 12.6265 14.6045 12.6525 14.7521C12.6784 14.8997 12.7612 15.0861 12.6914 15.1999C12.7471 15.2609 12.7886 15.3334 12.8131 15.4122C12.8571 15.5392 12.8701 15.6556 13.1573 15.6739C13.1158 15.6994 13.0776 15.7298 13.0435 15.7645C13.0435 15.7645 13.2428 15.9379 13.3438 16.0983C13.4473 16.0939 13.7217 16.0085 13.7217 16.0085L13.7787 16.0475L13.9004 15.9963C13.9004 15.9963 13.7865 15.9522 13.8693 15.6752C13.947 15.4319 14.0169 15.4448 14.0229 15.4267C14.0289 15.4087 14.0799 15.1523 14.0799 15.0487C14.1187 14.9142 14.1497 14.5051 14.1497 14.5051L14.0669 13.6016L13.601 13.3194L13.2221 12.9536L12.8648 13.6267L12.6294 13.8614L12.6113 14.4439L12.6397 14.5087Z" fill="#E2C270"/>
<path fill-rule="evenodd" clip-rule="evenodd" d="M13.7607 13.7528C13.7607 13.7528 13.8435 13.9884 13.8747 14.1696C13.8858 14.1344 13.8918 14.0978 13.8928 14.0609C13.8928 14.0609 13.9575 14.4183 13.9703 14.5659C13.9963 14.5606 14.0215 14.5529 14.0273 14.5787C14.0331 14.6045 14.0922 14.892 14.0785 15.0525C14.1863 14.8746 14.3355 14.7254 14.5134 14.6176C14.617 14.5528 14.7387 14.483 14.8656 14.4777C15.065 14.4725 15.2099 14.6046 15.4481 14.6046C16.0228 14.6046 16.5433 14.1826 16.9264 14.0532C17.2086 13.9573 17.4519 13.8875 17.6228 13.732C17.7057 13.6622 17.8533 13.5069 17.9878 13.2763C18.1665 12.9691 18.3529 12.7017 18.5394 12.6681C18.455 12.6836 18.3691 12.6897 18.2834 12.6862C18.2834 12.6862 18.3404 12.6292 18.437 12.5515C18.5336 12.4739 18.6493 12.3781 18.8149 12.3781C19.1101 12.3781 19.2576 12.422 19.4233 12.422C19.589 12.4169 19.6848 12.3781 19.6848 12.3781C19.6848 12.3781 19.8583 12.4998 20.2491 12.4998C20.6401 12.5049 20.9016 12.5385 21.1062 12.5568C21.3109 12.5751 21.9968 12.4998 22.1936 12.5056C22.3218 12.5106 22.4478 12.5414 22.5639 12.5962L21.9295 10.753L19.6508 8.76135L18.2942 9.72186L16.2072 11.8086L14.1879 12.5568L13.7659 13.0306V13.7528H13.7607Z" fill="#CCB360"/>
<path fill-rule="evenodd" clip-rule="evenodd" d="M18.2913 12.6964C18.2913 12.6964 18.3483 12.6396 18.4439 12.5619C18.5395 12.4843 18.6564 12.3883 18.8219 12.3883C19.117 12.3883 19.2647 12.4324 19.4304 12.4324C19.5961 12.4272 19.6918 12.3883 19.6918 12.3883C19.6918 12.3883 19.8656 12.5099 20.2562 12.5099C20.6472 12.515 20.9087 12.5486 21.1133 12.5667C21.3179 12.5848 22.0039 12.5099 22.2006 12.5155C22.3289 12.5203 22.4548 12.5511 22.5708 12.6061L22.2834 11.775L21.9496 11.1408L20.9968 10.0973C20.9968 10.0973 19.8533 9.4242 19.8446 9.41908C19.8395 9.41396 19.4485 9.31036 19.4485 9.31036L18.4129 9.93688L17.4732 12.368L17.4551 12.88L18.0633 13.1674C18.2161 12.9114 18.3845 12.7066 18.5424 12.6807C18.3999 12.6962 18.2912 12.6962 18.2912 12.6962L18.2913 12.6964Z" fill="#D5B457"/>
<path fill-rule="evenodd" clip-rule="evenodd" d="M18.2781 12.87C18.1875 12.8751 18.1126 12.857 18.0918 12.7923C18.0141 12.5749 17.952 12.5438 17.887 12.5438C17.8219 12.5438 17.7342 12.6836 17.6822 12.6964C17.6301 12.7092 17.5683 12.536 17.5683 12.536L17.5113 12.51C17.5113 12.51 17.1773 12.7275 16.9418 12.9838C16.7063 13.2402 16.3204 13.6752 16.147 13.7527C15.9736 13.8301 15.378 13.8563 15.1742 13.9003C14.9704 13.9443 14.7445 14.0919 14.7134 14.1256C14.6824 14.1592 14.8042 14.1954 14.8223 14.229C14.8404 14.2601 14.6228 14.2471 14.6047 14.2802C14.5919 14.3061 14.6559 14.4536 14.6876 14.5287C14.7432 14.5011 14.8041 14.486 14.8662 14.4847C15.0655 14.4795 15.2106 14.6116 15.4486 14.6116C16.0234 14.6116 16.5438 14.1896 16.927 14.06C17.2092 13.9643 17.4526 13.8943 17.6234 13.739C17.7062 13.6692 17.8538 13.5137 17.9885 13.2833C18.0868 13.1255 18.1827 12.9778 18.2786 12.8691L18.2781 12.87Z" fill="#D2B257"/>
<path fill-rule="evenodd" clip-rule="evenodd" d="M10.0352 25.6829C10.0352 25.6829 9.984 25.4913 9.50955 24.9969C9.3749 24.8571 9.29212 24.7409 9.2015 24.6577C8.97622 24.4453 8.84412 24.3884 8.6837 24.2668C8.33161 24.0053 7.94846 24.0053 7.65338 23.6843C7.3583 23.3632 7.0144 22.7499 6.77547 22.123C6.53995 21.4965 6.4751 21.2972 6.4751 21.2791C6.4751 21.261 6.53995 21.1393 6.62272 21.1574C6.7055 21.1755 6.7055 21.3359 6.72632 21.3748C6.76756 21.4383 6.81433 21.4981 6.8661 21.5533C6.98778 21.6933 7.16118 21.8605 7.24924 22.11C7.23115 21.8977 7.15862 21.6622 7.15862 21.6622C7.15862 21.6622 7.6143 21.9496 8.00256 22.2498C8.39356 22.5502 8.55399 22.6538 8.66816 22.8453C8.78234 23.0368 9.05131 23.5418 9.18016 23.6894C9.30902 23.837 11.0746 24.3936 11.0746 24.3936L11.9144 25.0197L12.3314 25.9337L12.005 26.4457L11.3785 26.5803L10.361 26.1246L10.0352 25.6828V25.6829Z" fill="#D2B159"/>
<path fill-rule="evenodd" clip-rule="evenodd" d="M7.7749 22.5346C7.7749 22.5346 7.98721 22.8738 8.50501 23.1948C8.97111 23.4771 9.7089 23.7334 10.3666 23.8861C10.7445 23.9768 11.1225 24.0466 11.4616 24.0519C12.3756 24.0647 13.0046 23.8034 13.7841 23.7179C14.2061 23.6738 14.7239 23.6402 15.2624 23.5131C15.9536 23.3474 16.3627 23.1608 16.9194 22.8987C17.3232 22.7123 17.6935 22.5725 17.9937 22.3938C18.4158 22.1453 18.7239 21.8684 19.0812 21.7856C19.0372 21.9073 18.9906 22.1247 18.6385 22.35C18.8249 22.3447 19.0812 22.3319 19.0812 22.3319C19.0812 22.3319 18.8327 22.4793 18.3951 22.8108C18.1258 23.0156 17.7686 23.3622 17.4036 23.5926C17.1679 23.7402 16.9115 23.8486 16.7433 23.937C16.3337 24.1623 16.1685 24.2761 15.8993 24.5514C15.9951 24.5463 16.0029 24.5514 16.0029 24.5514C16.0029 24.5514 15.6636 24.5954 15.4204 24.7248C15.3692 24.7248 15.2805 24.7067 15.1252 24.7507C15.0035 24.7895 14.8429 24.8777 14.6773 24.9241C14.4417 24.9941 14.3642 24.9631 14.3642 24.9631L14.4029 25.0407C14.4029 25.0407 14.0957 25.0354 13.9933 25.0458C14.0114 25.0509 14.0063 25.0588 14.0063 25.0588C13.9883 25.0618 13.971 25.0679 13.9551 25.0769C13.9058 25.1088 13.8516 25.1324 13.7947 25.1467C13.7636 25.1518 13.7377 25.1518 13.6987 25.1597C13.7117 25.1907 13.8127 25.3645 13.8593 25.4669C13.8206 25.4928 13.2379 25.933 13.2379 25.933C13.256 25.9614 13.2708 25.9918 13.282 26.0236C13.3001 26.0804 13.3079 26.1634 13.326 26.2021C13.3699 26.2797 13.3958 26.2927 13.3958 26.2927C13.3958 26.2927 13.326 26.3057 13.2042 26.3368C13.1007 26.3627 12.9738 26.4066 12.7946 26.4325C12.7396 26.4396 12.6843 26.444 12.6288 26.4455C12.6548 26.5025 12.7686 26.7199 12.5589 26.9709C12.3491 27.222 12.2844 27.2585 12.2197 27.4189C12.1872 27.3943 12.1525 27.3726 12.1162 27.3541C12.0463 27.323 11.9504 27.2766 11.9168 27.2143C11.8972 27.2973 11.8713 27.3787 11.8392 27.4577C11.7745 27.6311 11.6787 27.8021 11.6606 27.9315C11.5907 27.8538 11.4613 27.7011 11.2826 27.7321C11.1039 27.7632 10.9616 28.0066 10.9305 28.0765C10.9305 28.0325 10.8995 27.9989 10.8918 28.0506C10.8865 28.1076 10.7882 28.7029 10.2393 29.1845C10.2342 29.0628 10.2342 28.7935 10.2212 28.7056C10.17 28.7568 10.1074 28.8324 9.7345 28.993C9.36944 29.1534 9.4273 29.314 9.4273 29.314C9.4273 29.314 9.39624 29.058 9.59301 28.7884C9.79235 28.5192 9.91404 28.3923 9.91404 28.3716C9.91082 28.3506 9.90184 28.3308 9.8881 28.3146C9.86216 28.2887 9.81044 28.2576 9.81044 28.237C9.84151 28.2242 10.1496 28.0765 10.1315 27.7709C10.1134 27.4966 9.99698 27.3541 9.91404 27.2532C9.90124 27.2403 10.0359 27.1445 10.0176 27.1135C10.0047 27.0954 9.83912 26.9735 9.81829 26.9087C9.82319 26.87 9.83188 26.8318 9.84424 26.7948C9.86233 26.7378 9.8753 26.6989 9.87018 26.6602C9.85721 26.5955 9.78723 26.4168 9.76658 26.3987C9.78467 26.4038 9.91404 26.3987 9.91404 26.3987C9.91404 26.3987 9.81061 26.233 9.79235 26.1553C9.77409 26.0777 9.73535 25.8731 9.7147 25.8343C9.75873 25.8394 9.86745 25.8471 9.86745 25.8343C9.87274 25.7954 9.7717 25.7307 9.81625 25.6807C9.84731 25.6858 9.90687 25.7118 9.9637 25.7843C9.93264 25.7014 9.88093 25.5409 9.77204 25.4763C9.82324 25.4582 9.99732 25.4114 10.1501 25.502C10.3028 25.5926 10.3549 25.7195 10.3549 25.7195C10.3549 25.7195 10.4455 25.7894 10.5854 25.893C10.7459 26.0198 10.9503 26.2002 11.2766 26.3279C11.3466 26.3668 11.5251 26.3668 11.6547 26.3408C11.7111 26.3274 11.7651 26.3056 11.8151 26.2762C11.8331 26.2655 11.8522 26.2568 11.8721 26.2502C11.8443 26.1944 11.8123 26.1407 11.7764 26.0896C11.8204 26.0896 11.8721 26.0949 11.8721 26.0949C11.8721 26.0949 11.9032 26.0249 11.7634 25.8901C11.7944 25.8591 11.8334 25.8389 11.8334 25.7865C11.7893 25.7814 11.7117 25.7167 11.6936 25.6908C11.7194 25.6727 11.7583 25.6131 11.8023 25.595C11.7634 25.564 11.6676 25.4344 11.6236 25.4216C11.6657 25.406 11.7064 25.387 11.7453 25.3646C11.7453 25.3646 11.5279 25.3076 11.4579 25.261C11.3879 25.2098 11.2845 25.1213 11.2224 25.0953C11.1575 25.0694 11.0437 25.0566 10.9971 25.0047C11.041 25.0177 11.1109 25.0047 11.1628 25.0047C11.2015 25.0047 11.2198 25.0098 11.2326 25.0098C11.2275 24.9917 11.2275 24.9528 11.3285 24.94C11.3771 24.9327 11.4243 24.9178 11.4683 24.896C11.4683 24.896 11.3724 24.8909 11.2635 24.7873C11.1546 24.6837 11.0642 24.6009 11.002 24.5879C10.9374 24.575 10.8157 24.632 10.7406 24.6267C10.637 24.6139 10.593 24.562 10.593 24.562C10.593 24.562 10.2487 24.5931 9.48498 24.1271C8.82467 23.7232 8.53727 23.366 8.53727 23.366C8.47548 23.3435 8.41575 23.3158 8.35875 23.283C8.11026 23.1536 7.76586 22.8843 7.77627 22.5321L7.7749 22.5346Z" fill="#C2A44D"/>
<path fill-rule="evenodd" clip-rule="evenodd" d="M17.2995 6.99545C17.3594 7.01491 17.4126 7.0508 17.4531 7.09905C17.5748 7.23882 17.6524 7.50284 17.3754 7.78513C17.4842 7.82387 17.529 7.83633 17.6239 7.82387C17.5282 7.93787 17.3108 8.18124 17.2978 8.39355C17.2848 8.56695 17.3935 8.61883 17.3935 8.61883C17.3935 8.61883 17.2278 8.81032 17.2201 9.13083C17.2984 9.04258 17.384 8.96116 17.4761 8.88746C17.6678 8.73471 17.9318 8.56132 18.1105 8.4526C18.1081 8.49817 18.1142 8.54378 18.1286 8.58709C18.1286 8.58709 18.4624 8.31266 18.743 8.43451C18.8698 8.49151 18.8128 8.67003 18.8128 8.67003C18.8128 8.67003 18.9864 8.60535 19.108 8.72703C19.2297 8.84872 19.4018 9.16258 19.49 9.28426C19.5287 9.34126 19.6298 9.44998 19.7332 9.61826C19.8745 9.85385 19.9925 10.1027 20.0855 10.3612C20.0906 10.2265 20.1242 10.0169 20.5075 10.1489C20.8907 10.2835 21.3255 10.5658 21.6906 11.1217C22.0556 11.6775 22.1461 12.3051 22.3299 12.544C22.5163 12.7744 22.7079 13.1575 22.7209 13.3181C22.7339 13.4787 22.6639 13.9964 23.047 15.397C23.1557 14.9622 23.3215 13.9964 23.3215 13.9964L23.4121 13.1446L23.5157 10.509L20.7635 8.22254L18.6121 6.66129L17.2114 6.79594L17.2993 6.99528L17.2995 6.99545Z" fill="#CAA13E"/>
<path fill-rule="evenodd" clip-rule="evenodd" d="M22.4132 10.9177C22.4132 10.9177 22.3743 10.6617 21.7271 10.2265C21.0798 9.79677 20.575 9.79677 20.109 9.43171C19.7517 9.14431 19.3789 8.484 19.1362 8.26657C18.9006 8.0517 18.8618 7.4303 18.8618 7.4303L19.6566 6.7647L20.8386 5.05616L21.8379 3.95587L22.3168 4.62147L22.9824 5.4033L23.3526 6.97223L23.4872 9.26873L22.412 10.9179L22.4132 10.9177Z" fill="#B59544"/>
<path fill-rule="evenodd" clip-rule="evenodd" d="M23.2132 13.6704C23.2328 13.3221 23.1898 12.9732 23.0862 12.6401C22.9156 12.1093 22.5427 11.1669 22.3694 10.8139C22.2995 10.4229 22.3513 10.3919 22.4264 10.3479C22.5015 10.3038 22.7838 10.1431 22.9384 9.579C23.0931 9.01494 23.5728 8.99651 23.5728 8.99651L23.8679 8.77908L24.3159 9.90002L24.7067 10.9124L24.8284 11.6866L24.919 12.3467L24.7067 13.7422L23.6583 14.6898L23.213 13.6704H23.2132Z" fill="#C89D3A"/>
<path fill-rule="evenodd" clip-rule="evenodd" d="M8.58252 29.2248V29.1961C8.60431 29.1825 8.62354 29.1652 8.63935 29.1449C8.65744 29.119 8.67058 29.0879 8.68338 29.0802C8.70932 29.0673 8.83101 29.029 8.89569 29.0413C8.96038 29.0536 9.13138 29.1241 9.22201 29.119C9.40838 29.1139 9.6258 28.9714 9.97021 29.0362C10.488 29.1319 10.6097 29.484 10.9101 29.6834C11.1149 29.8233 11.3268 29.761 11.3579 29.761H11.4277C11.4407 29.761 11.5364 29.6523 11.5883 29.6576C11.6919 29.6627 11.7021 29.7482 11.7668 29.7533C11.9196 29.7714 12.2148 29.6757 12.3624 29.7146C12.4513 29.7424 12.5209 29.812 12.5488 29.9008C12.5799 29.9965 12.5539 30.1182 12.4788 30.1882C12.3184 30.3357 12.1657 30.4756 12.1346 30.5978C12.1741 30.6279 12.212 30.6601 12.2483 30.6941C10.9673 30.3677 9.73479 29.8742 8.58252 29.2263V29.2248Z" fill="#CEB052"/>
<path fill-rule="evenodd" clip-rule="evenodd" d="M22.3687 24.0519C22.3687 24.0519 22.7724 23.5134 22.9124 23.2467C23.0522 22.9717 22.4697 19.4901 22.4697 19.4901L23.6399 15.6559L23.6087 14.408C23.6087 14.408 23.6657 13.2559 23.8004 12.7561C23.961 13.0435 24.4607 13.3905 24.5694 13.5743C24.6206 13.2221 24.7945 12.4792 24.7687 11.6869C24.8645 11.8344 25.0949 13.318 25.0949 13.318L25.3253 14.3172L25.6257 15.3788L25.9596 16.4999L26.159 17.274L26.2728 17.4604L26.3687 17.7865L26.4594 18.1388L26.7208 18.9647L26.8744 19.6429L26.9961 20.8727C27.0226 20.9669 27.0416 21.063 27.0531 21.1601C27.0582 21.2948 27.035 21.3724 27.035 21.3958C27.035 21.4192 27.0791 21.6909 27.061 21.8955C27.035 22.1003 27.035 22.2606 26.8744 22.4075C26.7138 22.5545 26.613 23.4327 26.613 23.4327L26.3256 23.2412C26.3256 23.2412 26.3826 22.9796 26.2479 22.7415C26.1133 22.5034 25.8518 22.4541 25.7042 22.493C25.5567 22.5241 25.2616 22.5705 25.1657 22.6534C25.0751 22.7362 24.8525 22.9926 24.6479 23.1091C24.3919 23.2627 23.9748 23.2748 23.7522 23.3266C23.527 23.3778 23.2785 23.5314 23.0168 23.7097C22.8117 23.8425 22.5951 23.9567 22.3697 24.051L22.3687 24.0519Z" fill="#CCA847"/>
<path fill-rule="evenodd" clip-rule="evenodd" d="M22.3687 29.7088C22.3687 29.7088 22.3857 29.7199 22.4187 29.738C24.258 28.8762 25.9061 27.6547 27.2656 26.1455C27.2507 25.6215 27.2315 25.0844 27.2103 24.8854C27.1664 24.4634 27.1975 24.0336 27.1845 23.7851C27.1716 23.5366 27.0318 22.5243 26.9671 22.2628C26.8971 22.0013 26.7623 21.8718 26.7418 21.8718C26.7237 21.8771 26.6148 22.3638 26.6148 22.4862C26.6148 22.6086 26.5889 22.9031 26.5889 22.9782C26.5708 22.9729 26.5631 22.927 26.5631 22.9083C26.5372 22.9729 26.5061 23.0869 26.4932 23.0999C26.4802 23.1129 26.5112 22.9912 26.4932 22.9653C26.4751 22.9393 26.442 22.9523 26.4491 22.8876C26.4522 22.8492 26.4582 22.8112 26.4672 22.7738C26.4672 22.7738 26.3896 22.8876 26.3327 23.1776C26.2757 23.465 26.2757 23.4728 26.2551 23.4986C26.237 23.5298 26.1334 23.6332 26.1281 23.6722C26.123 23.742 26.224 23.8119 26.2317 23.8507C26.2368 23.9155 26.1411 24.2157 26.11 24.3627C26.0789 24.5096 26.0919 24.7975 26.0588 24.9452C26.0329 25.0798 26.0076 25.1575 25.919 25.2143C25.9837 25.2273 26.0458 25.2454 26.0458 25.2454C26.0458 25.2454 26.1365 25.6285 25.9061 25.9548C25.8233 26.0687 25.8026 26.1205 25.7146 26.2241C25.541 26.4156 25.4063 26.6337 25.3934 26.7756C25.3844 26.7337 25.3784 26.6913 25.3753 26.6486C25.3753 26.6486 25.1061 26.9619 24.9921 27.1406C24.8447 27.371 24.6401 27.358 24.5825 27.415C24.525 27.4721 24.5126 27.5755 24.5313 27.6584C24.4801 27.6712 24.3839 27.6895 24.319 27.8888C24.288 27.9922 24.2103 28.0936 24.0886 28.1633C23.9669 28.2329 23.8193 28.2539 23.7442 28.272C23.8089 28.2901 23.8348 28.2901 23.8659 28.3107C23.8272 28.3754 23.6485 28.4764 23.4491 28.606C23.2498 28.7276 23.1539 28.9062 23.1047 29.0227C23.0535 29.1314 22.9779 29.2014 22.8562 29.2144C22.9074 29.2454 22.9832 29.3178 23.022 29.3412C22.965 29.3542 22.8684 29.3542 22.6958 29.5018C22.5146 29.652 22.4524 29.696 22.3695 29.709L22.3687 29.7088Z" fill="#C39D3C"/>
<path fill-rule="evenodd" clip-rule="evenodd" d="M18.7665 30.9086C18.8656 30.8391 18.973 30.7822 19.0861 30.7391C19.4899 30.5787 19.9171 30.5476 20.0854 30.4959C20.246 30.4447 20.3728 30.3741 20.5721 30.3353C20.5668 30.3807 20.5624 30.4234 20.5576 30.4637C19.9699 30.6484 19.3715 30.797 18.7656 30.9086H18.7665Z" fill="#D2BA6B"/>
<path fill-rule="evenodd" clip-rule="evenodd" d="M26.2145 20.2875C26.2145 20.2875 26.1318 20.7353 25.9841 21.0176C25.8365 21.2999 25.6769 21.6907 25.6769 21.6907C25.6779 21.6026 25.6883 21.5149 25.708 21.4291C25.5216 21.5378 25.0685 21.7994 24.94 21.9158C24.8183 22.0245 24.6137 22.2162 24.562 22.3068C24.6837 21.9496 24.8105 21.6286 24.8313 21.481C24.6449 21.6156 23.7749 22.3328 23.3219 22.8065L21.9108 23.9483C21.748 24.0361 21.5803 24.1146 21.4086 24.1835C21.1654 24.2869 20.878 24.375 20.6657 24.4579C20.7227 24.3051 20.8131 24.1703 20.9401 24.041C21.0747 23.9142 21.4785 23.4766 21.5407 23.273C21.5977 23.0606 21.6106 22.9338 21.5355 22.7552C21.4656 22.7732 21.3051 22.7811 21.1964 22.8122C21.0877 22.8432 20.9712 22.9596 20.9712 22.9596C20.9712 22.9596 21.0539 22.4858 21.2326 22.038C21.098 22.0431 20.8676 22.0819 20.8676 22.0819C20.8676 22.0819 21.1886 21.5434 21.738 21.1681C21.5697 21.2039 21.4051 21.255 21.2461 21.3207C20.9251 21.4554 20.573 21.6547 20.3115 21.7634C20.459 21.5586 21.4946 20.0806 22.1109 18.7032C22.7253 17.3285 22.9548 16.9764 23.0895 16.2386C23.1593 15.8735 23.1407 15.3341 23.1593 14.8509C23.1774 14.3718 23.2369 13.9421 23.1982 13.6547C23.3586 13.854 23.9594 14.4159 23.98 15.6716C23.9981 16.9272 23.4054 18.6231 22.7761 19.5369C22.9297 19.5809 23.3277 19.6328 23.7366 18.9225C24.1456 18.2122 24.1406 18.0139 24.2882 17.7186C24.3063 17.8662 24.301 17.9179 24.301 17.9179C24.301 17.9179 24.8967 17.1957 25.1788 16.2869C25.2358 16.6779 25.404 17.0223 25.1399 17.7394C24.9043 18.3866 24.5963 18.5446 24.5963 18.5446C24.5963 18.5446 24.749 18.5187 24.9741 18.384C25.013 18.4798 25.0054 18.5888 25.0701 18.6274C25.1347 18.666 25.2228 18.731 25.2358 18.7931C25.3056 18.6895 25.4143 18.5574 25.4481 18.4591C25.4221 18.6639 25.404 19.5594 25.4993 20.0151C25.6988 19.997 25.9032 19.984 26.043 19.6241C25.9473 19.9764 25.9473 20.1885 26.012 20.4889C26.1181 20.4165 26.2139 20.287 26.2139 20.287L26.2145 20.2875Z" fill="#C0993A"/>
<path fill-rule="evenodd" clip-rule="evenodd" d="M19.4874 6.01684C19.4874 6.01684 19.288 6.09961 18.9489 6.09961C18.6538 6.09961 18.7366 5.98578 18.2758 5.98578C17.5665 5.98578 15.0888 6.39538 14.6538 6.38958C14.3715 6.38446 15.6064 6.51126 15.6064 6.51126L18.7626 6.55529L19.3968 6.50409L19.6324 6.02452L19.4874 6.01684Z" fill="#A88F33"/>
<path fill-rule="evenodd" clip-rule="evenodd" d="M11.3034 12.1865C11.3034 12.1865 10.8995 12.4945 10.7286 12.7302C10.5578 12.9659 10.4672 13.121 10.2729 13.3127C10.3185 13.3144 10.3641 13.3083 10.4076 13.2946C10.4076 13.2946 10.4076 13.3458 10.3765 13.3593C10.4309 13.3532 10.4851 13.372 10.524 13.4105C10.467 13.4415 10.3117 13.597 10.4334 13.7808C10.524 13.9206 10.7157 13.9334 10.7157 13.9334C10.7157 13.9334 10.6716 14.0604 10.8554 14.0474C11.2516 14.0293 11.6943 13.8557 11.8987 13.8998C12.1035 13.951 12.2199 13.9697 12.3648 14.221C12.5184 14.4695 12.6522 14.5084 12.6522 14.5084C12.6522 14.5084 12.7428 14.2778 12.7222 13.9336C12.7965 13.748 12.8377 13.5509 12.8439 13.3511L12.7092 12.3595L12.1216 11.6164L11.3604 12.0385L11.3034 12.1859V12.1865Z" fill="#E3C571"/>
<path fill-rule="evenodd" clip-rule="evenodd" d="M12.0259 12.0388C12.0259 12.0388 12.0829 12.1735 12.3211 12.1863C12.2952 12.2433 12.2952 12.2511 12.303 12.295C12.3082 12.339 12.3158 12.4037 12.3158 12.4037C12.3421 12.391 12.3658 12.3737 12.3858 12.3525C12.3988 12.4095 12.3728 12.5 12.3858 12.5648C12.3938 12.6043 12.4068 12.6425 12.4246 12.6787C12.4283 12.6698 12.4327 12.6612 12.4375 12.6529C12.4426 12.6399 12.4887 12.7927 12.6162 12.9089C12.6161 12.891 12.6205 12.8734 12.629 12.8577C12.631 12.8902 12.6417 12.9215 12.6601 12.9483C12.6505 12.9438 12.6418 12.9377 12.6343 12.9302C12.6343 12.9302 12.6471 13.3398 12.7171 13.5516C12.7288 13.5379 12.7392 13.5232 12.7481 13.5076C12.7481 13.4948 12.743 13.6216 12.73 13.7124C12.712 13.803 12.7249 13.9298 12.7249 13.9298C12.7716 13.8931 12.8229 13.8626 12.8775 13.8392C12.9552 13.808 13.0823 13.7122 13.1598 13.4999C13.2047 13.3797 13.2394 13.2558 13.2634 13.1297C13.2884 13.1779 13.3057 13.2298 13.3146 13.2833C13.3199 13.348 13.4416 13.3144 13.4416 13.3144L13.4675 13.0321L13.6211 12.3926L13.7609 11.9965L14.434 10.9481L15.6502 10.0115L16.7117 10.2549L17.6074 9.03801L16.0644 8.11111L14.6041 8.26386L13.2789 10.0994L12.2175 11.7642L12.0259 12.0387L12.0259 12.0388Z" fill="#D8B65B"/>
<path fill-rule="evenodd" clip-rule="evenodd" d="M19.6739 9.38257C19.6739 9.38257 19.5833 9.40066 19.3218 9.53617C19.0604 9.67168 18.8791 9.71469 18.7781 9.91402C18.677 10.1134 18.6694 10.2714 18.6694 10.2714C18.6694 10.2714 18.8481 10.1937 18.9516 10.1678C19.0604 10.142 19.182 10.1497 19.1691 10.1937C19.1566 10.2239 19.1393 10.2519 19.1179 10.2765C19.1179 10.2765 19.3227 10.2714 19.3172 10.3724C19.3118 10.4735 19.2785 10.5847 19.2397 10.6339C19.2008 10.6851 19.0404 10.7609 19.0223 10.8204C18.9783 10.9421 19.0404 10.9472 19.017 11.0455C18.9989 11.1415 18.9136 11.3278 18.6339 11.654C18.3465 11.9803 18.2243 12.2107 18.2243 12.2107C18.2243 12.2107 18.0845 11.9492 18.012 11.7239C17.9608 11.7497 17.6858 11.9025 17.6858 11.9025L17.0489 9.68379L17.0617 9.53617C17.0617 9.53617 17.1187 9.46637 17.1317 9.33683C17.0359 9.30577 17.0229 9.27983 16.896 9.15831C16.769 9.0368 16.6656 8.889 16.4534 8.78797C16.4224 8.73096 16.3835 8.65348 16.2281 8.62225C16.0728 8.59102 15.9797 8.56542 15.9797 8.56542C15.9797 8.56542 16.0624 8.53418 16.1013 8.4695C16.0054 8.48247 15.9279 8.51353 15.7182 8.50841C15.5059 8.50312 15.4825 8.49544 15.3661 8.51353C15.2497 8.53162 15.1101 8.58351 15.0581 8.40482C15.0011 8.36079 14.8794 8.3997 14.7758 8.55227C14.6722 8.70485 14.636 8.82671 14.4367 8.88627C14.4226 8.97414 14.3919 9.0585 14.346 9.13476C14.289 9.23067 14.1984 9.32642 14.0767 9.46875C13.8851 9.69403 13.9161 10.0642 13.6106 10.3465C13.3026 10.6286 13.6618 9.5645 13.6618 9.5645L14.1537 8.3869L15.5544 7.0173L17.7292 6.86984L17.9415 7.99624L19.003 8.3613L19.6736 9.38393L19.6739 9.38257Z" fill="#D3AE4D"/>
<path fill-rule="evenodd" clip-rule="evenodd" d="M20.0181 9.63105L19.1042 8.31333L18.4647 7.8213C18.4647 7.8213 18.0091 6.98265 17.978 6.95671C17.9521 6.93861 17.5223 6.89202 17.2479 6.87393L17.2991 7.00074C17.359 7.02019 17.4122 7.05609 17.4527 7.10433C17.5744 7.24411 17.652 7.50813 17.375 7.79041C17.4837 7.82915 17.5286 7.84161 17.6235 7.82915C17.5278 7.94316 17.3104 8.18653 17.2974 8.39884C17.2844 8.57224 17.3931 8.62395 17.3931 8.62395C17.3931 8.62395 17.2274 8.81561 17.2197 9.13595C17.298 9.04769 17.3836 8.96628 17.4757 8.89258C17.6674 8.73898 17.9314 8.56626 18.1101 8.45755C18.1077 8.50317 18.1138 8.54884 18.1282 8.5922C18.1282 8.5922 18.462 8.31777 18.7426 8.43946C18.8694 8.49646 18.8124 8.67515 18.8124 8.67515C18.8124 8.67515 18.986 8.61047 19.1076 8.73215C19.2293 8.85384 19.4027 9.16701 19.4908 9.28887C19.5295 9.34587 19.6306 9.45458 19.734 9.62269C19.8753 9.85833 19.9933 10.1072 20.0862 10.3658C20.0914 10.2622 20.1122 10.1173 20.291 10.1173L20.0192 9.63054L20.0181 9.63105Z" fill="#CAA13E"/>
<path fill-rule="evenodd" clip-rule="evenodd" d="M6.31732 13.3748C6.31732 13.3748 6.25264 13.2142 6.31732 12.901C6.382 12.5879 6.48304 12.4402 6.51666 11.9794C6.55028 11.5186 6.85066 10.9438 6.85066 10.9438L7.68163 10.566L8.26941 10.7264L8.4428 11.5135L7.69972 11.9231C7.69972 11.9231 7.66098 12.0965 7.45123 12.2363C7.24148 12.3761 6.95152 12.4848 6.88172 12.6273C6.83999 12.7146 6.80953 12.8068 6.79109 12.9017C6.79109 12.9017 6.57878 12.8577 6.45198 12.9975C6.31732 13.14 6.32244 13.2668 6.31732 13.3755V13.3748Z" fill="#F4EFC8"/>
<path fill-rule="evenodd" clip-rule="evenodd" d="M7.99466 13.165C7.99466 13.165 7.92469 13.2091 7.87297 13.3186C7.82177 13.2359 7.69941 12.7438 7.69429 12.3011C7.68917 11.8584 7.66271 11.7487 7.76511 11.5961C7.86751 11.4435 8.26909 11.2828 8.21209 11.008C8.15509 10.7465 7.91684 10.6378 7.62431 10.7129C7.41951 10.7641 7.26711 11.1996 7.0548 11.4171C6.8942 11.5828 6.70271 11.5568 6.651 11.6475C6.58103 11.7692 6.64571 11.8908 6.62506 11.9685C6.61977 11.9944 6.55509 12.1342 6.43852 12.3025C6.203 12.6416 5.80432 13.1207 5.75244 13.5504C5.77053 13.307 5.75773 13.3019 5.82241 13.0326L5.7835 12.9679L6.0395 12.1291L6.20522 11.4379L6.57557 10.2804L7.22785 9.09737L7.86222 8.38791L8.52236 8.43194L8.60001 9.42351L8.97804 11.2851L9.77284 12.2637L8.49898 13.121L7.99415 13.165H7.99466Z" fill="#EBCC73"/>
<path fill-rule="evenodd" clip-rule="evenodd" d="M8.39085 13.5168C8.39085 13.5168 8.28213 13.5428 8.24322 13.5221C8.20431 13.5015 8.16574 13.4781 8.17854 13.4521C8.19134 13.4262 8.26131 13.3823 8.26131 13.3615C8.2643 13.3224 8.23564 13.288 8.19663 13.2839C8.13707 13.2762 8.11898 13.3149 8.11898 13.3149C8.11898 13.3149 8.06197 13.2711 8.01555 13.2637C8.04302 13.2604 8.07066 13.2586 8.09833 13.2584C8.02678 13.226 7.95089 13.2042 7.87305 13.1937C7.93773 13.155 8.06471 13.041 8.14748 13.041C8.23025 13.041 8.28213 13.0282 8.26916 12.9842C8.25619 12.9401 8.19151 12.8754 8.12171 12.8495C8.14748 12.8184 8.16574 12.7719 8.10362 12.6447C8.03876 12.5179 8.06471 12.4324 8.08553 12.4015C8.10362 12.3626 8.1683 12.2928 8.19936 12.2488C8.23042 12.2047 8.25636 12.1452 8.30808 12.1141C8.33402 12.096 8.41679 12.0629 8.49973 12.0313C8.59036 12.0003 8.66545 11.9614 8.71716 12.0003C8.77417 12.039 8.74823 12.0909 8.74823 12.0909C8.74823 12.0909 8.92691 12.026 9.08734 12.109C9.24794 12.1865 9.63893 12.2358 9.63893 12.2358L9.77905 12.5181L8.85216 13.3129L8.46901 13.5045L8.39136 13.5173L8.39085 13.5168Z" fill="#E5C66B"/>
<path fill-rule="evenodd" clip-rule="evenodd" d="M9.6779 12.2175C9.6779 12.2175 9.3905 12.4092 9.32582 12.479C9.36456 12.4843 9.42924 12.5102 9.4033 12.5489C9.37224 12.5877 9.18587 12.7223 9.08228 12.8493C8.97356 12.9761 8.86997 13.1367 8.83378 13.2144C8.79504 13.2842 8.49979 13.4888 8.39893 13.5146C8.61124 13.5146 9.03841 13.2531 9.19884 13.2531C9.19372 13.3308 9.24287 13.4188 9.3335 13.4265C9.42412 13.4342 9.68558 13.4835 10.0377 13.2661C10.3898 13.0538 10.2734 12.8957 10.4208 12.7923C10.7031 12.6058 10.8169 12.4401 10.9722 12.3366C11.1275 12.2332 11.2079 12.2097 11.2079 12.2097C11.2079 12.2097 11.213 12.132 11.2591 12.1399C11.2848 12.1428 11.3068 12.1598 11.3161 12.1839C11.3161 12.1839 11.5854 11.9922 11.9305 11.9405C11.9225 11.9369 11.916 11.9305 11.9124 11.9224C11.9124 11.9224 11.9382 11.9095 11.9435 11.8965C11.9435 11.8965 11.9616 11.8705 11.9746 11.8835C11.9875 11.8965 12.0056 11.9922 12.0316 12.0311C12.0886 12.0052 12.1973 11.7618 12.1973 11.7618L12.4589 11.0136V10.3301L12.2541 10.369L10.7181 11.0213L9.78593 11.9871L9.67722 12.2175H9.6779Z" fill="#E6BD62"/>
<path fill-rule="evenodd" clip-rule="evenodd" d="M14.0994 8.86475C14.1825 8.8446 14.2621 8.81228 14.3357 8.76884C14.3047 8.85178 14.3047 8.94241 14.17 9.13919C14.0354 9.33597 14.0303 9.36447 13.9215 9.56893C13.8128 9.78123 13.7999 10.0867 13.6963 10.2212C13.7427 10.1987 13.7925 10.1838 13.8437 10.1774C13.8437 10.1774 13.7403 10.268 13.6963 10.3637C13.6522 10.4595 13.5746 10.6588 13.3831 10.7807C13.1916 10.9025 12.9481 10.98 12.6866 11.2674C12.425 11.5495 12.1558 11.9069 12.021 12.0354C12.091 11.9137 12.1867 11.6703 12.2127 11.5099C12.2386 11.3495 12.2074 11.1577 12.2514 10.9455C12.2954 10.7334 12.2954 10.5805 12.5074 10.2101C12.7194 9.83977 13.0822 8.55312 13.0822 8.55312L13.864 8.30463L14.0997 8.8639L14.0994 8.86475Z" fill="#B6933F"/>
<path fill-rule="evenodd" clip-rule="evenodd" d="M13.535 8.391C13.535 8.391 13.2994 8.73012 13.2348 9.03049C13.1701 9.33086 13.2295 9.30492 13.1907 9.45255C13.1675 9.54256 13.1675 9.63697 13.1907 9.72698C13.2723 9.59557 13.384 9.48547 13.5165 9.40579C13.7392 9.2713 13.9205 9.17538 14.0285 9.06155C14.1372 8.93986 14.2279 8.74053 14.4634 8.58778C14.3676 8.57481 14.233 8.53078 14.2074 8.53658C14.3033 8.42786 14.5905 8.26215 14.8805 8.06281C15.1679 7.85801 15.1498 7.77541 15.6159 7.57095C15.4631 7.59689 15.3906 7.55798 15.2636 7.57095C15.3148 7.46223 15.494 7.41035 15.6732 7.23183C15.8524 7.05332 15.5594 6.78912 15.5594 6.78912L14.1941 7.61498L13.5339 8.39168L13.535 8.391Z" fill="#C49937"/>
<path fill-rule="evenodd" clip-rule="evenodd" d="M9.83057 7.77473L9.86163 7.52624L10.2526 6.89972L10.6617 5.79943V4.29518L10.6307 3.42529L10.6953 2.8556L10.7445 2.67453L10.7964 2.60455L11.1302 2.77795L11.5912 3.40447L11.6352 4.61364L11.1872 6.52169L9.90822 7.91724L9.83057 7.77473Z" fill="#DFC068"/>
<path fill-rule="evenodd" clip-rule="evenodd" d="M10.848 2.53458C10.848 2.53458 10.6432 2.53988 10.5995 3.39167C10.5558 4.24347 10.5346 4.6913 10.5036 5.11336C10.4725 5.53542 10.4001 5.79159 10.3638 6.04025C10.3274 6.28891 10.3068 6.62785 10.1904 6.83504C10.1392 6.93079 10.0298 7.23116 9.77344 7.45644C9.48604 7.70493 9.05664 7.8785 8.99162 7.89147C8.87761 7.91724 8.30024 7.97424 8.06472 8.10378C7.98195 8.14781 7.83944 8.19952 7.68158 8.34715C7.36823 8.62926 6.95147 9.13409 6.65109 9.74252C6.19029 10.6513 5.72949 13.217 5.72949 13.217L5.83309 13.0436C5.83309 13.0436 5.84606 12.8132 6.07646 12.4092C6.30174 12.0054 6.23705 11.5523 6.55023 10.7781C6.67191 10.483 6.82466 10.0999 7.01103 9.77358C7.30628 9.24281 7.66349 8.78713 8.02342 8.53864C8.61103 8.13484 9.25837 8.04678 9.25837 8.04678L9.95486 7.58598C9.95486 7.58598 10.0765 7.35046 10.2371 7.08114C10.4622 6.70329 10.7491 6.28123 10.8118 5.66768C10.9077 4.75888 10.6771 4.16343 10.6901 3.62497C10.7031 3.08652 10.7082 2.6904 10.8171 2.59449C10.926 2.49857 10.8481 2.53493 10.8481 2.53493L10.848 2.53458Z" fill="#A88F33"/>
<path fill-rule="evenodd" clip-rule="evenodd" d="M10.848 6.59932C10.848 6.59932 11.1552 5.84327 11.2958 5.17272C11.3218 5.03807 11.3735 4.90358 11.3864 4.79487C11.4511 4.1605 11.4692 3.89904 11.3864 3.55207C11.3218 3.29607 11.0733 3.06533 10.9437 2.88647C10.8169 2.69993 10.7574 2.63047 10.7833 2.59122C10.8093 2.55196 10.9101 2.48779 11.0084 2.49547C11.2196 2.50162 11.419 2.59416 11.56 2.75147C11.7594 2.98187 11.9172 3.76387 11.9172 3.76387L12.0833 4.79572L12.5053 6.09535L10.8483 6.60035L10.848 6.59932Z" fill="#C99E3D"/>
<path fill-rule="evenodd" clip-rule="evenodd" d="M13.7345 5.81238C13.7345 5.81238 13.6775 5.83815 13.5741 5.81238C13.5831 5.89856 13.5431 5.98251 13.4705 6.02981C13.3618 5.98578 12.3441 6.07385 12.3441 6.07385C12.3441 6.07385 11.8703 5.9909 11.7227 5.36438C11.6193 4.94745 11.8004 4.37281 11.7408 3.99478C11.6502 3.43807 11.5234 3.32918 11.5104 3.15596C11.4974 2.98273 11.4845 2.93853 11.4845 2.82981C11.4275 2.81684 11.3938 2.79875 11.337 2.79875C11.324 2.74755 11.3498 2.70284 11.293 2.61221C11.324 2.62518 11.5363 2.65113 11.7848 2.88665C11.9896 3.0783 11.9896 3.14811 12.0205 3.18702C12.0593 3.22576 12.3726 3.49422 12.5073 3.76182C12.6419 4.02943 12.9034 4.88276 12.9629 5.02254C12.981 5.07954 13.0199 5.13654 13.1165 5.26591C13.2667 5.45245 13.4867 5.76084 13.7352 5.81204L13.7345 5.81238Z" fill="#B58634"/>
<path fill-rule="evenodd" clip-rule="evenodd" d="M12.0571 3.20001C12.214 3.45337 12.3549 3.71625 12.479 3.98713C12.6318 4.33136 12.7224 4.61364 12.914 4.84404C12.8105 4.54384 12.6266 3.95351 12.5179 3.74376C12.3962 3.52189 12.1478 3.28296 12.0571 3.20018V3.20001Z" fill="#A88F33"/>
<path fill-rule="evenodd" clip-rule="evenodd" d="M10.2964 7.45644C10.2964 7.45644 10.035 7.52112 9.54822 7.77746C9.38762 7.86024 9.23504 7.93004 9.08742 7.99489C8.70393 8.16829 8.29262 8.32855 7.96631 8.41695C7.99225 8.44801 8.00505 8.46081 8.00505 8.46081C8.00505 8.46081 8.00505 8.58779 8.07502 8.66015C8.03628 8.69906 7.51831 9.05115 7.67122 10.2291C7.77465 10.1903 7.89633 10.1385 7.91442 10.1385C7.94566 10.1438 7.95334 10.2291 7.99208 10.2291C8.03082 10.2291 8.15779 10.1779 8.29245 10.0038C8.28733 10.0738 8.20968 10.778 8.62644 11.2517C8.7041 11.1611 8.90088 10.8607 8.90088 10.8607L8.906 10.765C8.906 10.765 8.92409 10.431 9.03297 10.1255C9.14186 9.82 9.354 9.59472 9.354 9.59472L10.4618 8.01281L10.2961 7.45627L10.2964 7.45644Z" fill="#E6C367"/>
<path fill-rule="evenodd" clip-rule="evenodd" d="M9.26066 9.77921C9.20994 9.81505 9.15406 9.84296 9.09494 9.86198C9.07685 9.7973 9.05091 9.57458 9.20366 9.35715C9.38235 9.09552 9.77317 8.7564 9.88189 8.48675C9.95186 8.31318 9.9208 7.87832 10.5422 7.32161C11.1636 6.76489 11.4068 6.57341 11.4068 6.57341L12.4113 6.06857L13.6463 6.55531L13.0327 8.96001L12.5564 10.0864L10.662 9.7292L9.26049 9.77921H9.26066Z" fill="#DCBA5A"/>
<path fill-rule="evenodd" clip-rule="evenodd" d="M9.98389 9.12622L10.2196 8.83114V8.62139C10.2196 8.62139 10.481 8.55141 10.7632 8.26401C11.0453 7.97661 11.4363 7.42519 11.7807 7.45881C12.1251 7.49772 12.1587 8.20701 12.1717 8.40652C12.1846 8.60603 12.2287 9.05881 12.2985 9.30235C12.3761 9.54572 11.4596 10.4673 11.4596 10.4673L10.8372 10.9411L9.98389 9.12622Z" fill="#E9CE77"/>
<path fill-rule="evenodd" clip-rule="evenodd" d="M10.7134 11.5831C10.7134 11.5831 10.905 11.2828 10.7646 11.2181C10.8474 11.0317 11.0001 10.8349 11.0001 10.8349C11.0001 10.8349 11.1088 10.5658 11.4609 10.2344C11.813 9.90294 12.0306 9.68278 12.0876 9.46023C12.1227 9.31519 12.1418 9.16673 12.1446 9.01752C12.1827 9.04861 12.2234 9.07631 12.2663 9.10029C12.3233 9.12623 12.5924 9.34878 12.5537 9.79678C12.5149 10.2448 12.3489 10.4311 12.3489 10.4311C12.3489 10.4311 12.1885 10.5916 12.0746 10.6745C11.9528 10.7573 11.9089 10.853 11.7043 10.8609C11.7253 10.8442 11.7489 10.831 11.7742 10.822C11.7742 10.822 11.5619 10.7962 11.4479 10.8996C11.3339 11.0031 11.0916 11.3217 10.9699 11.4176C10.8482 11.4953 10.7139 11.5833 10.7139 11.5833L10.7134 11.5831Z" fill="#CDAE50"/>
<path fill-rule="evenodd" clip-rule="evenodd" d="M19.3217 6.54746C19.0158 6.43598 18.6944 6.37309 18.3691 6.36109C17.8253 6.343 17.0305 6.37406 16.2513 6.37918C15.4124 6.3843 14.6513 6.09178 13.595 6.04007C13.4216 5.93647 12.9806 5.48335 11.604 6.44386C11.6868 6.43874 12.6034 6.23155 12.9217 6.6304C13.2427 7.02652 13.1521 7.69963 13.1083 7.86005C13.0253 8.21743 12.756 8.73779 12.6475 9.10285C12.5389 9.46791 12.5645 9.65973 12.4869 9.91573C12.4092 10.1717 12.2384 10.2989 12.3392 10.594C12.4739 10.5112 12.544 10.5112 12.769 10.0064C12.9939 9.50153 12.9477 9.14159 13.3206 8.71441C13.6856 8.28467 14.2934 7.6969 14.5245 7.54927C14.7555 7.40164 16.5904 6.44898 18.5116 7.35778C18.9749 7.30863 19.3219 6.54729 19.3219 6.54729L19.3217 6.54746Z" fill="#D2A83E"/>
<path fill-rule="evenodd" clip-rule="evenodd" d="M12.3778 6.1952C12.3759 6.17574 12.3716 6.1566 12.365 6.1382C12.347 6.10033 12.3234 6.06541 12.295 6.0346C12.295 6.0346 11.8393 5.95183 11.6089 5.9776C11.205 6.02163 10.8399 6.52134 10.6691 6.77768C10.4982 7.03403 10.2859 7.42997 10.0555 7.6346C10.058 7.61467 10.0534 7.59448 10.0425 7.5776C10.0425 7.5776 10.0555 7.59569 10.0297 7.62163C10.004 7.64757 10.0038 7.66037 10.0168 7.67283L10.0557 7.71157C10.0685 7.71157 10.4259 7.55098 10.9126 7.09717C11.4304 6.6234 11.8265 6.38037 12.0337 6.29709C12.1442 6.25013 12.2597 6.21595 12.3779 6.1952H12.3778Z" fill="#C29637"/>
<path fill-rule="evenodd" clip-rule="evenodd" d="M21.2172 4.24857C21.2172 4.24857 21.1343 4.35199 21.0307 4.466C20.8003 4.70937 20.4999 4.98363 20.2436 5.26591C20.0004 5.53522 19.7259 5.74497 19.4177 6.09706C19.1095 6.44914 18.7521 6.83997 18.6617 6.95397C18.5789 7.06798 18.5142 7.25435 18.5142 7.35009C18.4702 7.31903 18.4185 7.28541 18.4185 7.28541C18.4402 7.32606 18.4663 7.36427 18.4961 7.39941C18.5608 7.49004 18.6617 7.60421 18.7135 7.67385C18.7772 7.76249 18.8229 7.86273 18.848 7.96893C18.8791 7.97405 19.0784 8.01296 19.3271 7.60387C19.5757 7.19478 19.9017 6.74696 19.9017 6.74696L20.4195 5.97793L20.7458 5.32564L21.1554 4.59553L21.2177 4.24857H21.2172Z" fill="#AC8132"/>
<path fill-rule="evenodd" clip-rule="evenodd" d="M21.7479 3.72565C21.7479 3.72565 21.4346 3.98165 21.3129 4.13525C21.1912 4.28885 20.9033 4.69196 20.9033 4.69196L21.0069 4.67899L21.5326 4.21307L21.7374 3.84801L21.7478 3.72633L21.7479 3.72565Z" fill="#A88F33"/>
<path fill-rule="evenodd" clip-rule="evenodd" d="M21.6518 24.3004C21.6518 24.3004 21.6466 24.0881 21.7658 23.9613C21.8874 23.8343 22.1955 23.6479 22.4959 22.9489C22.7962 22.2498 22.8297 22.0919 22.8297 22.0919C22.8297 22.0919 22.2912 22.5527 21.9593 22.6615C22.037 22.5009 22.081 22.387 22.1199 22.3041C22.0759 22.2653 21.8895 22.2213 21.8714 22.2007C21.9748 22.0971 22.0318 21.8433 22.2416 21.675C22.5109 21.4702 23.0028 21.1183 23.385 20.8046C23.7673 20.4909 24.519 19.7613 24.6149 19.549C24.6719 19.6318 24.6847 19.6835 24.6847 19.6835C24.6847 19.6835 24.3068 20.1755 24.11 20.4887C23.9365 20.758 23.9494 20.9108 23.9494 20.9108L24.3068 20.7572C24.3068 20.7572 24.4102 21.1403 23.9418 21.723C24.1466 21.6453 24.2292 21.6919 24.3456 21.627C24.1539 21.7489 23.8899 21.9146 23.6414 22.3701C23.398 22.8258 23.0666 23.3566 22.5075 23.6878C21.9637 24.0374 21.6504 24.2988 21.6504 24.2988L21.6518 24.3004Z" fill="#A67A2E"/>
<path fill-rule="evenodd" clip-rule="evenodd" d="M20.2484 6.81694C20.2484 6.81694 20.0361 7.25948 20.005 7.60388C19.9999 7.68683 19.9791 7.75151 19.9791 7.84725C19.974 8.15531 19.9972 8.49971 19.9279 8.66014C19.902 8.59546 19.889 8.55143 19.863 8.52566C19.8243 8.63437 19.7543 8.97348 19.6973 9.10029C19.6716 9.01752 19.6146 8.73011 19.6198 8.391C19.6251 8.05188 19.6326 7.98703 19.6326 7.91723C19.6198 8.02065 19.5499 8.1606 19.5239 8.24337C19.4852 8.17357 19.4412 8.08295 19.3893 8.00785C19.3582 8.05905 19.3195 8.13466 19.2859 8.17357C19.2806 8.14251 19.2678 8.05956 19.2599 7.94317C19.2548 7.80851 19.2469 7.63512 19.2548 7.59876C19.2676 7.52896 19.3765 7.25453 19.6069 7.00331C19.8813 6.70293 20.1636 6.12574 20.2464 5.94705C20.3291 5.76836 20.6812 5.02545 20.6812 5.02545H20.9505L20.5595 5.91599C20.5595 5.91599 20.324 6.40273 20.2023 6.58159C20.0806 6.76045 19.8243 7.27296 19.7103 7.4723C19.7931 7.36359 19.863 7.30658 19.946 7.20299C20.0262 7.13045 20.2488 6.81728 20.2488 6.81728L20.2484 6.81694Z" fill="#8C6228"/>
<path fill-rule="evenodd" clip-rule="evenodd" d="M21.7526 3.69186C21.7086 3.82726 21.6391 3.95297 21.5478 4.06221C21.3872 4.25387 21.0428 4.51004 20.8747 4.7145C20.7211 4.91384 20.4139 5.45758 20.5535 6.10219C20.6047 5.96241 20.7012 5.68542 20.9575 5.37208C21.2138 5.05873 21.4883 4.69897 21.6231 4.41942C21.7576 4.13713 21.7757 3.91458 21.7757 3.91458L21.8269 3.8499L21.7958 3.70227L21.7518 3.69186L21.7526 3.69186Z" fill="#CBA94C"/>
<path fill-rule="evenodd" clip-rule="evenodd" d="M26.9955 20.8647C26.9955 20.8647 26.8919 20.5826 26.8608 20.3262C26.8298 20.0699 26.912 20.019 26.8168 19.7256C26.7598 19.547 26.6564 19.572 26.6304 19.547C26.6045 19.5219 26.5864 19.2519 26.5915 19.1042C26.5966 18.9566 26.5864 18.7651 26.5605 18.6822C26.5217 18.6511 26.4958 18.6252 26.4388 18.4337C26.3741 18.242 26.343 18.1463 26.312 18.0895C26.2809 18.0326 26.1901 17.9807 26.1901 17.9237C26.1901 17.8097 26.2937 17.7503 26.2937 17.7189C26.2886 17.6543 26.2109 17.7061 26.1901 17.6879C26.1643 17.6568 26.255 17.4705 26.2214 17.4445C26.2084 17.4317 26.1178 17.5404 26.0944 17.5094C26.0684 17.4781 26.0374 17.1701 25.9908 16.9656C25.9469 16.7663 25.9002 16.6214 25.895 16.5618C25.8899 16.5048 25.5377 15.5003 25.4523 15.2569C25.3836 15.0513 25.3257 14.8421 25.2789 14.6304C25.253 14.5087 25.2349 14.26 25.2219 14.286C25.209 14.3119 25.2168 14.4387 25.196 14.4336C25.1779 14.4283 25.1132 13.9858 25.0926 13.9158C25.0745 13.8458 24.9656 13.6086 24.939 13.4369C24.913 13.2633 24.8562 12.8102 24.8173 12.5022C24.7784 12.1941 24.7603 12.0673 24.7603 11.9902C24.7666 11.8015 24.7562 11.6126 24.7292 11.4258C24.678 11.0995 24.5756 10.7033 24.4858 10.4731C24.3124 10.0381 23.8515 8.92483 23.769 8.64784C23.769 8.57786 23.8597 8.61678 23.8597 8.61678C23.8597 8.61678 24.0848 9.18117 24.2505 9.61603C24.4111 10.0511 24.5638 10.4342 24.6027 10.4731C24.6338 10.5119 24.8772 10.939 24.9859 11.6381C25.0946 12.3371 25.1334 12.9817 25.1982 13.4115C25.2293 13.6163 25.2552 13.8335 25.3199 14.051C25.3897 14.2867 25.4984 14.53 25.6409 14.9028C25.7626 15.2161 25.8532 15.4776 25.9024 15.7029C25.9594 15.9903 25.9594 16.2077 25.993 16.3502C26.0242 16.4719 26.0707 16.7151 26.1795 17.067C26.2884 17.4189 26.4487 17.8722 26.5574 18.1543C26.7699 18.7187 26.8646 19.1899 26.8967 19.4411C26.925 19.7 27.0209 20.5959 26.995 20.865L26.9955 20.8647Z" fill="#A88F33"/>
<path fill-rule="evenodd" clip-rule="evenodd" d="M21.7658 3.66079L21.7528 3.69185C21.7528 3.69185 21.7916 3.70482 21.7839 3.75671C21.7844 3.82769 21.7801 3.89863 21.7709 3.96902C21.7581 4.05964 21.7322 4.12944 21.727 4.18645C21.727 4.30813 21.7451 4.44791 21.5734 4.79487C21.5222 4.89062 21.4907 4.97339 21.4647 5.03039C21.4001 5.17017 21.3871 5.19099 21.3301 5.25567C21.4207 5.20447 21.747 4.99967 21.9126 5.03039C21.7987 5.09508 21.6252 5.22205 21.5164 5.38777C21.5424 5.39289 21.6511 5.41371 21.8236 5.38777C22.111 5.34374 22.4321 5.24014 22.7142 5.26079C23.0224 5.27888 22.9007 4.89062 22.9007 4.89062L22.5451 4.10879L21.8719 3.63519L21.7658 3.66096V3.66079Z" fill="#BE9C44"/>
<path fill-rule="evenodd" clip-rule="evenodd" d="M23.5213 9.51723C23.5213 9.51723 23.2209 9.21686 23.0992 8.18603C22.9776 7.15043 23.0035 5.62603 23.0035 5.62603L22.7601 5.03058C22.7601 5.03058 22.7089 4.63446 22.5814 4.48701C22.454 4.33955 22.2036 4.09089 22.0896 3.9692C21.9756 3.84752 21.8462 3.6818 21.7686 3.65586C21.8073 3.59118 21.9809 3.22612 22.6461 3.221C23.3114 3.21588 23.5165 3.58606 23.586 3.72071C23.6554 3.85537 23.9691 4.43751 24.0855 5.54685C24.1942 6.65481 24.1995 6.73776 24.1814 7.1209C24.1685 7.33321 24.0985 7.82507 23.9766 8.35056C23.8654 8.796 23.7437 9.29315 23.521 9.51826L23.5213 9.51723Z" fill="#A17C34"/>
<path fill-rule="evenodd" clip-rule="evenodd" d="M22.5792 10.4001C22.6793 10.4073 22.7793 10.3847 22.8666 10.3352C22.9624 10.3301 23.3093 10.3741 23.5759 10.035C23.594 10.1125 23.6408 10.3224 23.5189 10.5088C23.5838 10.444 23.6795 10.4182 23.6925 10.4001C23.6976 10.4958 23.7882 10.7909 23.4051 11.5081C23.5085 11.3942 23.6302 11.3993 23.7389 11.3864C23.7442 11.521 23.8166 11.974 23.6251 12.2175C23.4983 12.3832 23.2911 12.3314 23.2911 12.3314C23.2941 12.2952 23.2941 12.2588 23.2911 12.2226C23.286 12.1527 23.26 12.0829 23.2783 12.0363C23.1782 11.9905 23.087 11.9274 23.009 11.8497C22.7837 11.6374 22.4912 11.2751 22.4705 11.0058C22.4446 10.7054 22.7139 10.6407 22.7139 10.6407C22.6913 10.6205 22.6721 10.5969 22.6569 10.5708C22.6439 10.5269 22.6309 10.4569 22.5792 10.4001Z" fill="#8C6228"/>
<path fill-rule="evenodd" clip-rule="evenodd" d="M20.5823 7.14307C20.5823 7.14307 20.5693 7.12498 20.4995 7.20775C20.5125 7.12498 20.5255 7.04715 20.5306 6.97206C20.5636 6.90254 20.6064 6.83806 20.6575 6.78057C20.6186 6.85805 20.5927 6.92803 20.5927 6.92803C20.5927 6.92803 20.6886 6.74934 20.8284 6.64063C20.9241 6.56297 21.0458 6.52679 21.0975 6.45426C21.1545 6.3766 21.1416 6.36363 21.1545 6.35066C21.1545 6.35066 21.2815 6.26789 21.4757 6.02435C21.5015 5.99329 21.5404 5.95967 21.5663 5.9286C21.6102 5.91051 21.7138 5.86392 21.8355 5.80163C21.9625 5.73183 22.1048 5.63608 22.1929 5.59683C22.3663 5.51917 22.5502 5.52703 22.6356 5.40517C22.7003 5.38708 22.7701 5.19286 22.7573 5.02731C22.853 5.06605 23.3449 5.37155 23.5133 6.03954C23.635 6.51331 23.4174 7.24342 23.3268 7.59568C23.2362 7.94793 23.2234 8.20922 23.0964 8.36965C22.9358 8.58213 22.4181 8.88165 22.2912 9.02996C22.1825 9.15164 21.8563 9.4597 21.8691 9.68225C21.8821 9.84796 22.0865 9.93825 22.1307 9.96965C22.1749 10.0011 22.1746 10.0396 22.2575 10.0208C22.3405 10.0021 22.3714 9.96385 22.4052 9.96385C22.4439 9.96897 22.4439 9.97682 22.462 9.97682C22.4751 9.97643 22.4882 9.97465 22.5009 9.97153C22.5009 9.97153 22.4879 10.2072 21.9365 10.2787C21.8976 10.284 21.8589 10.2968 21.8095 10.3047C21.8744 10.2736 21.9131 10.2736 21.9831 10.1779C21.9055 10.1649 21.6827 10.1519 21.6257 10.1338C21.6438 10.1028 21.7034 10.0198 21.7525 9.98108C21.7966 9.94234 21.7474 9.92988 21.7087 9.95002C21.642 9.9954 21.578 10.0446 21.517 10.0975C21.4523 10.1545 21.3953 10.2321 21.2917 10.3023C21.2607 10.1987 21.2658 10.0019 21.3877 9.85957C21.3564 9.86469 21.2969 9.95531 21.24 9.93722C21.2298 9.84279 21.2359 9.74729 21.2581 9.65494C21.2892 9.53837 21.4575 9.33392 21.4575 9.33392L22.2703 7.88137L22.4437 6.78108L20.5823 7.14273V7.14307Z" fill="#92723A"/>
<path fill-rule="evenodd" clip-rule="evenodd" d="M20.5386 7.20522C20.5386 7.20522 20.4946 7.23628 20.5826 7.29584C20.5697 7.31393 20.5386 7.37862 20.4997 7.42265C20.4558 7.47385 20.4091 7.50559 20.391 7.54962C20.3522 7.64025 20.3212 7.70237 20.3212 7.74128C20.3212 7.78019 20.3082 8.02869 20.1995 8.18911C20.1606 8.24612 20.1165 8.34186 20.0855 8.40654C20.0208 8.52038 19.9638 8.61134 19.9508 8.66254C19.925 8.75317 19.907 9.00166 19.907 9.00166C19.907 9.00166 19.964 8.93168 19.9846 8.90591C19.9534 8.9706 19.9198 9.0404 19.8706 9.09228C19.9017 9.06634 19.9923 9.00166 20.145 8.867C20.3573 8.68848 20.6888 8.38811 21.0927 8.1502C20.9709 8.19423 20.8675 8.19423 20.7847 8.2072C20.8494 8.14252 21.4319 7.459 21.7374 7.39432C21.7559 7.3708 21.7651 7.34127 21.7633 7.31137L21.5017 7.2856L20.9709 7.39944L20.8934 6.98984L20.5386 7.20471V7.20522Z" fill="#B18E3E"/>
<path fill-rule="evenodd" clip-rule="evenodd" d="M21.3828 9.53531C21.3828 9.53531 21.3128 9.60511 21.2481 9.77868C21.1983 9.72668 21.1556 9.66832 21.1211 9.60511C21.0254 9.44469 20.8779 9.24006 20.5335 9.35662C20.5284 9.24791 20.5205 9.19091 20.5335 9.11325C20.5905 9.10045 20.7639 8.96068 20.9373 8.75605C21.0592 8.61627 21.173 8.45567 21.2507 8.25122C21.3019 8.2123 21.3904 8.14762 21.5067 8.07253C21.6724 7.95869 21.8717 7.80322 21.9028 7.62982C21.8251 7.66088 21.6594 7.73853 21.4107 7.72573C21.5067 7.6817 21.6541 7.63511 21.636 7.44345C21.6749 7.41751 21.706 7.39942 21.706 7.39942C21.6768 7.38969 21.6461 7.38529 21.6154 7.38645C21.6101 7.36836 21.6024 7.34259 21.5584 7.35539C21.5143 7.36819 21.5072 7.36836 21.5014 7.38645C21.4833 7.39174 21.4237 7.38645 21.3797 7.41768C21.3357 7.44891 21.214 7.55217 21.1674 7.57026C21.1855 7.53919 21.2112 7.49277 21.2112 7.49277C21.2112 7.49277 21.0844 7.50557 20.9938 7.54397C20.8281 7.60098 20.6366 7.70457 20.4424 7.80543C20.4605 7.77437 20.4683 7.75423 20.4811 7.74843C20.4939 7.74263 20.5252 7.73563 20.5252 7.73034C20.5252 7.72505 20.5124 7.67914 20.52 7.66054C20.5781 7.53753 20.6466 7.41973 20.7248 7.30845C20.8155 7.1866 20.8336 7.0132 20.8336 7.0132L21.2297 6.81386L22.3429 6.55786L23.0654 6.60189L22.9747 7.10161L22.5481 7.97405L22.183 8.76885L21.7661 9.25576L21.3829 9.53531H21.3828Z" fill="#543E26"/>
<path fill-rule="evenodd" clip-rule="evenodd" d="M23.1869 7.37281C23.1869 7.37281 22.7519 7.91126 22.6302 7.99421C22.7079 7.82849 23.1869 6.84204 23.3603 6.5676C23.3216 6.53654 23.2697 6.53654 23.3914 6.0556C23.288 6.2988 23.2516 6.42578 23.1663 6.49046C23.0809 6.55514 23.0704 6.53449 23.0127 6.53449C23.0236 6.51479 23.028 6.49218 23.0255 6.46981C23.0255 6.46981 22.6604 6.42578 22.4111 6.42578C22.1617 6.42578 21.6682 6.56044 21.3936 6.66915C21.1761 6.75977 21.0545 6.75977 20.9768 6.81661C20.8991 6.88129 20.8551 6.95126 20.8162 6.96935C20.7851 6.98744 20.6377 7.03404 20.6039 7.08319C20.5728 7.13439 20.5211 7.1919 20.5211 7.20487C20.5211 7.21784 20.5081 7.2361 20.5471 7.22296C20.5599 7.21784 20.6558 7.16596 20.7645 7.10128C20.9119 7.0185 21.0906 6.92276 21.2202 6.86576C21.5903 6.71813 21.7069 6.74407 21.8725 6.71301C22.0459 6.68195 22.2945 6.60942 22.4601 6.60942C22.6258 6.6043 22.9391 6.60942 23.0117 6.62239C22.9806 6.64833 22.9547 6.67939 22.9676 6.7881C22.9676 6.81917 22.9417 6.85279 22.9164 6.92788C22.8389 7.14019 22.6913 7.49228 22.6092 7.67096C22.4954 7.91416 22.366 8.11879 22.302 8.2456C22.238 8.3724 22.0972 8.7064 21.9578 8.88509C21.8184 9.06377 21.7455 9.17249 21.7018 9.2114C21.6581 9.25031 21.3444 9.48054 21.3678 9.56349C21.4248 9.5454 21.7847 9.40989 22.046 9.11566C22.3073 8.82143 22.3594 8.64189 22.5638 8.48129C22.7683 8.32069 22.9289 8.05155 23.0246 7.829C23.1048 7.62181 23.0868 7.55713 23.1876 7.37332L23.1869 7.37281Z" fill="#806031"/>
<path fill-rule="evenodd" clip-rule="evenodd" d="M13.8126 11.3917C13.8126 11.3917 13.7556 11.6272 13.6261 11.7438C13.4993 11.8578 13.274 11.9561 13.2482 12.1477C13.2172 12.3392 13.4735 12.4351 13.4735 12.4351C13.4735 12.4351 13.3335 12.6655 13.3335 12.8389C13.3335 13.0176 13.3284 13.0512 13.3465 13.2221C13.326 13.2353 13.3085 13.2527 13.2953 13.2733C13.2953 13.2733 13.3081 13.439 13.4351 13.5424C13.5621 13.6458 13.6706 13.7081 13.7353 13.6822C13.7452 13.7033 13.7538 13.7249 13.7612 13.747C13.7612 13.747 13.8572 13.5037 13.9218 13.2914C13.9865 13.0739 14.0435 13.1048 14.0693 12.8123C14.0951 12.5198 14.3765 12.0175 14.3765 12.0175L14.5685 11.5883L14.2553 11.3449L13.8126 11.3915V11.3917Z" fill="#B6903C"/>
<path fill-rule="evenodd" clip-rule="evenodd" d="M14.395 11.8135C14.3305 11.8798 14.2708 11.9508 14.2167 12.0258C14.1339 12.1399 14.0692 12.2433 13.9476 12.2875C13.8259 12.3317 13.7482 12.3313 13.7559 12.4532C13.7636 12.5751 13.8776 12.6266 13.9423 12.6887C14.0122 12.7534 14.0692 12.8621 14.0382 12.984C14.0769 12.9659 14.1469 12.9451 14.2116 12.8053C14.2763 12.6655 14.7287 11.8137 14.7287 11.8137H14.395V11.8135Z" fill="#685026"/>
<path fill-rule="evenodd" clip-rule="evenodd" d="M16.1792 9.84849C16.1792 9.84849 16.2179 9.74506 16.1792 9.66997C16.1403 9.59231 15.9047 9.56637 15.7882 9.47831C15.6665 9.38769 15.5189 9.32471 15.3972 9.36447C15.4153 9.32044 15.4878 9.22453 15.4282 9.20388C15.3712 9.18579 15.1591 9.28153 15.1021 9.32556C15.0451 9.36959 14.9156 9.42131 14.8898 9.45254C14.864 9.48377 14.8198 9.54316 14.7939 9.51722C14.7679 9.49913 14.7551 9.45254 14.7111 9.47831C14.6671 9.50408 14.4551 9.67765 14.416 9.77868C14.3769 9.87972 14.289 10.105 14.025 10.3612C13.761 10.6173 13.647 10.7832 13.7246 10.879C13.8023 10.9747 13.8386 10.9049 13.8516 10.9877C13.8616 11.0689 13.8572 11.1513 13.8386 11.2311C13.8076 11.3657 13.7559 11.4925 13.8257 11.5185C14.0044 11.5755 14.1779 11.4673 14.2167 11.5004C14.2943 11.5702 14.1726 11.8214 14.3564 11.8705C14.543 11.9217 14.7268 11.8265 14.7268 11.8265L15.405 11.4615L16.0575 11.1172L16.3913 10.4569L16.2123 9.90549L16.1781 9.84849H16.1792Z" fill="#D4B968"/>
<path fill-rule="evenodd" clip-rule="evenodd" d="M15.5394 11.4253C15.5394 11.4253 15.4254 11.2519 15.5653 11.099C15.7053 10.9461 15.9044 10.8815 15.9821 10.7858C15.9673 10.7676 15.9475 10.7541 15.9251 10.7471C15.9766 10.6548 16.0553 10.5807 16.1504 10.5346C16.1116 10.4958 16.0597 10.4648 16.0029 10.4648C15.8759 10.4648 15.7981 10.5424 15.6817 10.5424C15.5679 10.5424 15.5549 10.4854 15.5549 10.4854C15.5549 10.4854 15.7466 10.4673 15.7283 10.3818C15.7102 10.2912 15.6771 10.2912 15.6771 10.2912C15.6771 10.2912 16.0473 10.1376 16.112 10.0557C16.1767 9.97377 16.169 9.877 16.1819 9.83826C16.2258 9.83826 16.4821 9.70361 16.5857 9.76061C16.6893 9.81761 16.6168 9.97292 16.6168 9.97292C16.6168 9.97292 16.9303 9.73723 17.0901 9.50614C17.2298 9.51912 17.2949 9.4104 17.3973 9.4104C17.5242 9.4104 17.7236 9.5838 17.7623 9.95397C17.7883 10.1663 17.827 10.288 17.7883 10.6634C17.7702 10.8757 17.7753 11.329 17.8395 11.554C17.8833 11.7327 17.9869 11.7146 17.9869 11.7146C17.971 11.769 17.9395 11.8176 17.8963 11.8543C17.8263 11.919 17.8186 12.09 17.8263 12.1547C17.8366 12.202 17.8496 12.2487 17.8652 12.2945C17.8652 12.2945 17.7825 12.3902 17.7616 12.4551C17.7435 12.5198 17.6582 12.5638 17.5959 12.5638C17.5336 12.5638 17.5649 12.5585 17.4821 12.5638C17.3993 12.5691 17.3734 12.5819 17.3215 12.5638C17.2696 12.5457 17.2309 12.5249 17.2517 12.359C17.2698 12.1933 16.6122 11.8076 16.6122 11.8076L15.537 11.4244L15.5394 11.4253Z" fill="#CCA849"/>
<path fill-rule="evenodd" clip-rule="evenodd" d="M14.3041 13.0615C14.3041 13.0615 14.5396 13.3748 15.508 13.3748C15.9688 13.3748 16.1294 13.3308 16.2248 13.3048C16.3284 13.2789 16.7166 13.1263 17.1076 12.6654C17.4597 12.2486 17.382 12.0778 17.382 12.0778L17.1772 12.0467L16.5116 12.1373L14.5422 12.9761L14.3032 13.0615H14.3041Z" fill="#585136"/>
<path fill-rule="evenodd" clip-rule="evenodd" d="M15.0263 13.1391C15.0263 13.1391 14.1875 13.3257 14.1875 12.7949C14.1875 12.2771 14.7053 11.7333 14.8348 11.6376C14.9695 11.5417 15.2905 11.4328 15.2905 11.4328H16.0647L16.2121 11.8238L16.1474 12.6677L15.0263 13.139V13.1391Z" fill="#252211"/>
<path fill-rule="evenodd" clip-rule="evenodd" d="M15.8009 11.591C15.8009 11.591 15.6404 11.4434 15.2754 11.6422C14.9103 11.841 14.6151 12.2566 14.597 12.6339C14.5789 12.9678 14.8714 13.2164 15.3271 13.2294C15.6662 13.2422 15.8708 13.2034 15.9744 13.1782C15.9485 13.1471 15.8138 12.9788 15.8138 12.9788L15.801 11.5912L15.8009 11.591Z" fill="#C3B378"/>
<path fill-rule="evenodd" clip-rule="evenodd" d="M15.643 11.6736C15.643 11.6736 15.6043 11.6425 15.4894 11.7047C15.3937 11.7559 15.2539 11.8912 15.1452 11.9869C15.0752 12.0439 15.0312 12.0697 14.9916 12.1137C14.831 12.3054 14.6963 12.6187 14.7742 12.7741C14.852 12.9294 15.1081 13.1081 15.7606 12.9864L15.6411 11.6738L15.643 11.6736Z" fill="#E6D89C"/>
<path fill-rule="evenodd" clip-rule="evenodd" d="M15.4305 11.9948C15.4305 11.9948 15.3269 12.1554 15.3269 12.4117C15.3269 12.6732 15.4745 13.09 16.0182 13.121C16.435 13.147 16.7146 12.5205 17.0175 12.2771C17.2479 12.0907 17.3877 12.0854 17.3877 12.0854C17.3877 12.0854 17.1521 11.8294 16.5231 11.4978C15.9017 11.1638 15.2052 11.1198 14.8271 11.6325C15.0058 11.6195 15.5832 11.4719 15.5832 11.4719L15.8655 11.5625L15.4305 11.995V11.9948Z" fill="#252211"/>
<path fill-rule="evenodd" clip-rule="evenodd" d="M16.2434 12.3339C16.2253 12.2952 16.2123 12.2433 16.2874 12.2305C16.3625 12.2177 16.3961 12.2252 16.4221 12.2817C16.448 12.3382 16.4733 12.3853 16.4349 12.4087C16.3961 12.4293 16.2951 12.4087 16.2432 12.3336L16.2434 12.3339ZM16.1216 11.9688C16.1216 11.9688 16.0956 11.9869 16.1086 11.9508C16.1137 11.9069 16.1475 11.8291 16.2303 11.8473C16.3131 11.8656 16.2952 11.956 16.2815 11.982C16.2678 12.0079 16.1987 12.0518 16.1468 12.0332C16.1335 12.0298 16.1226 12.0202 16.1175 12.0074C16.1123 11.9946 16.1136 11.9802 16.1209 11.9685L16.1216 11.9688Z" fill="#6F674D"/>
<path fill-rule="evenodd" clip-rule="evenodd" d="M9.11377 12.1344C9.11377 12.1344 9.31857 12.288 9.55648 12.282C9.792 12.2767 10.0949 12.0335 10.2347 11.8781C10.3175 11.7874 10.3883 11.6917 10.4651 11.6166C10.53 11.5519 10.5738 11.5208 10.6049 11.4768C10.6489 11.4256 10.6955 11.3294 10.7189 11.2981C10.6619 11.3422 10.5791 11.42 10.4936 11.4717C10.4108 11.5229 10.2321 11.6192 10.1596 11.6451C10.0898 11.671 9.36482 12.0547 9.36482 12.0547L9.11377 12.1344Z" fill="#AC924C"/>
<path fill-rule="evenodd" clip-rule="evenodd" d="M9.42676 10.2214C9.42676 10.2214 9.54059 10.1438 9.76075 10.0944C9.97306 10.0432 10.4002 10.0038 10.4002 10.0038L10.7523 10.1574L10.8921 10.6882L10.6361 11.2398L10.31 11.4446L9.93961 10.8491L9.42761 10.2224L9.42676 10.2214Z" fill="#9F8E57"/>
<path fill-rule="evenodd" clip-rule="evenodd" d="M8.96609 10.6952L8.84424 10.7861C8.84424 10.7861 8.87547 10.7291 8.90124 10.5557C8.92701 10.3823 9.06184 9.96027 9.25862 9.7169C9.4554 9.47353 9.45028 9.4865 9.45028 9.4865C9.41365 9.4798 9.3759 9.48919 9.34668 9.51227C9.37262 9.45493 9.53834 9.25013 9.70406 9.14773C9.86977 9.04533 9.93446 9.01307 10.1079 9.09653C10.2813 9.17998 10.3253 9.22333 10.4523 9.21821C10.5792 9.21309 10.6878 9.07844 10.6878 9.07844C10.6878 9.07844 10.7137 9.16121 10.618 9.35287C10.5222 9.54453 10.1442 9.93535 10.1442 9.93535L9.35709 10.4738L8.96609 10.6957V10.6952Z" fill="#EAC970"/>
<path fill-rule="evenodd" clip-rule="evenodd" d="M9.54805 10.1567C9.54805 10.1567 10.1177 10.2344 10.2911 10.0739C10.2962 10.092 10.3171 10.092 10.3171 10.105C10.3157 10.1148 10.3111 10.1238 10.3041 10.1308C10.323 10.1277 10.342 10.126 10.3611 10.1256C10.3839 10.1324 10.4074 10.1368 10.4311 10.1386C10.4502 10.1382 10.4692 10.1364 10.4881 10.1333C10.4844 10.1593 10.4704 10.1827 10.4492 10.1982C10.4751 10.1982 10.5004 10.2033 10.5004 10.2239C10.5004 10.2446 10.5055 10.3069 10.4744 10.3199C10.4487 10.327 10.4213 10.3251 10.3968 10.3146C10.3988 10.3636 10.4121 10.4115 10.4357 10.4545C10.4869 10.5503 10.5961 10.6593 10.7429 10.6279C10.7429 10.6279 10.8204 10.8143 10.4942 11.2285C10.4504 11.2855 10.4036 11.3631 10.3468 11.4278C10.3243 11.4768 10.3071 11.528 10.2956 11.5806C10.2956 11.5806 10.8472 11.3683 11.005 10.8841C11.1656 10.3973 11.1967 9.91845 11.1656 9.47062C11.1603 9.34364 11.1397 9.25319 11.1086 9.18834C11.031 9.02774 10.8134 9.05368 10.7255 9.14431C10.5985 9.27128 10.3862 9.58702 10.0911 9.80444C9.79073 10.0219 9.77793 10.0604 9.54736 10.1567H9.54805Z" fill="#D7BC6B"/>
<path fill-rule="evenodd" clip-rule="evenodd" d="M8.86489 10.8558C8.86489 10.8558 8.75617 10.9204 8.69917 11.163C8.64217 11.4114 8.75037 11.7144 8.81301 11.8101C8.87564 11.9059 9.01781 12.1675 9.31272 12.1805C9.38571 12.1801 9.4579 12.1651 9.52503 12.1364C9.62798 12.0892 9.72455 12.0292 9.81243 11.9577C9.93941 11.862 10.0428 11.7792 10.0299 11.7714C9.9988 11.7584 9.24804 11.137 9.24804 11.137L8.96575 10.822L8.86472 10.8561L8.86489 10.8558Z" fill="#585136"/>
<path fill-rule="evenodd" clip-rule="evenodd" d="M9.57451 11.8861C9.57451 11.8861 9.72726 11.8733 9.81788 11.8163C9.90851 11.7593 9.28711 11.1432 9.28711 11.1432L9.33114 11.8088L9.57451 11.8861Z" fill="#453A25"/>
<path fill-rule="evenodd" clip-rule="evenodd" d="M8.91371 10.809C8.91371 10.809 8.83606 10.9566 8.83606 10.9955C8.82309 11.1223 8.862 11.521 8.89306 11.6478C8.92412 11.7825 9.0924 11.9869 9.31 11.9869C9.44449 11.9869 9.63102 11.9042 9.63102 11.8835C9.63102 11.8576 9.43937 11.8323 9.38765 11.7359C9.35659 11.6847 9.34362 11.5574 9.33645 11.4287C9.33133 11.3459 9.33133 11.2553 9.3624 11.2239C9.43237 11.1462 9.44517 10.9235 9.44517 10.9235L9.69366 10.4619H9.36683L8.97584 10.7052L8.91371 10.809Z" fill="#84754B"/>
<path fill-rule="evenodd" clip-rule="evenodd" d="M8.81836 10.9515C8.81836 10.9515 9.07436 10.6124 9.3051 10.5346C9.53584 10.4567 9.6391 10.5035 9.6391 10.5035L9.50444 10.8479L9.31278 11.0602L9.32575 11.1689C9.32575 11.1689 9.29452 11.4563 9.48618 11.6557C9.67784 11.855 9.82017 11.8473 9.90312 11.8473C9.98606 11.8473 10.2241 11.7774 10.3458 11.49C10.4545 11.2208 10.5452 10.8756 10.3277 10.5294C10.1153 10.185 9.73996 10.1717 9.66743 10.1717C9.59489 10.1717 9.02538 10.2002 8.81836 10.951V10.9515Z" fill="#252211"/>
<path fill-rule="evenodd" clip-rule="evenodd" d="M15.3913 12.1035C15.2956 12.0595 15.3862 11.7904 15.482 11.7074C15.5777 11.6245 15.6994 11.5289 15.9119 11.5157C15.9893 11.5106 16.0644 11.5598 16.0516 11.6117C16.0335 11.7074 15.8989 11.8421 15.7772 11.9378C15.6089 12.0699 15.5 12.1527 15.3913 12.1035Z" fill="#F7F7E7"/>
<path fill-rule="evenodd" clip-rule="evenodd" d="M10.2136 10.6356C10.2835 10.6305 10.3742 10.6868 10.3923 10.7626C10.4103 10.8454 10.3482 11.0111 10.2136 11.0111C10.1049 11.0111 10.0479 10.8764 10.0479 10.8377C10.0491 10.8058 10.058 10.7747 10.0738 10.7471C10.0789 10.7392 10.0919 10.6486 10.2136 10.6356Z" fill="#F8F6DE"/>
<path fill-rule="evenodd" clip-rule="evenodd" d="M9.20406 10.6952C9.20406 10.6952 9.02537 10.7779 8.9426 10.9512C8.88345 11.0791 8.86556 11.2222 8.8914 11.3608C8.90437 11.4254 8.96905 11.5859 9.01308 11.6429C9.05711 11.6999 9.11668 11.7388 9.16071 11.7335C9.20474 11.7282 9.29519 11.6118 9.29519 11.542C9.29519 11.4722 9.30048 11.177 9.38582 11.0164C9.46091 10.8559 9.20457 10.6953 9.20457 10.6953L9.20406 10.6952Z" fill="#D4C38B"/>
<path fill-rule="evenodd" clip-rule="evenodd" d="M9.22969 10.6822C9.19862 10.7003 9.14691 10.7262 9.15971 10.7599C9.17268 10.7909 9.2814 10.8111 9.32031 10.8868C9.36434 10.9645 9.36434 11.0473 9.35137 11.0862C9.38519 11.0701 9.41588 11.0482 9.44199 11.0213C9.499 10.9566 9.5688 10.8688 9.62836 10.8688C9.66727 10.8688 9.70602 10.8868 9.74237 10.8868C9.79937 10.8868 9.8562 10.8688 9.86405 10.8092C9.87685 10.7315 9.75534 10.6616 9.68537 10.6745C9.69834 10.6233 9.71643 10.5477 9.65942 10.4958C9.60242 10.444 9.4239 10.5348 9.38499 10.5607C9.34608 10.5866 9.22969 10.6824 9.22969 10.6824V10.6822Z" fill="#E2D59D"/>
<path fill-rule="evenodd" clip-rule="evenodd" d="M13.3436 16.1217L13.7267 16.0085L13.8354 16.0862C13.8354 16.0862 13.9129 16.2519 14.0348 16.2726C13.9959 16.3553 13.8948 16.4262 13.9001 16.4849C13.9054 16.5436 13.9571 16.5885 13.9571 16.5885C13.9571 16.5885 13.6127 17.158 14.2911 17.7319C14.1305 17.7966 13.9261 17.8855 13.8173 17.9367C13.8948 17.9548 14.0605 17.9879 14.1305 18.0507C14.2005 18.1135 14.2005 18.1335 14.2652 18.1724C14.3299 18.2113 14.3686 18.2631 14.3558 18.2863C14.3118 18.2603 14.1641 18.1828 14.1384 18.2552C14.1126 18.3276 13.4989 18.2992 13.4989 18.2992L12.4633 18.4986C12.4633 18.4986 12.502 18.395 12.3933 18.2992C12.2665 18.1854 12.1112 18.3044 11.9455 18.1775C11.728 18.0118 11.7202 17.8202 11.6504 17.7478C11.7202 17.7038 11.8627 17.6391 12.2018 17.5942C12.1888 17.5683 12.1448 17.4906 12.1708 17.4208C12.2018 17.3302 12.3312 17.2732 12.2924 17.1648C12.3494 17.1518 12.3752 17.1518 12.5177 16.9732C12.6524 16.7945 12.7351 16.7557 12.8387 16.7428C12.9423 16.7298 13.0045 16.7428 13.1961 16.5641C13.3306 16.4373 13.2867 16.3285 13.2867 16.3285C13.2867 16.3285 13.3746 16.3 13.3437 16.1214L13.3436 16.1217Z" fill="#CBAC5A"/>
<path fill-rule="evenodd" clip-rule="evenodd" d="M12.2125 16.1792C12.2176 16.1533 12.2385 16.1403 12.3782 16.1533C12.518 16.1662 13.4034 16.0705 13.6442 16.0575C13.8876 16.0394 14.7445 16.0522 15.1615 16.1403C15.5784 16.2284 16.0003 16.332 16.2047 16.3837C16.4095 16.4407 16.4741 16.4612 16.4662 16.4871C16.4611 16.513 16.415 16.5383 16.3886 16.5311C16.3628 16.526 15.6844 16.3188 15.4748 16.2751C15.2652 16.2314 14.5401 16.1145 14.1436 16.1215C13.7734 16.1268 13.6258 16.1164 13.3126 16.1526C12.9993 16.1915 12.4815 16.2432 12.3262 16.2226C12.1726 16.2045 12.2043 16.2045 12.2122 16.1785L12.2125 16.1792Z" fill="#D6BC6F"/>
<path fill-rule="evenodd" clip-rule="evenodd" d="M14.2963 18.2084C14.2963 18.2084 14.827 18.4958 15.0187 18.8479C15.1585 19.1094 14.9359 19.2389 14.9359 19.2389C14.9359 19.2389 15.2363 19.2389 15.1974 19.4046C15.1793 19.5081 14.6796 19.7876 14.3456 19.9352C14.0065 20.0829 14.0194 20.0752 13.8537 20.101C13.6931 20.1269 13.253 20.0498 13.1624 20.1786C13.0717 20.3075 13.1112 20.4403 13.1364 20.4609C13.1624 20.479 13.3721 20.5049 13.3721 20.5049C13.3721 20.5049 13.3281 20.6266 12.8932 20.6396C12.4584 20.6526 12.3495 20.6835 12.3235 20.7302C12.2976 20.7741 12.4063 20.7483 12.6058 20.7814C12.8052 20.8125 13.0847 20.8326 13.0847 20.8326C13.0847 20.8326 12.9941 20.9103 12.7586 20.9724C12.4893 21.0422 12.0672 21.107 11.9404 21.1847C12.0051 21.2287 12.101 21.2934 12.1452 21.2985C12.0365 21.3245 11.8836 21.3815 11.8578 21.4021C11.8965 21.4281 11.9484 21.4591 11.9484 21.4591C11.9484 21.4591 11.7308 21.7206 11.604 21.7854C11.4772 21.8503 10.7471 22.1892 10.4959 22.1246C9.86935 21.9588 9.79169 21.2728 9.63895 21.2211C9.40855 21.1434 9.29983 21.2985 9.0952 21.1898C9.18583 21.1251 9.23515 21.0864 9.33089 21.0424C9.2273 20.9912 8.69141 20.6514 8.69141 20.6514C8.63537 20.5292 8.57316 20.41 8.50504 20.2942C8.40144 20.1155 8.24904 19.8772 8.13469 19.6675C7.8862 19.2067 7.87323 18.9944 7.64795 18.7329C7.68686 18.6817 7.82135 18.6889 7.82135 18.6889L9.70892 19.3103L13.0559 19.4072L13.9263 18.1646L14.2964 18.2086L14.2963 18.2084Z" fill="#DFC677"/>
<path fill-rule="evenodd" clip-rule="evenodd" d="M9.33838 20.1035C9.35858 20.126 9.38212 20.1452 9.40818 20.1605C9.47303 20.2045 9.56878 20.2564 9.63346 20.3339C9.6594 20.2952 9.72409 20.2252 9.83826 20.3339C9.95244 20.4426 10.0943 20.3651 10.1825 20.3909C10.2731 20.4221 10.2782 20.4349 10.2782 20.4349C10.2782 20.4349 10.3294 20.3909 10.444 20.3443C10.5139 20.3184 10.5967 20.3003 10.6873 20.2745C10.7701 20.2564 10.8607 20.2305 10.923 20.2305C10.98 20.2692 11.1845 20.4865 12.0052 20.1658C12.7794 19.8654 12.9579 19.8318 13.0874 19.8782C13.1004 19.8472 13.1134 19.7876 13.3127 19.7954C13.3127 19.7127 13.147 19.4304 13.147 19.4304L12.2331 19.1172H11.7332L10.2342 19.3917L9.40357 19.8656L9.33889 20.1045L9.33838 20.1035Z" fill="#C4A859"/>
<path fill-rule="evenodd" clip-rule="evenodd" d="M8.83887 19.578C8.83887 19.578 8.85696 19.7178 9.06415 19.8654C9.26895 20.0129 9.33329 20.101 9.33329 20.101C9.33329 20.101 9.3722 20.0498 9.40326 19.9975C9.43432 19.9405 9.46026 19.8758 9.51198 19.8578C9.61557 19.8137 9.85109 19.8965 9.90297 19.8835C9.94701 19.8707 9.93404 19.7801 9.98063 19.7801C10.0893 19.7748 10.1591 19.8499 10.1981 19.8499C10.237 19.8499 10.3325 19.8448 10.3455 19.8241C10.3585 19.8035 10.3636 19.5884 10.5112 19.4848C10.6718 19.371 10.8686 19.4202 10.9208 19.4461C10.9208 19.4848 10.926 19.5808 11.0295 19.5859C11.1331 19.591 11.1434 19.5729 11.2343 19.604C11.3253 19.635 11.4337 19.5989 11.4828 19.7514C11.5269 19.7386 11.6305 19.7257 11.6045 19.578C11.6557 19.5393 11.7004 19.5133 11.8093 19.3606C11.8353 19.3219 11.8791 19.2778 11.9129 19.2208C12.0035 19.2208 12.1123 19.2027 12.2571 19.3295C12.2131 19.3606 12.1872 19.3807 12.1744 19.4123C12.2123 19.4498 12.2469 19.4905 12.2778 19.534C12.3167 19.5852 12.3427 19.648 12.3918 19.661C12.5005 19.692 12.6792 19.648 12.8785 19.661C13.0702 19.6739 13.2306 19.7437 13.3006 19.7878C13.3265 19.775 13.3265 19.7697 13.3912 19.7827C13.4559 19.7956 13.5051 19.8008 13.4353 19.718C13.474 19.7361 13.518 19.775 13.5569 19.7361C13.5959 19.6972 13.6267 19.6403 13.7355 19.6274C13.8442 19.6144 13.8831 19.6325 13.9271 19.5186C13.9841 19.3789 13.7873 19.3789 13.7873 19.3789C13.7873 19.3789 13.878 19.2959 13.979 19.1872C14.1007 19.0734 14.2405 18.9257 14.2741 18.7445C14.3311 18.4105 14.0049 18.3666 14.0049 18.3666L12.423 18.8534L10.489 18.7575L8.83989 19.5782L8.83887 19.578Z" fill="#927D49"/>
<path fill-rule="evenodd" clip-rule="evenodd" d="M7.41768 15.0084C7.41768 15.0084 7.36648 15.0731 7.3349 15.2259C7.30333 15.3786 7.31681 15.3605 7.29087 15.4692C7.26493 15.578 6.9463 16.6602 7.06576 17.0252C7.18523 17.3903 7.39208 17.5249 7.52144 17.82C7.54738 17.8847 7.57264 17.9236 7.58613 17.9806C7.63016 18.1721 7.59142 18.3197 7.64313 18.5114C7.66122 18.5761 7.70798 18.6512 7.77778 18.7288C7.93138 18.8892 8.18175 19.042 8.28978 19.1507C8.44236 19.3113 8.65996 19.6376 8.93695 19.6685C9.08458 19.6866 9.29433 19.6245 9.46773 19.521C9.62133 19.4251 9.71622 19.2906 9.87733 19.2138C9.99116 19.1568 10.1128 19.1362 10.2216 19.1102C10.4468 19.0662 10.6515 19.059 10.7732 19.0843C10.9595 19.1232 11.3997 19.2579 11.6436 19.2579C11.8341 19.2548 12.0236 19.2287 12.208 19.1802C12.5781 19.0715 13.026 18.885 13.3212 18.8022C13.4946 18.751 13.6344 18.7375 13.7769 18.7064C14.0203 18.6494 14.2247 18.5718 14.3413 18.4242C14.2636 18.3335 14.1679 18.1938 13.6499 18.1989C13.0623 18.2119 12.3839 18.538 12.0499 18.5899C11.7159 18.6418 11.571 18.6856 11.1981 18.551C10.8325 18.415 10.8204 18.325 10.8204 18.325C10.8204 18.325 10.4366 18.0566 10.276 17.3722C10.1154 16.6878 10.276 16.1891 10.6929 15.7152C10.8017 15.5935 10.7757 15.4848 10.7757 15.4848C10.7757 15.4848 11.0501 15.1146 10.9751 14.768C10.8923 14.4236 10.3615 14.4935 10.3615 14.4935L7.41785 15.0084H7.41768Z" fill="#6E6342"/>
<path fill-rule="evenodd" clip-rule="evenodd" d="M7.86003 16.1606C7.8372 16.2035 7.82647 16.2518 7.82897 16.3004C7.83409 16.3702 7.85491 16.4608 8.06449 16.6654C8.24318 16.8439 8.20426 17.0433 8.20426 17.0433C8.20426 17.0433 8.29421 17.0614 8.53826 16.9472C8.72992 16.8566 8.79426 17.0172 8.79426 17.0172C8.85005 16.9879 8.91052 16.9686 8.97295 16.9602C9.02951 16.9549 9.08425 16.9375 9.13337 16.909C9.13337 16.909 9.35865 17.1394 9.55543 17.2481C9.73412 17.344 9.83772 17.4087 9.92578 17.344C10.0086 17.287 10.0086 17.1704 10.0033 17.1187C9.98273 17.071 9.95672 17.0258 9.92578 16.9841C9.86878 16.9013 9.77815 16.8054 9.77218 16.7281C9.75921 16.5495 9.90684 16.3371 9.8756 16.2853C9.84437 16.2336 9.72815 16.2207 9.44074 16.3243C9.1431 16.4226 7.85884 16.1611 7.85884 16.1611L7.86003 16.1606Z" fill="#39331F"/>
<path fill-rule="evenodd" clip-rule="evenodd" d="M8.53838 17.3179C8.53838 17.3179 8.39093 17.1781 8.44264 16.4997C8.50524 16.4988 8.56775 16.5049 8.62901 16.5178C8.62901 16.5178 8.70939 17.0435 8.53838 17.3179Z" fill="#292311"/>
<path fill-rule="evenodd" clip-rule="evenodd" d="M7.4872 14.4906C7.50778 14.4754 7.52687 14.4583 7.54421 14.4394C7.49301 14.5352 7.25663 14.9183 7.44829 15.5216C7.63995 16.1222 8.1214 16.57 8.7143 16.5909C9.30719 16.6117 9.61883 16.3215 9.97518 15.8867C10.115 15.7133 10.2756 15.4957 10.4179 15.3482C10.6302 15.1177 10.7959 15.053 10.7959 14.8304C10.7959 14.3748 10.3298 14.1701 9.64375 13.9657C8.95767 13.7612 8.33883 13.7865 8.01781 13.9264C7.70463 14.079 7.56998 14.2396 7.48703 14.4908L7.4872 14.4906Z" fill="#252211"/>
<path fill-rule="evenodd" clip-rule="evenodd" d="M9.69045 17.5224L9.74165 17.4964C9.74165 17.4964 9.75445 17.2916 9.8374 17.2971C9.92017 17.31 9.95908 17.4189 9.95123 17.4577C9.94611 17.4964 9.92546 17.5613 9.84252 17.5534C9.7338 17.556 9.68994 17.5224 9.68994 17.5224H9.69045Z" fill="#3F3824"/>
<path fill-rule="evenodd" clip-rule="evenodd" d="M9.46045 16.6525C9.46045 16.6525 9.51165 16.6344 9.57428 16.6965C9.62548 16.6965 9.84872 16.6706 9.91869 16.7146C9.98866 16.7586 10.0093 16.7974 10.0093 16.7974C10.0093 16.7974 9.74785 16.8544 9.60535 16.7974C9.46045 16.7482 9.46045 16.6525 9.46045 16.6525H9.46045Z" fill="#2D2815"/>
<path fill-rule="evenodd" clip-rule="evenodd" d="M10.6124 16.6912C10.6124 16.6782 10.4726 16.5825 10.325 16.5513C10.299 16.5461 10.2937 16.5642 10.2738 16.5642C10.2608 16.5591 10.2557 16.5202 10.2557 16.5202L10.1717 16.5644C10.1717 16.5644 10.1587 16.5825 10.2028 16.6156C10.2415 16.6467 10.3064 16.6726 10.3245 16.7243C10.3425 16.776 10.3425 16.7941 10.3504 16.802C10.3555 16.8071 10.4461 16.802 10.4902 16.776C10.5342 16.7501 10.6171 16.7078 10.6119 16.6907L10.6124 16.6912Z" fill="#82764F"/>
<path fill-rule="evenodd" clip-rule="evenodd" d="M9.30518 17.2168C9.30518 17.2168 9.33095 17.0383 9.50451 17.0305C9.68303 17.0175 9.71682 17.1909 9.71682 17.1909L9.61323 17.2945C9.61323 17.2919 9.53558 17.1832 9.30603 17.2168H9.30518Z" fill="#2D2816"/>
<path fill-rule="evenodd" clip-rule="evenodd" d="M10.4312 16.4478C10.4312 16.4478 10.3353 16.5514 10.1231 16.5825C10.105 16.5565 10.0661 16.5048 10.1231 16.4221C10.1801 16.3393 10.2448 16.3133 10.3095 16.3391C10.3678 16.3486 10.4152 16.391 10.4312 16.4478Z" fill="#574F35"/>
<path fill-rule="evenodd" clip-rule="evenodd" d="M10.8222 16.5748C10.8275 16.5489 10.8094 16.5438 10.8222 16.5308C10.835 16.5178 10.9051 16.492 10.9181 16.5048C10.9232 16.5101 10.9181 16.5308 10.9181 16.556C10.9181 16.5813 10.9181 16.6072 10.9051 16.6258C10.887 16.6518 10.8353 16.6648 10.8094 16.6571C10.7834 16.6494 10.7783 16.613 10.7783 16.6059C10.7911 16.6008 10.8222 16.5878 10.8222 16.5748ZM11.2643 16.2953C11.2643 16.2823 11.3083 16.2563 11.3342 16.2563C11.373 16.2563 11.373 16.2874 11.3783 16.2953C11.3911 16.3004 11.3911 16.29 11.404 16.3134C11.417 16.3367 11.4353 16.378 11.4221 16.404C11.409 16.4299 11.3574 16.4478 11.3446 16.4427C11.3266 16.4297 11.2695 16.3134 11.2643 16.2953Z" fill="#82764F"/>
<path fill-rule="evenodd" clip-rule="evenodd" d="M10.374 16.6344C10.374 16.6344 10.431 16.6472 10.5087 16.712C10.4827 16.7301 10.4438 16.7508 10.4438 16.7508C10.4438 16.7508 10.4387 16.6912 10.374 16.6342V16.6344Z" fill="#6E6342"/>
<path fill-rule="evenodd" clip-rule="evenodd" d="M10.2472 16.0647C10.2342 16.0519 10.2859 16.0208 10.317 16.0259C10.348 16.0311 10.361 16.0519 10.3946 16.057C10.4282 16.0621 10.4335 16.044 10.4458 16.0311C10.4581 16.0181 10.5028 16.0259 10.5105 16.0311C10.5153 16.0367 10.5196 16.0428 10.5235 16.0491C10.5246 16.0292 10.5339 16.0107 10.5492 15.9979C10.5694 15.9832 10.5951 15.9784 10.6192 15.985C10.6243 16.0031 10.6503 16.0678 10.6452 16.0807C10.64 16.0937 10.5624 16.112 10.5492 16.0988C10.5622 16.13 10.6192 16.1947 10.6269 16.2075C10.6346 16.2203 10.5699 16.2516 10.5441 16.2464C10.5079 16.2439 10.2852 16.1143 10.2465 16.0652L10.2472 16.0647ZM10.5863 15.6349C10.5815 15.6219 10.5724 15.6109 10.5604 15.6039C10.5423 15.5988 10.4827 15.6039 10.4827 15.6349C10.4827 15.666 10.5339 15.8397 10.5915 15.9302C10.6563 16.0208 10.7002 16.0957 10.7442 16.1166C10.7729 16.1296 10.8068 16.1183 10.8219 16.0906C10.827 16.0777 10.84 15.9819 10.8348 15.7566C10.8297 15.5313 10.8219 15.3139 10.8089 15.3009C10.7959 15.288 10.7442 15.2881 10.7261 15.3139C10.708 15.3397 10.5915 15.5962 10.5862 15.6349H10.5863Z" fill="#585136"/>
<path fill-rule="evenodd" clip-rule="evenodd" d="M10.356 16.9605C10.356 16.9605 10.2654 16.9035 10.1773 16.9424C10.0946 16.9813 10.0997 17.1341 10.0997 17.1341C10.1375 17.1489 10.1802 17.144 10.2137 17.1211C10.2707 17.0824 10.343 17.0177 10.356 16.9607V16.9605Z" fill="#574F35"/>
<path fill-rule="evenodd" clip-rule="evenodd" d="M10.5268 17.1651C10.5217 17.1139 10.4756 17.1139 10.4756 17.0875C10.4821 17.0615 10.5056 17.0433 10.5324 17.0435C10.5584 17.0435 10.5836 17.0745 10.6154 17.0947C10.6464 17.1127 10.693 17.1459 10.6981 17.1853C10.7033 17.2247 10.6469 17.3327 10.5843 17.3327C10.5217 17.3327 10.5403 17.2162 10.5273 17.1645L10.5268 17.1651ZM11.0265 17.0952C11.0265 17.0952 10.9229 17.1262 10.9306 17.0952C10.9382 17.0641 10.9618 17.0564 10.9954 17.0564C11.0125 17.0386 11.0355 17.0275 11.0601 17.0252C11.0742 17.0245 11.088 17.0291 11.0988 17.0382C11.0988 17.0382 11.1688 17.0071 11.1895 17.0252C11.2101 17.0433 11.1947 17.0433 11.2075 17.0641C11.2238 17.0872 11.2345 17.1138 11.2388 17.1418C11.2388 17.1624 11.1611 17.2064 11.0988 17.1988C11.0265 17.1832 11.0393 17.1081 11.0265 17.0952ZM11.6297 16.9786C11.6297 16.9786 11.6607 16.9967 11.635 17.0175C11.6169 17.0356 11.5263 17.0687 11.4484 17.0745C11.3708 17.0745 11.301 17.0873 11.301 17.0615C11.301 17.0358 11.3657 16.9839 11.4044 16.9709C11.4201 16.9512 11.444 16.9398 11.4693 16.9399C11.5003 16.9399 11.6218 16.9269 11.6556 16.9218C11.6867 16.9165 11.7126 16.9346 11.6944 16.9605C11.6867 16.9786 11.6297 16.9786 11.6297 16.9786ZM11.8083 16.1792C11.8083 16.1792 11.7694 16.262 11.7256 16.262C11.6815 16.2569 11.6815 16.2439 11.6815 16.2309C11.6815 16.2128 11.7256 16.1662 11.7203 16.1533C11.7075 16.1533 11.6762 16.1533 11.6815 16.1222C11.6815 16.0963 11.7256 16.0652 11.7643 16.071C11.7936 16.0469 11.83 16.0333 11.8679 16.0323C11.9119 16.0323 11.9507 16.0451 11.9507 16.071C11.9507 16.0969 11.8995 16.1538 11.8807 16.1669C11.86 16.1876 11.8341 16.201 11.8083 16.1797V16.1792ZM11.2179 17.7092C11.2179 17.7092 11.1667 17.7145 11.1667 17.7403C11.1667 17.7533 11.1795 17.7533 11.1978 17.7456C11.2083 17.745 11.2187 17.7432 11.2289 17.7403C11.234 17.7456 11.234 17.7714 11.2729 17.7714C11.3048 17.767 11.3356 17.7565 11.3635 17.7403C11.3946 17.7275 11.4205 17.7143 11.4205 17.6891C11.4075 17.6451 11.3816 17.6242 11.3429 17.6242C11.323 17.623 11.3032 17.6275 11.2859 17.6372C11.2859 17.6372 11.2729 17.6113 11.2289 17.6372C11.1848 17.6631 11.1899 17.6631 11.2029 17.6761C11.2261 17.6968 11.2184 17.7103 11.2184 17.7103L11.2179 17.7092ZM10.9255 17.9785C10.9255 17.9656 10.9902 17.9396 11.0083 17.9475C11.0264 17.9526 11.0781 18.0509 11.0781 18.0613C11.0781 18.0743 11.0134 18.1053 10.9874 18.1053C10.9615 18.1053 10.9176 18.0613 10.9176 18.0541C10.9176 18.049 10.9487 18.0413 10.9487 18.0361C10.9564 18.0233 10.9255 17.992 10.9255 17.9791V17.9785ZM10.7207 17.6005C10.7336 17.5954 10.7336 17.5824 10.7517 17.5695C10.7632 17.5618 10.7776 17.5599 10.7906 17.5643C10.7999 17.5478 10.8161 17.5364 10.8347 17.5331C10.8657 17.528 10.8917 17.5331 10.8859 17.5461C10.8859 17.585 10.9118 17.6108 10.9118 17.6418C10.9118 17.6729 10.8937 17.7118 10.829 17.7377C10.7644 17.7558 10.6763 17.7558 10.6633 17.7507C10.6504 17.7456 10.6374 17.6937 10.6504 17.6678C10.6633 17.6418 10.6995 17.6135 10.7203 17.6005H10.7207Z" fill="#82764F"/>
<path fill-rule="evenodd" clip-rule="evenodd" d="M10.8031 17.6181C10.8031 17.6181 10.7591 17.644 10.7591 17.657C10.7552 17.6695 10.7535 17.6826 10.754 17.6958C10.754 17.7034 10.811 17.6906 10.8187 17.6828C10.8212 17.6777 10.8031 17.6316 10.8031 17.6181Z" fill="#6E6342"/>
<path fill-rule="evenodd" clip-rule="evenodd" d="M10.418 17.4964C10.4438 17.5017 10.4878 17.4964 10.5214 17.5094C10.5474 17.5224 10.5654 17.5483 10.5395 17.5794C10.5136 17.6104 10.4883 17.657 10.4308 17.6492C10.3661 17.644 10.304 17.6104 10.304 17.5845C10.3018 17.5513 10.313 17.5187 10.335 17.4939C10.361 17.4732 10.3738 17.4862 10.4178 17.4964H10.418Z" fill="#585136"/>
<path fill-rule="evenodd" clip-rule="evenodd" d="M10.387 17.5223C10.387 17.5223 10.3043 17.587 10.2834 17.6183C10.2575 17.6493 10.1307 17.8097 10.0919 17.8434C10.1048 17.8207 10.1195 17.799 10.1358 17.7787C10.0846 17.8114 10.0462 17.8608 10.0271 17.9185C9.99603 18.0144 10.2007 18.0661 10.3351 18.105C10.4696 18.1439 10.5217 18.1562 10.5217 18.1562C10.4722 18.0818 10.4297 18.0029 10.3947 17.9207C10.3435 17.799 10.3171 17.786 10.3507 17.729C10.3766 17.672 10.4155 17.6333 10.4155 17.5892C10.4 17.5483 10.387 17.5223 10.387 17.5223Z" fill="#574F35"/>
<path fill-rule="evenodd" clip-rule="evenodd" d="M7.4354 17.727C7.45424 17.7304 7.47356 17.7304 7.4924 17.727C7.53114 17.7217 7.93511 17.5734 8.35717 17.6C8.67313 17.6191 8.98629 17.6706 9.29174 17.7536C9.82251 17.8934 10.4827 18.1704 10.9098 18.3284C11.0237 18.3723 11.1351 18.4501 11.217 18.481C11.5433 18.608 11.5561 18.608 11.7478 18.6416C11.9731 18.6726 12.2035 18.5975 12.4443 18.5458C12.7394 18.481 13.2442 18.4499 13.6869 18.3852C13.8301 18.3654 13.9713 18.3334 14.109 18.2895C14.109 18.2895 13.7569 18.6416 12.9128 18.7684C12.5716 18.8202 12.2249 18.8246 11.8825 18.7814C11.6131 18.7554 11.4346 18.7165 11.3 18.6778C11.1472 18.6337 10.8339 18.5172 10.4482 18.4218C10.1789 18.3518 9.87849 18.3001 9.53426 18.2354C8.68502 18.0799 7.76342 17.9014 7.43506 17.728L7.4354 17.727Z" fill="#252211"/>
<path fill-rule="evenodd" clip-rule="evenodd" d="M6.48262 16.127C6.27782 16.3004 6.06056 16.4661 5.84842 16.6265L5.20893 17.1179C4.99151 17.2783 4.7792 17.444 4.5616 17.6046C4.344 17.7652 4.12674 17.9178 3.896 18.0654C4.1008 17.892 4.31805 17.7314 4.53548 17.5736C4.75291 17.4157 4.97836 17.2609 5.18811 17.1008L5.8276 16.6088C6.04759 16.4483 6.2599 16.2826 6.48262 16.1273V16.127ZM5.35134 17.9393C5.35134 17.9393 5.58174 17.7476 5.86915 17.4785C6.22635 17.1447 6.66394 16.7173 6.80372 16.6398L5.35117 17.9395L5.35134 17.9393Z" fill="#CFB66C"/>
<path fill-rule="evenodd" clip-rule="evenodd" d="M5.35156 17.9391C5.46557 17.8253 5.58725 17.714 5.70894 17.6051L5.89531 17.4447C5.95231 17.3935 6.01716 17.336 6.07399 17.279C6.18783 17.1651 6.29927 17.0433 6.41311 16.9269C6.46953 16.8683 6.52919 16.813 6.5918 16.7612C6.6231 16.7335 6.65786 16.7099 6.69522 16.6912C6.72645 16.6731 6.76007 16.64 6.80394 16.6342C6.77817 16.6731 6.7471 16.6912 6.72116 16.7248C6.6901 16.7508 6.66416 16.7818 6.63839 16.8076C6.58139 16.8646 6.5167 16.9163 6.4597 16.9682C6.33802 17.0718 6.21121 17.173 6.08953 17.2814C5.96784 17.3897 5.85401 17.5066 5.73215 17.6153C5.60022 17.7268 5.47854 17.8355 5.35156 17.9396V17.9391ZM6.89968 16.9035C6.89968 16.9035 6.05573 17.7295 5.88216 17.864L6.89968 16.9035Z" fill="#CFB66C"/>
<path fill-rule="evenodd" clip-rule="evenodd" d="M6.89984 16.9035C6.82392 16.9914 6.74252 17.0744 6.65613 17.152L6.40013 17.3954C6.31735 17.4781 6.23953 17.5611 6.15164 17.6439C6.06101 17.7215 5.97824 17.7975 5.88232 17.8691L6.13081 17.6258C6.21376 17.543 6.30438 17.4732 6.39245 17.3902L6.64094 17.1469C6.72627 17.0615 6.80921 16.9786 6.89984 16.9035ZM6.93838 17.3513C6.86058 17.5685 6.76892 17.7803 6.66394 17.9857C6.44652 18.4207 6.12037 18.9643 5.97786 19.2415L6.93838 17.3513Z" fill="#CFB66C"/>
<path fill-rule="evenodd" clip-rule="evenodd" d="M6.93842 17.3515C6.93842 17.4472 6.91248 17.5302 6.88142 17.613C6.85114 17.6958 6.81662 17.777 6.77799 17.8563C6.73908 17.934 6.69505 18.0169 6.65102 18.092C6.60699 18.1671 6.55527 18.2446 6.51636 18.3224L6.2549 18.7832C6.16428 18.9368 6.07621 19.0913 5.98047 19.2389C6.04515 19.0732 6.13322 18.9179 6.21616 18.7651C6.30678 18.6115 6.38956 18.4579 6.47216 18.299C6.51249 18.2199 6.54877 18.1387 6.58087 18.0558C6.61962 17.9729 6.65836 17.8952 6.68959 17.8202C6.72833 17.7374 6.75939 17.6596 6.7983 17.5846C6.84216 17.5042 6.87852 17.4266 6.93808 17.3515L6.93842 17.3515Z" fill="#CFB66C"/>
<path fill-rule="evenodd" clip-rule="evenodd" d="M7.86013 19.4744C7.86013 19.4744 7.60413 19.8135 7.62973 20.2433C7.69953 20.0182 7.7876 19.6738 7.86013 19.4744ZM8.10361 19.8144C8.10361 19.8144 8.01298 20.736 7.93789 21.1891C8.04405 20.6653 8.0647 20.7094 8.10361 19.8144ZM9.79933 21.2436C9.79933 21.2436 9.41618 22.37 9.40833 22.683C9.49128 22.3611 9.6517 21.7035 9.79933 21.2427V21.2436Z" fill="#DEC270"/>
<path fill-rule="evenodd" clip-rule="evenodd" d="M10.6953 19.4048C10.6953 19.4048 11.3167 20.43 11.7828 21.305C11.6567 20.8647 11.3665 20.0571 10.6953 19.4048Z" fill="#CBAF59"/>
<path fill-rule="evenodd" clip-rule="evenodd" d="M12.3652 20.914C12.7064 21.5171 13.0141 22.1385 13.2868 22.7755C13.2351 22.3353 13.0952 21.582 12.3652 20.914Z" fill="#E3C677"/>
<path fill-rule="evenodd" clip-rule="evenodd" d="M17.2741 22.4256C17.3776 22.3609 17.5822 22.0087 17.7609 21.9208C17.9394 21.8302 18.0741 21.8121 18.2347 21.6334C18.3951 21.4468 18.4395 21.333 18.7912 21.1855C19.2832 20.9731 18.9448 20.6986 18.9448 20.6986C18.999 20.6454 19.0569 20.5961 19.1182 20.5512C19.2452 20.4554 19.3926 20.3389 19.3798 20.1342C19.3617 19.79 19.2971 19.2903 19.0148 19.0003C19.2892 18.9433 19.8147 18.9046 20.1412 18.8218C20.519 18.7259 20.6926 18.5912 20.6926 18.5912C20.6926 18.5912 20.4752 18.2211 20.8273 17.8483C21.1793 17.4756 21.4667 17.2529 21.6791 16.8359C21.4357 16.8049 21.0647 16.6755 20.1178 17.0353C20.1689 17.0593 20.2182 17.087 20.2654 17.118C20.2654 17.118 19.6829 17.2786 19.4706 17.4573C19.1003 17.7705 19.0537 18.0268 18.6525 18.2185C18.2512 18.4102 17.8472 18.3583 17.5134 18.5136C17.1796 18.6689 17.1303 18.801 17.0084 18.858C17.0344 18.8891 17.0033 18.9408 17.0525 18.9848C17.0214 19.0288 16.8401 19.3239 16.6563 19.3239C16.6744 19.3939 16.8297 19.4456 16.8297 19.4456C16.8297 19.4456 16.7159 19.5285 16.4259 19.5492C16.5734 19.7028 16.7133 19.8702 17.099 20.1136C17.068 20.1783 16.9384 20.2742 16.9903 20.3959C17.0473 20.5176 17.1951 20.6833 17.7851 20.8179C17.4847 20.8307 17.1328 20.9007 16.6587 20.836C16.185 20.779 16.1073 20.7454 15.8148 20.8179C15.8458 20.849 15.9286 20.849 16.0011 20.9318C15.9235 20.9369 15.4367 20.8748 15.271 21.0924C15.0976 21.3175 15.0225 21.6878 15.0355 21.9363C14.9449 21.9803 14.8568 22.058 14.9009 22.2186C14.9449 22.3792 15.1753 22.4309 15.3229 22.5318C15.4704 22.6405 15.4833 22.6792 15.6233 22.6535C15.7707 22.6224 15.9882 22.4749 16.1151 22.4749C16.2421 22.4749 16.3326 22.5707 16.3326 22.5707C16.3326 22.5707 16.677 22.405 16.7106 22.436C16.7417 22.4671 16.7157 22.6664 16.7493 22.6975C16.7835 22.7209 17.1714 22.4905 17.275 22.4256H17.2741Z" fill="#ECD592"/>
<path fill-rule="evenodd" clip-rule="evenodd" d="M24.8002 12.0648C23.1821 7.88617 19.182 7.11203 19.182 7.11203H7.7697L7.81373 11.3683H10.0865V20.8725H7.76953V25.1211H18.8661C21.5405 25.1211 23.6842 22.4336 23.6842 22.4336C27.1172 17.5613 24.8 12.0648 24.8 12.0648H24.8002ZM18.9256 19.5702C18.9256 19.5702 18.0552 20.8259 17.1082 20.8259H15.2138L15.1689 11.3787H17.6C17.6 11.3787 18.7264 11.6142 19.5134 13.8433C19.5134 13.8433 20.5567 17.0348 18.9256 19.5702Z" fill="white" fill-opacity="0.8"/>
</svg>
