<svg width="38" height="40" viewBox="0 0 38 40" fill="none" xmlns="http://www.w3.org/2000/svg">
<g opacity="0.6">
<path d="M25.9532 16.936L18.8838 1.05334C18.6481 0.582045 18.2711 0.205014 17.8469 0.0636257C17.4228 -0.0777627 16.9986 0.0164919 16.8101 0.346398L0.126239 26.786C-0.109409 27.2102 -0.0151467 27.8229 0.409019 28.3413C0.833184 28.8597 1.44587 29.0482 1.91717 28.9069L25.9532 16.936Z" fill="#5B5B5C"/>
<path d="M19.4008 33.0545C19.1651 33.3373 19.1652 33.8086 19.3537 34.2799C19.5893 34.7511 19.9664 35.1282 20.3905 35.2696L34.5294 39.9354C34.9535 40.0768 35.3305 39.9825 35.5662 39.6997C35.8018 39.417 35.8019 38.9928 35.6133 38.5215L29.5808 25.0425L19.4008 33.0545Z" fill="#5B5B5C"/>
<path d="M37.2642 13.9193C36.84 13.3537 36.2274 13.1181 35.7089 13.3066L25.9531 16.9356L29.5821 25.0418L37.4527 15.5217C37.7355 15.0975 37.6884 14.4377 37.2642 13.9193Z" fill="#5B5B5C"/>
</g>
</svg>
