<svg width="32" height="32" viewBox="0 0 32 32" fill="none" xmlns="http://www.w3.org/2000/svg">
<g clip-path="url(#clip0_1140_26847)">
<circle cx="16" cy="16" r="16" fill="#EDF0F4"/>
<path fill-rule="evenodd" clip-rule="evenodd" d="M10.1348 15.0044L16.0373 11.8971L21.8915 15.0237L16.0115 6.39996L10.1348 15.0044ZM10.3598 15.9017L16.0435 12.8688L21.6533 15.8796L16.0467 18.9158L10.3598 15.9017ZM10.1348 16.7703C12.2062 17.8704 14.3678 19.0219 16.0373 19.913L21.8915 16.7703C19.7718 19.9194 18.0056 22.541 16.0373 25.4424L14.8999 23.7726L14.8993 23.7717C13.256 21.3595 11.5559 18.8639 10.1348 16.7703Z" fill="#3AB83A"/>
<path fill-rule="evenodd" clip-rule="evenodd" d="M16.0117 6.39996L16.0375 11.8974L21.8917 15.0237L16.0117 6.39996ZM16.0441 12.8688L21.6539 15.8795L16.0473 18.9158L16.0441 12.8688ZM16.0374 19.9129L21.8916 16.7703C19.7719 19.9193 16.0374 25.4423 16.0374 25.4423V19.9129Z" fill="#0B8311"/>
<path d="M10.3594 15.9018L16.0434 16.3683L21.6532 15.8826L16.0463 18.919L10.3594 15.9018Z" fill="#0B8311"/>
<path d="M16.043 16.3683L21.6527 15.8826L16.0462 18.919L16.043 16.3683Z" fill="#146714"/>
</g>
<defs>
<clipPath id="clip0_1140_26847">
<rect width="32" height="32" fill="white"/>
</clipPath>
</defs>
</svg>
