<svg width="44" height="32" viewBox="0 0 44 32" fill="none" xmlns="http://www.w3.org/2000/svg">
<path d="M31.5216 19.8705C29.3847 28.442 20.7032 33.6584 12.1306 31.521C3.56168 29.3841 -1.65477 20.702 0.483083 12.1312C2.61906 3.5587 11.3006 -1.65814 19.8705 0.478775C28.4424 2.61569 33.6585 11.2987 31.5214 19.8706L31.5215 19.8705H31.5216Z" fill="#F7931A"/>
<path fill-rule="evenodd" clip-rule="evenodd" d="M23.0564 13.7204C23.3748 11.5911 21.7537 10.4466 19.5371 9.68305L20.2562 6.79879L18.5004 6.36131L17.8004 9.16963C17.3388 9.05451 16.8648 8.94603 16.3937 8.8385L17.0988 6.01165L15.3442 5.57416L14.6247 8.45748C14.2427 8.37051 13.8676 8.28456 13.5036 8.194L13.5056 8.18493L11.0844 7.58031L10.6174 9.45555C10.6174 9.45555 11.92 9.75414 11.8925 9.77252C12.6035 9.94997 12.7321 10.4206 12.7107 10.7937L11.8916 14.0795C11.9405 14.0919 12.004 14.1099 12.0741 14.1381L12.0231 14.1254C11.9798 14.1145 11.9348 14.1033 11.8885 14.0922L10.7404 18.6952C10.6535 18.9112 10.433 19.2354 9.93587 19.1123C9.95347 19.1378 8.65978 18.7938 8.65978 18.7938L7.78809 20.8036L10.0729 21.3731C10.3231 21.4359 10.5703 21.5003 10.8151 21.5641C10.9861 21.6087 11.1559 21.653 11.3247 21.6961L10.5981 24.6135L12.3518 25.051L13.0713 22.1646C13.5504 22.2946 14.0154 22.4146 14.4705 22.5277L13.7534 25.4005L15.5093 25.8379L16.2357 22.9261C19.2296 23.4927 21.4808 23.2642 22.4284 20.5563C23.1919 18.376 22.3903 17.1185 20.8153 16.2984C21.9625 16.0338 22.8266 15.2793 23.057 13.7206L23.0564 13.7202L23.0564 13.7204ZM19.0452 19.3455C18.5474 21.3458 15.4164 20.5188 13.9838 20.1404L13.9837 20.1404C13.8549 20.1064 13.7398 20.076 13.6416 20.0516L14.6057 16.1866C14.7254 16.2165 14.8717 16.2493 15.0374 16.2865L15.0375 16.2865C16.5193 16.6191 19.5552 17.3004 19.0453 19.3455H19.0452ZM15.3342 14.4927C16.5286 14.8115 19.134 15.5068 19.5878 13.6888H19.5879C20.0513 11.8294 17.5192 11.2688 16.2826 10.995C16.1435 10.9642 16.0207 10.9371 15.9205 10.9121L15.0464 14.4174C15.1289 14.4379 15.2258 14.4638 15.3342 14.4927Z" fill="white"/>
<path d="M43.5177 19.8705C41.3808 28.442 32.6992 33.6584 24.1267 31.521C15.5578 29.3841 10.3413 20.702 12.4792 12.1312C14.6152 3.5587 23.2967 -1.65814 31.8666 0.478775C40.4385 2.61569 45.6546 11.2987 43.5175 19.8706L43.5176 19.8705H43.5177Z" fill="#FFD232"/>
<path d="M30.59 15H34V13H32.32C32.74 12.34 33 11.68 33 11C33 8.37 30.5 7 28 7C25.65 7 23.53 9.06 23.29 9.29L24.71 10.71C25.19 10.23 26.71 9 28 9C29.04 9 31 9.42 31 11C31 11.5 30.5 12.24 29.76 13H22V15H27.63C27.21 15.36 25.75 16.67 25.41 17H22V19H23.68C23.26 19.66 23 20.32 23 21C23 23.63 25.5 25 28 25C30.35 25 32.47 22.94 32.71 22.71L31.29 21.29C30.82 21.77 29.29 23 28 23C26.96 23 25 22.58 25 21C25 20.5 25.5 19.76 26.24 19H34V17H28.38L30.59 15Z" fill="#2D6DB8"/>
</svg>
