<svg width="44" height="32" viewBox="0 0 44 32" fill="none" xmlns="http://www.w3.org/2000/svg">
<circle cx="16" cy="16" r="16" fill="#5DAF50"/>
<path d="M16.0004 14.7601C12.7204 14.7601 12.7204 13.7269 12.7204 13.1201C12.7204 12.5133 13.8684 11.4801 16.0004 11.4801C18.1324 11.4801 18.28 12.5297 18.2964 13.1201H21.5764C21.5543 12.0028 21.1524 10.9264 20.437 10.0679C19.7217 9.20949 18.7354 8.62013 17.6404 8.39686V6.56006H14.3604V8.34766C11.0804 8.88886 9.44043 11.0045 9.44043 13.1201C9.44043 14.9569 10.2932 18.0401 16.0004 18.0401C19.2804 18.0401 19.2804 19.1553 19.2804 19.6801C19.2804 20.2049 18.2636 21.3201 16.0004 21.3201C12.9828 21.3201 12.7204 19.9097 12.7204 19.6801H9.44043C9.44043 21.1889 10.5228 23.8621 14.3604 24.4689V26.2401H17.6404V24.4689C20.9204 23.9113 22.5604 21.7957 22.5604 19.6801C22.5604 17.8433 21.7076 14.7601 16.0004 14.7601V14.7601Z" fill="white"/>
<path d="M43.5216 19.8705C41.3847 28.442 32.7032 33.6584 24.1306 31.521C15.5617 29.3841 10.3452 20.702 12.4831 12.1312C14.6191 3.5587 23.3006 -1.65814 31.8705 0.478775C40.4424 2.61569 45.6585 11.2987 43.5214 19.8706L43.5215 19.8705H43.5216Z" fill="#F7931A"/>
<path fill-rule="evenodd" clip-rule="evenodd" d="M35.0564 13.7204C35.3748 11.5911 33.7537 10.4466 31.5371 9.68305L32.2562 6.79879L30.5004 6.36131L29.8004 9.16963C29.3388 9.05451 28.8648 8.94603 28.3937 8.8385L29.0988 6.01165L27.3442 5.57416L26.6247 8.45748C26.2427 8.37051 25.8676 8.28456 25.5036 8.194L25.5056 8.18493L23.0844 7.58031L22.6174 9.45555C22.6174 9.45555 23.92 9.75414 23.8925 9.77252C24.6035 9.94997 24.7321 10.4206 24.7107 10.7937L23.8916 14.0795C23.9405 14.0919 24.004 14.1099 24.0741 14.1381L24.0231 14.1254C23.9798 14.1145 23.9348 14.1033 23.8885 14.0922L22.7404 18.6952C22.6535 18.9112 22.433 19.2354 21.9359 19.1123C21.9535 19.1378 20.6598 18.7938 20.6598 18.7938L19.7881 20.8036L22.0729 21.3731C22.3231 21.4359 22.5703 21.5003 22.8151 21.5641C22.9861 21.6087 23.1559 21.653 23.3247 21.6961L22.5981 24.6135L24.3518 25.051L25.0713 22.1646C25.5504 22.2946 26.0154 22.4146 26.4705 22.5277L25.7534 25.4005L27.5093 25.8379L28.2357 22.9261C31.2296 23.4927 33.4808 23.2642 34.4284 20.5563C35.1919 18.376 34.3903 17.1185 32.8153 16.2984C33.9625 16.0338 34.8266 15.2793 35.057 13.7206L35.0564 13.7202L35.0564 13.7204ZM31.0452 19.3455C30.5474 21.3458 27.4164 20.5188 25.9838 20.1404L25.9837 20.1404C25.8549 20.1064 25.7398 20.076 25.6416 20.0516L26.6057 16.1866C26.7254 16.2165 26.8717 16.2493 27.0374 16.2865L27.0375 16.2865C28.5193 16.6191 31.5552 17.3004 31.0453 19.3455H31.0452ZM27.3342 14.4927C28.5286 14.8115 31.134 15.5068 31.5878 13.6888H31.5879C32.0513 11.8294 29.5192 11.2688 28.2826 10.995C28.1435 10.9642 28.0207 10.937 27.9205 10.912L27.0464 14.4173C27.1289 14.4379 27.2258 14.4638 27.3342 14.4927Z" fill="white"/>
</svg>
