<svg width="44" height="32" viewBox="0 0 44 32" fill="none" xmlns="http://www.w3.org/2000/svg">
<circle cx="16" cy="16" r="16" fill="white"/>
<path d="M31.9997 15.9984C31.9997 24.8338 24.8378 31.9968 16.0018 31.9968C7.16583 31.9968 0.00390625 24.8338 0.00390625 15.9984C0.00390625 7.16303 7.166 0 16.0018 0C24.8376 0 31.9997 7.16235 31.9997 15.9984Z" fill="white"/>
<path d="M16.0021 0C7.16924 0 -0.00537197 7.17316 0.00587257 15.9979C0.00808741 17.7635 0.289627 19.4618 0.818035 21.0505H5.60446V7.59219L16.0021 17.9897L26.3992 7.59219V21.0507H31.1866C31.7158 19.4622 31.9959 17.7638 31.9991 15.9982C32.0141 7.16422 24.8359 0.00212965 16.0021 0.00212965V0Z" fill="#F26822"/>
<path d="M13.6105 20.38L9.07288 15.8422V24.3108H5.60369L2.33008 24.3114C5.13806 28.9183 10.2128 32 16.0016 32C21.7905 32 26.8655 28.9176 29.674 24.3107H22.9294V15.8422L18.3915 20.38L16.0011 22.7704L13.6107 20.38V20.38H13.6105Z" fill="#4D4D4D"/>
<circle cx="28" cy="16" r="16" fill="#5DAF50"/>
<path d="M28.0004 14.7601C24.7204 14.7601 24.7204 13.7269 24.7204 13.1201C24.7204 12.5133 25.8684 11.4801 28.0004 11.4801C30.1324 11.4801 30.28 12.5297 30.2964 13.1201H33.5764C33.5543 12.0028 33.1524 10.9264 32.437 10.0679C31.7217 9.20949 30.7354 8.62013 29.6404 8.39686V6.56006H26.3604V8.34766C23.0804 8.88886 21.4404 11.0045 21.4404 13.1201C21.4404 14.9569 22.2932 18.0401 28.0004 18.0401C31.2804 18.0401 31.2804 19.1553 31.2804 19.6801C31.2804 20.2049 30.2636 21.3201 28.0004 21.3201C24.9828 21.3201 24.7204 19.9097 24.7204 19.6801H21.4404C21.4404 21.1889 22.5228 23.8621 26.3604 24.4689V26.2401H29.6404V24.4689C32.9204 23.9113 34.5604 21.7957 34.5604 19.6801C34.5604 17.8433 33.7076 14.7601 28.0004 14.7601Z" fill="white"/>
</svg>
