<svg width="44" height="32" viewBox="0 0 44 32" fill="none" xmlns="http://www.w3.org/2000/svg">
<path d="M31.5177 19.8705C29.3808 28.442 20.6992 33.6584 12.1267 31.521C3.55778 29.3841 -1.65868 20.702 0.479177 12.1312C2.61515 3.5587 11.2967 -1.65814 19.8666 0.478775C28.4385 2.61569 33.6546 11.2987 31.5175 19.8706L31.5176 19.8705H31.5177Z" fill="#50AF95"/>
<path fill-rule="evenodd" clip-rule="evenodd" d="M18.0249 17.8139V17.8139C17.9118 17.8224 17.3272 17.8573 16.0233 17.8573C14.9863 17.8573 14.25 17.8262 13.9916 17.8139V17.8139C9.98385 17.6376 6.99239 16.94 6.99239 16.1047C6.99239 15.2693 9.98385 14.5726 13.9916 14.3935V17.1191C14.2537 17.1379 15.0042 17.1823 16.0413 17.1823C17.2857 17.1823 17.9089 17.1304 18.0211 17.12V14.3954C22.0204 14.5736 25.0053 15.2712 25.0053 16.1047C25.0053 16.9381 22.0214 17.6357 18.0211 17.813V17.813L18.0249 17.8139ZM18.0249 14.1135V11.6745H23.6062V7.9552H8.41034V11.6745H13.9907V14.1125C9.45495 14.3209 6.04395 15.2194 6.04395 16.296C6.04395 17.3727 9.45495 18.2702 13.9907 18.4795V26.2952H18.0239V18.4767C22.5493 18.2684 25.9547 17.3708 25.9547 16.2951C25.9547 15.2194 22.5522 14.3218 18.0239 14.1125V14.1125L18.0249 14.1135Z" fill="white"/>
<path d="M43.5177 19.8705C41.3808 28.442 32.6992 33.6584 24.1267 31.521C15.5578 29.3841 10.3413 20.702 12.4792 12.1312C14.6152 3.5587 23.2967 -1.65814 31.8666 0.478775C40.4385 2.61569 45.6546 11.2987 43.5175 19.8706L43.5176 19.8705H43.5177Z" fill="#FFD232"/>
<path d="M30.59 15H34V13H32.32C32.74 12.34 33 11.68 33 11C33 8.37 30.5 7 28 7C25.65 7 23.53 9.06 23.29 9.29L24.71 10.71C25.19 10.23 26.71 9 28 9C29.04 9 31 9.42 31 11C31 11.5 30.5 12.24 29.76 13H22V15H27.63C27.21 15.36 25.75 16.67 25.41 17H22V19H23.68C23.26 19.66 23 20.32 23 21C23 23.63 25.5 25 28 25C30.35 25 32.47 22.94 32.71 22.71L31.29 21.29C30.82 21.77 29.29 23 28 23C26.96 23 25 22.58 25 21C25 20.5 25.5 19.76 26.24 19H34V17H28.38L30.59 15Z" fill="#2D6DB8"/>
</svg>
