<svg width="32" height="32" viewBox="0 0 32 32" fill="none" xmlns="http://www.w3.org/2000/svg">
<path d="M16 32C24.8364 32 32 24.8364 32 16C32 7.16364 24.8364 0 16 0C7.16364 0 0 7.16364 0 16C0 24.8364 7.16364 32 16 32Z" fill="url(#paint0_linear_1129_19416)"/>
<path fill-rule="evenodd" clip-rule="evenodd" d="M24.1647 15.0473H7.83529V15.0469C7.2905 15.0453 6.84925 14.6041 6.84766 14.0593C6.84925 13.5145 7.2905 13.0732 7.83529 13.0716H9.74329L7.70729 7.69527C7.51581 7.18521 7.77218 6.61626 8.28111 6.42181C8.79126 6.23058 9.36011 6.48706 9.55457 6.99599L11.8553 13.0716H19.5277L21.8287 6.99599C22.0231 6.48692 22.592 6.23036 23.1022 6.42181C23.6111 6.61626 23.8675 7.18521 23.676 7.69527L21.6404 13.0716H24.1647C24.7095 13.0732 25.1508 13.5145 25.1524 14.0593C25.151 14.6042 24.7097 15.0457 24.1647 15.0473ZM24.1644 16.8909H7.83529C7.29064 16.8925 6.84945 17.3335 6.84766 17.8782C6.84905 18.4231 7.29036 18.8646 7.83529 18.8662H11.9378L14.7178 26.2076C14.8708 26.608 15.2639 26.8646 15.692 26.8436C16.1201 26.8646 16.5132 26.608 16.6662 26.2076L19.4462 18.8658H24.1647C24.7095 18.8642 25.1508 18.423 25.1524 17.8782C25.1508 17.3334 24.7095 16.8921 24.1647 16.8905L24.1644 16.8909ZM15.6917 23.2022L14.0495 18.8654H17.3338L15.6917 23.2018V23.2022Z" fill="white"/>
<defs>
<linearGradient id="paint0_linear_1129_19416" x1="13.2889" y1="38.52" x2="38.2053" y2="18.6753" gradientUnits="userSpaceOnUse">
<stop stop-color="#F8B342"/>
<stop offset="1" stop-color="#F2C35E"/>
</linearGradient>
</defs>
</svg>
