<svg width="32" height="32" viewBox="0 0 32 32" fill="none" xmlns="http://www.w3.org/2000/svg">
<path d="M16 32C24.8128 32 32 24.8128 32 16C32 7.1888 24.8128 0 16 0C7.1888 0 2.6703e-07 7.1888 2.6703e-07 16C-0.00159973 24.8128 7.1872 32 16 32Z" fill="black"/>
<path fill-rule="evenodd" clip-rule="evenodd" d="M11.896 7.70721H14.2C14.288 7.70721 14.3584 7.77921 14.3584 7.86721V11.2336C14.3584 11.3232 14.4304 11.3936 14.5184 11.3936H17.4768C17.5648 11.3936 17.6368 11.3232 17.6368 11.2336V7.86721C17.6368 7.77921 17.7072 7.70721 17.7968 7.70721H20.0992C20.1872 7.70721 20.2592 7.77921 20.2592 7.86721V11.2336C20.2592 11.3232 20.3296 11.3936 20.4192 11.3936H23.2352C23.3248 11.3936 23.3952 11.4656 23.3952 11.5536V13.8512C23.3952 13.9408 23.3248 14.0112 23.2352 14.0112H20.4192C20.3296 14.0112 20.2592 14.0832 20.2592 14.1712V17.7472C20.2592 17.8352 20.3296 17.9072 20.4192 17.9072H23.2352C23.3248 17.9072 23.3952 17.9776 23.3952 18.0672V20.3648C23.3952 20.4528 23.3248 20.5248 23.2352 20.5248H20.4192C20.3296 20.5248 20.2592 20.5968 20.2592 20.6848V24.0512C20.2592 24.1392 20.1872 24.2112 20.0992 24.2112H17.7968C17.7072 24.2112 17.6368 24.1392 17.6368 24.0512V20.6848C17.6368 20.5952 17.5648 20.5248 17.4768 20.5248H14.52C14.432 20.5248 14.36 20.5968 14.36 20.6848V24.0512C14.36 24.1392 14.2896 24.2112 14.2016 24.2112H11.8976C11.8096 24.2112 11.7376 24.1392 11.7376 24.0512V20.6848C11.7376 20.5952 11.6672 20.5248 11.5776 20.5248H8.76156C8.67196 20.5248 8.60156 20.4528 8.60156 20.3648V18.0672C8.60156 17.9776 8.67196 17.9072 8.76156 17.9072H11.5776C11.6672 17.9072 11.7376 17.8352 11.7376 17.7472V14.1712C11.7376 14.0832 11.6672 14.0112 11.5776 14.0112H8.76156C8.67196 14.0112 8.60156 13.9408 8.60156 13.8512V11.5536C8.60156 11.4656 8.67196 11.3936 8.76156 11.3936H11.5776C11.6672 11.3936 11.7376 11.3232 11.7376 11.2336V7.86721C11.7344 7.77921 11.808 7.70721 11.896 7.70721ZM17.6384 17.7488V14.1712C17.6384 14.0832 17.5664 14.0112 17.4784 14.0112H14.52C14.432 14.0112 14.36 14.0832 14.36 14.1712V17.7472C14.36 17.8352 14.432 17.9072 14.52 17.9072H17.4784C17.5664 17.9088 17.6384 17.8352 17.6384 17.7488Z" fill="white"/>
</svg>
