<svg width="32" height="32" viewBox="0 0 32 32" fill="none" xmlns="http://www.w3.org/2000/svg">
<path d="M31.5216 19.8705C29.3847 28.442 20.7031 33.6584 12.1306 31.521C3.56168 29.3841 -1.65477 20.702 0.483083 12.1312C2.61906 3.5587 11.3006 -1.65814 19.8705 0.478775C28.4424 2.61569 33.6585 11.2987 31.5214 19.8706L31.5215 19.8705H31.5216Z" fill="#F7931A"/>
<path fill-rule="evenodd" clip-rule="evenodd" d="M23.0554 13.7204C23.3738 11.5911 21.7528 10.4466 19.5361 9.68305L20.2552 6.79879L18.4995 6.36131L17.7994 9.16963C17.3378 9.05451 16.8638 8.94603 16.3927 8.8385L17.0978 6.01165L15.3432 5.57416L14.6237 8.45748C14.2417 8.37051 13.8666 8.28456 13.5026 8.194L13.5046 8.18493L11.0834 7.58031L10.6164 9.45555C10.6164 9.45555 11.919 9.75414 11.8915 9.77252C12.6025 9.94997 12.7311 10.4206 12.7097 10.7937L11.8906 14.0795C11.9396 14.0919 12.0031 14.1099 12.0731 14.1381L12.0222 14.1254C11.9788 14.1145 11.9338 14.1033 11.8876 14.0922L10.7394 18.6952C10.6525 18.9112 10.432 19.2354 9.9349 19.1123C9.95249 19.1378 8.6588 18.7938 8.6588 18.7938L7.78711 20.8036L10.0719 21.3731C10.3221 21.4359 10.5694 21.5003 10.8141 21.5641C10.9851 21.6087 11.155 21.653 11.3237 21.6961L10.5971 24.6135L12.3509 25.051L13.0704 22.1646C13.5494 22.2946 14.0144 22.4146 14.4695 22.5277L13.7525 25.4005L15.5083 25.8379L16.2347 22.9261C19.2286 23.4927 21.4798 23.2642 22.4274 20.5563C23.1909 18.376 22.3894 17.1185 20.8143 16.2984C21.9615 16.0338 22.8256 15.2793 23.056 13.7206L23.0555 13.7202L23.0554 13.7204ZM19.0442 19.3455C18.5464 21.3458 15.4154 20.5188 13.9828 20.1404L13.9827 20.1404C13.8539 20.1064 13.7388 20.076 13.6406 20.0516L14.6048 16.1866C14.7245 16.2165 14.8707 16.2493 15.0364 16.2865L15.0365 16.2865C16.5183 16.6191 19.5543 17.3004 19.0443 19.3455H19.0442ZM15.3333 14.4927C16.5276 14.8115 19.133 15.5068 19.5868 13.6888H19.5869C20.0503 11.8294 17.5182 11.2688 16.2816 10.995C16.1425 10.9642 16.0197 10.937 15.9195 10.912L15.0454 14.4173C15.1279 14.4379 15.2248 14.4638 15.3333 14.4927Z" fill="white"/>
</svg>
