<svg width="32" height="32" viewBox="0 0 32 32" fill="none" xmlns="http://www.w3.org/2000/svg">
<path fill-rule="evenodd" clip-rule="evenodd" d="M16 0C24.8352 0 32 7.1648 32 16C32 24.8352 24.8352 32 16 32C7.1648 32 0 24.8352 0 16C0 7.1648 7.1648 0 16 0Z" fill="#0055D5"/>
<path fill-rule="evenodd" clip-rule="evenodd" d="M8.70358 10.5856C8.70358 10.5856 6.98198 9.20962 6.86358 12.608C6.74518 15.2416 6.74838 20.3552 7.96758 22.7712C8.48278 23.68 9.17078 23.4016 10.4508 22.496C11.5644 21.6736 15.5932 17.9616 17.2988 16.3328C19.0044 14.704 22.4636 10.032 23.1836 13.2064C23.4684 14.5408 23.8204 15.6736 23.5516 18.6336C23.4684 19.5456 23.078 20.2368 21.2988 19.0016C19.9548 18.1376 18.678 17.2096 18.678 17.2096C18.678 17.2096 18.4316 16.768 17.8492 17.4848C17.3916 18.0576 17.1612 18.1984 17.894 18.6336C18.63 19.0688 22.3516 21.6352 23.7788 22.0352C24.9564 22.3776 25.6284 22.3712 25.6636 20.0576C25.6572 18.2208 25.5516 12.9632 24.8828 10.7232C24.3772 9.32802 23.6348 8.69442 22.0316 10.2624C20.4284 11.8304 15.3724 16.7328 12.6076 18.9536C10.774 20.3296 9.98998 21.5712 9.29878 19.2768C8.81238 17.5392 8.18198 12.1312 10.1724 13.1616C11.4172 13.7568 12.038 13.7536 11.5516 14.128C11.0652 14.4992 9.66678 15.7824 9.66678 15.7824C9.66678 15.7824 9.23478 16.1312 9.43638 16.8864C9.63798 17.4144 9.63798 17.6768 10.7228 16.656C11.8076 15.6352 12.6076 14.864 12.6076 14.864C12.6076 14.864 12.7804 14.592 13.2956 15.0944C13.8108 15.5968 13.894 15.7376 13.894 15.7376C13.894 15.7376 14.0316 16.112 14.582 15.4624C15.1356 14.8128 15.4908 14.416 14.4444 13.808C13.4012 13.1936 8.70358 10.5856 8.70358 10.5856Z" fill="white"/>
</svg>
