<svg width="25" height="24" viewBox="0 0 25 24" fill="none" xmlns="http://www.w3.org/2000/svg">
<g clip-path="url(#clip0_235_1910)">
<path d="M12.4062 0.000552903C19.6016 -0.0496757 25.1219 5.63855 24.9978 12.1886C24.8695 18.9705 19.0116 24.1953 12.0216 23.994C5.44103 23.8051 -0.138386 18.4021 0.00248881 11.7757C0.148382 4.91608 6.13536 -0.0782304 12.4062 0.000552903ZM19.3016 12.6124C19.2281 13.3693 19.1818 14.1231 19.075 14.8689C18.9682 15.6148 18.8008 16.3517 18.6574 17.1051C19.6571 17.4089 20.64 17.798 21.5774 18.3192C22.8568 16.6066 23.5661 14.7162 23.7045 12.6117L19.3016 12.6124ZM21.567 5.67639C20.635 6.19244 19.6532 6.58326 18.6241 6.89392C19.022 8.36809 19.222 9.86085 19.2729 11.3732H23.6891C23.7622 9.83195 22.6883 6.94139 21.567 5.67639ZM1.29509 12.6076C1.4331 14.7179 2.14285 16.6077 3.39028 18.2772L6.1307 17.1172C5.72779 15.6619 5.53208 14.1465 5.47329 12.6076H1.29509ZM3.38921 5.71389C2.14034 7.38932 1.43095 9.27874 1.29653 11.3729H5.47436C5.53172 9.8316 5.73389 8.32062 6.12927 6.87087L3.38921 5.71389ZM6.75872 12.6131C6.79163 14.0366 6.99611 15.4516 7.3681 16.8299C8.81484 16.479 10.2662 16.3121 11.7366 16.2533V12.6131H6.75872ZM11.7273 11.3767V7.73404C10.2628 7.68792 8.80697 7.49864 7.38244 7.16914C7.09101 7.85893 6.69312 10.6476 6.77844 11.3767H11.7273ZM17.9921 12.6152H13.0135V16.2526C14.4902 16.2822 15.9598 16.4566 17.3996 16.7731C17.7609 15.413 17.9597 14.0178 17.9921 12.6145V12.6152ZM13.016 11.3698H17.9824C18.0247 10.4065 17.6362 7.75228 17.3763 7.21972C15.946 7.54173 14.4925 7.70136 13.016 7.7392V11.3698ZM13.0128 17.4987V22.663C13.032 22.6671 13.0518 22.6688 13.0715 22.6681C13.1074 22.6609 13.14 22.6499 13.1741 22.6396C13.9017 22.4197 14.4763 21.9818 14.9839 21.4544C15.7589 20.649 16.2987 19.7043 16.7321 18.6987C16.8379 18.4534 16.9318 18.2036 17.0318 17.9542C16.1518 17.7048 13.5132 17.4075 13.0128 17.4987ZM17.0275 6.04554C16.7731 5.31678 16.4444 4.61385 16.0464 3.94694C15.5449 3.11266 14.9441 2.35545 14.1075 1.79812C13.7748 1.57656 13.4192 1.39835 13.0178 1.31131V6.51858C14.371 6.48246 15.698 6.34071 17.0286 6.04554H17.0275ZM11.7302 22.6771V17.4839C10.3873 17.5213 9.05205 17.6931 7.74628 17.9965C7.75703 18.0388 7.76097 18.0612 7.76886 18.0822C8.06495 18.8697 8.42054 19.6303 8.88689 20.3397C9.38121 21.0925 9.96227 21.7695 10.7509 22.2604C11.0491 22.4472 11.366 22.5993 11.7302 22.6771ZM11.7323 6.50482V1.32301C11.7002 1.32395 11.6682 1.3274 11.6366 1.33333C11.5682 1.3526 11.4997 1.3729 11.433 1.39698C10.7649 1.64055 10.2232 2.05545 9.74827 2.55602C8.95643 3.38789 8.41158 4.36184 7.97318 5.39772C7.89181 5.59038 7.81904 5.78682 7.73731 5.99393C9.04704 6.29613 10.3859 6.46734 11.7323 6.50482V6.50482ZM18.2638 18.2666C17.7412 19.705 17.0583 21.0484 15.9772 22.2364C17.8623 21.6254 19.4331 20.6483 20.7612 19.2777C19.967 18.8594 19.1302 18.5206 18.2638 18.2666V18.2666ZM20.7616 4.70966C19.4259 3.34351 17.8649 2.36267 16.0299 1.78745C17.0598 2.94718 17.7437 4.2834 18.2631 5.72146C19.1305 5.4691 19.968 5.12998 20.7616 4.70966V4.70966ZM8.61912 22.0833C7.6563 20.9696 7.01359 19.6947 6.50959 18.3333C5.72098 18.5889 4.96822 18.8838 4.23983 19.2815C5.48225 20.5558 6.9272 21.4953 8.61912 22.0833ZM8.63059 1.89582C6.95358 2.4838 5.44816 3.44962 4.24091 4.71207C4.9637 5.0973 5.72433 5.41316 6.51174 5.65506C7.01359 4.28684 7.66526 3.01117 8.63059 1.89617V1.89582Z" fill="#000"/>
</g>
<defs>
<clipPath id="clip0_235_1910">
<rect width="25" height="24" fill="#000"/>
</clipPath>
</defs>
</svg>
