<svg width="16" height="20" viewBox="0 0 16 20" fill="none" xmlns="http://www.w3.org/2000/svg">
<path d="M0.668125 17.2129C0.537365 17.4091 0.540683 17.6654 0.676476 17.8581C0.812269 18.0508 1.05258 18.1402 1.28127 18.083L3.05102 17.6405L3.45452 18.851C3.52539 19.0637 3.71415 19.2151 3.93707 19.2382C4.15998 19.2612 4.37577 19.1517 4.48869 18.9581L8.4828 12.1111C8.56227 11.9748 8.58181 11.8118 8.53678 11.6606C8.49175 11.5095 8.38618 11.3837 8.24512 11.3132L5.96276 10.172C5.70538 10.0433 5.39245 10.1264 5.23283 10.3659L0.668125 17.2129Z" fill="#C1C1C1" stroke="#121212" stroke-width="1.14118" stroke-linecap="round" stroke-linejoin="round"/>
<path d="M15.3117 17.2129C15.4425 17.4091 15.4392 17.6654 15.3034 17.8581C15.1676 18.0508 14.9273 18.1402 14.6986 18.083L12.9288 17.6405L12.5253 18.851C12.4545 19.0637 12.2657 19.2151 12.0428 19.2382C11.8199 19.2612 11.6041 19.1517 11.4912 18.9581L7.49705 12.1111C7.41759 11.9748 7.39805 11.8118 7.44308 11.6606C7.48811 11.5095 7.59368 11.3837 7.73474 11.3132L10.0171 10.172C10.2745 10.0433 10.5874 10.1264 10.747 10.3659L15.3117 17.2129Z" fill="#C1C1C1" stroke="#121212" stroke-width="1.14118" stroke-linecap="round" stroke-linejoin="round"/>
<circle cx="8.07146" cy="7.82945" r="6.23571" fill="#C1C1C1" stroke="#121212" stroke-width="1.38571"/>
<path d="M5.76196 7.82942L7.60958 9.67704L10.381 5.5199" stroke="black" stroke-width="1.4781" stroke-linecap="round" stroke-linejoin="round"/>
</svg>
