<svg width="198" height="22" viewBox="0 0 198 22" fill="none" xmlns="http://www.w3.org/2000/svg">
<rect x="2.74219" y="19.686" width="19.4128" height="194.277" transform="rotate(-89.3894 2.74219 19.686)" fill="url(#paint0_linear_1685_22666)" fill-opacity="0.16"/>
<circle cx="2.83295" cy="6.09905" r="1.94128" transform="rotate(-89.3894 2.83295 6.09905)" fill="#70FF00"/>
<circle cx="53.1767" cy="18.2826" r="1.94128" transform="rotate(-89.3894 53.1767 18.2826)" fill="#70FF00"/>
<circle cx="64.9423" cy="6.76311" r="1.94128" transform="rotate(-89.3894 64.9423 6.76311)" fill="#70FF00"/>
<circle cx="33.8915" cy="6.4301" r="1.94128" transform="rotate(-89.3894 33.8915 6.4301)" fill="#70FF00"/>
<circle cx="181.415" cy="8.00432" r="1.94128" transform="rotate(-89.3894 181.415 8.00432)" fill="#70FF00"/>
<circle cx="162.017" cy="7.79241" r="1.94128" transform="rotate(-89.3894 162.017 7.79241)" fill="#70FF00"/>
<circle cx="142.513" cy="15.3508" r="1.94128" transform="rotate(-89.3894 142.513 15.3508)" fill="#70FF00"/>
<circle cx="127.11" cy="3.53875" r="1.94128" transform="rotate(-89.3894 127.11 3.53875)" fill="#70FF00"/>
<circle cx="111.446" cy="15.0226" r="1.94128" transform="rotate(-89.3894 111.446 15.0226)" fill="#70FF00"/>
<circle cx="99.8915" cy="7.13323" r="1.94128" transform="rotate(-89.3894 99.8915 7.13323)" fill="#70FF00"/>
<circle cx="88.1533" cy="14.7741" r="1.94128" transform="rotate(-89.3894 88.1533 14.7741)" fill="#70FF00"/>
<defs>
<linearGradient id="paint0_linear_1685_22666" x1="12.4486" y1="199.878" x2="12.4486" y2="1.48494" gradientUnits="userSpaceOnUse">
<stop stop-color="#025614" stop-opacity="0"/>
<stop offset="0.5" stop-color="#329C00"/>
<stop offset="1" stop-color="#025614" stop-opacity="0"/>
</linearGradient>
</defs>
</svg>
