<svg width="32" height="32" viewBox="0 0 32 32" fill="none" xmlns="http://www.w3.org/2000/svg">
<circle cx="16" cy="16" r="16" fill="#988430"/>
<circle cx="15.9992" cy="16" r="15.4875" fill="#7A6A2A"/>
<circle cx="16.001" cy="16" r="15.1612" fill="#BA9F33"/>
<path fill-rule="evenodd" clip-rule="evenodd" d="M6.99496 14.2913C6.90433 14.2085 6.80859 14.1256 6.72052 14.0428C6.63246 13.96 6.54201 13.8771 6.45138 13.7943L6.18207 13.5383C6.13804 13.4943 6.09145 13.4556 6.04741 13.4114C6.00338 13.3726 5.95167 13.3286 5.90764 13.2897C5.55026 12.9506 5.19084 12.6114 4.83841 12.2722C5.20347 12.6062 5.56084 12.9378 5.9259 13.2767L6.05271 13.4037C6.09674 13.4475 6.14333 13.4864 6.18736 13.5305L6.4565 13.779C6.54713 13.8617 6.63519 13.9447 6.72581 14.035C6.81644 14.1253 6.9045 14.2084 6.99513 14.291L6.99496 14.2913ZM2.25195 14.2401C2.25195 14.2401 3.55158 14.3746 4.18595 14.4652C4.77355 14.5482 6.6118 14.8303 6.6118 14.8303L2.25195 14.2401ZM2.25212 14.2401C2.61718 14.2712 2.98224 14.3099 3.34729 14.3488C3.53366 14.3669 3.71235 14.3876 3.89104 14.4057L4.1653 14.4369C4.25592 14.4497 4.34399 14.4627 4.43461 14.4756L5.5221 14.649L6.06567 14.7397C6.24436 14.7707 6.42305 14.8045 6.60942 14.8356C6.43073 14.8175 6.24436 14.7915 6.06567 14.7656L5.5221 14.6879L4.43461 14.5275C4.34399 14.5145 4.25592 14.4963 4.1653 14.4835L3.89087 14.4519C3.71218 14.4338 3.52581 14.4079 3.34712 14.3871C2.98207 14.3432 2.61701 14.2964 2.25195 14.2396L2.25212 14.2401ZM6.48287 15.1689C6.48287 15.1689 5.09517 15.5211 4.62652 15.6558C4.16572 15.7826 2.77018 16.2072 2.77018 16.2072L6.48269 15.1691L6.48287 15.1689Z" fill="#CFB66C"/>
<path fill-rule="evenodd" clip-rule="evenodd" d="M6.4814 15.1689C6.17335 15.2595 5.867 15.3476 5.55451 15.4305L4.62762 15.679C4.31956 15.7696 4.01322 15.8577 3.70602 15.9483L3.24522 16.0751C3.09247 16.1192 2.93716 16.1579 2.7793 16.2021C2.93187 16.1509 3.08735 16.0985 3.2401 16.0545L3.7009 15.907C4.00895 15.8111 4.3153 15.7205 4.6225 15.6247C4.93567 15.5471 5.24389 15.4641 5.55707 15.389C5.85471 15.314 6.16805 15.239 6.4814 15.1691V15.1689ZM2.96315 17.0616C3.11573 17.0046 4.87632 16.184 5.28541 15.9923C5.49021 15.8964 6.0855 15.6851 6.0855 15.6851L2.96315 17.0616Z" fill="#CFB66C"/>
<path fill-rule="evenodd" clip-rule="evenodd" d="M2.96306 17.0615C3.09755 17.0103 3.22452 16.9477 3.35389 16.8881L3.73703 16.7094L4.50606 16.3393C4.76206 16.2176 5.01089 16.0833 5.27491 15.9689C5.40957 15.9121 5.54422 15.8655 5.67871 15.8215L5.88351 15.7568C5.95331 15.7387 6.01817 15.7179 6.08831 15.6998C5.83231 15.8215 5.56283 15.925 5.30649 16.044C5.05049 16.171 4.78868 16.2746 4.52449 16.3884L3.74267 16.7326C3.48018 16.839 3.22418 16.9528 2.96289 17.0615H2.96306ZM3.13372 17.7783C3.13372 17.7783 4.72843 16.8437 5.2773 16.5434C5.5647 16.3829 6.49415 15.922 6.49415 15.922L3.13372 17.7783Z" fill="#CFB66C"/>
<path fill-rule="evenodd" clip-rule="evenodd" d="M3.13672 17.7787C3.40586 17.613 3.68029 17.4447 3.95472 17.2739L4.36432 17.0252C4.5041 16.9424 4.63876 16.8648 4.78126 16.782C4.92104 16.6991 5.05569 16.6163 5.19803 16.5386C5.26579 16.4968 5.33679 16.4604 5.41034 16.4299L5.62777 16.3212C5.91517 16.1814 6.20257 16.0389 6.50551 15.9172C6.23108 16.0908 5.94879 16.2384 5.66668 16.391C5.52691 16.4687 5.3844 16.5386 5.24462 16.6163C5.10485 16.6939 4.97019 16.7769 4.82768 16.852C4.68791 16.9348 4.55325 17.0124 4.41092 17.0875L3.98886 17.3179L3.13706 17.7787H3.13672ZM6.48407 16.1268C6.48407 16.1268 5.4925 16.888 5.17147 17.1314C4.85045 17.3747 3.90547 18.0583 3.90547 18.0583L6.48407 16.1268Z" fill="#CFB66C"/>
<path fill-rule="evenodd" clip-rule="evenodd" d="M12.1734 22.2653L11.666 21.3048L11.9611 20.1035L14.0659 19.2906L13.1701 17.4525L13.6128 15.5962L14.444 13.9339L17.0123 13.5301L18.8996 11.7308L22.9747 12.0388L23.7746 16.3961L22.2342 21.8822L21.3566 24.7224L17.7993 24.8571L16.1476 23.7128L14.2136 22.9048L12.1734 22.2653Z" fill="#E2CC85"/>
<path fill-rule="evenodd" clip-rule="evenodd" d="M18.412 22.2343C18.412 22.2343 17.92 22.4596 17.0808 22.4077C16.838 22.0815 15.1371 21.9288 15.1371 21.9288C15.1371 21.9288 14.9248 21.8641 14.5493 22.0194C14.1715 22.173 13.8141 22.1541 13.4801 22.2368C13.1461 22.3196 12.8145 21.8848 12.5585 21.7941C12.3025 21.6984 11.9631 21.468 11.9631 21.468L11.2463 21.398L9.80685 20.7896L7.52009 18.5114L6.89869 19.4842L6.70703 20.688L7.3984 22.1146L9.25986 23.8104L12.8896 24.732L15.041 24.0981L17.7362 22.9589L18.412 22.2341V22.2343Z" fill="#F1D789"/>
<path fill-rule="evenodd" clip-rule="evenodd" d="M5.51755 14.1826L5.97835 12.7872L6.52738 11.8861L8.29549 11.7385L7.76472 13.2868L6.28657 15.9172L6.90012 18.2654L5.8128 18.809L5.47864 18.2965L5.2095 17.1211L5.19141 15.8007L5.51755 14.1826Z" fill="#F4ECB4"/>
<path fill-rule="evenodd" clip-rule="evenodd" d="M7.49952 22.1385L7.1604 21.6647C7.1604 21.6647 7.06978 21.4395 7.12166 21.2427C7.17286 21.0433 7.16552 21.0304 7.13975 20.9553C7.11398 20.8802 6.89638 20.6213 6.90935 20.3986C6.92215 20.1733 6.89126 20.0982 7.05681 19.9197C7.23021 19.7463 7.17849 19.4459 7.17849 19.4459L7.40377 19.5857L7.45497 19.508C7.45497 19.508 7.53775 19.5727 7.53775 19.6737C7.55584 19.534 7.48075 18.8866 7.65158 18.7392C7.82242 18.5917 8.12535 19.4304 8.12535 19.4304L7.93899 18.2135L7.45992 16.9658L6.60813 15.8266L6.55693 14.5708V14.4621C6.55693 14.4621 6.16593 15.0628 6.05721 15.5373C5.97956 15.8634 6.16593 16.2596 6.12719 16.7282C6.09596 17.1943 6.05721 17.1579 6.17105 17.3426C6.28488 17.5273 6.56205 17.907 6.45333 18.1814C6.35759 18.4171 6.03127 18.2514 6.03127 18.2514C6.03127 18.2514 5.96659 18.4429 5.87853 18.5129C5.84747 18.399 5.81384 18.3265 5.75172 18.2569C5.74643 18.3009 5.73363 18.3605 5.73363 18.3605C5.73363 18.3605 5.67663 18.1818 5.61963 17.9565C5.54214 17.6563 5.4592 17.2602 5.38411 17.0479C5.35304 17.1696 5.27539 17.5397 5.27539 17.5397L5.31942 18.1094L5.53173 18.8912L5.73653 19.4032L5.93587 20.0298L6.1091 20.4506L6.24887 20.7716L6.37056 21.4941L6.95816 22.1153L7.27151 22.2552L7.49918 22.1387L7.49952 22.1385Z" fill="#F3E19D"/>
<path fill-rule="evenodd" clip-rule="evenodd" d="M5.82632 13.0434C5.82632 13.0434 5.40426 13.7602 5.28275 14.4828C5.16123 15.2054 5.05235 15.9689 5.12915 16.9527C5.2068 17.9444 5.35443 18.5527 5.47355 18.9877C5.67835 19.7101 6.20878 20.7147 6.20878 20.7147L6.22687 20.6758C6.13772 20.5068 6.06656 20.3289 6.01457 20.145C5.94459 19.8706 5.91865 19.5444 5.85397 19.3968C5.79697 19.2493 5.70122 19.1224 5.65463 18.9411C5.6106 18.7677 5.60343 18.4933 5.46826 18.2888C5.41126 18.2059 5.34129 17.9884 5.32063 17.771C5.29469 17.4447 5.33361 17.0796 5.30254 16.7794C5.24554 16.2797 5.2068 15.9406 5.25851 15.679C5.31022 15.4174 5.57971 14.6746 5.74542 14.0843C5.85414 13.7062 5.78929 13.3878 5.98862 13.0589C6.18796 12.7328 6.30982 12.4454 6.35368 12.246C6.40488 12.0648 5.82564 13.0434 5.82564 13.0434H5.82632Z" fill="#F2E8B0"/>
<path fill-rule="evenodd" clip-rule="evenodd" d="M7.82727 12.756C7.82727 12.756 7.60984 12.8208 7.50625 12.9347C7.40265 13.0434 7.35862 13.134 7.21884 13.3178C7.07907 13.5016 7.07122 13.6518 6.95721 13.8822C6.84338 14.1075 6.59215 14.4466 6.56109 14.5683C6.53003 14.69 6.47832 15.2595 6.41364 15.5288C6.35663 15.7981 6.47832 16.1295 6.47832 16.1295L6.62578 16.0983C6.62578 16.0983 6.62578 16.29 6.7734 16.4195C6.92086 16.5463 6.9468 15.9896 6.9468 15.9896L7.49822 14.1281L8.3292 13.5637L8.41982 13.1081L7.82693 12.756H7.82727Z" fill="#F5EEC0"/>
<path fill-rule="evenodd" clip-rule="evenodd" d="M8.23086 13.6001C8.23086 13.6001 7.83986 13.6258 7.64837 13.7658C7.57072 13.8226 7.53966 13.8692 7.45688 13.9392C7.30414 14.066 7.14866 14.1826 7.07374 14.3488C6.99079 14.5143 6.90017 14.7656 6.83805 15.2393C6.8121 15.4387 6.8121 15.6225 6.79401 15.7831C6.76807 16.0005 6.72933 16.1739 6.74998 16.2951C6.77592 16.5436 7.03227 16.6731 7.05718 16.9552L7.58796 16.6861L8.08767 14.7157L9.14921 14.0501L8.54847 13.377L8.23017 13.5989L8.23086 13.6001Z" fill="#E6DB9D"/>
<path fill-rule="evenodd" clip-rule="evenodd" d="M5.42986 26.8679C5.43208 26.8484 5.4343 26.829 5.43651 26.809C5.514 26.1434 5.52714 25.6389 5.58397 25.323C5.66674 24.8752 5.72375 24.7086 5.71078 24.541C5.69268 24.2719 5.67203 24.0751 5.69798 23.8679C5.73672 23.5935 6.00603 23.2673 5.99835 23.042C5.99306 22.8633 5.90243 22.747 5.82478 22.6382C5.74713 22.5295 5.685 22.4389 5.685 22.4389C5.685 22.4389 6.21578 22.0738 6.21066 20.6032C6.2215 20.6063 6.23193 20.6106 6.24172 20.6162L6.50318 21.3591L6.68187 21.5765L7.36795 22.8555L8.25081 23.7126L9.55555 24.5902L10.3737 25.4805L10.4565 27.8547L9.38728 29.2424L9.21217 29.5595C7.82102 28.8611 6.54533 27.9532 5.42969 26.8677L5.42986 26.8679Z" fill="#E5CB7A"/>
<path fill-rule="evenodd" clip-rule="evenodd" d="M8.69727 29.1391C8.69727 29.1391 8.71536 28.844 8.95873 28.6524C8.99764 28.717 9.02341 28.7793 9.01573 28.8258C9.05976 28.7483 9.36782 28.2511 10.0643 28.1216C10.7608 27.9948 10.9291 27.4874 10.9291 27.4874L12.4072 26.1437L14.0978 24.5878L16.1535 23.8653L17.1142 23.6296C17.1142 23.6296 17.1323 23.6996 17.0961 23.8549C17.2746 23.8421 17.6707 23.7515 18.0824 23.6064C18.2481 23.5417 18.4036 23.5158 18.4864 23.6013C18.6081 23.7151 18.6261 23.9845 18.6338 24.1449C18.8332 24.1008 19.0636 23.9094 19.2482 23.9275C19.5435 23.9585 19.8049 24.3055 20.1053 24.3055C20.5014 24.3055 20.6799 24.0621 20.9571 23.8704C21.1228 23.7566 21.3609 23.6144 21.4956 23.5184C21.8166 23.2827 25.2134 22.2445 25.2134 22.2445L26.4043 22.3222L26.5959 23.6011L26.4935 26.9445C26.4809 26.9566 26.4683 26.9692 26.4555 26.9814L21.0406 29.8095L13.5346 30.9601C11.8533 30.6854 10.2308 30.1273 8.73618 29.3096L8.69778 29.1389L8.69727 29.1391Z" fill="#D8C173"/>
<path fill-rule="evenodd" clip-rule="evenodd" d="M5.88477 27.2932C5.99143 27.0702 6.08735 26.8836 6.10424 26.8169C6.11755 26.9514 6.14196 27.2465 6.19111 27.5601C6.08792 27.4724 5.9858 27.3834 5.88477 27.2931V27.2932Z" fill="#F1D789"/>
<path fill-rule="evenodd" clip-rule="evenodd" d="M11.3684 30.4396L12.3391 30.1696L12.4219 30.1955C12.4219 30.1955 12.4659 30.2215 12.4659 30.3094C12.5876 30.2396 12.6912 30.2524 12.7663 30.206C12.8051 30.2887 12.8438 30.5632 13.0148 30.5968C13.1933 30.6357 13.385 30.5191 13.5792 30.3717C13.7707 30.2189 13.9888 30.0273 14.1538 29.9496C14.2144 30.061 14.268 30.1759 14.3144 30.2938C14.5319 30.1205 14.9099 29.4163 15.4483 29.4291C15.604 29.0613 15.864 28.7472 16.1962 28.5256C16.6959 28.1865 17.0091 28.1605 17.4001 28.1916C17.5554 27.9898 17.7467 27.8187 17.9645 27.6867C18.0292 27.7127 18.2078 27.8214 18.4306 27.7178C18.6558 27.6144 18.9095 27.213 19.2435 27.1613C19.4234 27.1365 19.6064 27.1749 19.7613 27.27C19.7613 27.27 20.7341 26.3042 21.4053 25.9832C21.3793 25.9055 21.3276 25.613 22.1146 24.9656C22.1586 25.0045 22.1276 25.1133 22.1586 25.1192C22.1714 25.1192 22.3634 25.0365 22.6064 24.8499C22.9068 24.6248 23.2666 24.3891 23.484 24.3244C23.8936 24.2028 24.3281 24.4512 24.3281 24.4512C24.3651 24.4253 24.4063 24.406 24.4498 24.3942C24.5532 24.3762 24.6283 24.3632 24.6853 24.343C24.6802 24.4777 24.7553 24.7081 24.6853 24.9074C24.7664 24.953 24.8522 24.9895 24.9413 25.0162C24.8975 25.1119 24.8016 25.3553 24.6411 25.4718C24.7756 25.5365 24.7937 25.6116 24.9854 25.6766C24.9077 25.7853 24.7806 25.9719 24.7239 26.0862C24.6669 26.2079 24.4623 26.7128 24.3716 26.9042C24.2759 27.0959 24.1465 27.448 24.0842 27.5186C24.022 27.5893 23.7968 27.8888 23.6234 28.0363C23.777 27.9793 24.4054 27.7878 24.672 27.7152C24.5927 27.8316 24.1904 28.4285 23.8037 29.0024C20.0578 31.2476 15.5269 31.7721 11.3672 30.4422L11.3684 30.4396Z" fill="#E0CD81"/>
<path fill-rule="evenodd" clip-rule="evenodd" d="M8.2935 13.5301C8.2935 13.5301 8.06839 13.5301 8.02436 13.5612C7.98033 13.5923 8.24964 13.6571 8.33242 13.6882C8.41519 13.7192 8.59388 13.8616 8.64047 13.9756C8.6845 14.0843 10.2586 14.7185 10.2586 14.7185L11.3718 14.6615L11.7556 14.1312L11.0255 13.4917L11.5375 11.9824L10.8593 12.0911L9.22824 13.0639L8.41007 13.3772L8.2935 13.5301Z" fill="#DFC57C"/>
<path fill-rule="evenodd" clip-rule="evenodd" d="M10.7397 14.0298C10.7725 14.0829 10.831 14.1144 10.8933 14.1126C11.1237 14.1126 11.3359 14.1696 11.4239 14.286C11.5716 14.4726 11.9807 15.068 11.9807 15.068L12.9593 15.4201L13.0224 14.2678L11.9532 13.5248L10.7363 13.9727V14.0297H10.7391L10.7397 14.0298Z" fill="#E5CC7C"/>
<path fill-rule="evenodd" clip-rule="evenodd" d="M10.5462 14.457C10.5462 14.457 10.7247 14.47 10.95 14.387C11.1752 14.3041 11.5454 14.1256 11.706 14.1955C11.9311 14.2913 11.8845 14.5917 12.1281 14.8611C12.2755 15.0269 12.5448 15.0217 12.6976 15.2004C12.8503 15.3791 13.3758 15.2962 13.3758 15.2962L13.5752 16.3714L12.7753 17.3967L12.5136 18.6704H11.4319L10.4438 18.2784L9.95703 17.1008L10.2004 15.9099L10.5462 14.457Z" fill="#D2C281"/>
<path fill-rule="evenodd" clip-rule="evenodd" d="M12.6397 14.5087C12.6665 14.517 12.6944 14.5214 12.7224 14.5217C12.6914 14.5476 12.6265 14.6045 12.6525 14.7521C12.6784 14.8997 12.7612 15.0861 12.6914 15.1999C12.7471 15.2609 12.7886 15.3334 12.8131 15.4122C12.8571 15.5392 12.8701 15.6556 13.1573 15.6739C13.1158 15.6994 13.0776 15.7298 13.0435 15.7645C13.0435 15.7645 13.2428 15.9379 13.3438 16.0983C13.4473 16.0939 13.7217 16.0085 13.7217 16.0085L13.7787 16.0475L13.9004 15.9963C13.9004 15.9963 13.7865 15.9522 13.8693 15.6752C13.947 15.4319 14.0169 15.4448 14.0229 15.4267C14.0289 15.4087 14.0799 15.1523 14.0799 15.0487C14.1187 14.9142 14.1497 14.5051 14.1497 14.5051L14.0669 13.6016L13.601 13.3194L13.2221 12.9536L12.8648 13.6267L12.6294 13.8614L12.6113 14.4439L12.6397 14.5087Z" fill="#E2C270"/>
<path fill-rule="evenodd" clip-rule="evenodd" d="M13.7598 13.7528C13.7598 13.7528 13.8425 13.9884 13.8738 14.1696C13.8848 14.1344 13.8909 14.0978 13.8919 14.0609C13.8919 14.0609 13.9565 14.4183 13.9693 14.5659C13.9953 14.5606 14.0205 14.5529 14.0263 14.5787C14.0321 14.6045 14.0912 14.892 14.0775 15.0525C14.1854 14.8746 14.3345 14.7254 14.5124 14.6176C14.616 14.5528 14.7377 14.483 14.8647 14.4777C15.064 14.4725 15.2089 14.6046 15.4471 14.6046C16.0218 14.6046 16.5423 14.1826 16.9255 14.0532C17.2076 13.9573 17.4509 13.8875 17.6218 13.732C17.7047 13.6622 17.8524 13.5069 17.9868 13.2763C18.1655 12.9691 18.3519 12.7017 18.5384 12.6681C18.454 12.6836 18.3682 12.6897 18.2824 12.6862C18.2824 12.6862 18.3394 12.6292 18.436 12.5515C18.5326 12.4739 18.6483 12.3781 18.8139 12.3781C19.1091 12.3781 19.2566 12.422 19.4223 12.422C19.588 12.4169 19.6838 12.3781 19.6838 12.3781C19.6838 12.3781 19.8573 12.4998 20.2482 12.4998C20.6392 12.5049 20.9006 12.5385 21.1053 12.5568C21.3099 12.5751 21.9958 12.4998 22.1926 12.5056C22.3209 12.5106 22.4468 12.5414 22.5629 12.5962L21.9286 10.753L19.6498 8.76135L18.2932 9.72186L16.2063 11.8086L14.1869 12.5568L13.7649 13.0306V13.7528H13.7598Z" fill="#CCB360"/>
<path fill-rule="evenodd" clip-rule="evenodd" d="M18.2913 12.6964C18.2913 12.6964 18.3483 12.6396 18.4439 12.5619C18.5395 12.4843 18.6564 12.3883 18.8219 12.3883C19.117 12.3883 19.2647 12.4324 19.4304 12.4324C19.5961 12.4272 19.6918 12.3883 19.6918 12.3883C19.6918 12.3883 19.8656 12.5099 20.2562 12.5099C20.6472 12.515 20.9087 12.5486 21.1133 12.5667C21.3179 12.5848 22.0039 12.5099 22.2006 12.5155C22.3289 12.5203 22.4548 12.5511 22.5708 12.6061L22.2834 11.775L21.9496 11.1408L20.9968 10.0973C20.9968 10.0973 19.8533 9.4242 19.8446 9.41908C19.8395 9.41396 19.4485 9.31036 19.4485 9.31036L18.4129 9.93688L17.4732 12.368L17.4551 12.88L18.0633 13.1674C18.2161 12.9114 18.3845 12.7066 18.5424 12.6807C18.3999 12.6962 18.2912 12.6962 18.2912 12.6962L18.2913 12.6964Z" fill="#D5B457"/>
<path fill-rule="evenodd" clip-rule="evenodd" d="M18.2786 12.87C18.188 12.8751 18.1131 12.857 18.0922 12.7924C18.0146 12.5749 17.9525 12.5439 17.8874 12.5439C17.8224 12.5439 17.7347 12.6836 17.6826 12.6964C17.6306 12.7092 17.5688 12.536 17.5688 12.536L17.5118 12.5101C17.5118 12.5101 17.1778 12.7275 16.9423 12.9838C16.7068 13.2402 16.3209 13.6752 16.1475 13.7527C15.9741 13.8302 15.3785 13.8563 15.1747 13.9003C14.9709 13.9444 14.745 14.092 14.7139 14.1256C14.6828 14.1592 14.8047 14.1954 14.8228 14.229C14.8409 14.2601 14.6233 14.2471 14.6052 14.2802C14.5924 14.3062 14.6564 14.4536 14.6881 14.5287C14.7437 14.5011 14.8046 14.4861 14.8666 14.4847C15.066 14.4796 15.2111 14.6117 15.4491 14.6117C16.0239 14.6117 16.5443 14.1896 16.9274 14.0601C17.2097 13.9643 17.4531 13.8943 17.6239 13.739C17.7067 13.6692 17.8543 13.5138 17.989 13.2834C18.0873 13.1255 18.1832 12.9779 18.2791 12.8692L18.2786 12.87Z" fill="#D2B257"/>
<path fill-rule="evenodd" clip-rule="evenodd" d="M10.0347 25.683C10.0347 25.683 9.98352 25.4913 9.50906 24.9969C9.37441 24.8571 9.29163 24.7409 9.20101 24.6578C8.97573 24.4453 8.84363 24.3885 8.68321 24.2668C8.33112 24.0053 7.94797 24.0053 7.65289 23.6843C7.35781 23.3633 7.01392 22.7499 6.77498 22.123C6.53946 21.4965 6.47461 21.2972 6.47461 21.2791C6.47461 21.261 6.53946 21.1393 6.62224 21.1574C6.70501 21.1755 6.70501 21.3359 6.72583 21.3748C6.76707 21.4383 6.81384 21.4981 6.86561 21.5534C6.98729 21.6933 7.16069 21.8606 7.24875 22.1101C7.23066 21.8978 7.15813 21.6622 7.15813 21.6622C7.15813 21.6622 7.61381 21.9496 8.00208 22.2498C8.39307 22.5502 8.5535 22.6538 8.66768 22.8453C8.78185 23.0368 9.05082 23.5418 9.17968 23.6894C9.30853 23.837 11.0741 24.3936 11.0741 24.3936L11.9139 25.0198L12.3309 25.9337L12.0046 26.4457L11.378 26.5803L10.3605 26.1247L10.0347 25.6828V25.683Z" fill="#D2B159"/>
<path fill-rule="evenodd" clip-rule="evenodd" d="M7.77539 22.5346C7.77539 22.5346 7.9877 22.8738 8.5055 23.1948C8.97159 23.4771 9.70939 23.7334 10.3671 23.8861C10.745 23.9768 11.123 24.0466 11.4621 24.0519C12.3761 24.0647 13.0051 23.8034 13.7846 23.7179C14.2066 23.6738 14.7244 23.6402 15.2629 23.5131C15.9541 23.3474 16.3632 23.1608 16.9199 22.8987C17.3237 22.7123 17.694 22.5725 17.9942 22.3938C18.4163 22.1453 18.7243 21.8684 19.0817 21.7856C19.0377 21.9073 18.9911 22.1247 18.639 22.35C18.8254 22.3447 19.0817 22.3319 19.0817 22.3319C19.0817 22.3319 18.8332 22.4793 18.3956 22.8108C18.1263 23.0156 17.7691 23.3622 17.4041 23.5926C17.1684 23.7402 16.912 23.8486 16.7438 23.937C16.3342 24.1623 16.1689 24.2761 15.8998 24.5514C15.9956 24.5463 16.0034 24.5514 16.0034 24.5514C16.0034 24.5514 15.6641 24.5954 15.4209 24.7248C15.3697 24.7248 15.281 24.7067 15.1257 24.7507C15.004 24.7895 14.8434 24.8777 14.6778 24.9241C14.4421 24.9941 14.3647 24.9631 14.3647 24.9631L14.4034 25.0407C14.4034 25.0407 14.0962 25.0354 13.9938 25.0458C14.0119 25.0509 14.0068 25.0588 14.0068 25.0588C13.9888 25.0618 13.9715 25.0679 13.9556 25.0769C13.9063 25.1088 13.8521 25.1324 13.7951 25.1467C13.7641 25.1518 13.7381 25.1518 13.6992 25.1597C13.7122 25.1907 13.8132 25.3645 13.8598 25.4669C13.8211 25.4928 13.2384 25.933 13.2384 25.933C13.2565 25.9614 13.2713 25.9918 13.2825 26.0236C13.3006 26.0804 13.3084 26.1634 13.3265 26.2021C13.3704 26.2797 13.3963 26.2927 13.3963 26.2927C13.3963 26.2927 13.3265 26.3057 13.2046 26.3368C13.1012 26.3627 12.9742 26.4066 12.795 26.4325C12.7401 26.4396 12.6847 26.444 12.6293 26.4455C12.6553 26.5025 12.7691 26.7199 12.5593 26.9709C12.3496 27.222 12.2849 27.2585 12.2202 27.4189C12.1877 27.3943 12.153 27.3726 12.1166 27.3541C12.0468 27.323 11.9509 27.2766 11.9173 27.2143C11.8977 27.2973 11.8717 27.3787 11.8396 27.4577C11.775 27.6311 11.6792 27.8021 11.6611 27.9315C11.5912 27.8538 11.4618 27.7011 11.2831 27.7321C11.1044 27.7632 10.9621 28.0066 10.931 28.0765C10.931 28.0325 10.9 27.9989 10.8923 28.0506C10.887 28.1076 10.7887 28.7029 10.2398 29.1845C10.2347 29.0628 10.2347 28.7935 10.2217 28.7056C10.1705 28.7568 10.1079 28.8324 9.73499 28.993C9.36993 29.1534 9.42779 29.314 9.42779 29.314C9.42779 29.314 9.39672 29.058 9.5935 28.7884C9.79284 28.5192 9.91453 28.3923 9.91453 28.3716C9.91131 28.3506 9.90233 28.3308 9.88859 28.3146C9.86264 28.2887 9.81093 28.2576 9.81093 28.237C9.84199 28.2242 10.15 28.0765 10.132 27.7709C10.1139 27.4966 9.99747 27.3541 9.91453 27.2532C9.90173 27.2403 10.0364 27.1445 10.0181 27.1135C10.0052 27.0954 9.8396 26.9735 9.81878 26.9087C9.82368 26.87 9.83237 26.8318 9.84472 26.7948C9.86281 26.7378 9.87579 26.6989 9.87067 26.6602C9.85769 26.5955 9.78772 26.4168 9.76707 26.3987C9.78516 26.4038 9.91453 26.3987 9.91453 26.3987C9.91453 26.3987 9.8111 26.233 9.79284 26.1553C9.77458 26.0777 9.73584 25.8731 9.71519 25.8343C9.75922 25.8394 9.86793 25.8471 9.86793 25.8343C9.87323 25.7954 9.77219 25.7307 9.81673 25.6807C9.8478 25.6858 9.90736 25.7118 9.96419 25.7843C9.93313 25.7014 9.88142 25.5409 9.77253 25.4763C9.82373 25.4582 9.99781 25.4114 10.1506 25.502C10.3033 25.5926 10.3554 25.7195 10.3554 25.7195C10.3554 25.7195 10.446 25.7894 10.5859 25.893C10.7464 26.0198 10.9508 26.2002 11.2771 26.3279C11.3471 26.3668 11.5256 26.3668 11.6552 26.3408C11.7116 26.3274 11.7656 26.3056 11.8156 26.2762C11.8336 26.2655 11.8527 26.2568 11.8726 26.2502C11.8448 26.1944 11.8127 26.1407 11.7768 26.0896C11.8209 26.0896 11.8726 26.0949 11.8726 26.0949C11.8726 26.0949 11.9036 26.0249 11.7639 25.8901C11.7949 25.8591 11.8338 25.8389 11.8338 25.7865C11.7898 25.7814 11.7122 25.7167 11.6941 25.6908C11.7198 25.6727 11.7588 25.6131 11.8028 25.595C11.7639 25.564 11.6681 25.4344 11.6241 25.4216C11.6662 25.406 11.7069 25.387 11.7458 25.3646C11.7458 25.3646 11.5284 25.3076 11.4584 25.261C11.3884 25.2098 11.285 25.1213 11.2229 25.0953C11.158 25.0694 11.0442 25.0566 10.9976 25.0047C11.0414 25.0177 11.1114 25.0047 11.1633 25.0047C11.202 25.0047 11.2203 25.0098 11.2331 25.0098C11.228 24.9917 11.228 24.9528 11.329 24.94C11.3776 24.9327 11.4248 24.9178 11.4688 24.896C11.4688 24.896 11.3729 24.8909 11.264 24.7873C11.1551 24.6837 11.0646 24.6009 11.0025 24.5879C10.9378 24.575 10.8162 24.632 10.7411 24.6267C10.6375 24.6139 10.5934 24.562 10.5934 24.562C10.5934 24.562 10.2492 24.5931 9.48547 24.1271C8.82516 23.7232 8.53776 23.366 8.53776 23.366C8.47596 23.3435 8.41623 23.3158 8.35924 23.283C8.11075 23.1536 7.76635 22.8843 7.77676 22.5321L7.77539 22.5346Z" fill="#C2A44D"/>
<path fill-rule="evenodd" clip-rule="evenodd" d="M17.299 6.99548C17.3589 7.01494 17.4121 7.05083 17.4526 7.09908C17.5743 7.23885 17.6519 7.50287 17.3749 7.78516C17.4837 7.8239 17.5285 7.83636 17.6234 7.8239C17.5277 7.9379 17.3103 8.18127 17.2973 8.39358C17.2843 8.56698 17.393 8.61886 17.393 8.61886C17.393 8.61886 17.2273 8.81035 17.2196 9.13086C17.2979 9.04261 17.3835 8.96119 17.4756 8.88749C17.6673 8.73475 17.9313 8.56135 18.11 8.45263C18.1076 8.4982 18.1137 8.54381 18.1281 8.58712C18.1281 8.58712 18.4619 8.31269 18.7425 8.43454C18.8693 8.49155 18.8123 8.67006 18.8123 8.67006C18.8123 8.67006 18.9859 8.60538 19.1076 8.72707C19.2292 8.84875 19.4013 9.16261 19.4895 9.28429C19.5282 9.34129 19.6293 9.45001 19.7327 9.61829C19.874 9.85388 19.992 10.1027 20.085 10.3612C20.0901 10.2265 20.1237 10.017 20.507 10.1489C20.8902 10.2835 21.325 10.5658 21.6901 11.1217C22.0551 11.6776 22.1456 12.3051 22.3294 12.544C22.5158 12.7744 22.7074 13.1576 22.7204 13.3182C22.7334 13.4788 22.6634 13.9964 23.0465 15.3971C23.1553 14.9622 23.321 13.9964 23.321 13.9964L23.4116 13.1446L23.5152 10.509L20.763 8.22257L18.6116 6.66132L17.2109 6.79597L17.2988 6.99531L17.299 6.99548Z" fill="#CAA13E"/>
<path fill-rule="evenodd" clip-rule="evenodd" d="M22.4127 10.9177C22.4127 10.9177 22.3738 10.6617 21.7267 10.2265C21.0793 9.79677 20.5745 9.79677 20.1086 9.43171C19.7512 9.14431 19.3784 8.484 19.1358 8.26657C18.9001 8.0517 18.8613 7.4303 18.8613 7.4303L19.6561 6.7647L20.8382 5.05616L21.8374 3.95587L22.3163 4.62147L22.9819 5.4033L23.3521 6.97223L23.4867 9.26873L22.4115 10.9179L22.4127 10.9177Z" fill="#B59544"/>
<path fill-rule="evenodd" clip-rule="evenodd" d="M23.2127 13.6704C23.2323 13.3222 23.1893 12.9732 23.0857 12.6401C22.9151 12.1093 22.5422 11.1669 22.3689 10.814C22.299 10.423 22.3509 10.3919 22.4259 10.3479C22.501 10.3038 22.7833 10.1431 22.9379 9.57903C23.0926 9.01498 23.5723 8.99654 23.5723 8.99654L23.8674 8.77911L24.3154 9.90005L24.7062 10.9124L24.8279 11.6866L24.9185 12.3467L24.7062 13.7423L23.6578 14.6898L23.2126 13.6704H23.2127Z" fill="#C89D3A"/>
<path fill-rule="evenodd" clip-rule="evenodd" d="M8.58203 29.2248V29.1961C8.60382 29.1825 8.62305 29.1652 8.63886 29.1449C8.65695 29.119 8.6701 29.0879 8.6829 29.0803C8.70884 29.0673 8.83052 29.0291 8.8952 29.0414C8.95989 29.0536 9.1309 29.1241 9.22152 29.119C9.40789 29.1139 9.62532 28.9714 9.96972 29.0362C10.4875 29.132 10.6092 29.4841 10.9096 29.6834C11.1144 29.8233 11.3264 29.7611 11.3574 29.7611H11.4272C11.4402 29.7611 11.5359 29.6523 11.5878 29.6576C11.6914 29.6628 11.7016 29.7483 11.7663 29.7534C11.9191 29.7715 12.2143 29.6757 12.362 29.7146C12.4508 29.7425 12.5204 29.812 12.5483 29.9008C12.5794 29.9966 12.5534 30.1183 12.4784 30.1882C12.3179 30.3357 12.1652 30.4756 12.1341 30.5978C12.1736 30.628 12.2116 30.6601 12.2478 30.6941C10.9668 30.3677 9.7343 29.8742 8.58203 29.2264V29.2248Z" fill="#CEB052"/>
<path fill-rule="evenodd" clip-rule="evenodd" d="M22.3691 24.0519C22.3691 24.0519 22.7729 23.5134 22.9129 23.2467C23.0527 22.9717 22.4702 19.4901 22.4702 19.4901L23.6404 15.6559L23.6092 14.408C23.6092 14.408 23.6662 13.2558 23.8009 12.7561C23.9615 13.0435 24.4612 13.3905 24.5699 13.5743C24.6211 13.222 24.795 12.4791 24.7692 11.6869C24.865 11.8343 25.0954 13.318 25.0954 13.318L25.3258 14.3172L25.6261 15.3788L25.9601 16.4999L26.1595 17.274L26.2733 17.4604L26.3692 17.7865L26.4599 18.1388L26.7213 18.9646L26.8749 19.6429L26.9966 20.8727C27.0231 20.9668 27.0421 21.0629 27.0536 21.1601C27.0587 21.2947 27.0355 21.3724 27.0355 21.3958C27.0355 21.4192 27.0795 21.6909 27.0615 21.8955C27.0355 22.1003 27.0355 22.2605 26.8749 22.4075C26.7143 22.5544 26.6135 23.4327 26.6135 23.4327L26.326 23.2412C26.326 23.2412 26.3831 22.9796 26.2484 22.7415C26.1137 22.5034 25.8523 22.4541 25.7046 22.493C25.5572 22.5241 25.2621 22.5705 25.1662 22.6534C25.0756 22.7362 24.853 22.9925 24.6484 23.1091C24.3924 23.2627 23.9753 23.2748 23.7527 23.3265C23.5275 23.3777 23.279 23.5313 23.0173 23.7097C22.8122 23.8425 22.5956 23.9567 22.3702 24.051L22.3691 24.0519Z" fill="#CCA847"/>
<path fill-rule="evenodd" clip-rule="evenodd" d="M22.3691 29.7088C22.3691 29.7088 22.3862 29.7199 22.4191 29.738C24.2585 28.8763 25.9066 27.6547 27.2661 26.1455C27.2512 25.6215 27.2319 25.0845 27.2108 24.8855C27.1669 24.4634 27.198 24.0337 27.185 23.7852C27.172 23.5367 27.0323 22.5243 26.9676 22.2628C26.8976 22.0014 26.7628 21.8718 26.7423 21.8718C26.7242 21.8771 26.6153 22.3639 26.6153 22.4862C26.6153 22.6086 26.5894 22.9032 26.5894 22.9783C26.5713 22.973 26.5636 22.9271 26.5636 22.9083C26.5377 22.973 26.5066 23.087 26.4936 23.0999C26.4807 23.1129 26.5117 22.9912 26.4936 22.9653C26.4756 22.9393 26.4424 22.9523 26.4496 22.8876C26.4527 22.8493 26.4587 22.8112 26.4677 22.7738C26.4677 22.7738 26.39 22.8876 26.3332 23.1776C26.2762 23.465 26.2762 23.4729 26.2556 23.4986C26.2375 23.5299 26.1339 23.6333 26.1286 23.6722C26.1235 23.742 26.2245 23.812 26.2322 23.8507C26.2373 23.9156 26.1416 24.2158 26.1105 24.3627C26.0794 24.5097 26.0924 24.7976 26.0593 24.9452C26.0334 25.0798 26.0081 25.1575 25.9195 25.2143C25.9842 25.2273 26.0463 25.2454 26.0463 25.2454C26.0463 25.2454 26.1369 25.6285 25.9065 25.9549C25.8238 26.0687 25.8031 26.1206 25.7151 26.2242C25.5415 26.4157 25.4068 26.6338 25.3939 26.7756C25.3849 26.7337 25.3789 26.6913 25.3758 26.6486C25.3758 26.6486 25.1066 26.962 24.9926 27.1406C24.8452 27.371 24.6405 27.3581 24.583 27.4151C24.5255 27.4721 24.5131 27.5755 24.5318 27.6585C24.4806 27.6713 24.3844 27.6895 24.3195 27.8889C24.2885 27.9923 24.2108 28.0937 24.0891 28.1633C23.9674 28.2329 23.8198 28.2539 23.7447 28.272C23.8094 28.2901 23.8353 28.2901 23.8664 28.3107C23.8277 28.3754 23.649 28.4765 23.4496 28.606C23.2503 28.7277 23.1544 28.9062 23.1052 29.0228C23.054 29.1315 22.9784 29.2014 22.8567 29.2144C22.9079 29.2455 22.9837 29.3178 23.0225 29.3412C22.9654 29.3542 22.8689 29.3542 22.6963 29.5018C22.5151 29.652 22.4529 29.696 22.37 29.709L22.3691 29.7088Z" fill="#C39D3C"/>
<path fill-rule="evenodd" clip-rule="evenodd" d="M18.7665 30.9086C18.8656 30.8391 18.973 30.7822 19.0861 30.7391C19.4899 30.5787 19.9171 30.5476 20.0854 30.4959C20.246 30.4447 20.3728 30.3741 20.5721 30.3353C20.5668 30.3807 20.5624 30.4234 20.5576 30.4637C19.9699 30.6484 19.3715 30.797 18.7656 30.9086H18.7665Z" fill="#D2BA6B"/>
<path fill-rule="evenodd" clip-rule="evenodd" d="M26.2136 20.2875C26.2136 20.2875 26.1308 20.7353 25.9832 21.0176C25.8355 21.2999 25.676 21.6907 25.676 21.6907C25.6769 21.6027 25.6873 21.515 25.707 21.4291C25.5207 21.5378 25.0675 21.7994 24.939 21.9158C24.8173 22.0246 24.6127 22.2162 24.561 22.3068C24.6827 21.9496 24.8095 21.6286 24.8303 21.481C24.6439 21.6156 23.7739 22.3328 23.3209 22.8066L21.9099 23.9483C21.747 24.0362 21.5793 24.1147 21.4076 24.1835C21.1644 24.2869 20.877 24.375 20.6647 24.4579C20.7217 24.3052 20.8121 24.1704 20.9391 24.041C21.0738 23.9142 21.4776 23.4766 21.5397 23.273C21.5967 23.0607 21.6097 22.9339 21.5346 22.7552C21.4646 22.7733 21.3042 22.7811 21.1955 22.8122C21.0867 22.8432 20.9702 22.9596 20.9702 22.9596C20.9702 22.9596 21.0529 22.4859 21.2316 22.038C21.097 22.0432 20.8666 22.0819 20.8666 22.0819C20.8666 22.0819 21.1876 21.5434 21.737 21.1682C21.5687 21.204 21.4041 21.255 21.2451 21.3207C20.9241 21.4554 20.572 21.6547 20.3105 21.7634C20.458 21.5586 21.4936 20.0807 22.1099 18.7032C22.7243 17.3285 22.9538 16.9764 23.0885 16.2386C23.1583 15.8736 23.1397 15.3341 23.1583 14.8509C23.1764 14.3719 23.2359 13.9421 23.1972 13.6547C23.3576 13.8541 23.9584 14.4159 23.979 15.6717C23.9971 16.9273 23.4044 18.6232 22.7751 19.5369C22.9287 19.581 23.3267 19.6328 23.7357 18.9225C24.1446 18.2122 24.1396 18.0139 24.2873 17.7186C24.3053 17.8663 24.3001 17.918 24.3001 17.918C24.3001 17.918 24.8957 17.1957 25.1778 16.2869C25.2348 16.6779 25.4031 17.0223 25.1389 17.7395C24.9034 18.3866 24.5953 18.5447 24.5953 18.5447C24.5953 18.5447 24.7481 18.5187 24.9732 18.3841C25.0121 18.4798 25.0044 18.5889 25.0691 18.6274C25.1338 18.666 25.2218 18.731 25.2348 18.7932C25.3046 18.6896 25.4133 18.5575 25.4471 18.4592C25.4212 18.664 25.4031 19.5595 25.4983 20.0151C25.6978 19.997 25.9023 19.9841 26.042 19.6241C25.9463 19.9764 25.9463 20.1885 26.011 20.4889C26.1171 20.4165 26.2129 20.287 26.2129 20.287L26.2136 20.2875Z" fill="#C0993A"/>
<path fill-rule="evenodd" clip-rule="evenodd" d="M19.4869 6.01684C19.4869 6.01684 19.2876 6.09961 18.9484 6.09961C18.6534 6.09961 18.7361 5.98578 18.2753 5.98578C17.566 5.98578 15.0883 6.39538 14.6533 6.38958C14.371 6.38446 15.6059 6.51126 15.6059 6.51126L18.7621 6.55529L19.3963 6.50409L19.632 6.02452L19.4869 6.01684Z" fill="#A88F33"/>
<path fill-rule="evenodd" clip-rule="evenodd" d="M11.3039 12.1864C11.3039 12.1864 10.9 12.4945 10.7291 12.7302C10.5583 12.9659 10.4677 13.121 10.2734 13.3127C10.319 13.3144 10.3646 13.3083 10.4081 13.2946C10.4081 13.2946 10.4081 13.3458 10.377 13.3592C10.4314 13.3532 10.4856 13.372 10.5245 13.4104C10.4675 13.4415 10.3122 13.597 10.4339 13.7808C10.5245 13.9206 10.7161 13.9334 10.7161 13.9334C10.7161 13.9334 10.6721 14.0603 10.8559 14.0474C11.252 14.0293 11.6947 13.8557 11.8992 13.8997C12.104 13.9509 12.2204 13.9697 12.3653 14.2209C12.5189 14.4694 12.6527 14.5083 12.6527 14.5083C12.6527 14.5083 12.7433 14.2778 12.7227 13.9335C12.797 13.748 12.8382 13.5508 12.8444 13.3511L12.7097 12.3595L12.1221 11.6164L11.3609 12.0385L11.3039 12.1859V12.1864Z" fill="#E3C571"/>
<path fill-rule="evenodd" clip-rule="evenodd" d="M12.0254 12.0388C12.0254 12.0388 12.0824 12.1735 12.3206 12.1863C12.2947 12.2433 12.2947 12.2511 12.3026 12.295C12.3077 12.339 12.3154 12.4037 12.3154 12.4037C12.3416 12.391 12.3653 12.3737 12.3853 12.3525C12.3983 12.4095 12.3724 12.4999 12.3853 12.5648C12.3933 12.6042 12.4063 12.6425 12.4241 12.6786C12.4278 12.6698 12.4322 12.6612 12.437 12.6529C12.4422 12.6399 12.4882 12.7926 12.6157 12.9089C12.6156 12.891 12.62 12.8734 12.6285 12.8577C12.6305 12.8901 12.6412 12.9215 12.6596 12.9483C12.65 12.9437 12.6413 12.9376 12.6338 12.9302C12.6338 12.9302 12.6466 13.3398 12.7166 13.5516C12.7283 13.5379 12.7387 13.5232 12.7477 13.5076C12.7477 13.4948 12.7425 13.6216 12.7296 13.7124C12.7115 13.803 12.7244 13.9298 12.7244 13.9298C12.7711 13.893 12.8224 13.8626 12.877 13.8392C12.9547 13.8079 13.0818 13.7122 13.1593 13.4999C13.2042 13.3796 13.2389 13.2558 13.2629 13.1297C13.2879 13.1779 13.3052 13.2297 13.3141 13.2833C13.3194 13.348 13.4411 13.3144 13.4411 13.3144L13.467 13.0321L13.6206 12.3926L13.7604 11.9965L14.4335 10.9481L15.6497 10.0115L16.7112 10.2548L17.6069 9.03797L16.0639 8.11108L14.6037 8.26383L13.2784 10.0994L12.217 11.7642L12.0254 12.0386L12.0254 12.0388Z" fill="#D8B65B"/>
<path fill-rule="evenodd" clip-rule="evenodd" d="M19.6744 9.38254C19.6744 9.38254 19.5838 9.40063 19.3223 9.53614C19.0608 9.67165 18.8796 9.71465 18.7786 9.91399C18.6775 10.1133 18.6699 10.2714 18.6699 10.2714C18.6699 10.2714 18.8485 10.1937 18.9521 10.1678C19.0608 10.142 19.1825 10.1497 19.1696 10.1937C19.1571 10.2239 19.1398 10.2519 19.1184 10.2765C19.1184 10.2765 19.3232 10.2714 19.3177 10.3724C19.3122 10.4734 19.279 10.5847 19.2402 10.6339C19.2013 10.6851 19.0409 10.7608 19.0228 10.8204C18.9788 10.9421 19.0409 10.9472 19.0175 11.0455C18.9994 11.1414 18.9141 11.3278 18.6344 11.6539C18.347 11.9803 18.2248 12.2107 18.2248 12.2107C18.2248 12.2107 18.085 11.9492 18.0124 11.7239C17.9612 11.7497 17.6863 11.9024 17.6863 11.9024L17.0494 9.68376L17.0622 9.53614C17.0622 9.53614 17.1192 9.46633 17.1321 9.3368C17.0364 9.30574 17.0234 9.2798 16.8965 9.15828C16.7695 9.03677 16.6661 8.88897 16.4539 8.78793C16.4229 8.73093 16.3839 8.65345 16.2286 8.62222C16.0733 8.59099 15.9801 8.56539 15.9801 8.56539C15.9801 8.56539 16.0629 8.53415 16.1018 8.46947C16.0059 8.48244 15.9284 8.5135 15.7187 8.50838C15.5064 8.50309 15.483 8.49541 15.3666 8.5135C15.2502 8.53159 15.1106 8.58348 15.0585 8.40479C15.0015 8.36076 14.8799 8.39967 14.7763 8.55224C14.6727 8.70482 14.6365 8.82668 14.4371 8.88624C14.4231 8.97411 14.3924 9.05847 14.3465 9.13473C14.2895 9.23064 14.1989 9.32639 14.0772 9.46872C13.8856 9.694 13.9166 10.0642 13.6111 10.3465C13.3031 10.6286 13.6623 9.56447 13.6623 9.56447L14.1542 8.38687L15.5548 7.01727L17.7296 6.86981L17.942 7.99621L19.0035 8.36127L19.6741 9.3839L19.6744 9.38254Z" fill="#D3AE4D"/>
<path fill-rule="evenodd" clip-rule="evenodd" d="M20.0191 9.63108L19.1052 8.31337L18.4657 7.82133C18.4657 7.82133 18.01 6.98268 17.979 6.95674C17.953 6.93865 17.5233 6.89205 17.2489 6.87396L17.3001 7.00077C17.36 7.02022 17.4132 7.05612 17.4537 7.10436C17.5753 7.24414 17.653 7.50816 17.376 7.79044C17.4847 7.82918 17.5296 7.84164 17.6245 7.82918C17.5288 7.94319 17.3113 8.18656 17.2984 8.39887C17.2854 8.57227 17.3941 8.62398 17.3941 8.62398C17.3941 8.62398 17.2284 8.81564 17.2207 9.13598C17.299 9.04772 17.3846 8.96631 17.4767 8.89261C17.6684 8.73901 17.9324 8.56629 18.1111 8.45758C18.1086 8.5032 18.1148 8.54887 18.1292 8.59223C18.1292 8.59223 18.463 8.3178 18.7436 8.43949C18.8704 8.49649 18.8134 8.67518 18.8134 8.67518C18.8134 8.67518 18.9869 8.6105 19.1086 8.73218C19.2303 8.85387 19.4037 9.16704 19.4918 9.2889C19.5305 9.3459 19.6315 9.45461 19.735 9.62272C19.8763 9.85836 19.9943 10.1072 20.0872 10.3658C20.0923 10.2622 20.1132 10.1173 20.292 10.1173L20.0201 9.63057L20.0191 9.63108Z" fill="#CAA13E"/>
<path fill-rule="evenodd" clip-rule="evenodd" d="M6.31781 13.3748C6.31781 13.3748 6.25313 13.2142 6.31781 12.901C6.38249 12.5879 6.48353 12.4402 6.51715 11.9794C6.55077 11.5186 6.85114 10.9438 6.85114 10.9438L7.68212 10.566L8.2699 10.7264L8.44329 11.5135L7.70021 11.9231C7.70021 11.9231 7.66147 12.0965 7.45172 12.2363C7.24197 12.3761 6.95201 12.4848 6.88221 12.6273C6.84048 12.7146 6.81002 12.8068 6.79158 12.9017C6.79158 12.9017 6.57927 12.8577 6.45247 12.9975C6.31781 13.14 6.32293 13.2668 6.31781 13.3755V13.3748Z" fill="#F4EFC8"/>
<path fill-rule="evenodd" clip-rule="evenodd" d="M7.99417 13.1651C7.99417 13.1651 7.9242 13.2091 7.87249 13.3187C7.82129 13.2359 7.69892 12.7439 7.6938 12.3012C7.68868 11.8584 7.66223 11.7487 7.76463 11.5961C7.86703 11.4436 8.2686 11.2828 8.2116 11.008C8.1546 10.7466 7.91635 10.6378 7.62383 10.7129C7.41903 10.7641 7.26662 11.1997 7.05431 11.4171C6.89371 11.5828 6.70223 11.5569 6.65051 11.6475C6.58054 11.7692 6.64522 11.8909 6.62457 11.9685C6.61928 11.9945 6.5546 12.1342 6.43803 12.3025C6.20251 12.6416 5.80384 13.1207 5.75195 13.5504C5.77004 13.3071 5.75724 13.3019 5.82193 13.0326L5.78301 12.968L6.03901 12.1291L6.20473 11.4379L6.57508 10.2805L7.22737 9.0974L7.86173 8.38794L8.52187 8.43197L8.59953 9.42354L8.97755 11.2852L9.77235 12.2638L8.49849 13.121L7.99366 13.1651H7.99417Z" fill="#EBCC73"/>
<path fill-rule="evenodd" clip-rule="evenodd" d="M8.39085 13.5168C8.39085 13.5168 8.28213 13.5428 8.24322 13.5221C8.20431 13.5015 8.16574 13.4781 8.17854 13.4521C8.19134 13.4262 8.26131 13.3823 8.26131 13.3615C8.2643 13.3224 8.23564 13.288 8.19663 13.2839C8.13707 13.2762 8.11898 13.3149 8.11898 13.3149C8.11898 13.3149 8.06197 13.2711 8.01555 13.2637C8.04302 13.2604 8.07066 13.2586 8.09833 13.2584C8.02678 13.226 7.95089 13.2042 7.87305 13.1937C7.93773 13.155 8.06471 13.041 8.14748 13.041C8.23025 13.041 8.28213 13.0282 8.26916 12.9842C8.25619 12.9401 8.19151 12.8754 8.12171 12.8495C8.14748 12.8184 8.16574 12.7719 8.10362 12.6447C8.03876 12.5179 8.06471 12.4324 8.08553 12.4015C8.10362 12.3626 8.1683 12.2928 8.19936 12.2488C8.23042 12.2047 8.25636 12.1452 8.30808 12.1141C8.33402 12.096 8.41679 12.0629 8.49973 12.0313C8.59036 12.0003 8.66545 11.9614 8.71716 12.0003C8.77417 12.039 8.74823 12.0909 8.74823 12.0909C8.74823 12.0909 8.92691 12.026 9.08734 12.109C9.24794 12.1865 9.63893 12.2358 9.63893 12.2358L9.77905 12.5181L8.85216 13.3129L8.46901 13.5045L8.39136 13.5173L8.39085 13.5168Z" fill="#E5C66B"/>
<path fill-rule="evenodd" clip-rule="evenodd" d="M9.67741 12.2175C9.67741 12.2175 9.39001 12.4092 9.32533 12.479C9.36407 12.4843 9.42875 12.5102 9.40281 12.549C9.37175 12.5877 9.18538 12.7224 9.08179 12.8493C8.97307 12.9762 8.86948 13.1368 8.8333 13.2144C8.79455 13.2842 8.4993 13.4888 8.39844 13.5146C8.61075 13.5146 9.03793 13.2531 9.19835 13.2531C9.19323 13.3308 9.24238 13.4189 9.33301 13.4265C9.42363 13.4342 9.68509 13.4835 10.0372 13.2661C10.3893 13.0538 10.2729 12.8958 10.4203 12.7923C10.7026 12.6058 10.8164 12.4401 10.9717 12.3367C11.1271 12.2332 11.2074 12.2097 11.2074 12.2097C11.2074 12.2097 11.2126 12.132 11.2586 12.1399C11.2843 12.1428 11.3063 12.1598 11.3156 12.1839C11.3156 12.1839 11.585 11.9923 11.93 11.9405C11.922 11.937 11.9156 11.9305 11.912 11.9225C11.912 11.9225 11.9377 11.9095 11.943 11.8965C11.943 11.8965 11.9611 11.8706 11.9741 11.8835C11.987 11.8965 12.0051 11.9923 12.0311 12.0312C12.0881 12.0052 12.1968 11.7619 12.1968 11.7619L12.4584 11.0137V10.3301L12.2536 10.3691L10.7176 11.0213L9.78545 11.9871L9.67673 12.2175H9.67741Z" fill="#E6BD62"/>
<path fill-rule="evenodd" clip-rule="evenodd" d="M14.0999 8.86475C14.1829 8.8446 14.2626 8.81228 14.3362 8.76884C14.3052 8.85178 14.3052 8.94241 14.1705 9.13919C14.0359 9.33597 14.0307 9.36447 13.922 9.56893C13.8133 9.78123 13.8003 10.0867 13.6967 10.2212C13.7432 10.1987 13.793 10.1838 13.8442 10.1774C13.8442 10.1774 13.7408 10.268 13.6967 10.3637C13.6527 10.4595 13.5751 10.6588 13.3836 10.7807C13.1921 10.9025 12.9485 10.98 12.6871 11.2674C12.4255 11.5495 12.1563 11.9069 12.0215 12.0354C12.0915 11.9137 12.1872 11.6703 12.2131 11.5099C12.2391 11.3495 12.2079 11.1577 12.2519 10.9455C12.2959 10.7334 12.2959 10.5805 12.5079 10.2101C12.7199 9.83977 13.0827 8.55312 13.0827 8.55312L13.8645 8.30463L14.1002 8.8639L14.0999 8.86475Z" fill="#B6933F"/>
<path fill-rule="evenodd" clip-rule="evenodd" d="M13.5354 8.391C13.5354 8.391 13.2999 8.73012 13.2352 9.03049C13.1706 9.33086 13.2299 9.30492 13.1912 9.45255C13.168 9.54256 13.168 9.63697 13.1912 9.72698C13.2728 9.59557 13.3845 9.48547 13.517 9.40579C13.7397 9.2713 13.921 9.17538 14.029 9.06155C14.1377 8.93986 14.2283 8.74053 14.4639 8.58778C14.3681 8.57481 14.2335 8.53078 14.2079 8.53658C14.3038 8.42786 14.591 8.26215 14.881 8.06281C15.1684 7.85801 15.1503 7.77541 15.6164 7.57095C15.4636 7.59689 15.3911 7.55798 15.2641 7.57095C15.3153 7.46223 15.4945 7.41035 15.6737 7.23183C15.8529 7.05332 15.5599 6.78912 15.5599 6.78912L14.1946 7.61498L13.5344 8.39168L13.5354 8.391Z" fill="#C49937"/>
<path fill-rule="evenodd" clip-rule="evenodd" d="M9.83008 7.77473L9.86114 7.52624L10.2521 6.89972L10.6612 5.79943V4.29518L10.6302 3.42529L10.6948 2.8556L10.744 2.67453L10.7959 2.60455L11.1297 2.77795L11.5907 3.40447L11.6347 4.61364L11.1867 6.52169L9.90773 7.91724L9.83008 7.77473Z" fill="#DFC068"/>
<path fill-rule="evenodd" clip-rule="evenodd" d="M10.8489 2.53455C10.8489 2.53455 10.6441 2.53984 10.6004 3.39164C10.5568 4.24344 10.5356 4.69127 10.5045 5.11333C10.4735 5.53539 10.4011 5.79156 10.3648 6.04022C10.3284 6.28888 10.3077 6.62782 10.1914 6.83501C10.1402 6.93076 10.0308 7.23113 9.77442 7.45641C9.48701 7.7049 9.05762 7.87847 8.99259 7.89144C8.87859 7.91721 8.30122 7.97421 8.0657 8.10375C7.98293 8.14778 7.84042 8.19949 7.68255 8.34712C7.36921 8.62923 6.95244 9.13406 6.65207 9.74249C6.19127 10.6513 5.73047 13.2169 5.73047 13.2169L5.83406 13.0435C5.83406 13.0435 5.84703 12.8131 6.07743 12.4092C6.30271 12.0054 6.23803 11.5522 6.5512 10.7781C6.67289 10.483 6.82564 10.0999 7.012 9.77355C7.30726 9.24278 7.66446 8.7871 8.0244 8.53861C8.612 8.13481 9.25934 8.04675 9.25934 8.04675L9.95583 7.58595C9.95583 7.58595 10.0775 7.35043 10.2381 7.08111C10.4632 6.70326 10.7501 6.2812 10.8128 5.66765C10.9087 4.75885 10.6781 4.1634 10.6911 3.62494C10.704 3.08649 10.7092 2.69037 10.818 2.59446C10.9269 2.49854 10.8491 2.5349 10.8491 2.5349L10.8489 2.53455Z" fill="#A88F33"/>
<path fill-rule="evenodd" clip-rule="evenodd" d="M10.848 6.59936C10.848 6.59936 11.1552 5.8433 11.2958 5.17275C11.3218 5.0381 11.3735 4.90361 11.3864 4.7949C11.4511 4.16053 11.4692 3.89907 11.3864 3.5521C11.3218 3.2961 11.0733 3.06536 10.9437 2.8865C10.8169 2.69996 10.7574 2.6305 10.7833 2.59125C10.8093 2.552 10.9101 2.48782 11.0084 2.4955C11.2196 2.50165 11.419 2.59419 11.56 2.7515C11.7594 2.9819 11.9172 3.7639 11.9172 3.7639L12.0833 4.79575L12.5053 6.09538L10.8483 6.60038L10.848 6.59936Z" fill="#C99E3D"/>
<path fill-rule="evenodd" clip-rule="evenodd" d="M13.7345 5.81241C13.7345 5.81241 13.6775 5.83819 13.5741 5.81241C13.5831 5.89859 13.5431 5.98254 13.4705 6.02984C13.3618 5.98581 12.3441 6.07388 12.3441 6.07388C12.3441 6.07388 11.8703 5.99093 11.7227 5.36441C11.6193 4.94748 11.8004 4.37284 11.7408 3.99481C11.6502 3.4381 11.5234 3.32921 11.5104 3.15599C11.4974 2.98276 11.4845 2.93856 11.4845 2.82984C11.4275 2.81687 11.3938 2.79878 11.337 2.79878C11.324 2.74758 11.3498 2.70287 11.293 2.61224C11.324 2.62521 11.5363 2.65116 11.7848 2.88668C11.9896 3.07833 11.9896 3.14814 12.0205 3.18705C12.0593 3.22579 12.3726 3.49425 12.5073 3.76185C12.6419 4.02946 12.9034 4.88279 12.9629 5.02257C12.981 5.07957 13.0199 5.13657 13.1165 5.26594C13.2667 5.45248 13.4867 5.76087 13.7352 5.81207L13.7345 5.81241Z" fill="#B58634"/>
<path fill-rule="evenodd" clip-rule="evenodd" d="M12.0566 3.20001C12.2135 3.45337 12.3544 3.71625 12.4785 3.98713C12.6313 4.33136 12.7219 4.61364 12.9136 4.84404C12.81 4.54384 12.6262 3.95351 12.5174 3.74376C12.3958 3.52189 12.1473 3.28296 12.0566 3.20018V3.20001Z" fill="#A88F33"/>
<path fill-rule="evenodd" clip-rule="evenodd" d="M10.2959 7.45641C10.2959 7.45641 10.0345 7.52109 9.54773 7.77743C9.38713 7.86021 9.23455 7.93001 9.08693 7.99486C8.70344 8.16826 8.29213 8.32852 7.96582 8.41692C7.99176 8.44798 8.00456 8.46078 8.00456 8.46078C8.00456 8.46078 8.00456 8.58776 8.07453 8.66012C8.03579 8.69903 7.51782 9.05112 7.67073 10.2291C7.77416 10.1903 7.89584 10.1384 7.91393 10.1384C7.94517 10.1437 7.95285 10.2291 7.99159 10.2291C8.03033 10.2291 8.15731 10.1779 8.29196 10.0038C8.28684 10.0738 8.20919 10.7779 8.62596 11.2517C8.70361 11.1611 8.90039 10.8607 8.90039 10.8607L8.90551 10.765C8.90551 10.765 8.9236 10.431 9.03248 10.1255C9.14137 9.81997 9.35351 9.59469 9.35351 9.59469L10.4613 8.01278L10.2956 7.45624L10.2959 7.45641Z" fill="#E6C367"/>
<path fill-rule="evenodd" clip-rule="evenodd" d="M9.26164 9.77918C9.21092 9.81502 9.15504 9.84293 9.09592 9.86195C9.07783 9.79727 9.05189 9.57455 9.20464 9.35712C9.38332 9.09549 9.77415 8.75637 9.88286 8.48672C9.95284 8.31315 9.92178 7.87829 10.5432 7.32158C11.1646 6.76486 11.4078 6.57337 11.4078 6.57337L12.4123 6.06854L13.6473 6.55528L13.0337 8.95998L12.5574 10.0864L10.663 9.72917L9.26147 9.77918H9.26164Z" fill="#DCBA5A"/>
<path fill-rule="evenodd" clip-rule="evenodd" d="M9.98438 9.12622L10.2201 8.83114V8.62139C10.2201 8.62139 10.4815 8.55141 10.7636 8.26401C11.0458 7.97661 11.4367 7.42519 11.7812 7.45881C12.1256 7.49772 12.1592 8.20701 12.1722 8.40652C12.1851 8.60603 12.2292 9.05881 12.299 9.30235C12.3766 9.54572 11.4601 10.4673 11.4601 10.4673L10.8377 10.9411L9.98438 9.12622Z" fill="#E9CE77"/>
<path fill-rule="evenodd" clip-rule="evenodd" d="M10.7129 11.5831C10.7129 11.5831 10.9045 11.2828 10.7641 11.2181C10.8469 11.0317 10.9996 10.8349 10.9996 10.8349C10.9996 10.8349 11.1083 10.5658 11.4604 10.2344C11.8125 9.90294 12.0301 9.68278 12.0871 9.46023C12.1222 9.31519 12.1414 9.16673 12.1441 9.01752C12.1822 9.04861 12.2229 9.07631 12.2658 9.10029C12.3228 9.12623 12.5919 9.34878 12.5532 9.79678C12.5144 10.2448 12.3484 10.4311 12.3484 10.4311C12.3484 10.4311 12.188 10.5916 12.0741 10.6745C11.9523 10.7573 11.9084 10.853 11.7038 10.8609C11.7248 10.8442 11.7485 10.831 11.7738 10.822C11.7738 10.822 11.5614 10.7962 11.4474 10.8996C11.3334 11.0031 11.0911 11.3217 10.9694 11.4176C10.8477 11.4953 10.7134 11.5833 10.7134 11.5833L10.7129 11.5831Z" fill="#CDAE50"/>
<path fill-rule="evenodd" clip-rule="evenodd" d="M19.3212 6.54746C19.0154 6.43598 18.6939 6.37309 18.3686 6.36109C17.8248 6.343 17.03 6.37406 16.2508 6.37918C15.4119 6.3843 14.6508 6.09178 13.5945 6.04007C13.4211 5.93647 12.9801 5.48335 11.6035 6.44386C11.6863 6.43874 12.6029 6.23155 12.9212 6.6304C13.2423 7.02652 13.1516 7.69963 13.1078 7.86005C13.0248 8.21743 12.7555 8.73779 12.647 9.10285C12.5384 9.46791 12.564 9.65973 12.4864 9.91573C12.4087 10.1717 12.2379 10.2989 12.3387 10.594C12.4734 10.5112 12.5435 10.5112 12.7685 10.0064C12.9934 9.50153 12.9472 9.14159 13.3201 8.71441C13.6851 8.28467 14.2929 7.6969 14.524 7.54927C14.755 7.40164 16.5899 6.44898 18.5111 7.35778C18.9744 7.30863 19.3214 6.54729 19.3214 6.54729L19.3212 6.54746Z" fill="#D2A83E"/>
<path fill-rule="evenodd" clip-rule="evenodd" d="M12.3773 6.19517C12.3754 6.17571 12.3711 6.15657 12.3645 6.13817C12.3465 6.1003 12.3229 6.06538 12.2945 6.03457C12.2945 6.03457 11.8388 5.9518 11.6084 5.97757C11.2045 6.0216 10.8394 6.52131 10.6686 6.77765C10.4977 7.034 10.2854 7.42994 10.055 7.63457C10.0575 7.61464 10.053 7.59445 10.0421 7.57757C10.0421 7.57757 10.055 7.59566 10.0293 7.6216C10.0035 7.64754 10.0033 7.66034 10.0163 7.6728L10.0552 7.71154C10.068 7.71154 10.4254 7.55094 10.9121 7.09714C11.4299 6.62337 11.826 6.38034 12.0332 6.29706C12.1437 6.2501 12.2592 6.21592 12.3775 6.19517H12.3773Z" fill="#C29637"/>
<path fill-rule="evenodd" clip-rule="evenodd" d="M21.2167 4.2486C21.2167 4.2486 21.1338 4.35202 21.0302 4.46603C20.7998 4.7094 20.4994 4.98366 20.2431 5.26594C19.9999 5.53525 19.7254 5.745 19.4172 6.09709C19.109 6.44917 18.7516 6.84 18.6612 6.954C18.5784 7.06801 18.5137 7.25438 18.5137 7.35012C18.4697 7.31906 18.418 7.28544 18.418 7.28544C18.4397 7.32609 18.4658 7.3643 18.4956 7.39944C18.5603 7.49007 18.6612 7.60424 18.7131 7.67388C18.7767 7.76252 18.8224 7.86277 18.8475 7.96896C18.8786 7.97408 19.0779 8.01299 19.3266 7.6039C19.5753 7.19482 19.9012 6.74699 19.9012 6.74699L20.419 5.97796L20.7454 5.32567L21.155 4.59556L21.2172 4.2486H21.2167Z" fill="#AC8132"/>
<path fill-rule="evenodd" clip-rule="evenodd" d="M21.747 3.72565C21.747 3.72565 21.4336 3.98165 21.3119 4.13525C21.1903 4.28885 20.9023 4.69196 20.9023 4.69196L21.0059 4.67899L21.5316 4.21307L21.7364 3.84801L21.7468 3.72633L21.747 3.72565Z" fill="#A88F33"/>
<path fill-rule="evenodd" clip-rule="evenodd" d="M21.6518 24.3004C21.6518 24.3004 21.6466 24.0881 21.7658 23.9613C21.8874 23.8343 22.1955 23.6479 22.4959 22.9489C22.7962 22.2498 22.8297 22.0919 22.8297 22.0919C22.8297 22.0919 22.2912 22.5527 21.9593 22.6615C22.037 22.5009 22.081 22.387 22.1199 22.3041C22.0759 22.2653 21.8895 22.2213 21.8714 22.2007C21.9748 22.0971 22.0318 21.8433 22.2416 21.675C22.5109 21.4702 23.0028 21.1183 23.385 20.8046C23.7673 20.4909 24.519 19.7613 24.6149 19.549C24.6719 19.6318 24.6847 19.6835 24.6847 19.6835C24.6847 19.6835 24.3068 20.1755 24.11 20.4887C23.9365 20.758 23.9494 20.9108 23.9494 20.9108L24.3068 20.7572C24.3068 20.7572 24.4102 21.1403 23.9418 21.723C24.1466 21.6453 24.2292 21.6919 24.3456 21.627C24.1539 21.7489 23.8899 21.9146 23.6414 22.3701C23.398 22.8258 23.0666 23.3566 22.5075 23.6878C21.9637 24.0374 21.6504 24.2988 21.6504 24.2988L21.6518 24.3004Z" fill="#A67A2E"/>
<path fill-rule="evenodd" clip-rule="evenodd" d="M20.2489 6.81694C20.2489 6.81694 20.0366 7.25948 20.0055 7.60388C20.0004 7.68683 19.9796 7.75151 19.9796 7.84725C19.9745 8.15531 19.9977 8.49971 19.9284 8.66014C19.9024 8.59546 19.8895 8.55143 19.8635 8.52566C19.8248 8.63437 19.7548 8.97348 19.6978 9.10029C19.672 9.01752 19.615 8.73011 19.6203 8.391C19.6256 8.05188 19.6331 7.98703 19.6331 7.91723C19.6203 8.02065 19.5504 8.1606 19.5244 8.24337C19.4857 8.17357 19.4416 8.08295 19.3898 8.00785C19.3587 8.05905 19.32 8.13466 19.2863 8.17357C19.281 8.14251 19.2682 8.05956 19.2604 7.94317C19.2553 7.80851 19.2474 7.63512 19.2553 7.59876C19.2681 7.52896 19.377 7.25453 19.6074 7.00331C19.8818 6.70293 20.1641 6.12574 20.2469 5.94705C20.3296 5.76836 20.6817 5.02545 20.6817 5.02545H20.951L20.56 5.91599C20.56 5.91599 20.3245 6.40273 20.2028 6.58159C20.0811 6.76045 19.8248 7.27296 19.7108 7.4723C19.7936 7.36359 19.8635 7.30658 19.9465 7.20299C20.0267 7.13045 20.2492 6.81728 20.2492 6.81728L20.2489 6.81694Z" fill="#8C6228"/>
<path fill-rule="evenodd" clip-rule="evenodd" d="M21.7521 3.69183C21.7082 3.82723 21.6386 3.95294 21.5473 4.06218C21.3868 4.25384 21.0423 4.51001 20.8742 4.71447C20.7206 4.91381 20.4134 5.45755 20.553 6.10216C20.6042 5.96238 20.7007 5.68539 20.957 5.37205C21.2134 5.0587 21.4878 4.69894 21.6226 4.41939C21.7571 4.1371 21.7752 3.91455 21.7752 3.91455L21.8264 3.84987L21.7953 3.70224L21.7513 3.69183L21.7521 3.69183Z" fill="#CBA94C"/>
<path fill-rule="evenodd" clip-rule="evenodd" d="M26.996 20.8647C26.996 20.8647 26.8924 20.5826 26.8613 20.3262C26.8303 20.0699 26.9125 20.019 26.8173 19.7257C26.7603 19.547 26.6569 19.5721 26.6309 19.547C26.605 19.5219 26.5869 19.2519 26.592 19.1043C26.5971 18.9566 26.5869 18.7652 26.561 18.6822C26.5222 18.6512 26.4963 18.6252 26.4393 18.4337C26.3746 18.2421 26.3435 18.1463 26.3125 18.0895C26.2814 18.0327 26.1906 17.9808 26.1906 17.9238C26.1906 17.8098 26.2942 17.7504 26.2942 17.719C26.2891 17.6543 26.2114 17.7062 26.1906 17.6879C26.1648 17.6568 26.2555 17.4705 26.2218 17.4445C26.2089 17.4317 26.1182 17.5405 26.0949 17.5094C26.0689 17.4782 26.0379 17.1701 25.9913 16.9656C25.9474 16.7663 25.9006 16.6214 25.8955 16.5619C25.8904 16.5049 25.5382 15.5003 25.4528 15.2569C25.384 15.0513 25.3262 14.8422 25.2794 14.6304C25.2535 14.5087 25.2354 14.2601 25.2224 14.286C25.2094 14.312 25.2173 14.4388 25.1965 14.4336C25.1784 14.4283 25.1137 13.9858 25.0931 13.9158C25.075 13.8459 24.9661 13.6086 24.9395 13.4369C24.9135 13.2634 24.8567 12.8103 24.8178 12.5022C24.7789 12.1942 24.7608 12.0673 24.7608 11.9902C24.7671 11.8015 24.7567 11.6127 24.7297 11.4258C24.6785 11.0995 24.5761 10.7034 24.4863 10.4731C24.3129 10.0381 23.852 8.92486 23.7695 8.64787C23.7695 8.57789 23.8602 8.61681 23.8602 8.61681C23.8602 8.61681 24.0853 9.1812 24.251 9.61606C24.4116 10.0511 24.5643 10.4342 24.6032 10.4731C24.6343 10.5119 24.8777 10.9391 24.9864 11.6381C25.0951 12.3372 25.1338 12.9818 25.1987 13.4115C25.2298 13.6163 25.2557 13.8336 25.3204 14.051C25.3902 14.2867 25.4989 14.5301 25.6414 14.9028C25.7631 15.2161 25.8537 15.4776 25.9029 15.7029C25.9599 15.9903 25.9599 16.2077 25.9935 16.3502C26.0247 16.4719 26.0711 16.7151 26.18 17.067C26.2889 17.4189 26.4492 17.8722 26.5579 18.1543C26.7704 18.7187 26.8651 19.1899 26.8972 19.4412C26.9255 19.7001 27.0214 20.5959 26.9955 20.865L26.996 20.8647Z" fill="#A88F33"/>
<path fill-rule="evenodd" clip-rule="evenodd" d="M21.7658 3.66079L21.7528 3.69185C21.7528 3.69185 21.7916 3.70482 21.7839 3.75671C21.7844 3.82769 21.7801 3.89863 21.7709 3.96902C21.7581 4.05964 21.7322 4.12944 21.727 4.18645C21.727 4.30813 21.7451 4.44791 21.5734 4.79487C21.5222 4.89062 21.4907 4.97339 21.4647 5.03039C21.4001 5.17017 21.3871 5.19099 21.3301 5.25567C21.4207 5.20447 21.747 4.99967 21.9126 5.03039C21.7987 5.09508 21.6252 5.22205 21.5164 5.38777C21.5424 5.39289 21.6511 5.41371 21.8236 5.38777C22.111 5.34374 22.4321 5.24014 22.7142 5.26079C23.0224 5.27888 22.9007 4.89062 22.9007 4.89062L22.5451 4.10879L21.8719 3.63519L21.7658 3.66096V3.66079Z" fill="#BE9C44"/>
<path fill-rule="evenodd" clip-rule="evenodd" d="M23.5203 9.51723C23.5203 9.51723 23.22 9.21686 23.0983 8.18603C22.9766 7.15043 23.0025 5.62603 23.0025 5.62603L22.7592 5.03058C22.7592 5.03058 22.708 4.63446 22.5805 4.48701C22.453 4.33955 22.2026 4.09089 22.0886 3.9692C21.9746 3.84752 21.8452 3.6818 21.7676 3.65586C21.8063 3.59118 21.9799 3.22612 22.6451 3.221C23.3104 3.21588 23.5155 3.58606 23.585 3.72071C23.6545 3.85537 23.9682 4.43751 24.0845 5.54685C24.1933 6.65481 24.1986 6.73776 24.1805 7.1209C24.1675 7.33321 24.0975 7.82507 23.9757 8.35056C23.8644 8.796 23.7427 9.29315 23.52 9.51826L23.5203 9.51723Z" fill="#A17C34"/>
<path fill-rule="evenodd" clip-rule="evenodd" d="M22.5792 10.4001C22.6793 10.4073 22.7793 10.3847 22.8666 10.3352C22.9624 10.3301 23.3093 10.3741 23.5759 10.035C23.594 10.1125 23.6408 10.3224 23.5189 10.5088C23.5838 10.444 23.6795 10.4182 23.6925 10.4001C23.6976 10.4958 23.7882 10.7909 23.4051 11.5081C23.5085 11.3942 23.6302 11.3993 23.7389 11.3864C23.7442 11.521 23.8166 11.974 23.6251 12.2175C23.4983 12.3832 23.2911 12.3314 23.2911 12.3314C23.2941 12.2952 23.2941 12.2588 23.2911 12.2226C23.286 12.1527 23.26 12.0829 23.2783 12.0363C23.1782 11.9905 23.087 11.9274 23.009 11.8497C22.7837 11.6374 22.4912 11.2751 22.4705 11.0058C22.4446 10.7054 22.7139 10.6407 22.7139 10.6407C22.6913 10.6205 22.6721 10.5969 22.6569 10.5708C22.6439 10.5269 22.6309 10.4569 22.5792 10.4001Z" fill="#8C6228"/>
<path fill-rule="evenodd" clip-rule="evenodd" d="M20.5828 7.1431C20.5828 7.1431 20.5698 7.12501 20.5 7.20778C20.513 7.12501 20.5259 7.04718 20.5311 6.97209C20.5641 6.90257 20.6069 6.83809 20.658 6.7806C20.6191 6.85809 20.5932 6.92806 20.5932 6.92806C20.5932 6.92806 20.6891 6.74937 20.8289 6.64066C20.9246 6.563 21.0463 6.52682 21.098 6.45429C21.155 6.37663 21.142 6.36366 21.155 6.35069C21.155 6.35069 21.282 6.26792 21.4762 6.02438C21.502 5.99332 21.5409 5.9597 21.5668 5.92863C21.6107 5.91054 21.7143 5.86395 21.836 5.80166C21.963 5.73186 22.1053 5.63611 22.1934 5.59686C22.3668 5.51921 22.5507 5.52706 22.6361 5.4052C22.7007 5.38711 22.7705 5.19289 22.7577 5.02734C22.8535 5.06609 23.3454 5.37158 23.5138 6.03957C23.6355 6.51334 23.4179 7.24345 23.3273 7.59571C23.2366 7.94796 23.2238 8.20925 23.0969 8.36968C22.9363 8.58216 22.4186 8.88168 22.2917 9.02999C22.1829 9.15167 21.8568 9.45973 21.8696 9.68228C21.8826 9.84799 22.087 9.93828 22.1312 9.96968C22.1754 10.0011 22.1751 10.0397 22.258 10.0209C22.341 10.0021 22.3719 9.96388 22.4057 9.96388C22.4444 9.969 22.4444 9.97685 22.4625 9.97685C22.4756 9.97646 22.4887 9.97468 22.5014 9.97156C22.5014 9.97156 22.4884 10.2072 21.937 10.2788C21.8981 10.284 21.8594 10.2968 21.81 10.3047C21.8749 10.2736 21.9136 10.2736 21.9836 10.1779C21.906 10.1649 21.6832 10.152 21.6262 10.1339C21.6443 10.1028 21.7039 10.0199 21.753 9.98111C21.7971 9.94237 21.7479 9.92991 21.7092 9.95005C21.6425 9.99543 21.5785 10.0447 21.5175 10.0975C21.4528 10.1545 21.3958 10.2322 21.2922 10.3023C21.2612 10.1987 21.2663 10.0019 21.3881 9.8596C21.3569 9.86472 21.2974 9.95534 21.2405 9.93725C21.2302 9.84282 21.2364 9.74732 21.2586 9.65497C21.2897 9.53841 21.458 9.33395 21.458 9.33395L22.2708 7.8814L22.4442 6.78111L20.5828 7.14276V7.1431Z" fill="#92723A"/>
<path fill-rule="evenodd" clip-rule="evenodd" d="M20.5391 7.20519C20.5391 7.20519 20.4951 7.23625 20.5831 7.29581C20.5701 7.3139 20.5391 7.37859 20.5002 7.42262C20.4563 7.47382 20.4095 7.50556 20.3915 7.54959C20.3527 7.64022 20.3217 7.70234 20.3217 7.74125C20.3217 7.78016 20.3087 8.02866 20.2 8.18908C20.1611 8.24608 20.117 8.34183 20.086 8.40651C20.0213 8.52035 19.9643 8.61131 19.9513 8.66251C19.9255 8.75314 19.9074 9.00163 19.9074 9.00163C19.9074 9.00163 19.9644 8.93165 19.9851 8.90588C19.9539 8.97056 19.9202 9.04037 19.8711 9.09225C19.9022 9.06631 19.9928 9.00163 20.1455 8.86697C20.3578 8.68845 20.6893 8.38808 21.0932 8.15017C20.9714 8.1942 20.868 8.1942 20.7852 8.20717C20.8499 8.14249 21.4324 7.45897 21.7378 7.39429C21.7564 7.37077 21.7656 7.34124 21.7638 7.31134L21.5022 7.28557L20.9714 7.39941L20.8939 6.98981L20.5391 7.20468V7.20519Z" fill="#B18E3E"/>
<path fill-rule="evenodd" clip-rule="evenodd" d="M21.3818 9.53531C21.3818 9.53531 21.3118 9.60511 21.2471 9.77868C21.1973 9.72668 21.1546 9.66832 21.1201 9.60511C21.0244 9.44469 20.8769 9.24006 20.5325 9.35662C20.5274 9.24791 20.5196 9.19091 20.5325 9.11325C20.5895 9.10045 20.7629 8.96068 20.9363 8.75605C21.0582 8.61627 21.172 8.45567 21.2497 8.25122C21.3009 8.2123 21.3895 8.14762 21.5057 8.07253C21.6714 7.95869 21.8707 7.80322 21.9018 7.62982C21.8241 7.66088 21.6584 7.73853 21.4098 7.72573C21.5057 7.6817 21.6531 7.63511 21.635 7.44345C21.674 7.41751 21.705 7.39942 21.705 7.39942C21.6758 7.38969 21.6451 7.38529 21.6144 7.38645C21.6091 7.36836 21.6014 7.34259 21.5574 7.35539C21.5134 7.36819 21.5062 7.36836 21.5004 7.38645C21.4823 7.39174 21.4227 7.38645 21.3787 7.41768C21.3347 7.44891 21.213 7.55217 21.1664 7.57026C21.1845 7.53919 21.2103 7.49277 21.2103 7.49277C21.2103 7.49277 21.0835 7.50557 20.9928 7.54397C20.8271 7.60098 20.6356 7.70457 20.4414 7.80543C20.4595 7.77437 20.4673 7.75423 20.4801 7.74843C20.4929 7.74263 20.5242 7.73563 20.5242 7.73034C20.5242 7.72505 20.5114 7.67914 20.5191 7.66054C20.5771 7.53753 20.6456 7.41973 20.7239 7.30845C20.8145 7.1866 20.8326 7.0132 20.8326 7.0132L21.2287 6.81386L22.342 6.55786L23.0644 6.60189L22.9738 7.10161L22.5471 7.97405L22.182 8.76885L21.7651 9.25576L21.382 9.53531H21.3818Z" fill="#543E26"/>
<path fill-rule="evenodd" clip-rule="evenodd" d="M23.1874 7.37281C23.1874 7.37281 22.7524 7.91126 22.6307 7.99421C22.7084 7.82849 23.1874 6.84204 23.3608 6.5676C23.3221 6.53654 23.2702 6.53654 23.3919 6.0556C23.2885 6.2988 23.2521 6.42578 23.1668 6.49046C23.0814 6.55514 23.0709 6.53449 23.0132 6.53449C23.0241 6.51479 23.0285 6.49218 23.026 6.46981C23.026 6.46981 22.6609 6.42578 22.4116 6.42578C22.1622 6.42578 21.6687 6.56044 21.3941 6.66915C21.1766 6.75977 21.0549 6.75977 20.9773 6.81661C20.8996 6.88129 20.8556 6.95126 20.8167 6.96935C20.7856 6.98744 20.6382 7.03404 20.6044 7.08319C20.5733 7.13439 20.5216 7.1919 20.5216 7.20487C20.5216 7.21784 20.5086 7.2361 20.5475 7.22296C20.5603 7.21784 20.6563 7.16596 20.765 7.10128C20.9124 7.0185 21.0911 6.92276 21.2207 6.86576C21.5908 6.71813 21.7074 6.74407 21.8729 6.71301C22.0463 6.68195 22.295 6.60942 22.4606 6.60942C22.6263 6.6043 22.9396 6.60942 23.0121 6.62239C22.9811 6.64833 22.9551 6.67939 22.9681 6.7881C22.9681 6.81917 22.9422 6.85279 22.9169 6.92788C22.8394 7.14019 22.6918 7.49228 22.6097 7.67096C22.4959 7.91416 22.3665 8.11879 22.3025 8.2456C22.2385 8.3724 22.0977 8.7064 21.9583 8.88509C21.8188 9.06377 21.746 9.17249 21.7023 9.2114C21.6586 9.25031 21.3449 9.48054 21.3683 9.56349C21.4253 9.5454 21.7852 9.40989 22.0465 9.11566C22.3078 8.82143 22.3599 8.64189 22.5643 8.48129C22.7688 8.32069 22.9294 8.05155 23.0251 7.829C23.1053 7.62181 23.0872 7.55713 23.1881 7.37332L23.1874 7.37281Z" fill="#806031"/>
<path fill-rule="evenodd" clip-rule="evenodd" d="M13.8131 11.3917C13.8131 11.3917 13.7561 11.6272 13.6266 11.7438C13.4998 11.8578 13.2745 11.9561 13.2487 12.1477C13.2176 12.3392 13.474 12.4351 13.474 12.4351C13.474 12.4351 13.334 12.6655 13.334 12.8389C13.334 13.0176 13.3289 13.0512 13.347 13.2221C13.3265 13.2353 13.309 13.2527 13.2958 13.2733C13.2958 13.2733 13.3086 13.439 13.4356 13.5424C13.5626 13.6458 13.6711 13.7081 13.7358 13.6822C13.7457 13.7033 13.7543 13.7249 13.7617 13.747C13.7617 13.747 13.8576 13.5037 13.9223 13.2914C13.987 13.0739 14.044 13.1048 14.0698 12.8123C14.0956 12.5198 14.377 12.0175 14.377 12.0175L14.569 11.5883L14.2558 11.3449L13.8131 11.3915V11.3917Z" fill="#B6903C"/>
<path fill-rule="evenodd" clip-rule="evenodd" d="M14.3955 11.8135C14.3309 11.8798 14.2713 11.9508 14.2172 12.0258C14.1344 12.1399 14.0697 12.2433 13.948 12.2875C13.8264 12.3317 13.7487 12.3313 13.7564 12.4532C13.7641 12.5751 13.8781 12.6266 13.9427 12.6887C14.0127 12.7534 14.0697 12.8621 14.0387 12.984C14.0774 12.9659 14.1474 12.9451 14.2121 12.8053C14.2767 12.6655 14.7292 11.8137 14.7292 11.8137H14.3955V11.8135Z" fill="#685026"/>
<path fill-rule="evenodd" clip-rule="evenodd" d="M16.1797 9.84845C16.1797 9.84845 16.2184 9.74503 16.1797 9.66994C16.1407 9.59228 15.9052 9.56634 15.7887 9.47828C15.667 9.38765 15.5193 9.32468 15.3977 9.36444C15.4158 9.32041 15.4883 9.2245 15.4287 9.20385C15.3717 9.18576 15.1596 9.2815 15.1026 9.32553C15.0456 9.36956 14.916 9.42128 14.8903 9.45251C14.8645 9.48374 14.8203 9.54313 14.7944 9.51719C14.7684 9.4991 14.7556 9.45251 14.7116 9.47828C14.6675 9.50405 14.4556 9.67762 14.4165 9.77865C14.3774 9.87969 14.2895 10.105 14.0255 10.3611C13.7615 10.6173 13.6475 10.7832 13.7251 10.8789C13.8028 10.9747 13.8391 10.9049 13.8521 10.9877C13.8621 11.0689 13.8577 11.1513 13.8391 11.231C13.8081 11.3657 13.7564 11.4925 13.8262 11.5184C14.0048 11.5754 14.1784 11.4672 14.2172 11.5003C14.2948 11.5701 14.1731 11.8214 14.3569 11.8705C14.5435 11.9217 14.7273 11.8265 14.7273 11.8265L15.4055 11.4614L16.058 11.1172L16.3918 10.4569L16.2128 9.90546L16.1786 9.84845H16.1797Z" fill="#D4B968"/>
<path fill-rule="evenodd" clip-rule="evenodd" d="M15.5399 11.4253C15.5399 11.4253 15.4259 11.2519 15.5658 11.099C15.7058 10.9461 15.9049 10.8815 15.9826 10.7858C15.9678 10.7676 15.948 10.7541 15.9256 10.7471C15.9771 10.6548 16.0558 10.5807 16.1509 10.5346C16.1121 10.4958 16.0602 10.4648 16.0034 10.4648C15.8764 10.4648 15.7986 10.5424 15.6822 10.5424C15.5684 10.5424 15.5554 10.4854 15.5554 10.4854C15.5554 10.4854 15.7471 10.4673 15.7288 10.3818C15.7107 10.2912 15.6776 10.2912 15.6776 10.2912C15.6776 10.2912 16.0478 10.1376 16.1125 10.0557C16.1771 9.97377 16.1695 9.877 16.1824 9.83826C16.2263 9.83826 16.4826 9.70361 16.5862 9.76061C16.6898 9.81761 16.6173 9.97292 16.6173 9.97292C16.6173 9.97292 16.9308 9.73723 17.0905 9.50614C17.2303 9.51912 17.2953 9.4104 17.3977 9.4104C17.5247 9.4104 17.7241 9.5838 17.7628 9.95397C17.7887 10.1663 17.8275 10.288 17.7887 10.6634C17.7707 10.8757 17.7758 11.329 17.8399 11.554C17.8838 11.7327 17.9874 11.7146 17.9874 11.7146C17.9715 11.769 17.94 11.8176 17.8968 11.8543C17.8268 11.919 17.8191 12.09 17.8268 12.1547C17.8371 12.202 17.8501 12.2487 17.8657 12.2945C17.8657 12.2945 17.7829 12.3902 17.7621 12.4551C17.744 12.5198 17.6587 12.5638 17.5964 12.5638C17.5341 12.5638 17.5653 12.5585 17.4826 12.5638C17.3998 12.5691 17.3739 12.5819 17.322 12.5638C17.2701 12.5457 17.2313 12.5249 17.2522 12.359C17.2703 12.1933 16.6127 11.8076 16.6127 11.8076L15.5375 11.4244L15.5399 11.4253Z" fill="#CCA849"/>
<path fill-rule="evenodd" clip-rule="evenodd" d="M14.3036 13.0615C14.3036 13.0615 14.5391 13.3748 15.5075 13.3748C15.9683 13.3748 16.1289 13.3308 16.2243 13.3048C16.3279 13.2789 16.7161 13.1263 17.1071 12.6654C17.4592 12.2486 17.3816 12.0778 17.3816 12.0778L17.1768 12.0467L16.5112 12.1373L14.5417 12.9761L14.3027 13.0615H14.3036Z" fill="#585136"/>
<path fill-rule="evenodd" clip-rule="evenodd" d="M15.0263 13.1391C15.0263 13.1391 14.1875 13.3257 14.1875 12.7949C14.1875 12.2771 14.7053 11.7333 14.8348 11.6376C14.9695 11.5417 15.2905 11.4328 15.2905 11.4328H16.0647L16.2121 11.8238L16.1474 12.6677L15.0263 13.139V13.1391Z" fill="#252211"/>
<path fill-rule="evenodd" clip-rule="evenodd" d="M15.8004 11.591C15.8004 11.591 15.64 11.4434 15.2749 11.6422C14.9098 11.841 14.6146 12.2566 14.5965 12.6339C14.5784 12.9678 14.8709 13.2164 15.3266 13.2294C15.6657 13.2422 15.8704 13.2034 15.9739 13.1782C15.948 13.1471 15.8134 12.9788 15.8134 12.9788L15.8006 11.5912L15.8004 11.591Z" fill="#C3B378"/>
<path fill-rule="evenodd" clip-rule="evenodd" d="M15.6435 11.6736C15.6435 11.6736 15.6048 11.6425 15.4899 11.7047C15.3942 11.7559 15.2544 11.8912 15.1457 11.9869C15.0757 12.0439 15.0317 12.0697 14.9921 12.1137C14.8315 12.3054 14.6968 12.6187 14.7746 12.7741C14.8525 12.9294 15.1086 13.1081 15.7611 12.9864L15.6416 11.6738L15.6435 11.6736Z" fill="#E6D89C"/>
<path fill-rule="evenodd" clip-rule="evenodd" d="M15.4295 11.9948C15.4295 11.9948 15.3259 12.1554 15.3259 12.4117C15.3259 12.6732 15.4735 13.0899 16.0173 13.121C16.434 13.1469 16.7136 12.5204 17.0165 12.2771C17.2469 12.0907 17.3867 12.0854 17.3867 12.0854C17.3867 12.0854 17.1512 11.8294 16.5221 11.4978C15.9007 11.1638 15.2042 11.1198 14.8262 11.6325C15.0049 11.6195 15.5822 11.4719 15.5822 11.4719L15.8645 11.5625L15.4295 11.9949V11.9948Z" fill="#252211"/>
<path fill-rule="evenodd" clip-rule="evenodd" d="M16.2439 12.3339C16.2258 12.2952 16.2128 12.2433 16.2879 12.2305C16.363 12.2177 16.3966 12.2252 16.4226 12.2817C16.4485 12.3382 16.4738 12.3853 16.4354 12.4087C16.3966 12.4293 16.2956 12.4087 16.2437 12.3336L16.2439 12.3339ZM16.1221 11.9688C16.1221 11.9688 16.0961 11.9869 16.1091 11.9508C16.1142 11.9069 16.148 11.8291 16.2308 11.8473C16.3136 11.8656 16.2956 11.956 16.282 11.982C16.2683 12.0079 16.1992 12.0518 16.1473 12.0332C16.134 12.0298 16.1231 12.0202 16.1179 12.0074C16.1128 11.9946 16.1141 11.9802 16.1214 11.9685L16.1221 11.9688Z" fill="#6F674D"/>
<path fill-rule="evenodd" clip-rule="evenodd" d="M9.11328 12.1344C9.11328 12.1344 9.31808 12.288 9.55599 12.2821C9.79151 12.2768 10.0944 12.0336 10.2342 11.8781C10.317 11.7875 10.3878 11.6917 10.4646 11.6166C10.5295 11.5519 10.5733 11.5209 10.6044 11.4768C10.6484 11.4256 10.695 11.3294 10.7184 11.2982C10.6614 11.3422 10.5786 11.42 10.4931 11.4717C10.4103 11.5229 10.2317 11.6192 10.1591 11.6451C10.0893 11.6711 9.36433 12.0547 9.36433 12.0547L9.11328 12.1344Z" fill="#AC924C"/>
<path fill-rule="evenodd" clip-rule="evenodd" d="M9.42578 10.2214C9.42578 10.2214 9.53962 10.1437 9.75978 10.0944C9.97209 10.0432 10.3993 10.0038 10.3993 10.0038L10.7513 10.1574L10.8911 10.6882L10.6351 11.2398L10.309 11.4446L9.93863 10.8491L9.42663 10.2224L9.42578 10.2214Z" fill="#9F8E57"/>
<path fill-rule="evenodd" clip-rule="evenodd" d="M8.96561 10.6952L8.84375 10.7862C8.84375 10.7862 8.87498 10.7292 8.90075 10.5558C8.92652 10.3824 9.06135 9.9603 9.25813 9.71693C9.45491 9.47356 9.44979 9.48653 9.44979 9.48653C9.41316 9.47983 9.37541 9.48922 9.34619 9.5123C9.37213 9.45496 9.53785 9.25016 9.70357 9.14776C9.86929 9.04536 9.93397 9.0131 10.1074 9.09656C10.2808 9.18001 10.3248 9.22336 10.4518 9.21824C10.5787 9.21312 10.6873 9.07847 10.6873 9.07847C10.6873 9.07847 10.7132 9.16124 10.6175 9.3529C10.5217 9.54456 10.1437 9.93539 10.1437 9.93539L9.3566 10.4738L8.96561 10.6957V10.6952Z" fill="#EAC970"/>
<path fill-rule="evenodd" clip-rule="evenodd" d="M9.54756 10.1567C9.54756 10.1567 10.1172 10.2344 10.2906 10.074C10.2958 10.092 10.3166 10.092 10.3166 10.105C10.3152 10.1148 10.3106 10.1238 10.3036 10.1308C10.3225 10.1278 10.3415 10.1261 10.3606 10.1257C10.3834 10.1325 10.4069 10.1368 10.4306 10.1386C10.4497 10.1382 10.4687 10.1365 10.4876 10.1333C10.484 10.1594 10.4699 10.1828 10.4487 10.1982C10.4746 10.1982 10.4999 10.2033 10.4999 10.224C10.4999 10.2446 10.505 10.3069 10.4739 10.3199C10.4482 10.327 10.4208 10.3251 10.3963 10.3146C10.3983 10.3636 10.4117 10.4115 10.4352 10.4545C10.4864 10.5503 10.5956 10.6593 10.7424 10.6279C10.7424 10.6279 10.8199 10.8143 10.4937 11.2285C10.4499 11.2855 10.4031 11.3632 10.3463 11.4279C10.3238 11.4768 10.3067 11.528 10.2951 11.5806C10.2951 11.5806 10.8467 11.3683 11.0045 10.8841C11.1651 10.3974 11.1962 9.91848 11.1651 9.47065C11.1598 9.34368 11.1392 9.25322 11.1081 9.18837C11.0305 9.02777 10.8129 9.05371 10.725 9.14434C10.598 9.27131 10.3857 9.58705 10.0906 9.80448C9.79025 10.0219 9.77745 10.0605 9.54688 10.1567H9.54756Z" fill="#D7BC6B"/>
<path fill-rule="evenodd" clip-rule="evenodd" d="M8.86538 10.8558C8.86538 10.8558 8.75666 10.9204 8.69966 11.163C8.64266 11.4114 8.75086 11.7144 8.81349 11.8101C8.87613 11.9059 9.01829 12.1675 9.31321 12.1805C9.3862 12.1801 9.45839 12.1651 9.52552 12.1364C9.62847 12.0892 9.72503 12.0292 9.81292 11.9577C9.93989 11.862 10.0433 11.7792 10.0303 11.7714C9.99929 11.7584 9.24852 11.137 9.24852 11.137L8.96624 10.822L8.86521 10.8561L8.86538 10.8558Z" fill="#585136"/>
<path fill-rule="evenodd" clip-rule="evenodd" d="M9.57451 11.8861C9.57451 11.8861 9.72726 11.8733 9.81788 11.8163C9.90851 11.7593 9.28711 11.1432 9.28711 11.1432L9.33114 11.8088L9.57451 11.8861Z" fill="#453A25"/>
<path fill-rule="evenodd" clip-rule="evenodd" d="M8.9142 10.809C8.9142 10.809 8.83655 10.9566 8.83655 10.9955C8.82358 11.1223 8.86249 11.521 8.89355 11.6478C8.92461 11.7825 9.09289 11.9869 9.31049 11.9869C9.44497 11.9869 9.63151 11.9042 9.63151 11.8835C9.63151 11.8576 9.43985 11.8323 9.38814 11.7359C9.35708 11.6847 9.34411 11.5574 9.33694 11.4287C9.33182 11.3459 9.33182 11.2553 9.36288 11.2239C9.43286 11.1462 9.44566 10.9235 9.44566 10.9235L9.69415 10.4619H9.36732L8.97632 10.7052L8.9142 10.809Z" fill="#84754B"/>
<path fill-rule="evenodd" clip-rule="evenodd" d="M8.81836 10.9515C8.81836 10.9515 9.07436 10.6124 9.3051 10.5346C9.53584 10.4568 9.6391 10.5035 9.6391 10.5035L9.50444 10.8479L9.31278 11.0602L9.32575 11.169C9.32575 11.169 9.29452 11.4564 9.48618 11.6557C9.67784 11.855 9.82017 11.8474 9.90312 11.8474C9.98606 11.8474 10.2241 11.7774 10.3458 11.49C10.4545 11.2208 10.5452 10.8756 10.3277 10.5295C10.1153 10.1851 9.73996 10.1718 9.66743 10.1718C9.59489 10.1718 9.02538 10.2003 8.81836 10.951V10.9515Z" fill="#252211"/>
<path fill-rule="evenodd" clip-rule="evenodd" d="M15.3923 12.1035C15.2966 12.0595 15.3872 11.7904 15.4829 11.7074C15.5787 11.6245 15.7004 11.5289 15.9128 11.5157C15.9903 11.5106 16.0654 11.5598 16.0526 11.6117C16.0345 11.7074 15.8999 11.8421 15.7782 11.9378C15.6099 12.0699 15.501 12.1527 15.3923 12.1035Z" fill="#F7F7E7"/>
<path fill-rule="evenodd" clip-rule="evenodd" d="M10.2145 10.6356C10.2845 10.6305 10.3751 10.6868 10.3932 10.7626C10.4113 10.8454 10.3492 11.0111 10.2145 11.0111C10.1058 11.0111 10.0488 10.8764 10.0488 10.8377C10.0501 10.8059 10.059 10.7748 10.0748 10.7471C10.0799 10.7392 10.0929 10.6486 10.2145 10.6356Z" fill="#F8F6DE"/>
<path fill-rule="evenodd" clip-rule="evenodd" d="M9.20308 10.6952C9.20308 10.6952 9.02439 10.778 8.94162 10.9512C8.88248 11.0791 8.86458 11.2223 8.89042 11.3608C8.90339 11.4255 8.96807 11.5859 9.01211 11.6429C9.05614 11.6999 9.1157 11.7388 9.15973 11.7335C9.20376 11.7282 9.29422 11.6118 9.29422 11.542C9.29422 11.4722 9.29951 11.177 9.38484 11.0164C9.45993 10.856 9.20359 10.6954 9.20359 10.6954L9.20308 10.6952Z" fill="#D4C38B"/>
<path fill-rule="evenodd" clip-rule="evenodd" d="M9.23017 10.6822C9.19911 10.7003 9.1474 10.7262 9.1602 10.7599C9.17317 10.7909 9.28189 10.8111 9.3208 10.8868C9.36483 10.9645 9.36483 11.0473 9.35186 11.0862C9.38568 11.0701 9.41636 11.0482 9.44248 11.0213C9.49949 10.9566 9.56929 10.8688 9.62885 10.8688C9.66776 10.8688 9.7065 10.8868 9.74286 10.8868C9.79986 10.8868 9.85669 10.8688 9.86454 10.8092C9.87734 10.7315 9.75583 10.6616 9.68585 10.6745C9.69882 10.6233 9.71692 10.5477 9.65991 10.4958C9.60291 10.444 9.42439 10.5348 9.38548 10.5607C9.34657 10.5866 9.23017 10.6824 9.23017 10.6824V10.6822Z" fill="#E2D59D"/>
<path fill-rule="evenodd" clip-rule="evenodd" d="M13.3436 16.1217L13.7267 16.0085L13.8354 16.0862C13.8354 16.0862 13.9129 16.2519 14.0348 16.2726C13.9959 16.3553 13.8948 16.4262 13.9001 16.4849C13.9054 16.5436 13.9571 16.5885 13.9571 16.5885C13.9571 16.5885 13.6127 17.158 14.2911 17.7319C14.1305 17.7966 13.9261 17.8855 13.8173 17.9367C13.8948 17.9548 14.0605 17.9879 14.1305 18.0507C14.2005 18.1135 14.2005 18.1335 14.2652 18.1724C14.3299 18.2113 14.3686 18.2631 14.3558 18.2863C14.3118 18.2603 14.1641 18.1828 14.1384 18.2552C14.1126 18.3276 13.4989 18.2992 13.4989 18.2992L12.4633 18.4986C12.4633 18.4986 12.502 18.395 12.3933 18.2992C12.2665 18.1854 12.1112 18.3044 11.9455 18.1775C11.728 18.0118 11.7202 17.8202 11.6504 17.7478C11.7202 17.7038 11.8627 17.6391 12.2018 17.5942C12.1888 17.5683 12.1448 17.4906 12.1708 17.4208C12.2018 17.3302 12.3312 17.2732 12.2924 17.1648C12.3494 17.1518 12.3752 17.1518 12.5177 16.9732C12.6524 16.7945 12.7351 16.7557 12.8387 16.7428C12.9423 16.7298 13.0045 16.7428 13.1961 16.5641C13.3306 16.4373 13.2867 16.3285 13.2867 16.3285C13.2867 16.3285 13.3746 16.3 13.3437 16.1214L13.3436 16.1217Z" fill="#CBAC5A"/>
<path fill-rule="evenodd" clip-rule="evenodd" d="M12.2135 16.1792C12.2186 16.1532 12.2394 16.1403 12.3792 16.1532C12.519 16.1662 13.4044 16.0705 13.6452 16.0575C13.8886 16.0394 14.7455 16.0522 15.1624 16.1403C15.5794 16.2283 16.0013 16.3319 16.2057 16.3836C16.4105 16.4406 16.475 16.4611 16.4672 16.4871C16.4621 16.513 16.416 16.5383 16.3895 16.5311C16.3638 16.526 15.6854 16.3188 15.4758 16.2751C15.2662 16.2314 14.541 16.1145 14.1446 16.1215C13.7744 16.1268 13.6268 16.1164 13.3136 16.1526C13.0003 16.1915 12.4825 16.2432 12.3272 16.2225C12.1736 16.2044 12.2053 16.2044 12.2131 16.1785L12.2135 16.1792Z" fill="#D6BC6F"/>
<path fill-rule="evenodd" clip-rule="evenodd" d="M14.2968 18.2084C14.2968 18.2084 14.8275 18.4958 15.0192 18.8479C15.159 19.1094 14.9364 19.2389 14.9364 19.2389C14.9364 19.2389 15.2368 19.2389 15.1979 19.4046C15.1798 19.508 14.6801 19.7876 14.3461 19.9352C14.007 20.0828 14.0199 20.0752 13.8542 20.1009C13.6936 20.1269 13.2535 20.0497 13.1628 20.1786C13.0722 20.3074 13.1116 20.4402 13.1369 20.4609C13.1628 20.479 13.3726 20.5049 13.3726 20.5049C13.3726 20.5049 13.3286 20.6266 12.8937 20.6396C12.4588 20.6525 12.35 20.6834 12.324 20.7302C12.2981 20.774 12.4068 20.7483 12.6063 20.7814C12.8056 20.8124 13.0852 20.8326 13.0852 20.8326C13.0852 20.8326 12.9946 20.9102 12.7591 20.9724C12.4897 21.0422 12.0677 21.107 11.9409 21.1847C12.0056 21.2287 12.1015 21.2934 12.1457 21.2985C12.037 21.3244 11.884 21.3814 11.8583 21.4021C11.897 21.428 11.9489 21.4591 11.9489 21.4591C11.9489 21.4591 11.7313 21.7206 11.6045 21.7854C11.4777 21.8503 10.7476 22.1892 10.4964 22.1245C9.86983 21.9588 9.79218 21.2727 9.63943 21.221C9.40903 21.1434 9.30032 21.2985 9.09569 21.1898C9.18631 21.1251 9.23564 21.0864 9.33138 21.0423C9.22779 20.9911 8.69189 20.6513 8.69189 20.6513C8.63585 20.5292 8.57365 20.41 8.50553 20.2941C8.40193 20.1154 8.24953 19.8772 8.13518 19.6674C7.88669 19.2066 7.87372 18.9943 7.64844 18.7329C7.68735 18.6817 7.82183 18.6888 7.82183 18.6888L9.70941 19.3102L13.0564 19.4072L13.9268 18.1646L14.2969 18.2086L14.2968 18.2084Z" fill="#DFC677"/>
<path fill-rule="evenodd" clip-rule="evenodd" d="M9.33789 20.1035C9.35809 20.126 9.38163 20.1452 9.40769 20.1605C9.47255 20.2046 9.56829 20.2564 9.63297 20.3339C9.65891 20.2952 9.7236 20.2252 9.83777 20.3339C9.95195 20.4426 10.0938 20.3652 10.182 20.3909C10.2726 20.4222 10.2778 20.435 10.2778 20.435C10.2778 20.435 10.329 20.3909 10.4435 20.3443C10.5134 20.3184 10.5962 20.3003 10.6868 20.2745C10.7696 20.2564 10.8602 20.2305 10.9225 20.2305C10.9795 20.2692 11.184 20.4865 12.0047 20.1658C12.7789 19.8655 12.9574 19.8318 13.0869 19.8783C13.0999 19.8472 13.1129 19.7876 13.3122 19.7955C13.3122 19.7127 13.1465 19.4304 13.1465 19.4304L12.2326 19.1172H11.7327L10.2337 19.3917L9.40309 19.8656L9.3384 20.1046L9.33789 20.1035Z" fill="#C4A859"/>
<path fill-rule="evenodd" clip-rule="evenodd" d="M8.83984 19.578C8.83984 19.578 8.85793 19.7178 9.06512 19.8654C9.26992 20.0129 9.33427 20.101 9.33427 20.101C9.33427 20.101 9.37318 20.0498 9.40424 19.9975C9.4353 19.9405 9.46124 19.8758 9.51295 19.8578C9.61655 19.8137 9.85207 19.8965 9.90395 19.8835C9.94798 19.8707 9.93501 19.7801 9.9816 19.7801C10.0903 19.7748 10.1601 19.8499 10.199 19.8499C10.2379 19.8499 10.3335 19.8448 10.3465 19.8241C10.3595 19.8035 10.3646 19.5884 10.5122 19.4848C10.6728 19.371 10.8696 19.4202 10.9218 19.4461C10.9218 19.4848 10.9269 19.5808 11.0305 19.5859C11.1341 19.591 11.1444 19.5729 11.2353 19.604C11.3263 19.635 11.4347 19.5989 11.4838 19.7514C11.5278 19.7386 11.6314 19.7257 11.6055 19.578C11.6567 19.5393 11.7014 19.5133 11.8103 19.3606C11.8362 19.3219 11.8801 19.2778 11.9139 19.2208C12.0045 19.2208 12.1132 19.2027 12.2581 19.3295C12.2141 19.3606 12.1882 19.3807 12.1754 19.4123C12.2132 19.4498 12.2479 19.4905 12.2788 19.534C12.3177 19.5852 12.3436 19.648 12.3928 19.661C12.5015 19.692 12.6802 19.648 12.8795 19.661C13.0712 19.6739 13.2316 19.7437 13.3016 19.7878C13.3275 19.775 13.3275 19.7697 13.3922 19.7827C13.4569 19.7956 13.506 19.8008 13.4362 19.718C13.475 19.7361 13.519 19.775 13.5579 19.7361C13.5968 19.6972 13.6277 19.6403 13.7364 19.6274C13.8452 19.6144 13.8841 19.6325 13.9281 19.5186C13.9851 19.3789 13.7883 19.3789 13.7883 19.3789C13.7883 19.3789 13.8789 19.2959 13.98 19.1872C14.1017 19.0734 14.2414 18.9257 14.2751 18.7445C14.3321 18.4105 14.0059 18.3666 14.0059 18.3666L12.424 18.8534L10.49 18.7575L8.84087 19.5782L8.83984 19.578Z" fill="#927D49"/>
<path fill-rule="evenodd" clip-rule="evenodd" d="M7.41768 15.0084C7.41768 15.0084 7.36648 15.0731 7.3349 15.2258C7.30333 15.3786 7.31681 15.3605 7.29087 15.4692C7.26493 15.5779 6.9463 16.6601 7.06576 17.0252C7.18523 17.3902 7.39208 17.5249 7.52144 17.82C7.54738 17.8847 7.57264 17.9236 7.58613 17.9806C7.63016 18.1721 7.59142 18.3197 7.64313 18.5113C7.66122 18.576 7.70798 18.6511 7.77778 18.7288C7.93138 18.8892 8.18175 19.042 8.28978 19.1507C8.44236 19.3113 8.65996 19.6376 8.93695 19.6685C9.08458 19.6866 9.29433 19.6244 9.46773 19.521C9.62133 19.4251 9.71622 19.2906 9.87733 19.2138C9.99116 19.1568 10.1128 19.1362 10.2216 19.1102C10.4468 19.0662 10.6515 19.059 10.7732 19.0843C10.9595 19.1232 11.3997 19.2578 11.6436 19.2578C11.8341 19.2548 12.0236 19.2287 12.208 19.1802C12.5781 19.0715 13.026 18.8849 13.3212 18.8022C13.4946 18.751 13.6344 18.7375 13.7769 18.7064C14.0203 18.6494 14.2247 18.5718 14.3413 18.4241C14.2636 18.3335 14.1679 18.1937 13.6499 18.1989C13.0623 18.2118 12.3839 18.538 12.0499 18.5899C11.7159 18.6417 11.571 18.6856 11.1981 18.5509C10.8325 18.4149 10.8204 18.325 10.8204 18.325C10.8204 18.325 10.4366 18.0565 10.276 17.3721C10.1154 16.6878 10.276 16.1891 10.6929 15.7151C10.8017 15.5935 10.7757 15.4847 10.7757 15.4847C10.7757 15.4847 11.0501 15.1146 10.9751 14.7679C10.8923 14.4235 10.3615 14.4935 10.3615 14.4935L7.41785 15.0084H7.41768Z" fill="#6E6342"/>
<path fill-rule="evenodd" clip-rule="evenodd" d="M7.85954 16.1606C7.83672 16.2035 7.82598 16.2518 7.82848 16.3004C7.8336 16.3702 7.85442 16.4608 8.064 16.6654C8.24269 16.8439 8.20378 17.0433 8.20378 17.0433C8.20378 17.0433 8.29372 17.0614 8.53777 16.9472C8.72943 16.8566 8.79377 17.0172 8.79377 17.0172C8.84956 16.9879 8.91003 16.9686 8.97246 16.9602C9.02902 16.9549 9.08376 16.9375 9.13289 16.909C9.13289 16.909 9.35817 17.1394 9.55494 17.2481C9.73363 17.344 9.83723 17.4087 9.92529 17.344C10.0081 17.287 10.0081 17.1704 10.0028 17.1187C9.98224 17.071 9.95624 17.0258 9.92529 16.9841C9.86829 16.9013 9.77766 16.8054 9.77169 16.7281C9.75872 16.5495 9.90635 16.3371 9.87511 16.2853C9.84388 16.2336 9.72766 16.2207 9.44026 16.3243C9.14261 16.4226 7.85835 16.1611 7.85835 16.1611L7.85954 16.1606Z" fill="#39331F"/>
<path fill-rule="evenodd" clip-rule="evenodd" d="M8.53838 17.3179C8.53838 17.3179 8.39093 17.1781 8.44264 16.4997C8.50524 16.4988 8.56775 16.5049 8.62901 16.5178C8.62901 16.5178 8.70939 17.0435 8.53838 17.3179Z" fill="#292311"/>
<path fill-rule="evenodd" clip-rule="evenodd" d="M7.48769 14.4906C7.50827 14.4754 7.52736 14.4583 7.5447 14.4394C7.4935 14.5352 7.25712 14.9183 7.44878 15.5216C7.64044 16.1222 8.12189 16.57 8.71479 16.5909C9.30768 16.6117 9.61932 16.3215 9.97567 15.8867C10.1154 15.7133 10.276 15.4957 10.4184 15.3482C10.6307 15.1177 10.7964 15.053 10.7964 14.8304C10.7964 14.3748 10.3303 14.1701 9.64424 13.9657C8.95816 13.7612 8.33932 13.7865 8.0183 13.9264C7.70512 14.079 7.57047 14.2396 7.48752 14.4908L7.48769 14.4906Z" fill="#252211"/>
<path fill-rule="evenodd" clip-rule="evenodd" d="M9.68997 17.5223L9.74117 17.4964C9.74117 17.4964 9.75397 17.2916 9.83691 17.297C9.91968 17.31 9.95859 17.4189 9.95074 17.4576C9.94562 17.4964 9.92497 17.5612 9.84203 17.5534C9.73331 17.5559 9.68945 17.5223 9.68945 17.5223H9.68997Z" fill="#3F3824"/>
<path fill-rule="evenodd" clip-rule="evenodd" d="M9.46094 16.6525C9.46094 16.6525 9.51214 16.6344 9.57477 16.6965C9.62597 16.6965 9.8492 16.6706 9.91918 16.7146C9.98915 16.7586 10.0098 16.7974 10.0098 16.7974C10.0098 16.7974 9.74834 16.8544 9.60583 16.7974C9.46094 16.7482 9.46094 16.6525 9.46094 16.6525H9.46094Z" fill="#2D2815"/>
<path fill-rule="evenodd" clip-rule="evenodd" d="M10.6124 16.6912C10.6124 16.6782 10.4726 16.5825 10.325 16.5513C10.299 16.5461 10.2937 16.5642 10.2738 16.5642C10.2608 16.5591 10.2557 16.5202 10.2557 16.5202L10.1717 16.5644C10.1717 16.5644 10.1587 16.5825 10.2028 16.6156C10.2415 16.6467 10.3064 16.6726 10.3245 16.7243C10.3425 16.776 10.3425 16.7941 10.3504 16.802C10.3555 16.8071 10.4461 16.802 10.4902 16.776C10.5342 16.7501 10.6171 16.7078 10.6119 16.6907L10.6124 16.6912Z" fill="#82764F"/>
<path fill-rule="evenodd" clip-rule="evenodd" d="M9.30469 17.2168C9.30469 17.2168 9.33046 17.0383 9.50403 17.0305C9.68254 17.0175 9.71634 17.1909 9.71634 17.1909L9.61274 17.2945C9.61274 17.2919 9.53509 17.1832 9.30554 17.2168H9.30469Z" fill="#2D2816"/>
<path fill-rule="evenodd" clip-rule="evenodd" d="M10.4317 16.4478C10.4317 16.4478 10.3357 16.5514 10.1236 16.5825C10.1055 16.5565 10.0666 16.5048 10.1236 16.422C10.1806 16.3393 10.2453 16.3133 10.31 16.3391C10.3682 16.3485 10.4157 16.391 10.4317 16.4478Z" fill="#574F35"/>
<path fill-rule="evenodd" clip-rule="evenodd" d="M10.8232 16.5748C10.8284 16.5489 10.8104 16.5438 10.8232 16.5308C10.836 16.5178 10.9061 16.492 10.9191 16.5048C10.9242 16.5101 10.9191 16.5308 10.9191 16.556C10.9191 16.5813 10.9191 16.6072 10.9061 16.6258C10.888 16.6518 10.8363 16.6648 10.8104 16.6571C10.7844 16.6494 10.7793 16.613 10.7793 16.6059C10.7921 16.6008 10.8232 16.5878 10.8232 16.5748ZM11.2652 16.2953C11.2652 16.2823 11.3093 16.2563 11.3352 16.2563C11.3739 16.2563 11.3739 16.2874 11.3792 16.2953C11.392 16.3004 11.392 16.29 11.405 16.3134C11.418 16.3367 11.4362 16.378 11.4231 16.404C11.41 16.4299 11.3584 16.4478 11.3456 16.4427C11.3275 16.4297 11.2705 16.3134 11.2652 16.2953Z" fill="#82764F"/>
<path fill-rule="evenodd" clip-rule="evenodd" d="M10.373 16.6344C10.373 16.6344 10.43 16.6472 10.5077 16.712C10.4818 16.7301 10.4428 16.7508 10.4428 16.7508C10.4428 16.7508 10.4377 16.6912 10.373 16.6342V16.6344Z" fill="#6E6342"/>
<path fill-rule="evenodd" clip-rule="evenodd" d="M10.2462 16.0647C10.2332 16.0519 10.2849 16.0208 10.316 16.0259C10.3471 16.0311 10.36 16.0519 10.3936 16.057C10.4273 16.0621 10.4326 16.044 10.4448 16.0311C10.4571 16.0181 10.5018 16.0259 10.5095 16.0311C10.5143 16.0367 10.5186 16.0428 10.5225 16.0491C10.5236 16.0292 10.5329 16.0107 10.5483 15.9979C10.5684 15.9832 10.5942 15.9784 10.6182 15.985C10.6234 16.0031 10.6493 16.0678 10.6442 16.0807C10.6391 16.0937 10.5614 16.112 10.5483 16.0988C10.5612 16.13 10.6182 16.1947 10.6259 16.2075C10.6336 16.2203 10.5689 16.2516 10.5431 16.2464C10.507 16.2439 10.2842 16.1143 10.2455 16.0652L10.2462 16.0647ZM10.5852 15.6349C10.5804 15.6219 10.5713 15.6109 10.5593 15.6039C10.5412 15.5988 10.4816 15.6039 10.4816 15.6349C10.4816 15.666 10.5328 15.8397 10.5904 15.9302C10.6552 16.0208 10.6991 16.0957 10.7431 16.1166C10.7718 16.1296 10.8057 16.1183 10.8208 16.0906C10.8259 16.0777 10.8388 15.9819 10.8337 15.7566C10.8286 15.5313 10.8208 15.3139 10.8078 15.3009C10.7948 15.288 10.7431 15.2881 10.725 15.3139C10.7069 15.3397 10.5904 15.5962 10.5851 15.6349H10.5852Z" fill="#585136"/>
<path fill-rule="evenodd" clip-rule="evenodd" d="M10.356 16.9605C10.356 16.9605 10.2654 16.9035 10.1773 16.9424C10.0946 16.9813 10.0997 17.1341 10.0997 17.1341C10.1375 17.1489 10.1802 17.144 10.2137 17.1211C10.2707 17.0824 10.343 17.0177 10.356 16.9607V16.9605Z" fill="#574F35"/>
<path fill-rule="evenodd" clip-rule="evenodd" d="M10.5278 17.1651C10.5226 17.1139 10.4766 17.1139 10.4766 17.0875C10.4831 17.0614 10.5066 17.0432 10.5334 17.0434C10.5593 17.0434 10.5846 17.0745 10.6163 17.0946C10.6474 17.1127 10.694 17.1458 10.6991 17.1852C10.7042 17.2247 10.6479 17.3327 10.5853 17.3327C10.5226 17.3327 10.5412 17.2161 10.5283 17.1644L10.5278 17.1651ZM11.0276 17.0951C11.0276 17.0951 10.924 17.1262 10.9317 17.0951C10.9393 17.0641 10.9629 17.0564 10.9965 17.0564C11.0136 17.0385 11.0366 17.0274 11.0612 17.0252C11.0753 17.0245 11.0891 17.0291 11.0999 17.0381C11.0999 17.0381 11.1699 17.0071 11.1906 17.0252C11.2112 17.0432 11.1958 17.0432 11.2086 17.0641C11.2249 17.0872 11.2356 17.1138 11.2399 17.1417C11.2399 17.1624 11.1622 17.2064 11.0999 17.1987C11.0276 17.1832 11.0404 17.1081 11.0276 17.0951ZM11.6308 16.9786C11.6308 16.9786 11.6618 16.9967 11.6361 17.0175C11.618 17.0356 11.5274 17.0687 11.4495 17.0745C11.3719 17.0745 11.3021 17.0873 11.3021 17.0615C11.3021 17.0357 11.3668 16.9839 11.4055 16.9709C11.4212 16.9512 11.4451 16.9397 11.4704 16.9398C11.5014 16.9398 11.6229 16.9269 11.6567 16.9217C11.6878 16.9164 11.7137 16.9345 11.6955 16.9605C11.6878 16.9786 11.6308 16.9786 11.6308 16.9786ZM11.8092 16.1792C11.8092 16.1792 11.7703 16.2619 11.7264 16.2619C11.6824 16.2568 11.6824 16.2439 11.6824 16.2309C11.6824 16.2128 11.7264 16.1662 11.7211 16.1532C11.7083 16.1532 11.6771 16.1532 11.6824 16.1222C11.6824 16.0962 11.7264 16.0652 11.7651 16.071C11.7944 16.0469 11.8309 16.0333 11.8687 16.0322C11.9128 16.0322 11.9515 16.045 11.9515 16.071C11.9515 16.0969 11.9003 16.1537 11.8815 16.1669C11.8609 16.1875 11.8349 16.201 11.8092 16.1797V16.1792ZM11.2189 17.7092C11.2189 17.7092 11.1677 17.7145 11.1677 17.7403C11.1677 17.7532 11.1805 17.7532 11.1988 17.7455C11.2093 17.7449 11.2197 17.7432 11.2298 17.7403C11.235 17.7455 11.235 17.7713 11.2739 17.7713C11.3058 17.767 11.3366 17.7564 11.3645 17.7403C11.3955 17.7275 11.4215 17.7143 11.4215 17.6891C11.4085 17.645 11.3826 17.6242 11.3438 17.6242C11.324 17.6229 11.3042 17.6274 11.2868 17.6372C11.2868 17.6372 11.2739 17.6112 11.2298 17.6372C11.1858 17.6631 11.1909 17.6631 11.2039 17.6761C11.2271 17.6967 11.2194 17.7102 11.2194 17.7102L11.2189 17.7092ZM10.9266 17.9785C10.9266 17.9655 10.9913 17.9396 11.0094 17.9474C11.0275 17.9526 11.0792 18.0509 11.0792 18.0613C11.0792 18.0743 11.0145 18.1053 10.9886 18.1053C10.9626 18.1053 10.9188 18.0613 10.9188 18.0541C10.9188 18.049 10.9498 18.0413 10.9498 18.036C10.9575 18.0232 10.9266 17.992 10.9266 17.979V17.9785ZM10.7215 17.6005C10.7345 17.5954 10.7345 17.5824 10.7526 17.5694C10.7641 17.5618 10.7784 17.5599 10.7915 17.5643C10.8007 17.5478 10.8169 17.5363 10.8355 17.5331C10.8666 17.5279 10.8925 17.5331 10.8867 17.546C10.8867 17.5849 10.9127 17.6107 10.9127 17.6418C10.9127 17.6728 10.8946 17.7118 10.8299 17.7377C10.7652 17.7558 10.6771 17.7558 10.6642 17.7507C10.6512 17.7455 10.6382 17.6937 10.6512 17.6677C10.6642 17.6418 10.7004 17.6134 10.7212 17.6005H10.7215Z" fill="#82764F"/>
<path fill-rule="evenodd" clip-rule="evenodd" d="M10.8031 17.6181C10.8031 17.6181 10.7591 17.644 10.7591 17.657C10.7552 17.6695 10.7535 17.6826 10.754 17.6958C10.754 17.7034 10.811 17.6906 10.8187 17.6828C10.8212 17.6777 10.8031 17.6316 10.8031 17.6181Z" fill="#6E6342"/>
<path fill-rule="evenodd" clip-rule="evenodd" d="M10.417 17.4964C10.4428 17.5017 10.4868 17.4964 10.5204 17.5094C10.5464 17.5223 10.5645 17.5483 10.5385 17.5793C10.5126 17.6104 10.4873 17.657 10.4298 17.6491C10.3651 17.644 10.303 17.6104 10.303 17.5844C10.3008 17.5513 10.312 17.5187 10.3341 17.4938C10.36 17.4732 10.3728 17.4861 10.4168 17.4964H10.417Z" fill="#585136"/>
<path fill-rule="evenodd" clip-rule="evenodd" d="M10.3865 17.5223C10.3865 17.5223 10.3038 17.587 10.2829 17.6183C10.257 17.6493 10.1302 17.8097 10.0915 17.8434C10.1043 17.8207 10.119 17.799 10.1353 17.7787C10.0841 17.8114 10.0457 17.8608 10.0266 17.9185C9.99554 18.0144 10.2002 18.0661 10.3347 18.105C10.4691 18.1439 10.5212 18.1562 10.5212 18.1562C10.4717 18.0818 10.4292 18.0029 10.3942 17.9207C10.343 17.799 10.3166 17.786 10.3502 17.729C10.3761 17.672 10.415 17.6333 10.415 17.5892C10.3995 17.5483 10.3865 17.5223 10.3865 17.5223Z" fill="#574F35"/>
<path fill-rule="evenodd" clip-rule="evenodd" d="M7.43589 17.727C7.45473 17.7304 7.47405 17.7304 7.49289 17.727C7.53163 17.7217 7.9356 17.5734 8.35766 17.6C8.67362 17.6191 8.98678 17.6706 9.29223 17.7536C9.823 17.8934 10.4831 18.1704 10.9103 18.3284C11.0242 18.3723 11.1356 18.4501 11.2175 18.481C11.5438 18.608 11.5566 18.608 11.7483 18.6416C11.9736 18.6726 12.204 18.5975 12.4448 18.5458C12.7399 18.481 13.2447 18.4499 13.6874 18.3852C13.8306 18.3654 13.9718 18.3334 14.1095 18.2895C14.1095 18.2895 13.7574 18.6416 12.9133 18.7684C12.5721 18.8202 12.2253 18.8246 11.8829 18.7814C11.6136 18.7554 11.4351 18.7165 11.3005 18.6778C11.1477 18.6337 10.8344 18.5172 10.4487 18.4218C10.1794 18.3518 9.87898 18.3001 9.53475 18.2354C8.68551 18.0799 7.76391 17.9014 7.43555 17.728L7.43589 17.727Z" fill="#252211"/>
<path fill-rule="evenodd" clip-rule="evenodd" d="M6.48311 16.127C6.27831 16.3004 6.06105 16.4661 5.84891 16.6265L5.20942 17.1178C4.99199 17.2783 4.77968 17.444 4.56208 17.6046C4.34448 17.7652 4.12723 17.9178 3.89648 18.0654C4.10128 17.892 4.31854 17.7314 4.53597 17.5735C4.7534 17.4157 4.97885 17.2609 5.1886 17.1008L5.82809 16.6087C6.04808 16.4483 6.26039 16.2826 6.48311 16.1273V16.127ZM5.35173 17.9393C5.35173 17.9393 5.58213 17.7476 5.86954 17.4785C6.22674 17.1447 6.66433 16.7173 6.80411 16.6398L5.35156 17.9395L5.35173 17.9393Z" fill="#CFB66C"/>
<path fill-rule="evenodd" clip-rule="evenodd" d="M5.35156 17.9391C5.46557 17.8253 5.58725 17.714 5.70894 17.6051L5.89531 17.4447C5.95231 17.3935 6.01716 17.336 6.07399 17.279C6.18783 17.1652 6.29927 17.0433 6.41311 16.9269C6.46953 16.8684 6.52919 16.8131 6.5918 16.7612C6.6231 16.7335 6.65786 16.71 6.69522 16.6912C6.72645 16.6731 6.76007 16.64 6.80394 16.6342C6.77817 16.6731 6.7471 16.6912 6.72116 16.7248C6.6901 16.7508 6.66416 16.7818 6.63839 16.8076C6.58139 16.8646 6.5167 16.9163 6.4597 16.9682C6.33802 17.0718 6.21121 17.173 6.08953 17.2814C5.96784 17.3898 5.85401 17.5067 5.73215 17.6154C5.60022 17.7268 5.47854 17.8355 5.35156 17.9396V17.9391ZM6.89981 16.9035C6.89981 16.9035 6.05586 17.7295 5.88229 17.864L6.89981 16.9035Z" fill="#CFB66C"/>
<path fill-rule="evenodd" clip-rule="evenodd" d="M6.89837 16.9035C6.82245 16.9914 6.74105 17.0744 6.65466 17.152L6.39866 17.3954C6.31589 17.4781 6.23806 17.5611 6.15017 17.6439C6.05955 17.7215 5.97677 17.7975 5.88086 17.8691L6.12935 17.6258C6.21229 17.543 6.30292 17.4732 6.39098 17.3902L6.63947 17.1469C6.72481 17.0615 6.80775 16.9786 6.89837 16.9035ZM6.9372 17.3513C6.85941 17.5685 6.76775 17.7803 6.66277 17.9857C6.44534 18.4207 6.1192 18.9643 5.97669 19.2415L6.9372 17.3513Z" fill="#CFB66C"/>
<path fill-rule="evenodd" clip-rule="evenodd" d="M6.93842 17.3515C6.93842 17.4472 6.91248 17.5302 6.88142 17.613C6.85114 17.6958 6.81662 17.777 6.77799 17.8563C6.73908 17.934 6.69505 18.0169 6.65102 18.092C6.60699 18.1671 6.55527 18.2446 6.51636 18.3224L6.2549 18.7832C6.16428 18.9368 6.07621 19.0913 5.98047 19.2389C6.04515 19.0732 6.13322 18.9179 6.21616 18.7651C6.30678 18.6115 6.38956 18.4579 6.47216 18.299C6.51249 18.2199 6.54877 18.1387 6.58087 18.0558C6.61962 17.9729 6.65836 17.8952 6.68959 17.8202C6.72833 17.7374 6.75939 17.6596 6.7983 17.5846C6.84216 17.5042 6.87852 17.4266 6.93808 17.3515L6.93842 17.3515Z" fill="#CFB66C"/>
<path fill-rule="evenodd" clip-rule="evenodd" d="M7.85915 19.4744C7.85915 19.4744 7.60315 19.8135 7.62875 20.2433C7.69856 20.0182 7.78662 19.6738 7.85915 19.4744ZM8.10257 19.8144C8.10257 19.8144 8.01194 20.736 7.93685 21.1891C8.043 20.6653 8.06365 20.7094 8.10257 19.8144ZM9.79816 21.2436C9.79816 21.2436 9.41501 22.37 9.40716 22.683C9.49011 22.3611 9.65053 21.7035 9.79816 21.2427V21.2436Z" fill="#DEC270"/>
<path fill-rule="evenodd" clip-rule="evenodd" d="M10.6953 19.4048C10.6953 19.4048 11.3167 20.43 11.7828 21.305C11.6567 20.8647 11.3665 20.0571 10.6953 19.4048Z" fill="#CBAF59"/>
<path fill-rule="evenodd" clip-rule="evenodd" d="M12.3652 20.914C12.7064 21.5171 13.0141 22.1385 13.2868 22.7755C13.2351 22.3353 13.0952 21.582 12.3652 20.914Z" fill="#E3C677"/>
<path fill-rule="evenodd" clip-rule="evenodd" d="M17.2737 22.4256C17.3771 22.3609 17.5817 22.0086 17.7604 21.9207C17.9389 21.8301 18.0736 21.812 18.2342 21.6333C18.3946 21.4468 18.439 21.333 18.7907 21.1855C19.2827 20.973 18.9443 20.6986 18.9443 20.6986C18.9985 20.6454 19.0565 20.5961 19.1177 20.5511C19.2447 20.4554 19.3921 20.3388 19.3793 20.1342C19.3613 19.79 19.2966 19.2903 19.0143 19.0003C19.2887 18.9433 19.8142 18.9046 20.1407 18.8218C20.5185 18.7259 20.6921 18.5912 20.6921 18.5912C20.6921 18.5912 20.4747 18.221 20.8268 17.8483C21.1789 17.4756 21.4663 17.2528 21.6786 16.8359C21.4352 16.8048 21.0642 16.6755 20.1173 17.0352C20.1684 17.0593 20.2178 17.087 20.2649 17.118C20.2649 17.118 19.6824 17.2786 19.4701 17.4573C19.0998 17.7705 19.0532 18.0268 18.652 18.2185C18.2507 18.4101 17.8468 18.3583 17.5129 18.5136C17.1791 18.6689 17.1298 18.801 17.0079 18.858C17.0339 18.889 17.0028 18.9407 17.052 18.9848C17.0209 19.0288 16.8397 19.3239 16.6558 19.3239C16.6739 19.3939 16.8292 19.4456 16.8292 19.4456C16.8292 19.4456 16.7154 19.5285 16.4254 19.5492C16.5729 19.7028 16.7128 19.8702 17.0986 20.1136C17.0675 20.1782 16.938 20.2742 16.9898 20.3958C17.0468 20.5175 17.1946 20.6832 17.7846 20.8179C17.4843 20.8307 17.1323 20.9007 16.6582 20.836C16.1845 20.779 16.1068 20.7454 15.8143 20.8179C15.8453 20.849 15.9281 20.849 16.0007 20.9317C15.923 20.9369 15.4363 20.8747 15.2705 21.0923C15.0971 21.3174 15.0221 21.6878 15.035 21.9363C14.9444 21.9803 14.8563 22.058 14.9004 22.2186C14.9444 22.3792 15.1748 22.4309 15.3224 22.5317C15.4699 22.6404 15.4829 22.6792 15.6228 22.6534C15.7703 22.6224 15.9877 22.4749 16.1147 22.4749C16.2416 22.4749 16.3321 22.5706 16.3321 22.5706C16.3321 22.5706 16.6765 22.4049 16.7101 22.436C16.7412 22.4671 16.7152 22.6664 16.7489 22.6975C16.783 22.7208 17.1709 22.4904 17.2745 22.4256H17.2737Z" fill="#ECD592"/>
<path fill-rule="evenodd" clip-rule="evenodd" d="M24.8002 12.0648C23.1821 7.8862 19.182 7.11206 19.182 7.11206H7.7697L7.81373 11.3683H10.0865V20.8726H7.76953V25.1211H18.8661C21.5405 25.1211 23.6842 22.4337 23.6842 22.4337C27.1172 17.5613 24.8 12.0648 24.8 12.0648H24.8002ZM18.9257 19.5702C18.9257 19.5702 18.0553 20.826 17.1083 20.826H15.2139L15.169 11.3787H17.6002C17.6002 11.3787 18.7266 11.6142 19.5135 13.8433C19.5135 13.8433 20.5568 17.0348 18.9257 19.5702Z" fill="white" fill-opacity="0.8"/>
</svg>
