<svg width="48" height="48" viewBox="0 0 48 48" fill="none" xmlns="http://www.w3.org/2000/svg">
<path d="M24 0C10.7664 0 0 10.7665 0 24.0001C0 37.2337 10.7664 48 24 48C37.2336 48 48 37.2337 48 24.0001C48 10.7665 37.2336 0 24 0ZM24 43.6364C13.1724 43.6364 4.36364 34.8276 4.36364 24.0001C4.36364 13.1727 13.1724 4.36364 24 4.36364C34.8276 4.36364 43.6364 13.1727 43.6364 24.0001C43.6364 34.8276 34.8275 43.6364 24 43.6364Z" fill="#484848"/>
<path d="M23.9993 10.1824C22.3955 10.1824 21.0908 11.488 21.0908 13.0928C21.0908 14.6961 22.3955 16.0006 23.9993 16.0006C25.6031 16.0006 26.9078 14.6961 26.9078 13.0928C26.9078 11.488 25.6031 10.1824 23.9993 10.1824Z" fill="#484848"/>
<path d="M23.9992 20.3633C22.7943 20.3633 21.8174 21.3402 21.8174 22.5451V35.636C21.8174 36.841 22.7943 37.8178 23.9992 37.8178C25.2041 37.8178 26.181 36.841 26.181 35.636V22.5451C26.181 21.3402 25.2041 20.3633 23.9992 20.3633Z" fill="#484848"/>
</svg>
