<svg width="44" height="44" viewBox="0 0 44 44" fill="none" xmlns="http://www.w3.org/2000/svg">
<g clip-path="url(#clip0_1021_15184)">
<path d="M31.0327 31.1061C30.7618 30.9304 30.4323 30.869 30.1163 30.9354C29.8003 31.0018 29.5233 31.1906 29.3461 31.4606C27.6227 34.1006 24.4572 37.3394 21.6338 38.4272C18.8105 39.515 16.5983 39.1239 15.7183 38.4272C15.3394 38.0972 14.3494 37.205 15.1927 34.1617C15.755 32.1328 19.2505 22.575 20.0816 20.2528L17.4172 20.595C16.5738 22.8683 13.3961 31.3994 12.8216 33.5261C11.9905 36.5694 12.4061 38.7817 14.1538 40.3217C15.375 41.1785 16.8431 41.612 18.3338 41.5561C19.7803 41.5353 21.2103 41.2451 22.5505 40.7006C25.9605 39.3683 29.5416 35.665 31.4238 32.7928C31.5092 32.6564 31.5668 32.5046 31.5933 32.3459C31.6198 32.1873 31.6148 32.0249 31.5784 31.8682C31.5421 31.7116 31.4752 31.5636 31.3816 31.4328C31.2879 31.302 31.1694 31.191 31.0327 31.1061Z" fill="#484848" fill-opacity="0.6"/>
<path d="M23.5889 13.4444C24.6767 13.4444 25.74 13.1218 26.6445 12.5175C27.549 11.9131 28.2539 11.0542 28.6702 10.0492C29.0865 9.04416 29.1954 7.9383 28.9832 6.8714C28.771 5.80451 28.2471 4.8245 27.478 4.05531C26.7088 3.28612 25.7288 2.7623 24.6619 2.55008C23.595 2.33786 22.4891 2.44678 21.4841 2.86306C20.4791 3.27934 19.6201 3.98429 19.0158 4.88876C18.4114 5.79323 18.0889 6.8566 18.0889 7.9444C18.0889 9.40309 18.6683 10.802 19.6998 11.8335C20.7312 12.8649 22.1302 13.4444 23.5889 13.4444ZM23.5889 4.88884C24.1932 4.88884 24.784 5.06805 25.2864 5.4038C25.7889 5.73955 26.1806 6.21676 26.4118 6.77509C26.6431 7.33342 26.7036 7.94779 26.5857 8.54051C26.4678 9.13323 26.1768 9.67768 25.7495 10.105C25.3221 10.5323 24.7777 10.8233 24.185 10.9412C23.5923 11.0591 22.9779 10.9986 22.4196 10.7674C21.8612 10.5361 21.384 10.1445 21.0483 9.64197C20.7125 9.13949 20.5333 8.54873 20.5333 7.9444C20.5333 7.13402 20.8552 6.35682 21.4283 5.7838C22.0013 5.21077 22.7785 4.88884 23.5889 4.88884Z" fill="#484848" fill-opacity="0.6"/>
<path d="M14.4348 18.3324C14.5082 18.3324 22.0982 17.3301 23.8826 17.1101C24.6771 16.9879 25.276 17.1101 25.4715 17.2935C25.6671 17.4768 25.7282 18.2712 25.386 19.3468C24.6404 21.6201 20.876 32.7912 19.776 36.1035C20.3136 35.9932 20.841 35.8378 21.3526 35.639C21.8419 35.4366 22.3123 35.1912 22.7582 34.9057C24.2615 30.5546 27.0726 22.1212 27.7082 20.1901C28.3437 18.259 28.1848 16.7924 27.3415 15.7901C26.8604 15.3023 26.2582 14.9513 25.5967 14.773C24.9352 14.5948 24.2381 14.5957 23.5771 14.7757C21.8293 14.959 14.4471 15.9246 14.1293 15.9979C13.8051 16.04 13.511 16.2092 13.3116 16.4682C13.1122 16.7272 13.0238 17.0549 13.066 17.379C13.1081 17.7032 13.2773 17.9973 13.5363 18.1967C13.7953 18.3961 14.1229 18.4845 14.4471 18.4424L14.4348 18.3324Z" fill="#484848" fill-opacity="0.6"/>
</g>
<defs>
<clipPath id="clip0_1021_15184">
<rect width="44" height="44" fill="white"/>
</clipPath>
</defs>
</svg>
