<svg width="32" height="32" viewBox="0 0 32 32" fill="none" xmlns="http://www.w3.org/2000/svg">
<circle cx="16" cy="16" r="16" fill="#8DC351"/>
<path fill-rule="evenodd" clip-rule="evenodd" d="M21.2138 10.611C20.413 8.62092 18.511 8.52142 16.2086 8.91943L15.4077 6.13336L13.706 6.63087L14.5068 9.31744C14.3446 9.35775 14.1659 9.4144 13.9775 9.47414C13.7008 9.56186 13.4031 9.65626 13.1053 9.71545L12.3045 6.92938L10.6027 7.42689L11.4036 10.213C11.2034 10.2627 11.0282 10.3125 10.853 10.3622C10.6778 10.412 10.5026 10.4617 10.3024 10.5115L8 11.3075L8.50052 13.0985C8.50052 13.0985 9.80188 12.7005 9.70178 12.7005C10.4025 12.5015 10.7028 12.8 10.903 13.198L11.804 16.3821H12.0042L11.804 16.4816L13.1053 20.9592C13.1053 21.1582 13.1053 21.5562 12.6048 21.7553L11.4036 22.1533L11.6038 24.2428L13.8061 23.6458L15.0073 23.3473L15.8082 26.1334L17.5099 25.6359L16.7091 22.8498C17.2096 22.7503 17.61 22.6508 18.1106 22.4518L18.9114 25.2378L20.6132 24.7403L19.8123 21.9543C22.6153 20.9592 24.4172 19.6657 23.9166 16.8796C23.5162 14.6906 22.2149 13.9941 20.413 14.0936C21.414 13.0985 21.8144 12.1035 21.2138 10.611ZM20.6132 17.3771C21.1427 19.2191 18.3272 20.0559 16.8297 20.501L16.8297 20.501C16.6285 20.5608 16.451 20.6136 16.3087 20.6607L15.2075 16.8796C15.3654 16.8404 15.5631 16.7823 15.7889 16.7158C17.2813 16.2768 20.0046 15.4758 20.6132 17.3771ZM14.9861 15.108C16.183 14.7699 18.763 14.0411 18.2107 12.3025C17.7579 10.5022 15.257 11.3077 14.0431 11.6987C13.9151 11.7399 13.8014 11.7765 13.706 11.805L14.707 15.1881C14.7875 15.1641 14.8815 15.1375 14.9861 15.108Z" fill="white"/>
</svg>
