<svg width="32" height="32" viewBox="0 0 32 32" fill="none" xmlns="http://www.w3.org/2000/svg">
<circle cx="16" cy="16" r="16" fill="#EDF0F4"/>
<path fill-rule="evenodd" clip-rule="evenodd" d="M7.3038 9.85163C6.66797 11.1 6.66797 12.7333 6.66797 16C6.66797 19.2666 6.66797 20.9 7.3038 22.1483C7.8638 23.245 8.7563 24.1374 9.85297 24.6974C11.1013 25.3333 12.7346 25.3333 16.0013 25.3333C19.268 25.3333 20.9013 25.3333 22.1497 24.6974C23.2463 24.1374 24.1388 23.245 24.6988 22.1483C25.3346 20.9 25.3346 19.2666 25.3346 16C25.3346 12.7333 25.3346 11.1 24.6988 9.85163C24.1388 8.75496 23.2463 7.86246 22.1497 7.30246C20.9013 6.66663 19.268 6.66663 16.0013 6.66663C12.7346 6.66663 11.1013 6.66663 9.85297 7.30246C8.7563 7.86246 7.8638 8.75496 7.3038 9.85163ZM20.6594 11.7008C20.8227 11.7008 20.9773 11.7679 21.0911 11.8816C21.2048 11.9983 21.269 12.1558 21.2661 12.3162C21.2369 14.0545 21.1698 15.3845 21.0444 16.4374C20.9219 17.4904 20.7381 18.272 20.4611 18.905C20.2744 19.3279 20.044 19.6779 19.7727 19.9754C19.4081 20.3691 18.9911 20.655 18.5361 20.9262C18.3415 21.0426 18.1393 21.1574 17.9271 21.2779C17.4745 21.535 16.9768 21.8176 16.4127 22.195C16.2086 22.332 15.9432 22.332 15.739 22.195C15.1663 21.8132 14.6621 21.5271 14.2053 21.2679C14.1037 21.2103 14.0044 21.154 13.9073 21.0983C13.3736 20.7891 12.8924 20.4945 12.4724 20.0687C12.1924 19.7887 11.9503 19.4474 11.7578 19.042C11.4953 18.4995 11.3173 17.8433 11.1861 16.9945C11.0111 15.86 10.9236 14.3754 10.8915 12.3162C10.8886 12.1558 10.9498 11.9983 11.0636 11.8816C11.1773 11.7679 11.3348 11.7008 11.4982 11.7008H11.749C12.5219 11.7037 14.2281 11.6279 15.704 10.4787C15.9227 10.3095 16.229 10.3095 16.4478 10.4787C17.9236 11.6279 19.6298 11.7037 20.4057 11.7008H20.6594ZM19.3031 18.5171C19.4926 18.1262 19.6502 17.5866 19.7697 16.8108C19.9126 15.8833 20.0002 14.6233 20.041 12.9083C19.131 12.882 17.5677 12.7071 16.0772 11.7037C14.5868 12.7041 13.0235 12.8791 12.1164 12.9083C12.1485 14.3258 12.2126 15.4283 12.3147 16.2946C12.4314 17.2804 12.5977 17.9483 12.8047 18.4179C12.9418 18.73 13.0935 18.9546 13.2743 19.1529C13.5164 19.4183 13.8226 19.6371 14.2397 19.8879C14.4128 19.9917 14.6035 20.0997 14.8111 20.2172C15.1811 20.4266 15.6046 20.6663 16.0772 20.9671C16.5411 20.6712 16.9586 20.4339 17.3242 20.2261C17.4344 20.1635 17.5399 20.1035 17.6406 20.0454C18.1539 19.7508 18.5331 19.5058 18.816 19.22C19.0056 19.0246 19.1602 18.8117 19.3031 18.5171Z" fill="#3375BB"/>
</svg>
