<svg width="46" height="46" viewBox="0 0 46 46" fill="none" xmlns="http://www.w3.org/2000/svg">
<rect width="46" height="46" rx="12" fill="#3DE19D"/>
<path d="M21.9708 15.8446L24.4709 13.3878C25.5294 12.4397 26.9189 11.9289 28.3507 11.9614C29.7825 11.994 31.1465 12.5675 32.1592 13.5627C33.1719 14.5579 33.7555 15.8983 33.7887 17.3054C33.8218 18.7124 33.302 20.0779 32.3372 21.1181L28.7639 24.6173C28.2489 25.1253 27.6369 25.5283 26.9631 25.8034C26.2892 26.0784 25.5667 26.22 24.837 26.22C24.1074 26.22 23.3849 26.0784 22.711 25.8034C22.0371 25.5283 21.4251 25.1253 20.9102 24.6173" stroke="#1B1C1E" stroke-width="3" stroke-linecap="round" stroke-linejoin="round"/>
<path d="M23.5303 30.1552L21.0302 32.6121C19.9717 33.5602 18.5822 34.071 17.1504 34.0384C15.7186 34.0058 14.3546 33.4324 13.3419 32.4371C12.3291 31.4419 11.7456 30.1015 11.7124 28.6945C11.6793 27.2874 12.1991 25.9219 13.1639 24.8817L16.7372 21.3826C17.2522 20.8746 17.8642 20.4715 18.538 20.1965C19.2119 19.9215 19.9344 19.7799 20.6641 19.7799C21.3937 19.7799 22.1162 19.9215 22.7901 20.1965C23.464 20.4715 24.0759 20.8746 24.5909 21.3826" stroke="#1B1C1E" stroke-width="3" stroke-linecap="round" stroke-linejoin="round"/>
</svg>
