<svg width="24" height="31" viewBox="0 0 24 31" fill="none" xmlns="http://www.w3.org/2000/svg">
<path fill-rule="evenodd" clip-rule="evenodd" d="M11.5063 30.8431L12 30.1395L11.5063 30.8431ZM12.4937 30.8431L12.4971 30.8413L12.5057 30.8353L12.5314 30.8155L12.6326 30.7423C12.7183 30.6786 12.8434 30.5856 13.0011 30.4633C13.3166 30.2205 13.764 29.8631 14.298 29.4041C15.6998 28.2004 17.0105 26.8936 18.2194 25.4946C21.0549 22.1999 24 17.4973 24 12.1213C24 8.90924 22.7366 5.8264 20.4874 3.55302C19.3757 2.42786 18.0535 1.53469 16.5969 0.924917C15.1403 0.315144 13.578 0.000808028 12 0C10.422 0.000695227 8.8598 0.314896 7.40318 0.92452C5.94657 1.53414 4.62433 2.42715 3.51257 3.55216C1.26122 5.83074 -0.00151116 8.91154 1.35721e-06 12.1221C1.35721e-06 17.4973 2.94514 22.1999 5.78057 25.4946C6.98946 26.8936 8.30022 28.2004 9.702 29.4041C10.2369 29.8631 10.6834 30.2205 10.9989 30.4633C11.1536 30.5831 11.3099 30.7008 11.4677 30.8164L11.4951 30.8353L11.5029 30.8413L11.5063 30.8431C11.802 31.0523 12.198 31.0523 12.4937 30.8431ZM12 30.1395L12.4937 30.8431L12 30.1395ZM16.2857 12.0558C16.2857 13.1977 15.8342 14.2929 15.0305 15.1004C14.2267 15.9078 13.1366 16.3615 12 16.3615C10.8634 16.3615 9.77327 15.9078 8.96954 15.1004C8.16582 14.2929 7.71429 13.1977 7.71429 12.0558C7.71429 10.9139 8.16582 9.81872 8.96954 9.01126C9.77327 8.20379 10.8634 7.75016 12 7.75016C13.1366 7.75016 14.2267 8.20379 15.0305 9.01126C15.8342 9.81872 16.2857 10.9139 16.2857 12.0558Z" fill="url(#paint0_linear_3194_22458)"/>
<defs>
<linearGradient id="paint0_linear_3194_22458" x1="29.2683" y1="-5.29268" x2="-0.440905" y2="37.6232" gradientUnits="userSpaceOnUse">
<stop stop-color="#BBFFAA"/>
<stop offset="1" stop-color="#EEFF86"/>
</linearGradient>
</defs>
</svg>
