<svg width="32" height="32" viewBox="0 0 32 32" fill="none" xmlns="http://www.w3.org/2000/svg">
<circle cx="16" cy="16" r="16" fill="white"/>
<path d="M16.0125 0.0253906C7.18308 0.0253906 0.0253906 7.18308 0.0253906 16.0125C0.0253906 24.8419 7.18308 31.9996 16.0125 31.9996C24.8419 31.9996 31.9996 24.8417 31.9996 16.0125C31.9996 7.18308 24.8419 0.0253906 16.0125 0.0253906ZM22.7037 23.1356C21.6644 24.9215 19.3305 25.5512 17.491 24.5424C15.6514 23.5337 15.0026 21.268 16.0421 19.482C16.475 18.7381 16.2048 17.7944 15.4382 17.3737C14.6824 16.9593 13.7263 17.2092 13.2847 17.9299H13.2844V17.9269C13.2782 17.9379 13.2727 17.9488 13.2664 17.9596C12.2271 19.7455 9.89334 20.3754 8.05386 19.3665C6.2141 18.3577 5.56528 16.0918 6.60454 14.3063C7.64408 12.5203 9.97772 11.8906 11.8176 12.8996C12.4324 13.2369 12.9133 13.7151 13.2438 14.2684V14.2664L13.2441 14.2661C13.7024 14.9762 14.6629 15.2051 15.4088 14.7745C16.1654 14.3378 16.4142 13.3883 15.9642 12.6537C14.8846 10.8907 15.4816 8.61166 17.2978 7.56365C19.1137 6.5155 21.4614 7.09503 22.5413 8.85789C23.6209 10.621 23.0241 12.8999 21.2076 13.9481C20.6005 14.2984 19.9337 14.4661 19.2749 14.4693L19.2766 14.47V14.4703C18.4052 14.4995 17.713 15.1986 17.7234 16.0494C17.7337 16.9116 18.4627 17.6028 19.3508 17.5926L19.3453 17.5956C19.9931 17.5905 20.6507 17.7442 21.2549 18.0755C23.0941 19.0845 23.7429 21.35 22.7037 23.1356Z" fill="black"/>
</svg>
