<svg width="44" height="32" viewBox="0 0 44 32" fill="none" xmlns="http://www.w3.org/2000/svg">
<circle cx="16" cy="16" r="15" fill="white"/>
<path d="M16.0125 0.0253906C7.18308 0.0253906 0.0253906 7.18308 0.0253906 16.0125C0.0253906 24.8419 7.18308 31.9996 16.0125 31.9996C24.8419 31.9996 31.9996 24.8417 31.9996 16.0125C31.9996 7.18308 24.8419 0.0253906 16.0125 0.0253906ZM22.7037 23.1356C21.6644 24.9215 19.3305 25.5512 17.491 24.5424C15.6514 23.5337 15.0026 21.268 16.0421 19.482C16.475 18.7381 16.2048 17.7944 15.4382 17.3737C14.6824 16.9593 13.7263 17.2092 13.2847 17.9299H13.2844V17.9269C13.2782 17.9379 13.2727 17.9488 13.2664 17.9596C12.2271 19.7455 9.89334 20.3754 8.05386 19.3665C6.2141 18.3577 5.56528 16.0918 6.60454 14.3063C7.64408 12.5203 9.97772 11.8906 11.8176 12.8996C12.4324 13.2369 12.9133 13.7151 13.2438 14.2684V14.2664L13.2441 14.2661C13.7024 14.9762 14.6629 15.2051 15.4088 14.7745C16.1654 14.3378 16.4142 13.3883 15.9642 12.6537C14.8846 10.8907 15.4816 8.61166 17.2978 7.56365C19.1137 6.5155 21.4614 7.09503 22.5413 8.85789C23.6209 10.621 23.0241 12.8999 21.2076 13.9481C20.6005 14.2984 19.9337 14.4661 19.2749 14.4693L19.2766 14.47V14.4703C18.4052 14.4995 17.713 15.1986 17.7234 16.0494C17.7337 16.9116 18.4627 17.6028 19.3508 17.5926L19.3453 17.5956C19.9931 17.5905 20.6507 17.7442 21.2549 18.0755C23.0941 19.0845 23.7429 21.35 22.7037 23.1356Z" fill="black"/>
<path d="M43.5177 19.8705C41.3808 28.442 32.6992 33.6584 24.1267 31.521C15.5578 29.3841 10.3413 20.702 12.4792 12.1312C14.6152 3.5587 23.2967 -1.65814 31.8666 0.478775C40.4385 2.61569 45.6546 11.2987 43.5175 19.8706L43.5176 19.8705H43.5177Z" fill="#50AF95"/>
<path fill-rule="evenodd" clip-rule="evenodd" d="M30.0249 17.8139V17.8139C29.9118 17.8224 29.3272 17.8573 28.0233 17.8573C26.9863 17.8573 26.25 17.8262 25.9916 17.8139V17.8139C21.9839 17.6376 18.9924 16.94 18.9924 16.1047C18.9924 15.2693 21.9839 14.5726 25.9916 14.3935V17.1191C26.2537 17.1379 27.0042 17.1823 28.0413 17.1823C29.2857 17.1823 29.9089 17.1304 30.0211 17.12V14.3954C34.0204 14.5736 37.0053 15.2712 37.0053 16.1047C37.0053 16.9381 34.0214 17.6357 30.0211 17.813V17.813L30.0249 17.8139ZM30.0249 14.1135V11.6745H35.6062V7.9552H20.4103V11.6745H25.9907V14.1125C21.455 14.3209 18.0439 15.2194 18.0439 16.296C18.0439 17.3727 21.455 18.2702 25.9907 18.4795V26.2952H30.0239V18.4767C34.5493 18.2684 37.9547 17.3708 37.9547 16.2951C37.9547 15.2194 34.5522 14.3218 30.0239 14.1125V14.1125L30.0249 14.1135Z" fill="white"/>
</svg>
