<svg width="44" height="32" viewBox="0 0 44 32" fill="none" xmlns="http://www.w3.org/2000/svg">
<path d="M31.5177 19.8705C29.3808 28.442 20.6992 33.6584 12.1267 31.521C3.55778 29.3841 -1.65868 20.702 0.479177 12.1312C2.61515 3.5587 11.2967 -1.65814 19.8666 0.478775C28.4385 2.61569 33.6546 11.2987 31.5175 19.8706L31.5176 19.8705H31.5177Z" fill="#50AF95"/>
<path fill-rule="evenodd" clip-rule="evenodd" d="M18.0249 17.8139V17.8139C17.9118 17.8224 17.3272 17.8573 16.0233 17.8573C14.9863 17.8573 14.25 17.8262 13.9916 17.8139V17.8139C9.98385 17.6376 6.99239 16.94 6.99239 16.1047C6.99239 15.2693 9.98385 14.5726 13.9916 14.3935V17.1191C14.2537 17.1379 15.0042 17.1823 16.0413 17.1823C17.2857 17.1823 17.9089 17.1304 18.0211 17.12V14.3954C22.0204 14.5736 25.0053 15.2712 25.0053 16.1047C25.0053 16.9381 22.0214 17.6357 18.0211 17.813V17.813L18.0249 17.8139ZM18.0249 14.1135V11.6745H23.6062V7.9552H8.41034V11.6745H13.9907V14.1125C9.45495 14.3209 6.04395 15.2194 6.04395 16.296C6.04395 17.3727 9.45495 18.2702 13.9907 18.4795V26.2952H18.0239V18.4767C22.5493 18.2684 25.9547 17.3708 25.9547 16.2951C25.9547 15.2194 22.5522 14.3218 18.0239 14.1125V14.1125L18.0249 14.1135Z" fill="white"/>
<path d="M27.9897 32C36.8294 32 43.9897 24.8397 43.9897 16C43.9897 7.16034 36.8294 0 27.9897 0C19.15 0 12 7.16034 12 16C12 24.8397 19.1603 32 27.9897 32" fill="#008CE3"/>
<path d="M30.4315 8.9942H24.1469L23.6318 11.8995L29.2982 11.9098C32.0902 11.9098 32.9144 12.9195 32.8938 14.5988C32.8835 15.4643 32.5126 16.9169 32.3478 17.3909C31.9151 18.6478 31.0394 20.0901 27.7219 20.0798H22.21L21.6846 22.9955H27.9486C30.1533 22.9955 31.1012 22.7379 32.0902 22.2743C34.295 21.2543 35.6137 19.0805 36.1392 16.237C36.9325 12.0026 35.9537 8.9942 30.4315 8.9942" fill="white"/>
<path d="M21.4474 14.537C19.799 14.537 19.5621 15.6085 19.4075 16.2576C19.2015 17.1024 19.1396 17.4527 19.1396 17.4527H25.5685C27.2169 17.4527 27.4539 16.3812 27.6084 15.7322C27.8145 14.8873 27.8763 14.537 27.8763 14.537H21.4474Z" fill="white"/>
</svg>
