<svg width="44" height="32" viewBox="0 0 44 32" fill="none" xmlns="http://www.w3.org/2000/svg">
<circle cx="16.1329" cy="15.8666" r="14.2667" fill="white"/>
<path fill-rule="evenodd" clip-rule="evenodd" d="M0 16C0 7.16344 7.16341 0 15.9999 0H16.0929C20.324 0.0123117 24.377 1.70494 27.3601 4.70553C30.3432 7.70611 32.0122 11.7689 31.9999 16C31.9999 24.8366 24.8365 32 15.9999 32C7.16341 32 0 24.8366 0 16ZM14.6053 22.1598L16.2711 16.5424L18.8667 15.8063L19.4091 13.9467L16.8522 14.7216L19.5641 5.50122V5.354C19.56 5.23479 19.5088 5.12208 19.4216 5.04069C19.3344 4.9593 19.2184 4.91592 19.0992 4.9201H15.6513C15.3827 4.91183 15.143 5.0876 15.0702 5.34626L11.8547 16.2712L9.29778 17.046L8.71667 18.8281L11.2736 18.0533L8.98785 25.8402H22.6246C22.8941 25.8514 23.1353 25.6744 23.2057 25.4141L23.9805 22.7409V22.5937C23.9765 22.4745 23.9252 22.3618 23.838 22.2804C23.7508 22.199 23.6348 22.1556 23.5156 22.1598H14.6053Z" fill="#345D9D"/>
<circle cx="28" cy="16" r="16" fill="#5DAF50"/>
<path d="M28.0004 14.7601C24.7204 14.7601 24.7204 13.7269 24.7204 13.1201C24.7204 12.5133 25.8684 11.4801 28.0004 11.4801C30.1324 11.4801 30.28 12.5297 30.2964 13.1201H33.5764C33.5543 12.0028 33.1524 10.9264 32.437 10.0679C31.7217 9.20949 30.7354 8.62013 29.6404 8.39686V6.56006H26.3604V8.34766C23.0804 8.88886 21.4404 11.0045 21.4404 13.1201C21.4404 14.9569 22.2932 18.0401 28.0004 18.0401C31.2804 18.0401 31.2804 19.1553 31.2804 19.6801C31.2804 20.2049 30.2636 21.3201 28.0004 21.3201C24.9828 21.3201 24.7204 19.9097 24.7204 19.6801H21.4404C21.4404 21.1889 22.5228 23.8621 26.3604 24.4689V26.2401H29.6404V24.4689C32.9204 23.9113 34.5604 21.7957 34.5604 19.6801C34.5604 17.8433 33.7076 14.7601 28.0004 14.7601Z" fill="white"/>
</svg>
