<svg width="44" height="32" viewBox="0 0 44 32" fill="none" xmlns="http://www.w3.org/2000/svg">
<path d="M15.9897 32C24.8294 32 31.9897 24.8397 31.9897 16C31.9897 7.16034 24.8294 0 15.9897 0C7.15003 0 0 7.16034 0 16C0 24.8397 7.16033 32 15.9897 32" fill="#008CE3"/>
<path d="M18.4315 8.9942H12.1469L11.6318 11.8995L17.2982 11.9098C20.0902 11.9098 20.9144 12.9195 20.8938 14.5988C20.8835 15.4643 20.5126 16.9169 20.3478 17.3909C19.9151 18.6478 19.0394 20.0901 15.7219 20.0798H10.21L9.68457 22.9955H15.9486C18.1533 22.9955 19.1012 22.7379 20.0902 22.2743C22.295 21.2543 23.6137 19.0805 24.1392 16.237C24.9325 12.0026 23.9537 8.9942 18.4315 8.9942" fill="white"/>
<path d="M9.44744 14.537C7.79902 14.537 7.56206 15.6085 7.40752 16.2576C7.20146 17.1024 7.13965 17.4527 7.13965 17.4527H13.5685C15.2169 17.4527 15.4539 16.3812 15.6084 15.7322C15.8145 14.8873 15.8763 14.537 15.8763 14.537H9.44744Z" fill="white"/>
<circle cx="28" cy="16" r="16" fill="#5DAF50"/>
<path d="M28.0004 14.7601C24.7204 14.7601 24.7204 13.7269 24.7204 13.1201C24.7204 12.5133 25.8684 11.4801 28.0004 11.4801C30.1324 11.4801 30.28 12.5297 30.2964 13.1201H33.5764C33.5543 12.0028 33.1524 10.9264 32.437 10.0679C31.7217 9.20949 30.7354 8.62013 29.6404 8.39686V6.56006H26.3604V8.34766C23.0804 8.88886 21.4404 11.0045 21.4404 13.1201C21.4404 14.9569 22.2932 18.0401 28.0004 18.0401C31.2804 18.0401 31.2804 19.1553 31.2804 19.6801C31.2804 20.2049 30.2636 21.3201 28.0004 21.3201C24.9828 21.3201 24.7204 19.9097 24.7204 19.6801H21.4404C21.4404 21.1889 22.5228 23.8621 26.3604 24.4689V26.2401H29.6404V24.4689C32.9204 23.9113 34.5604 21.7957 34.5604 19.6801C34.5604 17.8433 33.7076 14.7601 28.0004 14.7601Z" fill="white"/>
</svg>
