<svg width="44" height="32" viewBox="0 0 44 32" fill="none" xmlns="http://www.w3.org/2000/svg">
<path d="M31.5216 19.8705C29.3847 28.442 20.7032 33.6584 12.1306 31.521C3.56168 29.3841 -1.65477 20.702 0.483083 12.1312C2.61906 3.5587 11.3006 -1.65814 19.8705 0.478775C28.4424 2.61569 33.6585 11.2987 31.5214 19.8706L31.5215 19.8705H31.5216Z" fill="#F7931A"/>
<path fill-rule="evenodd" clip-rule="evenodd" d="M23.0564 13.7204C23.3748 11.5911 21.7537 10.4466 19.5371 9.68305L20.2562 6.79879L18.5004 6.36131L17.8004 9.16963C17.3388 9.05451 16.8648 8.94603 16.3937 8.8385L17.0988 6.01165L15.3442 5.57416L14.6247 8.45748C14.2427 8.37051 13.8676 8.28456 13.5036 8.194L13.5056 8.18493L11.0844 7.58031L10.6174 9.45555C10.6174 9.45555 11.92 9.75414 11.8925 9.77252C12.6035 9.94997 12.7321 10.4206 12.7107 10.7937L11.8916 14.0795C11.9405 14.0919 12.004 14.1099 12.0741 14.1381L12.0231 14.1254C11.9798 14.1145 11.9348 14.1033 11.8885 14.0922L10.7404 18.6952C10.6535 18.9112 10.433 19.2354 9.93587 19.1123C9.95347 19.1378 8.65978 18.7938 8.65978 18.7938L7.78809 20.8036L10.0729 21.3731C10.3231 21.4359 10.5703 21.5003 10.8151 21.5641C10.9861 21.6087 11.1559 21.653 11.3247 21.6961L10.5981 24.6135L12.3518 25.051L13.0713 22.1646C13.5504 22.2946 14.0154 22.4146 14.4705 22.5277L13.7534 25.4005L15.5093 25.8379L16.2357 22.9261C19.2296 23.4927 21.4808 23.2642 22.4284 20.5563C23.1919 18.376 22.3903 17.1185 20.8153 16.2984C21.9625 16.0338 22.8266 15.2793 23.057 13.7206L23.0564 13.7202L23.0564 13.7204ZM19.0452 19.3455C18.5474 21.3458 15.4164 20.5188 13.9838 20.1404L13.9837 20.1404C13.8549 20.1064 13.7398 20.076 13.6416 20.0516L14.6057 16.1866C14.7254 16.2165 14.8717 16.2493 15.0374 16.2865L15.0375 16.2865C16.5193 16.6191 19.5552 17.3004 19.0453 19.3455H19.0452ZM15.3342 14.4927C16.5286 14.8115 19.134 15.5068 19.5878 13.6888H19.5879C20.0513 11.8294 17.5192 11.2688 16.2826 10.995C16.1435 10.9642 16.0207 10.937 15.9205 10.912L15.0464 14.4173C15.1289 14.4379 15.2258 14.4638 15.3342 14.4927Z" fill="white"/>
<g clip-path="url(#clip0_1401_17578)">
<path d="M28 32C36.8366 32 44 24.8366 44 16C44 7.16344 36.8366 0 28 0C19.1634 0 12 7.16344 12 16C12 24.8366 19.1634 32 28 32Z" fill="#0F8FF8"/>
<path fill-rule="evenodd" clip-rule="evenodd" d="M20 19.004L20.81 17H21.667C21.6448 16.6571 21.6335 16.3136 21.633 15.97C21.633 15.522 21.652 15.106 21.689 14.72H20L20.81 12.717H22.084C23.27 8.906 25.944 7 30.103 7C31.47 7 32.769 7.177 34 7.532V10.056C32.8415 9.53832 31.5859 9.27376 30.317 9.28C27.824 9.28 26.221 10.426 25.507 12.718H32.93L32.12 14.721H25.023C24.9805 15.0509 24.9618 15.3834 24.967 15.716C24.967 16.195 24.982 16.623 25.012 17.001H31.195L30.395 19.004H25.44C25.973 20.393 26.623 21.359 27.389 21.904C28.154 22.448 29.247 22.72 30.666 22.72C31.68 22.72 32.791 22.473 34 21.979V24.352C32.851 24.784 31.485 25 29.9 25C25.733 25 23.097 23.001 21.994 19.004H20Z" fill="white"/>
</g>
<defs>
<clipPath id="clip0_1401_17578">
<rect width="32" height="32" fill="white" transform="translate(12)"/>
</clipPath>
</defs>
</svg>
