<svg width="44" height="32" viewBox="0 0 44 32" fill="none" xmlns="http://www.w3.org/2000/svg">
<circle cx="16" cy="16" r="16" fill="#EDF0F4"/>
<path d="M15.9564 6.39999L15.8291 6.83234V19.3768L15.9564 19.5038L21.7793 16.0618L15.9564 6.39999Z" fill="#343434"/>
<path d="M15.9558 6.39999L10.1328 16.0618L15.9558 19.5038V13.415V6.39999Z" fill="#8C8C8C"/>
<path d="M15.9565 20.6062L15.8848 20.6937V25.1623L15.9565 25.3717L21.7829 17.1661L15.9565 20.6062Z" fill="#3C3C3B"/>
<path d="M15.9558 25.3717V20.6062L10.1328 17.1661L15.9558 25.3717Z" fill="#8C8C8C"/>
<path d="M15.9561 19.5038L21.7789 16.0618L15.9561 13.415V19.5038Z" fill="#141414"/>
<path d="M10.1328 16.0618L15.9558 19.5038V13.415L10.1328 16.0618Z" fill="#393939"/>
<circle cx="28" cy="16" r="16" fill="#5DAF50"/>
<path d="M28.0004 14.7601C24.7204 14.7601 24.7204 13.7269 24.7204 13.1201C24.7204 12.5133 25.8684 11.4801 28.0004 11.4801C30.1324 11.4801 30.28 12.5297 30.2964 13.1201H33.5764C33.5543 12.0028 33.1524 10.9264 32.437 10.0679C31.7217 9.20949 30.7354 8.62013 29.6404 8.39686V6.56006H26.3604V8.34766C23.0804 8.88886 21.4404 11.0045 21.4404 13.1201C21.4404 14.9569 22.2932 18.0401 28.0004 18.0401C31.2804 18.0401 31.2804 19.1553 31.2804 19.6801C31.2804 20.2049 30.2636 21.3201 28.0004 21.3201C24.9828 21.3201 24.7204 19.9097 24.7204 19.6801H21.4404C21.4404 21.1889 22.5228 23.8621 26.3604 24.4689V26.2401H29.6404V24.4689C32.9204 23.9113 34.5604 21.7957 34.5604 19.6801C34.5604 17.8433 33.7076 14.7601 28.0004 14.7601Z" fill="white"/>
</svg>
