<svg width="32" height="34" viewBox="0 0 32 34" fill="none" xmlns="http://www.w3.org/2000/svg">
<path d="M15.9997 0.75C15.2184 0.75 14.4422 1.0125 13.7734 1.4925L11.7034 2.9375L9.31844 3.25H9.27969L9.24094 3.28875C8.45873 3.46539 7.74261 3.86011 7.17558 4.42714C6.60855 4.99417 6.21383 5.71029 6.03719 6.4925L5.99969 6.53125V6.57L5.68719 8.9925L4.24219 10.8675L4.20219 10.9062V10.945C3.32844 12.3413 3.28969 14.1438 4.24219 15.4763L5.72594 17.5463L6.11719 19.6962L2.09344 25.8275L0.804688 27.7425H6.78094L8.22594 31.1013L9.12469 33.25L10.4134 31.2963L14.3584 25.3588C15.4184 25.7938 16.6147 25.8338 17.6409 25.3588L21.5859 31.2963L22.8747 33.25L23.7734 31.1013L25.2184 27.7425H31.1947L29.9059 25.8275L25.9997 19.8912L26.3122 17.5475L27.7572 15.4775L27.7972 15.4388V15.4C28.6709 14.0038 28.7097 12.24 27.7572 10.9075L26.3122 8.83625L25.8434 6.4925H25.8822C25.8772 6.4625 25.8484 6.4425 25.8434 6.41375C25.6184 4.77875 24.3247 3.45125 22.6797 3.25H22.6397L20.2959 2.9375L18.2259 1.4925C17.5794 1.0189 16.801 0.759286 15.9997 0.75V0.75ZM15.9997 3.28875C16.2872 3.28875 16.5709 3.37625 16.7809 3.52375L19.0072 5.125L19.2809 5.32L19.5934 5.36L22.3284 5.75H22.3659C22.9284 5.8125 23.3184 6.20375 23.3822 6.76625V6.84375L23.8909 9.6175L23.9284 9.89125L24.1247 10.125L25.7259 12.3513C26.0247 12.7663 26.0634 13.47 25.6872 14.07L23.9297 16.5312L23.8897 16.8438L23.4997 19.5787V19.6163C23.4789 19.8116 23.4121 19.9992 23.3047 20.1638L23.2259 20.2037V20.2413C23.0402 20.4644 22.7737 20.605 22.4847 20.6325H22.4059L19.5547 21.1412L19.2422 21.1788L19.0072 21.375L16.7809 22.9763C16.3659 23.275 15.6234 23.3137 15.0234 22.9375L12.9922 21.375L12.7572 21.18L12.4059 21.14L9.67094 20.75H9.63344C9.45669 20.7344 9.28629 20.6765 9.13661 20.5812C8.98693 20.4859 8.86237 20.356 8.77344 20.2025C8.69037 20.0583 8.63723 19.8989 8.61719 19.7338V19.6562L8.10969 16.805L8.06969 16.4925L7.87469 16.2575L6.27344 14.0312C5.97469 13.6163 5.93594 12.8737 6.31219 12.2737L7.87469 10.2425L8.06969 10.0075L8.10844 9.65625L8.46094 7.03875C8.46594 7.02 8.49469 7.02 8.49969 7C8.57761 6.69909 8.73461 6.42451 8.95441 6.20472C9.1742 5.98493 9.44878 5.82793 9.74969 5.75C9.76969 5.745 9.76969 5.71625 9.78844 5.71125L12.4059 5.35875L12.7184 5.32125L12.9922 5.125L15.2184 3.52375C15.4284 3.3775 15.7122 3.28875 15.9997 3.28875V3.28875ZM24.6322 22.3125L26.5472 25.2425H23.5372L23.2247 26.0237L22.3659 28.015L19.7097 23.9525L20.2947 23.5237L22.7572 23.0938V23.1325C22.7859 23.1275 22.8047 23.0988 22.8347 23.0938C23.4926 22.9988 24.1129 22.729 24.6309 22.3125H24.6322ZM7.36719 22.3513C7.90997 22.8447 8.59185 23.1586 9.31969 23.25H9.35844L11.7422 23.5625L12.2884 23.9925L9.63219 28.015L8.77344 26.0237L8.46094 25.2425H5.45344L7.36719 22.3513Z" fill="#5B5B5C"/>
<circle cx="15.9997" cy="13.6667" r="3.31601" stroke="#5B5B5C" stroke-width="1.70131"/>
</svg>
