<svg width="40" height="40" viewBox="0 0 40 40" fill="none" xmlns="http://www.w3.org/2000/svg">
<g opacity="0.6" clip-path="url(#clip0_1401_10782)">
<path d="M35.5558 6.6665H4.4447C3.85533 6.6665 3.29009 6.90063 2.87335 7.31738C2.4566 7.73413 2.22247 8.29936 2.22247 8.88873V31.1109C2.22247 31.7003 2.4566 32.2655 2.87335 32.6823C3.29009 33.099 3.85533 33.3332 4.4447 33.3332H21.1114L21.7447 32.5554L22.778 31.2887L22.678 31.1109H4.4447V8.88873H35.5558V18.3998C36.3999 18.9463 37.1503 19.6254 37.778 20.4109V8.88873C37.778 8.29936 37.5439 7.73413 37.1272 7.31738C36.7104 6.90063 36.1452 6.6665 35.5558 6.6665Z" fill="#5B5B5C"/>
<path d="M7.77753 13.333H26.6664V15.1108H7.77753V13.333Z" fill="#5B5B5C"/>
<path d="M7.77753 17.7778H19.9998V19.5556H7.77753V17.7778Z" fill="#5B5B5C"/>
<path d="M7.77753 25.5552H18.8886V27.333H7.77753V25.5552Z" fill="#5B5B5C"/>
<path d="M30.5115 19.1443C29.0896 19.133 27.6974 19.5509 26.5168 20.3434C25.3362 21.1358 24.4222 22.266 23.8941 23.5862C23.366 24.9064 23.2485 26.3552 23.5569 27.7433C23.8652 29.1313 24.5852 30.3941 25.6226 31.3665L23.467 33.9998L24.467 38.0109L28.5337 33.0554C29.8209 33.436 31.1909 33.436 32.4781 33.0554L36.5448 38.0109L37.5448 33.9998L35.3892 31.3665C36.4266 30.3941 37.1466 29.1313 37.4549 27.7433C37.7633 26.3552 37.6458 24.9064 37.1177 23.5862C36.5896 22.266 35.6756 21.1358 34.495 20.3434C33.3144 19.5509 31.9222 19.133 30.5003 19.1443H30.5115ZM30.5115 31.0109C29.5672 30.9978 28.648 30.7058 27.8693 30.1717C27.0906 29.6375 26.4872 28.8851 26.1349 28.009C25.7827 27.1328 25.6973 26.1721 25.8895 25.2476C26.0818 24.3231 26.543 23.476 27.2154 22.8129C27.8877 22.1498 28.741 21.7003 29.6681 21.5209C30.5952 21.3414 31.5546 21.4401 32.4258 21.8044C33.297 22.1688 34.041 22.7825 34.5643 23.5685C35.0877 24.3546 35.3669 25.2778 35.367 26.222C35.3553 27.5001 34.8378 28.7214 33.9279 29.6189C33.0179 30.5163 31.7895 31.0169 30.5115 31.0109Z" fill="#5B5B5C"/>
</g>
<defs>
<clipPath id="clip0_1401_10782">
<rect width="40" height="40" fill="white"/>
</clipPath>
</defs>
</svg>
