<svg width="64" height="65" viewBox="0 0 64 65" fill="none" xmlns="http://www.w3.org/2000/svg">
<mask id="mask0_1410_17672" style="mask-type:alpha" maskUnits="userSpaceOnUse" x="0" y="0" width="64" height="65">
<circle cx="32" cy="32.7998" r="32" fill="#0CAF58"/>
</mask>
<g mask="url(#mask0_1410_17672)">
<circle cx="32" cy="32.7998" r="32" fill="url(#paint0_linear_1410_17672)" fill-opacity="0.4"/>
<circle cx="32" cy="32.7998" r="31.5" stroke="url(#paint1_linear_1410_17672)" stroke-opacity="0.16"/>
<path d="M21.3968 20.8158C24.3195 18.2228 28.0928 16.7937 32 16.7998C40.8368 16.7998 48 23.963 48 32.7998C48.0052 36.0701 47.0036 39.2626 45.1312 41.9438L40.8 32.7998H44.8C44.8 30.2548 44.0414 27.7675 42.621 25.6557C41.2006 23.544 39.1829 21.9036 36.8256 20.9441C34.4684 19.9846 31.8786 19.7496 29.3872 20.2691C26.8958 20.7886 24.6157 22.039 22.8384 23.8606L21.3984 20.8174L21.3968 20.8158ZM42.6032 44.7838C39.6805 47.3768 35.9072 48.806 32 48.7998C23.1632 48.7998 16 41.6366 16 32.7998C16 29.3998 17.0608 26.2478 18.8688 23.6558L23.2 32.7998H19.2C19.2 35.3449 19.9586 37.8321 21.379 39.9439C22.7994 42.0557 24.8171 43.6961 27.1744 44.6556C29.5316 45.6151 32.1213 45.8501 34.6128 45.3306C37.1042 44.811 39.3843 43.5606 41.1616 41.739L42.6016 44.7822L42.6032 44.7838ZM26.4 35.9998H35.2C35.4122 35.9998 35.6157 35.9155 35.7657 35.7655C35.9157 35.6155 36 35.412 36 35.1998C36 34.9876 35.9157 34.7842 35.7657 34.6341C35.6157 34.4841 35.4122 34.3998 35.2 34.3998H28.8C27.7391 34.3998 26.7217 33.9784 25.9716 33.2282C25.2214 32.4781 24.8 31.4607 24.8 30.3998C24.8 29.339 25.2214 28.3215 25.9716 27.5714C26.7217 26.8213 27.7391 26.3998 28.8 26.3998H30.4V24.7998H33.6V26.3998H37.6V29.5998H28.8C28.5878 29.5998 28.3843 29.6841 28.2343 29.8341C28.0843 29.9842 28 30.1876 28 30.3998C28 30.612 28.0843 30.8155 28.2343 30.9655C28.3843 31.1155 28.5878 31.1998 28.8 31.1998H35.2C36.2609 31.1998 37.2783 31.6213 38.0284 32.3714C38.7786 33.1215 39.2 34.139 39.2 35.1998C39.2 36.2607 38.7786 37.2781 38.0284 38.0282C37.2783 38.7784 36.2609 39.1998 35.2 39.1998H33.6V40.7998H30.4V39.1998H26.4V35.9998Z" fill="url(#paint2_linear_1410_17672)"/>
</g>
<defs>
<linearGradient id="paint0_linear_1410_17672" x1="32" y1="0.799805" x2="32" y2="64.7998" gradientUnits="userSpaceOnUse">
<stop stop-color="#0CAF58" stop-opacity="0"/>
<stop offset="1" stop-color="#0CAF58" stop-opacity="0.24"/>
</linearGradient>
<linearGradient id="paint1_linear_1410_17672" x1="32" y1="0.799805" x2="32" y2="64.7998" gradientUnits="userSpaceOnUse">
<stop stop-color="#3DE19D"/>
<stop offset="1" stop-color="#3DE19D" stop-opacity="0"/>
</linearGradient>
<linearGradient id="paint2_linear_1410_17672" x1="55.0244" y1="11.3364" x2="27.7405" y2="62.2441" gradientUnits="userSpaceOnUse">
<stop stop-color="#BBFFAA"/>
<stop offset="1" stop-color="#EEFF86"/>
</linearGradient>
</defs>
</svg>
