<svg width="46" height="46" viewBox="0 0 46 46" fill="none" xmlns="http://www.w3.org/2000/svg">
<rect width="46" height="46" rx="12" fill="#3DE19D"/>
<path d="M20.207 17.0703V31.1904C20.2084 31.3422 20.1715 31.4919 20.0996 31.6256C20.0278 31.7592 19.9234 31.8726 19.7961 31.9552L18.5404 32.7885C18.4188 32.8697 18.2794 32.9205 18.1341 32.9367C17.9887 32.9528 17.8416 32.9338 17.7051 32.8812C17.5686 32.8286 17.4467 32.744 17.3498 32.6345C17.2528 32.525 17.1835 32.3939 17.1478 32.252L15.6411 26.2022" stroke="#1B1C1E" stroke-width="3" stroke-linecap="round" stroke-linejoin="round"/>
<path d="M15.6425 26.2022C14.4316 26.2022 13.2702 25.7212 12.4139 24.8649C11.5577 24.0086 11.0766 22.8472 11.0766 21.6363C11.0766 20.4253 11.5577 19.264 12.4139 18.4077C13.2702 17.5514 14.4316 17.0704 15.6425 17.0704H20.2085C20.2085 17.0704 26.4295 17.0704 32.4109 12.0593C32.5439 11.9492 32.7055 11.8791 32.8768 11.8571C33.048 11.8351 33.222 11.8621 33.3786 11.935C33.5351 12.0079 33.6678 12.1236 33.7612 12.2689C33.8546 12.4141 33.9049 12.5829 33.9062 12.7556V30.517C33.9049 30.6897 33.8546 30.8584 33.7612 31.0037C33.6678 31.1489 33.5351 31.2647 33.3786 31.3376C33.222 31.4105 33.048 31.4375 32.8768 31.4155C32.7055 31.3935 32.5439 31.3234 32.4109 31.2133C26.4295 26.2022 20.2085 26.2022 20.2085 26.2022H15.6425Z" stroke="#1B1C1E" stroke-width="3" stroke-linecap="round" stroke-linejoin="round"/>
</svg>
