<svg width="34" height="34" viewBox="0 0 34 34" fill="none" xmlns="http://www.w3.org/2000/svg">
<rect width="34" height="34" rx="9" fill="#3DE19D"/>
<path d="M14.0525 16.2631C18.1266 16.2631 21.4292 14.7769 21.4292 12.9436C21.4292 11.1103 18.1266 9.62405 14.0525 9.62405C9.97846 9.62405 6.67578 11.1103 6.67578 12.9436C6.67578 14.7769 9.97846 16.2631 14.0525 16.2631Z" stroke="#1B1C1E" stroke-width="1.61719" stroke-linecap="round" stroke-linejoin="round"/>
<path d="M6.67578 12.9437V16.632C6.67578 18.467 9.97687 19.9516 14.0525 19.9516C18.1282 19.9516 21.4292 18.467 21.4292 16.632V12.9437" stroke="#1B1C1E" stroke-width="1.61719" stroke-linecap="round" stroke-linejoin="round"/>
<path d="M11.1055 15.9863V19.6747" stroke="#1B1C1E" stroke-width="1.61719" stroke-linecap="round" stroke-linejoin="round"/>
<path d="M21.4311 14.1144C24.7968 14.428 27.3325 15.765 27.3325 17.3694C27.3325 19.2044 24.0314 20.689 19.9558 20.689C18.1485 20.689 16.4887 20.3939 15.207 19.9144" stroke="#1B1C1E" stroke-width="1.61719" stroke-linecap="round" stroke-linejoin="round"/>
<path d="M12.5781 19.8866V21.0577C12.5781 22.8926 15.8792 24.3772 19.9549 24.3772C24.0305 24.3772 27.3316 22.8926 27.3316 21.0577V17.3693" stroke="#1B1C1E" stroke-width="1.61719" stroke-linecap="round" stroke-linejoin="round"/>
<path d="M22.9023 20.4122V24.1006" stroke="#1B1C1E" stroke-width="1.61719" stroke-linecap="round" stroke-linejoin="round"/>
<path d="M17.0078 15.9863V24.1007" stroke="#1B1C1E" stroke-width="1.61719" stroke-linecap="round" stroke-linejoin="round"/>
</svg>
