<svg width="44" height="32" viewBox="0 0 44 32" fill="none" xmlns="http://www.w3.org/2000/svg">
<circle cx="16" cy="16" r="16" fill="white"/>
<path d="M9.91796 19.7906C10.0288 19.6797 10.1813 19.615 10.343 19.615H25.0063C25.2743 19.615 25.4082 19.9384 25.2188 20.1278L22.3222 23.0245C22.2113 23.1353 22.0589 23.2 21.8972 23.2H7.23384C6.96589 23.2 6.83191 22.8766 7.02133 22.6872L9.91796 19.7906Z" fill="url(#paint0_linear_1401_17581)"/>
<path d="M9.91796 8.97557C10.0335 8.8647 10.1859 8.80002 10.343 8.80002H25.0063C25.2743 8.80002 25.4082 9.12341 25.2188 9.31282L22.3222 12.2095C22.2113 12.3203 22.0589 12.385 21.8972 12.385H7.23384C6.96589 12.385 6.83191 12.0616 7.02133 11.8722L9.91796 8.97557Z" fill="url(#paint1_linear_1401_17581)"/>
<path d="M22.3222 14.3484C22.2113 14.2376 22.0589 14.1729 21.8972 14.1729H7.23384C6.96589 14.1729 6.83191 14.4963 7.02133 14.6857L9.91796 17.5823C10.0288 17.6932 10.1813 17.7579 10.343 17.7579H25.0063C25.2743 17.7579 25.4082 17.4345 25.2188 17.2451L22.3222 14.3484Z" fill="url(#paint2_linear_1401_17581)"/>
<path d="M43.5177 19.8705C41.3808 28.442 32.6992 33.6584 24.1267 31.521C15.5578 29.3841 10.3413 20.702 12.4792 12.1312C14.6152 3.5587 23.2967 -1.65814 31.8666 0.478775C40.4385 2.61569 45.6546 11.2987 43.5175 19.8706L43.5176 19.8705H43.5177Z" fill="#50AF95"/>
<path fill-rule="evenodd" clip-rule="evenodd" d="M30.0249 17.8139V17.8139C29.9118 17.8224 29.3272 17.8573 28.0233 17.8573C26.9863 17.8573 26.25 17.8262 25.9916 17.8139V17.8139C21.9839 17.6376 18.9924 16.94 18.9924 16.1047C18.9924 15.2693 21.9839 14.5726 25.9916 14.3935V17.1191C26.2537 17.1379 27.0042 17.1823 28.0413 17.1823C29.2857 17.1823 29.9089 17.1304 30.0211 17.12V14.3954C34.0204 14.5736 37.0053 15.2712 37.0053 16.1047C37.0053 16.9381 34.0214 17.6357 30.0211 17.813V17.813L30.0249 17.8139ZM30.0249 14.1135V11.6745H35.6062V7.9552H20.4103V11.6745H25.9907V14.1125C21.455 14.3209 18.0439 15.2194 18.0439 16.296C18.0439 17.3727 21.455 18.2702 25.9907 18.4795V26.2952H30.0239V18.4767C34.5493 18.2684 37.9547 17.3708 37.9547 16.2951C37.9547 15.2194 34.5522 14.3218 30.0239 14.1125V14.1125L30.0249 14.1135Z" fill="white"/>
<defs>
<linearGradient id="paint0_linear_1401_17581" x1="-26.2091" y1="6.07967" x2="-26.5992" y2="25.7115" gradientUnits="userSpaceOnUse">
<stop stop-color="#00FFA3"/>
<stop offset="1" stop-color="#DC1FFF"/>
</linearGradient>
<linearGradient id="paint1_linear_1401_17581" x1="-30.6464" y1="3.76302" x2="-31.0365" y2="23.3948" gradientUnits="userSpaceOnUse">
<stop stop-color="#00FFA3"/>
<stop offset="1" stop-color="#DC1FFF"/>
</linearGradient>
<linearGradient id="paint2_linear_1401_17581" x1="-28.4419" y1="4.91398" x2="-28.832" y2="24.5458" gradientUnits="userSpaceOnUse">
<stop stop-color="#00FFA3"/>
<stop offset="1" stop-color="#DC1FFF"/>
</linearGradient>
</defs>
</svg>
