<svg width="18" height="20" viewBox="0 0 18 20" fill="none" xmlns="http://www.w3.org/2000/svg">
<path d="M17.2344 5.38289C17.2344 5.37507 17.2344 5.37507 17.2266 5.36726C17.085 5.12679 16.883 4.9275 16.6406 4.78914L9.76563 0.921947C9.53161 0.791264 9.26803 0.722656 9 0.722656C8.73197 0.722656 8.46839 0.791264 8.23438 0.921947L1.35938 4.78914C1.11489 4.92815 0.912457 5.13059 0.773438 5.37507H0.765626C0.765132 5.38109 0.762334 5.38669 0.757813 5.3907C0.629481 5.62264 0.562268 5.88343 0.562501 6.14851V13.8516C0.563204 14.1295 0.637262 14.4023 0.777187 14.6423C0.917112 14.8824 1.11794 15.0813 1.35938 15.2188L8.23438 19.086C8.4507 19.2041 8.69126 19.2709 8.9375 19.2813H9.07031C9.31363 19.2682 9.55104 19.2015 9.76563 19.086L16.6406 15.2188C16.8821 15.0813 17.0829 14.8824 17.2228 14.6423C17.3627 14.4023 17.4368 14.1295 17.4375 13.8516V6.14851C17.4389 5.87981 17.3688 5.61558 17.2344 5.38289ZM9 2.6407L14.5938 5.78913L9.07031 8.92195L3.42188 5.77351L9 2.6407ZM2.4375 7.37507L8.13281 10.5469L8.07813 16.8438L2.4375 13.6719V7.37507ZM9.95312 16.8282L10.0078 10.5469L15.5625 7.3907V13.6719L9.95312 16.8282Z" fill="#09E787"/>
</svg>
