<svg width="46" height="46" viewBox="0 0 46 46" fill="none" xmlns="http://www.w3.org/2000/svg">
<rect width="46" height="46" rx="12" fill="#3DE19D"/>
<path d="M12.8568 31.6477C14.6784 31.6477 16.1551 30.1711 16.1551 28.3495C16.1551 26.5279 14.6784 25.0513 12.8568 25.0513C11.0353 25.0513 9.55859 26.5279 9.55859 28.3495C9.55859 30.1711 11.0353 31.6477 12.8568 31.6477Z" stroke="#1B1C1E" stroke-width="3" stroke-linecap="round" stroke-linejoin="round"/>
<path d="M31.2344 12.3293L35.9461 17.0411L31.2344 21.7529" stroke="#1B1C1E" stroke-width="3" stroke-linecap="round" stroke-linejoin="round"/>
<path d="M16.1562 28.3495H17.0986C18.5982 28.3495 20.0363 27.7538 21.0967 26.6934C22.157 25.6331 22.7527 24.1949 22.7527 22.6954C22.7527 21.1958 23.3484 19.7577 24.4088 18.6973C25.4691 17.637 26.9073 17.0413 28.4068 17.0413H35.9457" stroke="#1B1C1E" stroke-width="3" stroke-linecap="round" stroke-linejoin="round"/>
</svg>
