<svg width="32" height="32" viewBox="0 0 32 32" fill="none" xmlns="http://www.w3.org/2000/svg">
<path fill-rule="evenodd" clip-rule="evenodd" d="M16 32C7.2 32 0 24.8001 0 15.9203C0.08 7.12051 7.2 -0.0793381 16.08 0.000660272C24.88 0.0806586 32 7.20051 32 16.1603C31.92 24.8801 24.8 32 16 32Z" fill="#E42D04"/>
<path fill-rule="evenodd" clip-rule="evenodd" d="M16.3123 27.7333C17.4737 27.7333 20.4527 27.2098 23.0783 25.1156C26.0974 22.7075 26.3818 21.3646 26.5653 20.4986C26.5813 20.4233 26.5964 20.3515 26.6127 20.283C26.6433 20.1532 26.6612 19.977 26.6673 19.7676C26.0331 19.6649 25.1443 19.6061 24.107 19.7292C22.4104 19.9306 21.0775 21.0884 20.623 21.6421C20.3706 20.3836 19.1386 17.8666 16.2302 17.8666C13.3219 17.8666 11.7533 20.3836 11.3325 21.6421C11.0632 21.1723 10.0601 20.1319 8.20204 19.7292C7.05316 19.4802 6.051 19.6033 5.33398 19.8128C5.39059 20.7486 5.6982 21.7468 6.51689 22.8C7.92561 24.6122 10.1114 25.7313 11.0866 26.2306C11.195 26.286 11.2884 26.3338 11.3641 26.3741C12.1215 26.7768 14.1917 27.7333 16.3123 27.7333Z" fill="white"/>
<path fill-rule="evenodd" clip-rule="evenodd" d="M26.6649 19.7308C26.0311 19.6284 25.1427 19.5698 24.106 19.6925C22.4105 19.8933 21.0783 21.0478 20.6241 21.6C20.3718 20.3451 19.1405 17.8353 16.2339 17.8353C13.3272 17.8353 11.7596 20.3451 11.339 21.6C11.0699 21.1315 10.0674 20.0941 8.21035 19.6925C7.06214 19.4443 6.06057 19.567 5.34396 19.776C5.29237 18.9249 5.44937 18.1257 5.61785 17.3835C5.90044 16.1387 6.61028 14.4889 6.92988 13.8196C6.64392 13.1336 5.98118 11.1893 5.61785 8.90038C5.25452 6.61144 5.87016 5.06875 6.2234 4.58352C6.79531 4.73411 8.16117 5.20595 9.04931 5.88862C9.93745 6.57129 11.3033 8.08051 11.8752 8.7498C12.6153 8.54901 14.5194 8.14744 16.215 8.14744C17.9106 8.14744 19.5455 8.54901 20.1511 8.7498C20.6557 8.14744 21.8971 6.73191 22.8256 5.88862C23.7541 5.04533 25.2646 4.63372 25.9038 4.53333C26.072 4.75084 26.4286 5.38666 26.5094 6.1898C26.6103 7.19372 26.3075 9.30195 25.9038 10.7074C25.5809 11.8318 25.1636 13.1503 24.9955 13.669C25.0796 13.8531 25.3689 14.4521 25.8534 15.3757C26.3671 16.3551 26.6991 18.5626 26.6649 19.7308Z" fill="#FFAA35"/>
<path d="M18.384 24.1979C18.264 24.3584 18.134 24.6662 18.084 24.8V24.7498L17.934 23.5456C17.6507 23.579 16.914 23.6459 16.234 23.6459C15.554 23.6459 14.7507 23.579 14.434 23.5456L14.384 24.7498C14.3507 24.6997 14.264 24.5592 14.184 24.3986C14.084 24.1979 13.734 23.8968 13.734 23.7463C13.734 23.6258 13.5673 23.3616 13.484 23.2445L13.334 23.0438H14.234L14.434 23.1943C14.6007 23.1776 15.024 23.1642 15.384 23.2445C15.744 23.3248 15.9673 23.0104 16.034 22.8431V22.0402C15.884 21.9399 15.514 21.7091 15.234 21.5886C14.884 21.4381 14.534 20.836 14.634 20.2338C14.734 19.6317 15.034 19.431 15.234 19.4812C15.434 19.5313 16.734 19.431 16.934 19.4812C17.134 19.5313 17.484 19.6317 17.634 19.8826C17.784 20.1335 17.684 21.137 17.384 21.4883C17.144 21.7693 16.684 21.9733 16.484 22.0402V22.8431C16.484 22.9434 16.834 23.1943 16.884 23.2445C16.934 23.2947 17.684 23.2445 17.834 23.2445C17.954 23.2445 18.0507 23.1441 18.084 23.094H18.934V23.2947C18.934 23.395 18.784 23.8466 18.734 23.8968C18.684 23.947 18.534 23.9972 18.384 24.1979Z" fill="black"/>
<path d="M16.7758 23.8667L16.2678 24.2667L15.8615 23.8667L15.5059 24.0444L15.2012 23.7333H17.3345L17.0297 24.0889L16.7758 23.8667Z" fill="black"/>
<path d="M11.3097 15.6616C10.7146 15.4154 10.0699 15.2513 9.82196 15.2C9.75584 15.2342 9.6236 15.3436 9.6236 15.5077C9.6236 15.7128 9.57401 15.918 9.6236 16.3282C9.67319 16.7385 10.0699 16.9949 10.7642 17.3026C11.4584 17.6103 12.6486 17.8667 13.4916 17.8667C14.3346 17.8667 13.5412 16.9949 13.2437 16.7898C12.9461 16.5846 12.0535 15.9692 11.3097 15.6616Z" fill="black"/>
<path d="M12.123 14.3006C11.6783 14.3801 11.0618 14.4 10.8091 14.4C10.5564 14.3669 10.0207 14.2111 9.89946 13.8532C9.74785 13.4059 10.1521 12.9089 10.6575 12.6603C11.1628 12.4118 11.8198 12.5112 12.2241 13.1077C12.6284 13.7041 12.6789 14.2012 12.123 14.3006Z" fill="white"/>
<path d="M21.2265 15.3949C21.8216 15.1487 22.4663 14.9846 22.7142 14.9333C22.7804 14.9675 22.9126 15.0769 22.9126 15.241C22.9126 15.4462 22.9622 15.6513 22.9126 16.0616C22.863 16.4718 22.4663 16.7282 21.772 17.0359C21.0778 17.3436 19.8876 17.6 19.0446 17.6C18.2016 17.6 18.995 16.7282 19.2925 16.5231C19.5901 16.318 20.4827 15.7026 21.2265 15.3949Z" fill="black"/>
<path d="M19.612 14.3006C20.0567 14.3801 20.6733 14.4 20.9259 14.4C21.1786 14.3668 21.7143 14.2111 21.8356 13.8532C21.9872 13.4059 21.5829 12.9089 21.0775 12.6603C20.5722 12.4118 19.9152 12.5112 19.5109 13.1077C19.1067 13.7041 19.0561 14.2012 19.612 14.3006Z" fill="white"/>
<path d="M8.64819 10.5798C8.2848 10.9767 7.58829 11.8697 7.28546 12.2666C7.08357 11.8367 6.63942 10.689 6.47791 9.53796C6.3164 8.38695 6.44427 6.61082 6.52838 5.86664C6.7471 5.88318 7.3864 6.06509 8.19395 6.66044C9.00149 7.25579 10.1792 8.3638 10.6671 8.84338C10.1455 9.25682 9.01159 10.1829 8.64819 10.5798Z" fill="#FF8C30"/>
<path fill-rule="evenodd" clip-rule="evenodd" d="M6.40039 6.81168C7.19411 7.1429 8.2389 7.64922 8.67675 8.10684C9.12091 8.57104 9.51164 9.18555 9.74361 9.59997C10.0919 9.31123 10.4379 9.03383 10.6671 8.85357C10.1737 8.37234 8.98295 7.26054 8.16642 6.66315C7.34988 6.06577 6.70346 5.88324 6.48231 5.86664C6.4559 6.09844 6.42524 6.43004 6.40039 6.81168Z" fill="#FF9A32"/>
<path d="M23.0853 10.5798C23.4487 10.9767 24.1452 11.8697 24.448 12.2666C24.6499 11.8367 25.094 10.689 25.2556 9.53796C25.4171 8.38695 25.2892 6.61082 25.2051 5.86664C24.9863 5.88318 24.3471 6.06509 23.5395 6.66044C22.732 7.25579 21.5543 8.3638 21.0664 8.84338C21.588 9.25682 22.7219 10.1829 23.0853 10.5798Z" fill="#FF8C30"/>
<path fill-rule="evenodd" clip-rule="evenodd" d="M25.3331 6.81168C24.5393 7.1429 23.4946 7.64922 23.0567 8.10684C22.6125 8.57104 22.2218 9.18555 21.9899 9.59997C21.6417 9.31123 21.2955 9.03383 21.0664 8.85357C21.5597 8.37234 22.7505 7.26054 23.567 6.66315C24.3836 6.06577 25.0299 5.88324 25.2511 5.86664C25.2775 6.09844 25.3082 6.43004 25.3331 6.81168Z" fill="#FF9A32"/>
</svg>
