<svg width="32" height="32" viewBox="0 0 32 32" fill="none" xmlns="http://www.w3.org/2000/svg">
<path d="M31.5177 19.8705C29.3808 28.442 20.6992 33.6584 12.1267 31.521C3.55778 29.3841 -1.65868 20.702 0.479177 12.1312C2.61515 3.5587 11.2967 -1.65814 19.8666 0.478775C28.4385 2.61569 33.6546 11.2987 31.5175 19.8706L31.5176 19.8705H31.5177Z" fill="#50AF95"/>
<path fill-rule="evenodd" clip-rule="evenodd" d="M18.0239 17.8139C17.9108 17.8224 17.3262 17.8573 16.0224 17.8573C14.9853 17.8573 14.249 17.8262 13.9907 17.8139C9.98288 17.6376 6.99141 16.94 6.99141 16.1047C6.99141 15.2693 9.98288 14.5726 13.9907 14.3935V17.1191C14.2528 17.1379 15.0032 17.1823 16.0403 17.1823C17.2848 17.1823 17.9079 17.1304 18.0201 17.12V14.3954C22.0194 14.5736 25.0043 15.2712 25.0043 16.1047C25.0043 16.9381 22.0204 17.6357 18.0201 17.813L18.0239 17.8139ZM18.0239 14.1135V11.6745H23.6052V7.9552H8.40937V11.6745H13.9897V14.1125C9.45397 14.3209 6.04297 15.2194 6.04297 16.296C6.04297 17.3727 9.45397 18.2702 13.9897 18.4795V26.2952H18.023V18.4767C22.5483 18.2684 25.9537 17.3708 25.9537 16.2951C25.9537 15.2194 22.5512 14.3218 18.023 14.1125L18.0239 14.1135Z" fill="white"/>
</svg>
