<svg width="32" height="32" viewBox="0 0 32 32" fill="none" xmlns="http://www.w3.org/2000/svg">
<path d="M31.5211 19.8705C29.3842 28.442 20.7027 33.6584 12.1301 31.521C3.56119 29.3841 -1.65526 20.702 0.482594 12.1312C2.61857 3.5587 11.3001 -1.65814 19.87 0.478775C28.4419 2.61569 33.658 11.2987 31.5209 19.8706L31.521 19.8705H31.5211Z" fill="#F7931A"/>
<path fill-rule="evenodd" clip-rule="evenodd" d="M23.0568 13.7204C23.3753 11.5911 21.7542 10.4466 19.5375 9.68305L20.2567 6.79879L18.5009 6.36131L17.8009 9.16963C17.3393 9.05451 16.8653 8.94603 16.3942 8.8385L17.0993 6.01165L15.3447 5.57416L14.6252 8.45748C14.2432 8.37051 13.868 8.28456 13.5041 8.194L13.5061 8.18493L11.0849 7.58031L10.6179 9.45555C10.6179 9.45555 11.9205 9.75414 11.893 9.77252C12.604 9.94997 12.7326 10.4206 12.7112 10.7937L11.8921 14.0795C11.941 14.0919 12.0045 14.1099 12.0746 14.1381L12.0236 14.1254C11.9803 14.1145 11.9353 14.1033 11.889 14.0922L10.7409 18.6952C10.654 18.9112 10.4334 19.2354 9.93636 19.1123C9.95396 19.1378 8.66026 18.7938 8.66026 18.7938L7.78857 20.8036L10.0734 21.3731C10.3236 21.4359 10.5708 21.5003 10.8156 21.5641C10.9866 21.6087 11.1564 21.653 11.3252 21.6961L10.5986 24.6135L12.3523 25.051L13.0718 22.1646C13.5509 22.2946 14.0158 22.4146 14.471 22.5277L13.7539 25.4005L15.5098 25.8379L16.2362 22.9261C19.2301 23.4927 21.4813 23.2642 22.4288 20.5563C23.1924 18.376 22.3908 17.1185 20.8158 16.2984C21.963 16.0338 22.8271 15.2793 23.0575 13.7206L23.0569 13.7202L23.0568 13.7204ZM19.0454 19.3455C18.5476 21.3458 15.4165 20.5188 13.984 20.1404C13.8551 20.1064 13.74 20.076 13.6418 20.0516L14.6059 16.1866C14.7256 16.2165 14.8719 16.2493 15.0376 16.2865L15.0376 16.2865C16.5194 16.6191 19.5554 17.3004 19.0455 19.3455H19.0454ZM15.3349 14.4927C16.5292 14.8115 19.1346 15.5068 19.5884 13.6888H19.5885C20.0519 11.8294 17.5198 11.2688 16.2832 10.995C16.1441 10.9642 16.0213 10.937 15.9211 10.9121L15.047 14.4174C15.1295 14.4379 15.2264 14.4638 15.3349 14.4927Z" fill="white"/>
</svg>
