<svg width="32" height="32" viewBox="0 0 32 32" fill="none" xmlns="http://www.w3.org/2000/svg">
<circle cx="16" cy="16" r="16" fill="white"/>
<path d="M32.0002 15.9984C32.0002 24.8338 24.8383 31.9968 16.0023 31.9968C7.16631 31.9968 0.00439453 24.8338 0.00439453 15.9984C0.00439453 7.16303 7.16648 0 16.0023 0C24.8381 0 32.0002 7.16235 32.0002 15.9984Z" fill="white"/>
<path d="M16.0021 0C7.16924 0 -0.00537197 7.17316 0.00587257 15.9979C0.00808741 17.7635 0.289627 19.4618 0.818035 21.0505H5.60446V7.59219L16.0021 17.9897L26.3992 7.59219V21.0507H31.1866C31.7158 19.4622 31.9959 17.7638 31.9991 15.9982C32.0141 7.16422 24.8359 0.00212965 16.0021 0.00212965V0Z" fill="#F26822"/>
<path d="M13.611 20.38L9.07337 15.8422V24.3108H5.60418L2.33057 24.3114C5.13855 28.9183 10.2132 32 16.0021 32C21.791 32 26.866 28.9176 29.6745 24.3108H22.9299V15.8422L18.392 20.38L16.0016 22.7704L13.6111 20.38H13.611Z" fill="#4D4D4D"/>
</svg>
