<svg width="32" height="32" viewBox="0 0 32 32" fill="none" xmlns="http://www.w3.org/2000/svg">
<path fill-rule="evenodd" clip-rule="evenodd" d="M16 0C24.8384 0 32 7.1616 32 16C32 24.8384 24.8384 32 16 32C7.1616 32 0 24.8384 0 16C0 7.1616 7.1616 0 16 0Z" fill="#2E3148"/>
<path fill-rule="evenodd" clip-rule="evenodd" d="M15.9681 6.77124C21.0689 6.77124 25.1969 10.9056 25.1969 16C25.1969 21.0944 21.0625 25.2288 15.9681 25.2288C10.8673 25.2288 6.73926 21.0944 6.73926 16C6.73926 10.9056 10.8737 6.77124 15.9681 6.77124Z" fill="#1B1E36"/>
<path fill-rule="evenodd" clip-rule="evenodd" d="M16.0003 2.33594C16.1091 2.33594 16.2499 2.38714 16.4099 2.53434C16.5763 2.68794 16.7491 2.92474 16.9283 3.26394C17.2803 3.93594 17.6067 4.92794 17.8819 6.18234C18.4323 8.68474 18.7779 12.1535 18.7779 15.9935C18.7779 19.8335 18.4323 23.3087 17.8819 25.8047C17.6067 27.0591 17.2803 28.0511 16.9283 28.7231C16.7555 29.0623 16.5763 29.2991 16.4099 29.4527C16.2435 29.6063 16.1091 29.6511 16.0003 29.6511C15.8915 29.6511 15.7507 29.5999 15.5907 29.4527C15.4243 29.2991 15.2515 29.0623 15.0723 28.7231C14.7203 28.0511 14.3939 27.0591 14.1187 25.8047C13.5683 23.3023 13.2227 19.8335 13.2227 15.9935C13.2227 12.1535 13.5683 8.67834 14.1187 6.18234C14.3939 4.92794 14.7203 3.93594 15.0723 3.26394C15.2451 2.92474 15.4243 2.68794 15.5907 2.53434C15.7571 2.38714 15.8915 2.33594 16.0003 2.33594V2.33594Z" stroke="#6F7390" stroke-width="0.62592"/>
<path fill-rule="evenodd" clip-rule="evenodd" d="M27.9173 9.15155C27.9749 9.24755 28.0005 9.39475 27.9493 9.61235C27.8981 9.83635 27.7765 10.1052 27.5781 10.4252C27.1685 11.0652 26.4709 11.8524 25.5237 12.7228C23.6293 14.4572 20.7877 16.4988 17.4533 18.4252C14.1125 20.3516 10.9253 21.7916 8.47408 22.5596C7.24528 22.9436 6.22128 23.1612 5.45968 23.1868C5.08208 23.1996 4.78128 23.1676 4.56368 23.1036C4.35248 23.0396 4.23728 22.9436 4.17968 22.8476C4.12208 22.7516 4.09648 22.6044 4.14768 22.3868C4.19888 22.1628 4.32048 21.894 4.51888 21.574C4.92848 20.934 5.62608 20.1468 6.57328 19.2764C8.46768 17.542 11.3093 15.5004 14.6437 13.574C17.9781 11.6476 21.1717 10.2076 23.6229 9.43955C24.8517 9.05555 25.8757 8.83795 26.6373 8.81235C27.0149 8.79955 27.3157 8.83155 27.5333 8.89555C27.7445 8.95955 27.8597 9.05555 27.9173 9.15155V9.15155Z" stroke="#6F7390" stroke-width="0.62592"/>
<path d="M27.5333 23.1036C27.3157 23.174 27.0213 23.1996 26.6373 23.1868M27.5333 23.1036L26.6373 23.1868M26.6373 23.1932C25.8757 23.1612 24.8517 22.95 23.6229 22.566M26.6373 23.1932L23.6229 22.566M23.6229 22.5596C21.1717 21.7916 17.9845 20.3516 14.6437 18.4252M23.6229 22.5596L14.6437 18.4252M14.6501 18.4252C11.3093 16.4988 8.47408 14.4572 6.57968 12.7228M14.6501 18.4252L6.57968 12.7228M6.57328 12.7228C5.62608 11.8524 4.92848 11.0716 4.51888 10.4252M6.57328 12.7228L4.51888 10.4252M4.51888 10.4252C4.31408 10.1052 4.19248 9.82995 4.14768 9.61235M4.51888 10.4252L4.14768 9.61235M27.5333 23.1036C27.7445 23.0396 27.8597 22.9436 27.9173 22.8476C27.9749 22.7516 28.0005 22.6044 27.9493 22.3868C27.8981 22.1628 27.7765 21.894 27.5781 21.574C27.1685 20.934 26.4709 20.1468 25.5237 19.2764C23.6293 17.542 20.7877 15.5004 17.4533 13.574C14.1189 11.6476 10.9253 10.2076 8.47408 9.43955C7.24528 9.05555 6.22128 8.83795 5.45968 8.81235C5.08208 8.79955 4.78128 8.83155 4.56368 8.89555C4.35248 8.95955 4.23728 9.05555 4.17968 9.15155L27.5333 23.1036ZM4.14768 9.61235C4.09648 9.39475 4.12208 9.24755 4.17968 9.15155L4.14768 9.61235Z" stroke="#6F7390" stroke-width="0.62592"/>
<path fill-rule="evenodd" clip-rule="evenodd" d="M7.09107 12.077C7.63507 12.077 8.07667 12.5186 8.07667 13.0626C8.07667 13.6066 7.63507 14.0482 7.09107 14.0482C6.54707 14.0482 6.10547 13.6066 6.10547 13.0626C6.10547 12.5186 6.54707 12.077 7.09107 12.077Z" fill="#B7B9C8"/>
<path fill-rule="evenodd" clip-rule="evenodd" d="M22.7522 8.70386C23.2962 8.70386 23.7378 9.14546 23.7378 9.68946C23.7378 10.2335 23.2962 10.6751 22.7522 10.6751C22.2082 10.6751 21.7666 10.2335 21.7666 9.68946C21.7666 9.14546 22.2082 8.70386 22.7522 8.70386Z" fill="#B7B9C8"/>
<path fill-rule="evenodd" clip-rule="evenodd" d="M14.0608 24.1726C14.6048 24.1726 15.0464 24.6142 15.0464 25.1582C15.0464 25.7022 14.6048 26.1438 14.0608 26.1438C13.5168 26.1438 13.0752 25.7022 13.0752 25.1582C13.0752 24.6142 13.5168 24.1726 14.0608 24.1726Z" fill="#B7B9C8"/>
<path fill-rule="evenodd" clip-rule="evenodd" d="M15.9936 14.323C16.9152 14.323 17.664 15.0718 17.664 15.9934C17.664 16.915 16.9152 17.6638 15.9936 17.6638C15.072 17.6638 14.3232 16.915 14.3232 15.9934C14.3232 15.0718 15.072 14.323 15.9936 14.323Z" fill="#B7B9C8"/>
</svg>
