<svg width="32" height="32" viewBox="0 0 32 32" fill="none" xmlns="http://www.w3.org/2000/svg">
<circle cx="16" cy="16" r="16" fill="white"/>
<path d="M9.91844 19.7905C10.0293 19.6797 10.1818 19.615 10.3435 19.615H25.0068C25.2747 19.615 25.4087 19.9384 25.2193 20.1278L22.3227 23.0244C22.2118 23.1353 22.0594 23.2 21.8977 23.2H7.23433C6.96638 23.2 6.8324 22.8766 7.02181 22.6872L9.91844 19.7905Z" fill="url(#paint0_linear_1070_24048)"/>
<path d="M9.91844 8.97554C10.0339 8.86467 10.1864 8.79999 10.3435 8.79999H25.0068C25.2747 8.79999 25.4087 9.12338 25.2193 9.31279L22.3227 12.2094C22.2118 12.3203 22.0594 12.385 21.8977 12.385H7.23433C6.96638 12.385 6.8324 12.0616 7.02181 11.8722L9.91844 8.97554Z" fill="url(#paint1_linear_1070_24048)"/>
<path d="M22.3227 14.3484C22.2118 14.2375 22.0594 14.1729 21.8977 14.1729H7.23433C6.96638 14.1729 6.8324 14.4962 7.02181 14.6857L9.91844 17.5823C10.0293 17.6932 10.1818 17.7578 10.3435 17.7578H25.0068C25.2747 17.7578 25.4087 17.4344 25.2193 17.245L22.3227 14.3484Z" fill="url(#paint2_linear_1070_24048)"/>
<defs>
<linearGradient id="paint0_linear_1070_24048" x1="-26.2086" y1="6.07964" x2="-26.5987" y2="25.7114" gradientUnits="userSpaceOnUse">
<stop stop-color="#00FFA3"/>
<stop offset="1" stop-color="#DC1FFF"/>
</linearGradient>
<linearGradient id="paint1_linear_1070_24048" x1="-30.6459" y1="3.76299" x2="-31.0361" y2="23.3948" gradientUnits="userSpaceOnUse">
<stop stop-color="#00FFA3"/>
<stop offset="1" stop-color="#DC1FFF"/>
</linearGradient>
<linearGradient id="paint2_linear_1070_24048" x1="-28.4414" y1="4.91395" x2="-28.8315" y2="24.5457" gradientUnits="userSpaceOnUse">
<stop stop-color="#00FFA3"/>
<stop offset="1" stop-color="#DC1FFF"/>
</linearGradient>
</defs>
</svg>
