<svg width="32" height="32" viewBox="0 0 32 32" fill="none" xmlns="http://www.w3.org/2000/svg">
<circle cx="16" cy="16" r="16" fill="black"/>
<path d="M24.1624 8.89625L21.4479 10.2793L8.33945 16.9561C8.29512 16.618 8.27282 16.2774 8.27268 15.9364C8.27633 13.1683 9.74519 10.6089 12.1335 9.20936C14.5218 7.8098 17.4725 7.77922 19.8893 9.12899L21.4431 8.33731L21.6749 8.21904C18.7726 6.11256 14.9341 5.81194 11.7394 7.44093C8.54459 9.06991 6.53349 12.3532 6.53386 15.9393C6.53386 16.1822 6.54308 16.4242 6.56152 16.6652C6.61433 17.363 6.2427 18.0243 5.61914 18.342L4.7998 18.7598V20.7084L7.21203 19.4789L7.99321 19.0802L8.76295 18.6882L22.582 11.6471L24.1348 10.8564L27.3444 9.22056V7.27285L24.1624 8.89625Z" fill="white"/>
<path d="M27.3444 11.1702L9.54794 20.2315L7.99512 21.0241L4.7998 22.6523V24.5991L7.97318 22.9823L10.6878 21.5993L23.8095 14.913C23.8539 15.2533 23.8762 15.5961 23.8763 15.9393C23.8746 18.7108 22.404 21.2737 20.0122 22.6737C17.6203 24.0738 14.6656 24.1012 12.2482 22.7458L12.1528 22.7963L10.4684 23.6548C13.3699 25.7613 17.2077 26.0626 20.4025 24.4348C23.5973 22.8069 25.6092 19.5249 25.6103 15.9393C25.6103 15.6942 25.6008 15.449 25.5827 15.2068C25.53 14.5092 25.9011 13.8481 26.5241 13.5299L27.3444 13.1122V11.1702Z" fill="white"/>
</svg>
