<svg width="32" height="32" viewBox="0 0 32 32" fill="none" xmlns="http://www.w3.org/2000/svg">
<g clip-path="url(#clip0_1070_24043)">
<circle cx="16" cy="16" r="16" fill="#EDF0F4"/>
<path fill-rule="evenodd" clip-rule="evenodd" d="M21.5687 10.3666C21.4958 10.2938 21.4521 10.221 21.4521 10.119C21.4521 10.017 21.4958 9.9442 21.5687 9.87137C21.7144 9.74027 21.9474 9.74027 22.1077 9.87137C22.1805 9.9442 22.2242 10.017 22.2242 10.119C22.2242 10.221 22.1805 10.2938 22.1077 10.3666C22.0348 10.4249 21.9329 10.4686 21.8455 10.4686C21.7435 10.4832 21.6415 10.454 21.5687 10.3666Z" fill="#0D022B"/>
<path fill-rule="evenodd" clip-rule="evenodd" d="M20.6361 11.3718C20.5779 11.2989 20.5342 11.2261 20.5342 11.1241C20.5342 11.0222 20.5779 10.9493 20.6361 10.8765C20.7672 10.7454 21.0003 10.7454 21.1314 10.8765C21.1897 10.9493 21.2334 11.0222 21.2334 11.1241C21.2334 11.2261 21.1897 11.2989 21.1314 11.3718C21.0586 11.43 20.9858 11.4737 20.8838 11.4737C20.7818 11.4737 20.709 11.43 20.6361 11.3718Z" fill="#0D022B"/>
<path fill-rule="evenodd" clip-rule="evenodd" d="M19.6166 12.3332C19.5583 12.2749 19.5146 12.1875 19.5146 12.0855C19.5146 11.9836 19.5583 11.9107 19.6166 11.8379C19.7477 11.7068 19.9808 11.7068 20.1119 11.8379C20.1702 11.8962 20.2139 11.9836 20.2139 12.0855C20.2139 12.1875 20.1702 12.2603 20.1119 12.3332C20.0391 12.406 19.9662 12.4351 19.8643 12.4351C19.7623 12.4351 19.6749 12.3914 19.6166 12.3332Z" fill="#0D022B"/>
<path fill-rule="evenodd" clip-rule="evenodd" d="M18.6405 13.3091C18.5676 13.2509 18.5239 13.1635 18.5239 13.0615C18.5239 12.9595 18.5676 12.8867 18.6405 12.8139C18.7861 12.6828 19.0192 12.6828 19.1794 12.8139C19.2523 12.8721 19.296 12.9595 19.296 13.0615C19.296 13.1635 19.2523 13.2509 19.1794 13.3091C19.1066 13.382 19.0046 13.4111 18.9172 13.4111C18.8153 13.4111 18.7279 13.3965 18.6405 13.3091Z" fill="#0D022B"/>
<path fill-rule="evenodd" clip-rule="evenodd" d="M17.7084 14.2851C17.6356 14.2269 17.6064 14.1395 17.6064 14.0375C17.6064 13.9355 17.6501 13.8627 17.7084 13.7899C17.8395 13.6588 18.0726 13.6588 18.2037 13.7899C18.2765 13.8481 18.3057 13.9355 18.3057 14.0375C18.3057 14.1395 18.262 14.2269 18.2037 14.2851C18.1454 14.358 18.058 14.3871 17.956 14.3871C17.8686 14.4017 17.7667 14.3725 17.7084 14.2851Z" fill="#0D022B"/>
<path fill-rule="evenodd" clip-rule="evenodd" d="M16.5869 15.0135C16.5869 14.9115 16.6306 14.8387 16.6889 14.7658C16.82 14.6347 17.0531 14.6347 17.1842 14.7658C17.257 14.8387 17.2861 14.9115 17.2861 15.0135C17.2861 15.1154 17.2424 15.1883 17.1842 15.2611C17.1259 15.3194 17.0385 15.3631 16.9365 15.3631C16.8346 15.3631 16.7617 15.3194 16.6889 15.2611C16.616 15.2028 16.5869 15.1154 16.5869 15.0135Z" fill="#0D022B"/>
<path fill-rule="evenodd" clip-rule="evenodd" d="M14.7655 17.1693C14.7073 17.1111 14.6636 17.0237 14.6636 16.9217C14.6636 16.8197 14.7073 16.7469 14.7655 16.6741C14.8966 16.543 15.1297 16.543 15.2608 16.6741C15.3336 16.7469 15.3628 16.8197 15.3628 16.9217C15.3628 17.0237 15.3191 17.0965 15.2608 17.1693C15.2025 17.2422 15.1151 17.2713 15.0132 17.2713C14.9258 17.2859 14.8384 17.2567 14.7655 17.1693Z" fill="#0D022B"/>
<path fill-rule="evenodd" clip-rule="evenodd" d="M13.7606 18.1453C13.6877 18.0871 13.644 17.9997 13.644 17.8977C13.644 17.7957 13.6877 17.7229 13.7606 17.6501C13.9062 17.519 14.1393 17.519 14.2996 17.6501C14.3724 17.7229 14.4161 17.7957 14.4161 17.8977C14.4161 17.9997 14.3724 18.0725 14.2996 18.1453C14.2267 18.2182 14.1247 18.2473 14.0373 18.2473C13.9208 18.2619 13.8334 18.2182 13.7606 18.1453Z" fill="#0D022B"/>
<path fill-rule="evenodd" clip-rule="evenodd" d="M12.8139 19.1359C12.7556 19.0776 12.7119 18.9902 12.7119 18.8883C12.7119 18.7863 12.7556 18.6989 12.8139 18.6406C12.945 18.5095 13.1781 18.5095 13.3092 18.6406C13.3674 18.6989 13.4111 18.7863 13.4111 18.8883C13.4111 18.9902 13.3674 19.0631 13.3092 19.1359C13.2363 19.2087 13.1635 19.2379 13.0615 19.2379C12.9596 19.2379 12.9013 19.1942 12.8139 19.1359Z" fill="#0D022B"/>
<path fill-rule="evenodd" clip-rule="evenodd" d="M11.8378 20.1118C11.765 20.0536 11.7358 19.9662 11.7358 19.8642C11.7358 19.7622 11.7795 19.6894 11.8378 19.6166C11.9689 19.4855 12.202 19.4855 12.3331 19.6166C12.3913 19.6894 12.435 19.7622 12.435 19.8642C12.435 19.9662 12.3913 20.0536 12.3331 20.1118C12.2602 20.1847 12.1874 20.2138 12.0854 20.2138C11.998 20.2138 11.8961 20.1847 11.8378 20.1118Z" fill="#0D022B"/>
<path fill-rule="evenodd" clip-rule="evenodd" d="M10.8328 21.0878C10.76 21.0296 10.7163 20.9422 10.7163 20.8402C10.7163 20.7382 10.76 20.6654 10.8328 20.5926C10.9785 20.4615 11.2116 20.4615 11.3427 20.5926C11.4155 20.6654 11.4592 20.7382 11.4592 20.8402C11.4592 20.9422 11.4155 21.0296 11.3427 21.0878C11.2698 21.1461 11.1679 21.1898 11.0805 21.1898C10.9785 21.1898 10.8911 21.1607 10.8328 21.0878Z" fill="#0D022B"/>
<path fill-rule="evenodd" clip-rule="evenodd" d="M9.8715 22.0638C9.79866 21.991 9.76953 21.9181 9.76953 21.8162C9.76953 21.7142 9.81323 21.6414 9.8715 21.5685C10.0026 21.4374 10.2357 21.4374 10.3668 21.5685C10.4396 21.6414 10.4687 21.7142 10.4687 21.8162C10.4687 21.9181 10.425 21.991 10.3668 22.0638C10.3085 22.1221 10.2211 22.1658 10.1191 22.1658C10.0463 22.1803 9.9589 22.1366 9.8715 22.0638Z" fill="#0D022B"/>
<path fill-rule="evenodd" clip-rule="evenodd" d="M10.3668 10.3666C10.425 10.2938 10.4687 10.221 10.4687 10.119C10.4687 10.017 10.425 9.9442 10.3668 9.87137C10.2357 9.74027 10.0026 9.74027 9.8715 9.87137C9.79866 9.9442 9.76953 10.017 9.76953 10.119C9.76953 10.221 9.81323 10.2938 9.8715 10.3666C9.92977 10.4249 10.0172 10.4686 10.1191 10.4686C10.2211 10.4832 10.3085 10.454 10.3668 10.3666Z" fill="#0D022B"/>
<path fill-rule="evenodd" clip-rule="evenodd" d="M11.3425 11.3718C11.4154 11.2989 11.4591 11.2261 11.4591 11.1241C11.4591 11.0222 11.4154 10.9493 11.3425 10.8765C11.1969 10.7454 10.9638 10.7454 10.8035 10.8765C10.7307 10.9493 10.687 11.0222 10.687 11.1241C10.687 11.2261 10.7307 11.2989 10.8035 11.3718C10.8764 11.43 10.9783 11.4737 11.0657 11.4737C11.1677 11.4592 11.2697 11.43 11.3425 11.3718Z" fill="#0D022B"/>
<path fill-rule="evenodd" clip-rule="evenodd" d="M12.3331 12.3332C12.3913 12.2749 12.435 12.1875 12.435 12.0855C12.435 11.9836 12.3913 11.9107 12.3331 11.8379C12.202 11.7068 11.9689 11.7068 11.8378 11.8379C11.7795 11.8962 11.7358 11.9836 11.7358 12.0855C11.7358 12.1875 11.7795 12.2603 11.8378 12.3332C11.9106 12.406 11.9835 12.4351 12.0854 12.4351C12.1728 12.4351 12.2602 12.3914 12.3331 12.3332Z" fill="#0D022B"/>
<path fill-rule="evenodd" clip-rule="evenodd" d="M13.3092 13.3091C13.3674 13.2509 13.4111 13.1635 13.4111 13.0615C13.4111 12.9595 13.3674 12.8867 13.3092 12.8139C13.1781 12.6828 12.945 12.6828 12.8139 12.8139C12.7556 12.8721 12.7119 12.9595 12.7119 13.0615C12.7119 13.1635 12.7556 13.2509 12.8139 13.3091C12.8867 13.382 12.9596 13.4111 13.0615 13.4111C13.1489 13.4111 13.2363 13.3965 13.3092 13.3091Z" fill="#0D022B"/>
<path fill-rule="evenodd" clip-rule="evenodd" d="M14.2704 14.2851C14.3433 14.2269 14.387 14.1395 14.387 14.0375C14.387 13.9355 14.3433 13.8627 14.2704 13.7899C14.1393 13.6588 13.8917 13.6588 13.7606 13.7899C13.6877 13.8481 13.644 13.9355 13.644 14.0375C13.644 14.1395 13.6877 14.2269 13.7606 14.2851C13.8334 14.358 13.9354 14.3871 14.0228 14.3871C14.1102 14.4017 14.2121 14.3725 14.2704 14.2851Z" fill="#0D022B"/>
<path fill-rule="evenodd" clip-rule="evenodd" d="M15.3628 15.0135C15.3628 14.9115 15.3191 14.8387 15.2608 14.7658C15.1297 14.6347 14.8966 14.6347 14.7655 14.7658C14.6927 14.8387 14.6636 14.9115 14.6636 15.0135C14.6636 15.1154 14.7073 15.1883 14.7655 15.2611C14.8238 15.3194 14.9112 15.3631 15.0132 15.3631C15.1151 15.3631 15.188 15.3194 15.2608 15.2611C15.3336 15.2028 15.3628 15.1154 15.3628 15.0135Z" fill="#0D022B"/>
<path fill-rule="evenodd" clip-rule="evenodd" d="M16.2369 16.2516C16.3097 16.1788 16.3389 16.106 16.3389 16.004C16.3389 15.902 16.2952 15.8292 16.2369 15.7564C16.1058 15.6253 15.8727 15.6253 15.7416 15.7564C15.6688 15.8292 15.6396 15.902 15.6396 16.004C15.6396 16.106 15.6833 16.1788 15.7416 16.2516C15.7999 16.3099 15.8873 16.3536 15.9893 16.3536C16.0912 16.3536 16.1786 16.3099 16.2369 16.2516Z" fill="#0D022B"/>
<path fill-rule="evenodd" clip-rule="evenodd" d="M17.2133 17.1693C17.2861 17.1111 17.3298 17.0237 17.3298 16.9217C17.3298 16.8197 17.2861 16.7469 17.2133 16.6741C17.0676 16.543 16.8346 16.543 16.7034 16.6741C16.6306 16.7469 16.5869 16.8197 16.5869 16.9217C16.5869 17.0237 16.6306 17.0965 16.7034 17.1693C16.7763 17.2422 16.8783 17.2713 16.9657 17.2713C17.0385 17.2859 17.1405 17.2567 17.2133 17.1693Z" fill="#0D022B"/>
<path fill-rule="evenodd" clip-rule="evenodd" d="M18.2037 18.1453C18.262 18.0871 18.3057 17.9997 18.3057 17.8977C18.3057 17.7957 18.262 17.7229 18.2037 17.6501C18.0726 17.519 17.8395 17.519 17.7084 17.6501C17.6501 17.7229 17.6064 17.7957 17.6064 17.8977C17.6064 17.9997 17.6501 18.0725 17.7084 18.1453C17.7812 18.2182 17.8541 18.2473 17.956 18.2473C18.0289 18.2619 18.1309 18.2182 18.2037 18.1453Z" fill="#0D022B"/>
<path fill-rule="evenodd" clip-rule="evenodd" d="M19.1798 19.1359C19.238 19.0776 19.2817 18.9902 19.2817 18.8883C19.2817 18.7863 19.238 18.6989 19.1798 18.6406C19.0487 18.5095 18.8156 18.5095 18.6845 18.6406C18.6262 18.6989 18.5825 18.7863 18.5825 18.8883C18.5825 18.9902 18.6262 19.0631 18.6845 19.1359C18.7573 19.2087 18.8302 19.2379 18.9321 19.2379C19.0341 19.2379 19.1069 19.1942 19.1798 19.1359Z" fill="#0D022B"/>
<path fill-rule="evenodd" clip-rule="evenodd" d="M20.0972 20.1118C20.1701 20.0536 20.1992 19.9662 20.1992 19.8642C20.1992 19.7622 20.1555 19.6894 20.0972 19.6166C19.9661 19.4855 19.7331 19.4855 19.602 19.6166C19.5437 19.6894 19.5 19.7622 19.5 19.8642C19.5 19.9662 19.5437 20.0536 19.602 20.1118C19.6748 20.1847 19.7476 20.2138 19.8496 20.2138C19.937 20.2138 20.039 20.1847 20.0972 20.1118Z" fill="#0D022B"/>
<path fill-rule="evenodd" clip-rule="evenodd" d="M21.1314 21.0878C21.2043 21.0296 21.2334 20.9422 21.2334 20.8402C21.2334 20.7382 21.1897 20.6654 21.1314 20.5926C21.0003 20.4615 20.7672 20.4615 20.6361 20.5926C20.5633 20.6654 20.5342 20.7382 20.5342 20.8402C20.5342 20.9422 20.5779 21.0296 20.6361 21.0878C20.6944 21.1461 20.7818 21.1898 20.8838 21.1898C20.9858 21.1898 21.0732 21.1607 21.1314 21.0878Z" fill="#0D022B"/>
<path fill-rule="evenodd" clip-rule="evenodd" d="M22.1073 22.0638C22.1802 21.991 22.2239 21.9181 22.2239 21.8162C22.2239 21.7142 22.1802 21.6414 22.1073 21.5685C21.9617 21.4374 21.7286 21.4374 21.5975 21.5685C21.5247 21.6414 21.481 21.7142 21.481 21.8162C21.481 21.9181 21.5247 21.991 21.5975 22.0638C21.6703 22.1221 21.7723 22.1658 21.8597 22.1658C21.9325 22.1803 22.0199 22.1366 22.1073 22.0638Z" fill="#0D022B"/>
<path fill-rule="evenodd" clip-rule="evenodd" d="M12.6827 10.6434C13.6732 9.9879 14.7657 9.68199 15.9748 9.66743C17.1547 9.66743 18.2472 9.9879 19.2669 10.6434L21.3645 8.54578C19.7185 7.29303 17.9413 6.66666 15.9748 6.66666C14.0082 6.66666 12.202 7.29303 10.5996 8.54578L12.6827 10.6434Z" fill="#0D022B"/>
<path fill-rule="evenodd" clip-rule="evenodd" d="M10.585 19.2524C9.91491 18.2327 9.59444 17.1548 9.59444 15.9894C9.59444 14.8095 9.91491 13.717 10.585 12.7265L8.50193 10.6434C7.27831 12.2458 6.6665 14.0229 6.6665 16.004C6.6665 17.956 7.27831 19.7477 8.51649 21.3792L10.585 19.2524Z" fill="#0D022B"/>
<path fill-rule="evenodd" clip-rule="evenodd" d="M19.2522 21.3355C18.2617 22.0056 17.1692 22.3552 15.9893 22.3697C14.7802 22.3697 13.6731 22.0493 12.6826 21.35L10.585 23.4331C12.2019 24.7004 14.0082 25.3268 15.9893 25.3122C17.9558 25.2977 19.7329 24.6567 21.3353 23.4331L19.2522 21.3355Z" fill="#0D022B"/>
<path fill-rule="evenodd" clip-rule="evenodd" d="M21.3062 12.6973C21.9762 13.717 22.3258 14.8241 22.2967 16.0186C22.2821 17.1839 21.9471 18.2473 21.3062 19.2233L23.4038 21.3063C24.642 19.704 25.2829 17.9268 25.2829 15.9749C25.2975 13.9938 24.6711 12.1875 23.4038 10.5706L21.3062 12.6973Z" fill="#0D022B"/>
<path fill-rule="evenodd" clip-rule="evenodd" d="M23.4913 21.991C24.2924 21.991 24.9625 22.6465 24.9625 23.4622C24.9625 24.2634 24.307 24.9335 23.4913 24.9335C22.6901 24.9335 22.02 24.278 22.02 23.4622C22.02 22.6465 22.6755 21.991 23.4913 21.991Z" fill="#0D022B"/>
<path fill-rule="evenodd" clip-rule="evenodd" d="M8.48745 21.991C9.28862 21.991 9.94413 22.6465 9.94413 23.4622C9.94413 24.2634 9.28862 24.9335 8.48745 24.9335C7.68627 24.9335 7.03076 24.278 7.03076 23.4622C7.03076 22.6465 7.68627 21.991 8.48745 21.991Z" fill="#0D022B"/>
<path fill-rule="evenodd" clip-rule="evenodd" d="M23.5206 6.98712C24.3218 6.98712 24.9773 7.64263 24.9773 8.45837C24.9773 9.27412 24.3218 9.92962 23.5206 9.92962C22.7195 9.92962 22.064 9.27412 22.064 8.45837C22.064 7.64263 22.7195 6.98712 23.5206 6.98712Z" fill="#0D022B"/>
<path fill-rule="evenodd" clip-rule="evenodd" d="M8.45856 6.98712C9.25973 6.98712 9.92981 7.64263 9.92981 8.44381C9.92981 9.24498 9.2743 9.90049 8.45856 9.90049C7.65738 9.90049 6.9873 9.24498 6.9873 8.44381C6.9873 7.64263 7.64281 6.98712 8.45856 6.98712Z" fill="#0D022B"/>
</g>
<defs>
<clipPath id="clip0_1070_24043">
<rect width="32" height="32" fill="white"/>
</clipPath>
</defs>
</svg>
