<svg width="44" height="32" viewBox="0 0 44 32" fill="none" xmlns="http://www.w3.org/2000/svg">
<path d="M31.5216 19.8705C29.3847 28.442 20.7032 33.6584 12.1306 31.521C3.56168 29.3841 -1.65477 20.702 0.483083 12.1312C2.61906 3.5587 11.3006 -1.65814 19.8705 0.478775C28.4424 2.61569 33.6585 11.2987 31.5214 19.8706L31.5215 19.8705H31.5216Z" fill="#F7931A"/>
<path fill-rule="evenodd" clip-rule="evenodd" d="M23.0564 13.7204C23.3748 11.5911 21.7537 10.4466 19.5371 9.68305L20.2562 6.79879L18.5004 6.36131L17.8004 9.16963C17.3388 9.05451 16.8648 8.94603 16.3937 8.8385L17.0988 6.01165L15.3442 5.57416L14.6247 8.45748C14.2427 8.37051 13.8676 8.28456 13.5036 8.194L13.5056 8.18493L11.0844 7.58031L10.6174 9.45555C10.6174 9.45555 11.92 9.75414 11.8925 9.77252C12.6035 9.94997 12.7321 10.4206 12.7107 10.7937L11.8916 14.0795C11.9405 14.0919 12.004 14.1099 12.0741 14.1381L12.0231 14.1254C11.9798 14.1145 11.9348 14.1033 11.8885 14.0922L10.7404 18.6952C10.6535 18.9112 10.433 19.2354 9.93587 19.1123C9.95347 19.1378 8.65978 18.7938 8.65978 18.7938L7.78809 20.8036L10.0729 21.3731C10.3231 21.4359 10.5703 21.5003 10.8151 21.5641C10.9861 21.6087 11.1559 21.653 11.3247 21.6961L10.5981 24.6135L12.3518 25.051L13.0713 22.1646C13.5504 22.2946 14.0154 22.4146 14.4705 22.5277L13.7534 25.4005L15.5093 25.8379L16.2357 22.9261C19.2296 23.4927 21.4808 23.2642 22.4284 20.5563C23.1919 18.376 22.3903 17.1185 20.8153 16.2984C21.9625 16.0338 22.8266 15.2793 23.057 13.7206L23.0564 13.7202L23.0564 13.7204ZM19.0452 19.3455C18.5474 21.3458 15.4164 20.5188 13.9838 20.1404L13.9837 20.1404C13.8549 20.1064 13.7398 20.076 13.6416 20.0516L14.6057 16.1866C14.7254 16.2165 14.8717 16.2493 15.0374 16.2865L15.0375 16.2865C16.5193 16.6191 19.5552 17.3004 19.0453 19.3455H19.0452ZM15.3342 14.4927C16.5286 14.8115 19.134 15.5068 19.5878 13.6888H19.5879C20.0513 11.8294 17.5192 11.2688 16.2826 10.995C16.1435 10.9642 16.0207 10.937 15.9205 10.912L15.0464 14.4173C15.1289 14.4379 15.2258 14.4638 15.3342 14.4927Z" fill="white"/>
<circle cx="28.1329" cy="15.8666" r="14.2667" fill="white"/>
<path fill-rule="evenodd" clip-rule="evenodd" d="M12 16C12 7.16344 19.1634 0 27.9999 0H28.0929C32.324 0.0123117 36.377 1.70494 39.3601 4.70553C42.3432 7.70611 44.0122 11.7689 43.9999 16C43.9999 24.8366 36.8365 32 27.9999 32C19.1634 32 12 24.8366 12 16ZM26.6053 22.1598L28.2711 16.5424L30.8667 15.8063L31.4091 13.9467L28.8522 14.7216L31.5641 5.50122V5.354C31.56 5.23479 31.5088 5.12208 31.4216 5.04069C31.3344 4.9593 31.2184 4.91592 31.0992 4.9201H27.6513C27.3827 4.91183 27.143 5.0876 27.0702 5.34626L23.8547 16.2712L21.2978 17.046L20.7167 18.8281L23.2736 18.0533L20.9879 25.8402H34.6246C34.8941 25.8514 35.1353 25.6744 35.2057 25.4141L35.9805 22.7409V22.5937C35.9765 22.4745 35.9252 22.3618 35.838 22.2804C35.7508 22.199 35.6348 22.1556 35.5156 22.1598H26.6053Z" fill="#345D9D"/>
</svg>
