<svg width="44" height="32" viewBox="0 0 44 32" fill="none" xmlns="http://www.w3.org/2000/svg">
<g clip-path="url(#clip0_1401_17575)">
<circle cx="16" cy="16" r="16" fill="#EDF0F4"/>
<path fill-rule="evenodd" clip-rule="evenodd" d="M10.1328 15.0044L16.0353 11.8971L21.8895 15.0237L16.0096 6.39996L10.1328 15.0044ZM10.3581 15.9017L16.0418 12.8688L21.6516 15.8796L16.045 18.9158L10.3581 15.9017ZM10.1328 16.7703C12.2043 17.8704 14.3658 19.0219 16.0353 19.913L21.8895 16.7703C19.7698 19.9194 18.0036 22.541 16.0353 25.4424L14.8972 23.7715L14.8964 23.7703C13.2534 21.3585 11.5536 18.8635 10.1328 16.7703Z" fill="#3AB83A"/>
<path fill-rule="evenodd" clip-rule="evenodd" d="M16.0107 6.39996L16.0365 11.8974L21.8907 15.0237L16.0107 6.39996ZM16.0428 12.8688L21.6526 15.8796L16.046 18.9158L16.0428 12.8688ZM16.0365 19.913L21.8907 16.7703C19.771 19.9194 16.0365 25.4424 16.0365 25.4424V19.913Z" fill="#0B8311"/>
<path d="M10.3584 15.9018L16.0425 16.3683L21.6522 15.8826L16.0454 18.919L10.3584 15.9018Z" fill="#0B8311"/>
<path d="M16.042 16.3683L21.6518 15.8826L16.0452 18.919L16.042 16.3683Z" fill="#146714"/>
</g>
<circle cx="28" cy="16" r="16" fill="#5DAF50"/>
<path d="M28.0004 14.7601C24.7204 14.7601 24.7204 13.7269 24.7204 13.1201C24.7204 12.5133 25.8684 11.4801 28.0004 11.4801C30.1324 11.4801 30.28 12.5297 30.2964 13.1201H33.5764C33.5543 12.0028 33.1524 10.9264 32.437 10.0679C31.7217 9.20949 30.7354 8.62013 29.6404 8.39686V6.56006H26.3604V8.34766C23.0804 8.88886 21.4404 11.0045 21.4404 13.1201C21.4404 14.9569 22.2932 18.0401 28.0004 18.0401C31.2804 18.0401 31.2804 19.1553 31.2804 19.6801C31.2804 20.2049 30.2636 21.3201 28.0004 21.3201C24.9828 21.3201 24.7204 19.9097 24.7204 19.6801H21.4404C21.4404 21.1889 22.5228 23.8621 26.3604 24.4689V26.2401H29.6404V24.4689C32.9204 23.9113 34.5604 21.7957 34.5604 19.6801C34.5604 17.8433 33.7076 14.7601 28.0004 14.7601Z" fill="white"/>
<defs>
<clipPath id="clip0_1401_17575">
<rect width="32" height="32" fill="white"/>
</clipPath>
</defs>
</svg>
