<svg width="32" height="32" viewBox="0 0 32 32" fill="none" xmlns="http://www.w3.org/2000/svg">
<path d="M31.5177 19.8705C29.3808 28.442 20.6992 33.6584 12.1267 31.521C3.55778 29.3841 -1.65868 20.702 0.479177 12.1312C2.61515 3.5587 11.2967 -1.65814 19.8666 0.478775C28.4385 2.61569 33.6546 11.2987 31.5175 19.8706L31.5176 19.8705H31.5177Z" fill="#50AF95"/>
<path fill-rule="evenodd" clip-rule="evenodd" d="M18.0244 17.8139C17.9113 17.8224 17.3267 17.8573 16.0229 17.8573C14.9858 17.8573 14.2495 17.8262 13.9912 17.8139C9.98337 17.6376 6.9919 16.94 6.9919 16.1047C6.9919 15.2693 9.98337 14.5726 13.9912 14.3935V17.1191C14.2532 17.1379 15.0037 17.1823 16.0408 17.1823C17.2853 17.1823 17.9084 17.1304 18.0206 17.12V14.3954C22.0199 14.5736 25.0048 15.2712 25.0048 16.1047C25.0048 16.9381 22.0209 17.6357 18.0206 17.813L18.0244 17.8139ZM18.0244 14.1135V11.6745H23.6057V7.9552H8.40985V11.6745H13.9902V14.1125C9.45446 14.3209 6.04346 15.2194 6.04346 16.296C6.04346 17.3727 9.45446 18.2702 13.9902 18.4795V26.2952H18.0235V18.4767C22.5488 18.2684 25.9542 17.3708 25.9542 16.2951C25.9542 15.2194 22.5517 14.3218 18.0235 14.1125L18.0244 14.1135Z" fill="white"/>
</svg>
