<svg width="32" height="32" viewBox="0 0 32 32" fill="none" xmlns="http://www.w3.org/2000/svg">
<path d="M15.9897 32C24.8294 32 31.9897 24.8397 31.9897 16C31.9897 7.16034 24.8294 0 15.9897 0C7.15003 0 0 7.16034 0 16C0 24.8397 7.16033 32 15.9897 32Z" fill="#008CE3"/>
<path d="M18.4315 8.9942H12.1469L11.6318 11.8995L17.2982 11.9098C20.0902 11.9098 20.9144 12.9195 20.8938 14.5988C20.8835 15.4643 20.5126 16.9169 20.3478 17.3909C19.9151 18.6478 19.0394 20.0901 15.7219 20.0798H10.21L9.68457 22.9955H15.9486C18.1533 22.9955 19.1012 22.7379 20.0902 22.2743C22.295 21.2543 23.6137 19.0805 24.1392 16.237C24.9325 12.0026 23.9537 8.9942 18.4315 8.9942Z" fill="white"/>
<path d="M9.44744 14.537C7.79902 14.537 7.56206 15.6085 7.40752 16.2576C7.20146 17.1024 7.13965 17.4527 7.13965 17.4527H13.5685C15.2169 17.4527 15.4539 16.3812 15.6084 15.7322C15.8145 14.8873 15.8763 14.537 15.8763 14.537H9.44744Z" fill="white"/>
</svg>
