<svg width="402" height="356" viewBox="0 0 402 356" fill="none" xmlns="http://www.w3.org/2000/svg">
<mask id="mask0_15_1034" style="mask-type:alpha" maskUnits="userSpaceOnUse" x="54" y="4" width="294" height="293">
<circle cx="201.5" cy="150.5" r="146.5" fill="url(#paint0_radial_15_1034)"/>
</mask>
<g mask="url(#mask0_15_1034)">
<line opacity="0.3" x1="-26.9963" y1="11.3825" x2="429.774" y2="11.3825" stroke="#3B6D5B" stroke-width="0.936609"/>
<line opacity="0.3" x1="-26.9963" y1="31.1731" x2="429.774" y2="31.1731" stroke="#3B6D5B" stroke-width="0.936609"/>
<line opacity="0.3" x1="-26.9963" y1="50.9633" x2="429.774" y2="50.9633" stroke="#3B6D5B" stroke-width="0.936609"/>
<line opacity="0.3" x1="-26.9963" y1="70.7546" x2="429.774" y2="70.7546" stroke="#3B6D5B" stroke-width="0.936609"/>
<line opacity="0.3" x1="-26.9963" y1="90.5451" x2="429.774" y2="90.5451" stroke="#3B6D5B" stroke-width="0.936609"/>
<line opacity="0.3" x1="-26.9963" y1="110.336" x2="429.774" y2="110.336" stroke="#3B6D5B" stroke-width="0.936609"/>
<line opacity="0.3" x1="-26.9963" y1="130.127" x2="429.774" y2="130.127" stroke="#3B6D5B" stroke-width="0.936609"/>
<line opacity="0.3" x1="-26.9963" y1="149.918" x2="429.774" y2="149.918" stroke="#3B6D5B" stroke-width="0.936609"/>
<line opacity="0.3" x1="-26.9963" y1="169.708" x2="429.774" y2="169.708" stroke="#3B6D5B" stroke-width="0.936609"/>
<line opacity="0.3" x1="-26.9963" y1="189.499" x2="429.774" y2="189.499" stroke="#3B6D5B" stroke-width="0.936609"/>
<line opacity="0.3" x1="-26.9963" y1="209.29" x2="429.774" y2="209.29" stroke="#3B6D5B" stroke-width="0.936609"/>
<line opacity="0.3" x1="-26.9963" y1="229.081" x2="429.774" y2="229.081" stroke="#3B6D5B" stroke-width="0.936609"/>
<line opacity="0.3" x1="-26.9963" y1="248.872" x2="429.774" y2="248.872" stroke="#3B6D5B" stroke-width="0.936609"/>
<line opacity="0.3" x1="-26.9963" y1="268.662" x2="429.774" y2="268.662" stroke="#3B6D5B" stroke-width="0.936609"/>
<line opacity="0.3" x1="-26.9963" y1="288.453" x2="429.774" y2="288.453" stroke="#3B6D5B" stroke-width="0.936609"/>
<line opacity="0.3" x1="340.39" y1="-78" x2="340.39" y2="378.77" stroke="#3B6D5B" stroke-width="0.936609"/>
<line opacity="0.3" x1="320.597" y1="-78" x2="320.597" y2="378.77" stroke="#3B6D5B" stroke-width="0.936609"/>
<line opacity="0.3" x1="300.808" y1="-78" x2="300.808" y2="378.77" stroke="#3B6D5B" stroke-width="0.936609"/>
<line opacity="0.3" x1="281.015" y1="-78" x2="281.015" y2="378.77" stroke="#3B6D5B" stroke-width="0.936609"/>
<line opacity="0.3" x1="261.226" y1="-78" x2="261.226" y2="378.77" stroke="#3B6D5B" stroke-width="0.936609"/>
<line opacity="0.3" x1="241.433" y1="-78" x2="241.433" y2="378.77" stroke="#3B6D5B" stroke-width="0.936609"/>
<line opacity="0.3" x1="221.644" y1="-78" x2="221.644" y2="378.77" stroke="#3B6D5B" stroke-width="0.936609"/>
<line opacity="0.3" x1="201.851" y1="-78" x2="201.851" y2="378.77" stroke="#3B6D5B" stroke-width="0.936609"/>
<line opacity="0.3" x1="182.062" y1="-78" x2="182.062" y2="378.77" stroke="#3B6D5B" stroke-width="0.936609"/>
<line opacity="0.3" x1="162.273" y1="-78" x2="162.273" y2="378.77" stroke="#3B6D5B" stroke-width="0.936609"/>
<line opacity="0.3" x1="142.48" y1="-78" x2="142.48" y2="378.77" stroke="#3B6D5B" stroke-width="0.936609"/>
<line opacity="0.3" x1="122.691" y1="-78" x2="122.691" y2="378.77" stroke="#3B6D5B" stroke-width="0.936609"/>
<line opacity="0.3" x1="102.902" y1="-78" x2="102.902" y2="378.77" stroke="#3B6D5B" stroke-width="0.936609"/>
<line opacity="0.3" x1="83.1087" y1="-78" x2="83.1087" y2="378.77" stroke="#3B6D5B" stroke-width="0.936609"/>
<line opacity="0.3" x1="63.3157" y1="-78" x2="63.3157" y2="378.77" stroke="#3B6D5B" stroke-width="0.936609"/>
</g>
<g filter="url(#filter0_f_15_1034)">
<ellipse cx="201.074" cy="232.5" rx="163.5" ry="85.5" fill="url(#paint1_radial_15_1034)"/>
</g>
<g filter="url(#filter1_d_15_1034)">
<circle cx="201.5" cy="150.5" r="138.5" stroke="#1D2E29" stroke-width="16" shape-rendering="crispEdges"/>
</g>
<circle cx="201.5" cy="150.5" r="129" fill="#0D0D0D" fill-opacity="0.2"/>
<circle cx="201.5" cy="150.5" r="129" stroke="url(#paint2_linear_15_1034)" stroke-width="3"/>
<circle cx="201.5" cy="150.5" r="129" stroke="url(#paint3_linear_15_1034)" stroke-width="3"/>
<mask id="mask1_15_1034" style="mask-type:alpha" maskUnits="userSpaceOnUse" x="82" y="31" width="239" height="239">
<circle cx="201.5" cy="150.5" r="119.5" fill="#383838"/>
</mask>
<g mask="url(#mask1_15_1034)">
<ellipse opacity="0.7" cx="217.92" cy="150.689" rx="135.03" ry="133.249" transform="rotate(-0.38399 217.92 150.689)" fill="url(#paint4_linear_15_1034)"/>
<path d="M86.9922 251L90.6612 227.574L92.4956 236.545L96.7761 232.06L98.6106 243.025L105.337 207.138L107.171 208.135V198.166H109.006L111.452 181.718L117.567 207.138L118.79 197.169L120.013 181.718L122.459 180.721L126.128 173.743L127.351 188.197L130.408 169.257L133.466 168.26V160.285H135.912L138.969 138.853L140.804 160.285L142.638 161.781L143.861 173.743V153.806H146.307L152.422 121.906L157.314 203.649L159.149 197.169L161.594 194.677L163.429 182.216L165.263 194.677L169.544 195.674C170.155 202.486 171.501 215.91 171.99 215.113C172.479 214.315 176.27 203.815 178.105 198.665L187.277 219.1L190.946 189.194L194.615 186.204V172.248L196.45 168.26L200.73 157.295L203.176 147.326L207.457 152.809C208.68 145.166 211.126 130.18 211.126 131.376C211.126 132.572 212.756 148.489 213.571 156.298L216.017 147.326L217.24 169.257L219.686 162.777L222.132 173.743V150.317L223.967 148.323L225.19 136.859L228.247 140.348L229.47 123.401L231.916 128.386L232.528 111.439L235.585 118.417L239.254 108.448L239.866 102.467L242.923 92L244.146 99.4765H245.981L247.204 115.426L250.261 111.439L251.484 125.893L254.542 123.401L255.153 139.85L258.822 138.354V150.317L265.549 129.881V146.329L269.829 139.85L271.052 164.273L275.332 152.809L279.001 189.194L282.059 182.216L285.116 178.229L287.562 156.298L289.397 169.257L291.843 171.251L293.677 184.708L294.9 176.235L297.346 174.74V161.781L304.073 183.712L305.907 166.765L307.742 164.273L309.576 154.304L312.022 151.812L314.468 145.332L315.08 164.273L318.137 165.27L319.971 171.251L322.417 165.27L327.309 184.708L330.978 177.232L336.482 219.1L342.597 211.125L344.431 219.1L348.1 215.113L352.992 243.524" stroke="url(#paint5_linear_15_1034)" stroke-width="2"/>
<g opacity="0.3" filter="url(#filter2_f_15_1034)">
<ellipse cx="215" cy="311" rx="131" ry="85" fill="#19DED2"/>
</g>
</g>
<g filter="url(#filter3_bi_15_1034)">
<path d="M243 56.6504C243 60.115 243 61.8474 244.076 62.9237C245.153 64 246.885 64 250.35 64H361.5C370.004 64 374.256 64 377.613 62.6196C382.151 60.7539 385.754 57.1509 387.62 52.6132C389 49.256 389 45.004 389 36.5V36.5C389 27.996 389 23.744 387.62 20.3868C385.754 15.8491 382.151 12.2461 377.613 10.3804C374.256 9 370.004 9 361.5 9H279.748C262.425 9 253.763 9 248.382 14.3816C243 19.7632 243 28.4248 243 45.7479V56.6504Z" fill="#00FF19" fill-opacity="0.1"/>
<path d="M243 56.6504C243 60.115 243 61.8474 244.076 62.9237C245.153 64 246.885 64 250.35 64H361.5C370.004 64 374.256 64 377.613 62.6196C382.151 60.7539 385.754 57.1509 387.62 52.6132C389 49.256 389 45.004 389 36.5V36.5C389 27.996 389 23.744 387.62 20.3868C385.754 15.8491 382.151 12.2461 377.613 10.3804C374.256 9 370.004 9 361.5 9H279.748C262.425 9 253.763 9 248.382 14.3816C243 19.7632 243 28.4248 243 45.7479V56.6504Z" fill="url(#paint6_linear_15_1034)" fill-opacity="0.2"/>
<path d="M250.35 63.5407H361.5C365.758 63.5407 368.929 63.5404 371.456 63.3692C373.978 63.1982 375.825 62.8583 377.439 62.1948C381.863 60.3757 385.376 56.8628 387.195 52.4385C387.858 50.8248 388.198 48.978 388.369 46.4556C388.54 43.9291 388.541 40.7582 388.541 36.5C388.541 32.2418 388.54 29.0709 388.369 26.5444C388.198 24.022 387.858 22.1752 387.195 20.5615C385.376 16.1372 381.863 12.6243 377.439 10.8052C375.825 10.1417 373.978 9.80182 371.456 9.63084C368.929 9.45959 365.758 9.45935 361.5 9.45935H279.748C271.073 9.45935 264.614 9.46032 259.648 10.128C254.695 10.7938 251.298 12.1152 248.706 14.7064C246.115 17.2976 244.794 20.6954 244.128 25.6479C243.46 30.6137 243.459 37.0734 243.459 45.7479V56.6504C243.459 58.3957 243.46 59.6585 243.59 60.6215C243.717 61.5712 243.963 62.1603 244.401 62.5989C244.84 63.0375 245.429 63.2825 246.379 63.4102C247.342 63.5397 248.604 63.5407 250.35 63.5407Z" stroke="url(#paint7_linear_15_1034)" stroke-opacity="0.08" stroke-width="0.918698"/>
</g>
<path d="M285.313 39.8847H282.204C282.351 41.6192 282.887 42.9348 283.813 43.8314C284.74 44.7281 286.026 45.2352 287.672 45.3528V47.2269H288.973V45.3528C290.075 45.2793 290.979 45.0588 291.685 44.6913C292.39 44.3238 292.949 43.9049 293.361 43.4345C293.787 42.9642 294.081 42.4864 294.243 42.0014C294.404 41.5016 294.485 41.09 294.485 40.7666C294.485 40.3992 294.456 39.9802 294.397 39.5099C294.353 39.0395 294.191 38.5691 293.912 38.0987C293.633 37.6284 293.199 37.18 292.611 36.7538C292.023 36.3128 291.185 35.9453 290.097 35.6513C289.892 35.5925 289.693 35.5411 289.502 35.497C289.326 35.4529 289.149 35.4088 288.973 35.3647V31.4621C289.473 31.4621 289.899 31.6679 290.252 32.0794C290.605 32.491 290.788 32.9908 290.803 33.5787H293.934C293.89 32.8144 293.728 32.1529 293.449 31.5944C293.17 31.0358 292.809 30.5728 292.368 30.2053C291.927 29.8231 291.413 29.5291 290.825 29.3233C290.252 29.1028 289.634 28.9559 288.973 28.8824V27.1846H287.672V28.8824C287.011 28.9265 286.371 29.0587 285.754 29.2792C285.136 29.485 284.593 29.7864 284.122 30.1832C283.652 30.5654 283.27 31.0431 282.976 31.6164C282.696 32.1897 282.557 32.8511 282.557 33.6008C282.557 34.3358 282.682 34.9531 282.932 35.4529C283.181 35.938 283.512 36.3495 283.924 36.6876C284.35 37.011 284.828 37.2756 285.357 37.4814C285.886 37.6725 286.423 37.8415 286.966 37.9885C287.113 38.0179 287.246 38.0546 287.363 38.0987C287.496 38.1281 287.599 38.1575 287.672 38.1869V42.7951C286.996 42.6628 286.43 42.3541 285.974 41.8691C285.519 41.384 285.298 40.7225 285.313 39.8847ZM288.973 42.7951V38.5618C289.84 38.7969 290.45 39.0615 290.803 39.3555C291.17 39.6348 291.354 40.0611 291.354 40.6343C291.354 40.9871 291.281 41.2958 291.134 41.5604C290.987 41.8103 290.796 42.0234 290.56 42.1998C290.34 42.3762 290.083 42.5158 289.789 42.6187C289.509 42.7069 289.237 42.7657 288.973 42.7951ZM287.672 31.4621V35.056C286.966 34.8943 286.459 34.6812 286.151 34.4166C285.842 34.152 285.688 33.7772 285.688 33.2921C285.688 32.9834 285.739 32.7188 285.842 32.4984C285.96 32.2632 286.114 32.0721 286.305 31.9251C286.496 31.7634 286.709 31.6458 286.944 31.5723C287.18 31.4988 287.422 31.4621 287.672 31.4621ZM305.619 35.8057V38.0105C306.002 38.0105 306.398 38.0252 306.81 38.0546C307.236 38.0693 307.626 38.1502 307.979 38.2972C308.331 38.4295 308.618 38.65 308.838 38.9586C309.074 39.2673 309.191 39.7156 309.191 40.3036C309.191 41.0533 308.949 41.6486 308.464 42.0896C307.979 42.5158 307.383 42.729 306.678 42.729C306.222 42.729 305.825 42.6481 305.487 42.4864C305.164 42.3248 304.892 42.1116 304.671 41.847C304.451 41.5677 304.282 41.2444 304.164 40.8769C304.047 40.4947 303.98 40.0978 303.966 39.6862H300.989C300.974 40.5829 301.099 41.3767 301.364 42.0675C301.643 42.7584 302.033 43.3463 302.533 43.8314C303.032 44.3018 303.635 44.6619 304.341 44.9118C305.061 45.1617 305.855 45.2866 306.722 45.2866C307.471 45.2866 308.192 45.1764 308.883 44.9559C309.573 44.7354 310.183 44.412 310.713 43.9858C311.242 43.5595 311.661 43.0303 311.969 42.3982C312.293 41.7662 312.454 41.0459 312.454 40.2375C312.454 39.3555 312.212 38.5985 311.727 37.9664C311.242 37.3344 310.573 36.9228 309.72 36.7317V36.6876C310.441 36.4818 310.977 36.0923 311.33 35.519C311.697 34.9458 311.881 34.2843 311.881 33.5346C311.881 32.8438 311.727 32.2338 311.418 31.7046C311.11 31.1754 310.705 30.7271 310.206 30.3596C309.72 29.9921 309.169 29.7202 308.552 29.5438C307.934 29.3527 307.317 29.2572 306.7 29.2572C305.906 29.2572 305.186 29.3895 304.539 29.6541C303.892 29.904 303.334 30.2641 302.863 30.7345C302.408 31.2048 302.047 31.7707 301.783 32.4322C301.533 33.079 301.393 33.7992 301.364 34.593H304.341C304.326 33.7992 304.517 33.1451 304.914 32.6306C305.325 32.1015 305.928 31.8369 306.722 31.8369C307.295 31.8369 307.802 32.0133 308.243 32.3661C308.684 32.7188 308.905 33.226 308.905 33.8874C308.905 34.3284 308.794 34.6812 308.574 34.9458C308.368 35.2104 308.096 35.4161 307.758 35.5631C307.435 35.6954 307.082 35.7763 306.7 35.8057C306.318 35.8351 305.957 35.8351 305.619 35.8057ZM322.949 35.96H319.201V33.6008H329.829V35.96H326.08V45H322.949V35.96ZM331.239 33.6008H334.215V35.056H334.259C334.642 34.4386 335.127 33.9903 335.715 33.711C336.303 33.4318 336.949 33.2921 337.655 33.2921C338.551 33.2921 339.323 33.4612 339.97 33.7992C340.617 34.1373 341.153 34.5856 341.58 35.1442C342.006 35.7028 342.322 36.3569 342.528 37.1065C342.733 37.8415 342.836 38.6132 342.836 39.4217C342.836 40.186 342.733 40.921 342.528 41.6265C342.322 42.3321 342.006 42.9568 341.58 43.5007C341.168 44.0446 340.646 44.4782 340.014 44.8016C339.397 45.1249 338.669 45.2866 337.831 45.2866C337.126 45.2866 336.472 45.147 335.869 44.8677C335.281 44.5737 334.796 44.1474 334.414 43.5889H334.37V48.9908H331.239V33.6008ZM336.993 42.9495C337.508 42.9495 337.934 42.8466 338.272 42.6408C338.625 42.435 338.904 42.1704 339.11 41.847C339.331 41.5089 339.485 41.1268 339.573 40.7005C339.661 40.2595 339.705 39.8038 339.705 39.3335C339.705 38.8778 339.654 38.4295 339.551 37.9885C339.463 37.5475 339.308 37.158 339.088 36.8199C338.868 36.4671 338.581 36.1878 338.228 35.9821C337.89 35.7616 337.471 35.6513 336.971 35.6513C336.457 35.6513 336.023 35.7616 335.67 35.9821C335.332 36.1878 335.053 36.4598 334.833 36.7979C334.627 37.1359 334.48 37.5328 334.392 37.9885C334.303 38.4295 334.259 38.8778 334.259 39.3335C334.259 39.8038 334.303 40.2595 334.392 40.7005C334.495 41.1268 334.649 41.5089 334.855 41.847C335.075 42.1704 335.354 42.435 335.692 42.6408C336.045 42.8466 336.479 42.9495 336.993 42.9495ZM345.203 45.1764C345.07 45.1764 344.865 45.1543 344.585 45.1102C344.306 45.0661 344.086 45.0147 343.924 44.9559V42.5967C344.012 42.6261 344.115 42.6481 344.233 42.6628C344.35 42.6628 344.468 42.6628 344.585 42.6628C344.85 42.6628 345.085 42.582 345.291 42.4203C345.511 42.2439 345.688 41.9132 345.82 41.4281C345.967 40.943 346.077 40.2522 346.151 39.3555C346.239 38.4589 346.283 37.2829 346.283 35.8277V33.6008H355.544V45H352.413V35.96H349.194C349.135 37.5769 349.039 38.966 348.907 40.1272C348.775 41.2885 348.562 42.2439 348.268 42.9936C347.988 43.7432 347.599 44.2944 347.099 44.6472C346.614 45 345.982 45.1764 345.203 45.1764ZM357.917 33.6008H361.048V37.746H365.479V33.6008H368.61V45H365.479V40.2154H361.048V45H357.917V33.6008Z" fill="#E1E1E1"/>
<path d="M264.035 32.2592C263.976 32.1793 263.896 32.1139 263.803 32.0687C263.71 32.0236 263.606 32 263.501 32C263.396 32 263.292 32.0236 263.199 32.0687C263.106 32.1139 263.026 32.1793 262.967 32.2592L257.116 40.0587C257.048 40.1486 257.009 40.254 257.001 40.3633C256.994 40.4726 257.019 40.5818 257.074 40.6788C257.129 40.7758 257.212 40.8571 257.314 40.9137C257.415 40.9703 257.532 41.0002 257.65 41L269.351 41C269.47 40.9995 269.586 40.9693 269.687 40.9125C269.788 40.8558 269.871 40.7746 269.926 40.6778C269.981 40.581 270.006 40.4722 269.999 40.3631C269.992 40.254 269.953 40.1488 269.886 40.0587L264.035 32.2592Z" fill="#01CD75"/>
<rect x="238.992" y="85" width="8" height="8" rx="4" fill="#3BD796"/>
<defs>
<filter id="filter0_f_15_1034" x="0.239155" y="109.665" width="401.67" height="245.67" filterUnits="userSpaceOnUse" color-interpolation-filters="sRGB">
<feFlood flood-opacity="0" result="BackgroundImageFix"/>
<feBlend mode="normal" in="SourceGraphic" in2="BackgroundImageFix" result="shape"/>
<feGaussianBlur stdDeviation="18.6675" result="effect1_foregroundBlur_15_1034"/>
</filter>
<filter id="filter1_d_15_1034" x="42" y="0" width="319" height="319" filterUnits="userSpaceOnUse" color-interpolation-filters="sRGB">
<feFlood flood-opacity="0" result="BackgroundImageFix"/>
<feColorMatrix in="SourceAlpha" type="matrix" values="0 0 0 0 0 0 0 0 0 0 0 0 0 0 0 0 0 0 127 0" result="hardAlpha"/>
<feOffset dy="9"/>
<feGaussianBlur stdDeviation="6.5"/>
<feComposite in2="hardAlpha" operator="out"/>
<feColorMatrix type="matrix" values="0 0 0 0 0 0 0 0 0 0 0 0 0 0 0 0 0 0 0.08 0"/>
<feBlend mode="normal" in2="BackgroundImageFix" result="effect1_dropShadow_15_1034"/>
<feBlend mode="normal" in="SourceGraphic" in2="effect1_dropShadow_15_1034" result="shape"/>
</filter>
<filter id="filter2_f_15_1034" x="-36" y="106" width="502" height="410" filterUnits="userSpaceOnUse" color-interpolation-filters="sRGB">
<feFlood flood-opacity="0" result="BackgroundImageFix"/>
<feBlend mode="normal" in="SourceGraphic" in2="BackgroundImageFix" result="shape"/>
<feGaussianBlur stdDeviation="60" result="effect1_foregroundBlur_15_1034"/>
</filter>
<filter id="filter3_bi_15_1034" x="220.951" y="-13.0488" width="190.098" height="99.0975" filterUnits="userSpaceOnUse" color-interpolation-filters="sRGB">
<feFlood flood-opacity="0" result="BackgroundImageFix"/>
<feGaussianBlur in="BackgroundImageFix" stdDeviation="11.0244"/>
<feComposite in2="SourceAlpha" operator="in" result="effect1_backgroundBlur_15_1034"/>
<feBlend mode="normal" in="SourceGraphic" in2="effect1_backgroundBlur_15_1034" result="shape"/>
<feColorMatrix in="SourceAlpha" type="matrix" values="0 0 0 0 0 0 0 0 0 0 0 0 0 0 0 0 0 0 127 0" result="hardAlpha"/>
<feOffset dy="1.8374"/>
<feGaussianBlur stdDeviation="5.05284"/>
<feComposite in2="hardAlpha" operator="arithmetic" k2="-1" k3="1"/>
<feColorMatrix type="matrix" values="0 0 0 0 1 0 0 0 0 0.547511 0 0 0 0 0 0 0 0 0.08 0"/>
<feBlend mode="normal" in2="shape" result="effect2_innerShadow_15_1034"/>
</filter>
<radialGradient id="paint0_radial_15_1034" cx="0" cy="0" r="1" gradientUnits="userSpaceOnUse" gradientTransform="translate(201.5 140.535) rotate(90) scale(181.22)">
<stop stop-color="#767575"/>
<stop offset="0.479167" stop-color="#848484" stop-opacity="0.854167"/>
<stop offset="1" stop-color="#D9D9D9" stop-opacity="0"/>
</radialGradient>
<radialGradient id="paint1_radial_15_1034" cx="0" cy="0" r="1" gradientUnits="userSpaceOnUse" gradientTransform="translate(201.074 232.5) rotate(90) scale(85.5 163.5)">
<stop offset="0.213542" stop-color="#161719"/>
<stop offset="1" stop-color="#161719" stop-opacity="0"/>
</radialGradient>
<linearGradient id="paint2_linear_15_1034" x1="201.5" y1="20" x2="201.5" y2="281" gradientUnits="userSpaceOnUse">
<stop stop-color="#1D6F4D" stop-opacity="0"/>
<stop offset="1" stop-color="#1D6F4D"/>
</linearGradient>
<linearGradient id="paint3_linear_15_1034" x1="201.5" y1="20" x2="201.5" y2="281" gradientUnits="userSpaceOnUse">
<stop stop-color="#1BC67F"/>
<stop offset="1" stop-color="#1D6F4D"/>
</linearGradient>
<linearGradient id="paint4_linear_15_1034" x1="230.988" y1="53.5278" x2="262.064" y2="281.182" gradientUnits="userSpaceOnUse">
<stop offset="0.265135" stop-color="#72FFCC" stop-opacity="0"/>
<stop offset="1" stop-color="#00FFB2" stop-opacity="0.12"/>
</linearGradient>
<linearGradient id="paint5_linear_15_1034" x1="219.992" y1="92" x2="219.992" y2="251" gradientUnits="userSpaceOnUse">
<stop stop-color="#3DE09C"/>
<stop offset="1" stop-color="#3DE19D" stop-opacity="0.35"/>
</linearGradient>
<linearGradient id="paint6_linear_15_1034" x1="316" y1="64" x2="316" y2="9" gradientUnits="userSpaceOnUse">
<stop stop-color="#262626"/>
<stop offset="1" stop-color="#2D2D2D"/>
</linearGradient>
<linearGradient id="paint7_linear_15_1034" x1="333.938" y1="73.3601" x2="307.27" y2="9.44516" gradientUnits="userSpaceOnUse">
<stop stop-color="#FF8C00"/>
<stop offset="1" stop-color="#F08300" stop-opacity="0"/>
</linearGradient>
</defs>
</svg>
