<svg width="402" height="356" viewBox="0 0 402 356" fill="none" xmlns="http://www.w3.org/2000/svg">
<mask id="mask0_15_1165" style="mask-type:alpha" maskUnits="userSpaceOnUse" x="54" y="4" width="294" height="293">
<circle cx="201.5" cy="150.5" r="146.5" fill="url(#paint0_radial_15_1165)"/>
</mask>
<g mask="url(#mask0_15_1165)">
<line opacity="0.3" x1="-26.9963" y1="11.3825" x2="429.774" y2="11.3825" stroke="#3B6D5B" stroke-width="0.936609"/>
<line opacity="0.3" x1="-26.9963" y1="31.1731" x2="429.774" y2="31.1731" stroke="#3B6D5B" stroke-width="0.936609"/>
<line opacity="0.3" x1="-26.9963" y1="50.9633" x2="429.774" y2="50.9633" stroke="#3B6D5B" stroke-width="0.936609"/>
<line opacity="0.3" x1="-26.9963" y1="70.7546" x2="429.774" y2="70.7546" stroke="#3B6D5B" stroke-width="0.936609"/>
<line opacity="0.3" x1="-26.9963" y1="90.5451" x2="429.774" y2="90.5451" stroke="#3B6D5B" stroke-width="0.936609"/>
<line opacity="0.3" x1="-26.9963" y1="110.336" x2="429.774" y2="110.336" stroke="#3B6D5B" stroke-width="0.936609"/>
<line opacity="0.3" x1="-26.9963" y1="130.127" x2="429.774" y2="130.127" stroke="#3B6D5B" stroke-width="0.936609"/>
<line opacity="0.3" x1="-26.9963" y1="149.918" x2="429.774" y2="149.918" stroke="#3B6D5B" stroke-width="0.936609"/>
<line opacity="0.3" x1="-26.9963" y1="169.708" x2="429.774" y2="169.708" stroke="#3B6D5B" stroke-width="0.936609"/>
<line opacity="0.3" x1="-26.9963" y1="189.499" x2="429.774" y2="189.499" stroke="#3B6D5B" stroke-width="0.936609"/>
<line opacity="0.3" x1="-26.9963" y1="209.29" x2="429.774" y2="209.29" stroke="#3B6D5B" stroke-width="0.936609"/>
<line opacity="0.3" x1="-26.9963" y1="229.081" x2="429.774" y2="229.081" stroke="#3B6D5B" stroke-width="0.936609"/>
<line opacity="0.3" x1="-26.9963" y1="248.872" x2="429.774" y2="248.872" stroke="#3B6D5B" stroke-width="0.936609"/>
<line opacity="0.3" x1="-26.9963" y1="268.662" x2="429.774" y2="268.662" stroke="#3B6D5B" stroke-width="0.936609"/>
<line opacity="0.3" x1="-26.9963" y1="288.453" x2="429.774" y2="288.453" stroke="#3B6D5B" stroke-width="0.936609"/>
<line opacity="0.3" x1="340.39" y1="-78" x2="340.39" y2="378.77" stroke="#3B6D5B" stroke-width="0.936609"/>
<line opacity="0.3" x1="320.597" y1="-78" x2="320.597" y2="378.77" stroke="#3B6D5B" stroke-width="0.936609"/>
<line opacity="0.3" x1="300.808" y1="-78" x2="300.808" y2="378.77" stroke="#3B6D5B" stroke-width="0.936609"/>
<line opacity="0.3" x1="281.015" y1="-78" x2="281.015" y2="378.77" stroke="#3B6D5B" stroke-width="0.936609"/>
<line opacity="0.3" x1="261.226" y1="-78" x2="261.226" y2="378.77" stroke="#3B6D5B" stroke-width="0.936609"/>
<line opacity="0.3" x1="241.433" y1="-78" x2="241.433" y2="378.77" stroke="#3B6D5B" stroke-width="0.936609"/>
<line opacity="0.3" x1="221.644" y1="-78" x2="221.644" y2="378.77" stroke="#3B6D5B" stroke-width="0.936609"/>
<line opacity="0.3" x1="201.851" y1="-78" x2="201.851" y2="378.77" stroke="#3B6D5B" stroke-width="0.936609"/>
<line opacity="0.3" x1="182.062" y1="-78" x2="182.062" y2="378.77" stroke="#3B6D5B" stroke-width="0.936609"/>
<line opacity="0.3" x1="162.273" y1="-78" x2="162.273" y2="378.77" stroke="#3B6D5B" stroke-width="0.936609"/>
<line opacity="0.3" x1="142.48" y1="-78" x2="142.48" y2="378.77" stroke="#3B6D5B" stroke-width="0.936609"/>
<line opacity="0.3" x1="122.691" y1="-78" x2="122.691" y2="378.77" stroke="#3B6D5B" stroke-width="0.936609"/>
<line opacity="0.3" x1="102.902" y1="-78" x2="102.902" y2="378.77" stroke="#3B6D5B" stroke-width="0.936609"/>
<line opacity="0.3" x1="83.1087" y1="-78" x2="83.1087" y2="378.77" stroke="#3B6D5B" stroke-width="0.936609"/>
<line opacity="0.3" x1="63.3157" y1="-78" x2="63.3157" y2="378.77" stroke="#3B6D5B" stroke-width="0.936609"/>
</g>
<g filter="url(#filter0_f_15_1165)">
<ellipse cx="201.074" cy="232.5" rx="163.5" ry="85.5" fill="url(#paint1_radial_15_1165)"/>
</g>
<g filter="url(#filter1_d_15_1165)">
<circle cx="201.5" cy="150.5" r="138.5" stroke="#1D2E29" stroke-width="16" shape-rendering="crispEdges"/>
</g>
<circle cx="201.5" cy="150.5" r="129" fill="#0D0D0D" fill-opacity="0.2"/>
<circle cx="201.5" cy="150.5" r="129" stroke="url(#paint2_linear_15_1165)" stroke-width="3"/>
<circle cx="201.5" cy="150.5" r="129" stroke="url(#paint3_linear_15_1165)" stroke-width="3"/>
<mask id="mask1_15_1165" style="mask-type:alpha" maskUnits="userSpaceOnUse" x="82" y="31" width="239" height="239">
<circle cx="201.5" cy="150.5" r="119.5" fill="#383838"/>
</mask>
<g mask="url(#mask1_15_1165)">
<ellipse opacity="0.7" cx="201.928" cy="150.689" rx="135.03" ry="133.249" transform="rotate(-0.38399 201.928 150.689)" fill="url(#paint4_linear_15_1165)"/>
<path d="M71 176.504H89.3269V152.191H92.4558V164.595H95.5848V167.573H98.7138V170.55H102.29V164.099H105.419V155.168H108.548V152.191H111.677V158.145H114.806V152.191H117.935V158.145H121.064V155.168H124.193V158.145H130.451V152.191H136.708V149.214H139.837V130.359H143.413V145.74H146.542V158.145H152.8V146.237H155.929V155.168H159.058V149.214H162.187V167.573H165.316V164.595H168.445V161.122H171.574V145.74H174.703V155.168H177.832V158.145H181.408V161.618H184.537V164.099H187.666V161.122H190.348V164.099H193.924V158.641H197.053V133.336H200.182V149.214H206.44V158.145H209.569V148.718H213.145V152.191H215.827V164.099H218.956V152.191H222.532V155.168H225.214V152.191H228.79V146.237H231.919V161.122H235.048V155.168H237.73V149.214H241.306V158.145H244.435V161.618H247.564V164.099H250.693V158.641H253.822V161.122H256.951V170.053H260.08V161.122H263.208V170.053H266.337V164.099H269.913V167.076H272.595V161.122H282.876V164.099H286.005V167.076H288.687V170.053H291.816V112H294.945V149.214H298.521V161.122H301.203V170.053H304.779V177H311.484V164.099H314.166V170.55H317.295V164.099H324" stroke="#3DE19D" stroke-width="2"/>
<path d="M71 176.504H89.3269V152.191H92.4558V164.595H95.5848V167.573H98.7138V170.55H102.29V164.099H105.419V155.168H108.548V152.191H111.677V158.145H114.806V152.191H117.935V158.145H121.064V155.168H124.193V158.145H130.451V152.191H136.708V149.214H139.837V130.359H143.413V145.74H146.542V158.145H152.8V146.237H155.929V155.168H159.058V149.214H162.187V167.573H165.316V164.595H168.445V161.122H171.574V145.74H174.703V155.168H177.832V158.145H181.408V161.618H184.537V164.099H187.666V161.122H190.348V164.099H193.924V158.641H197.053V133.336H200.182V149.214H206.44V158.145H209.569V148.718H213.145V152.191H215.827V164.099H218.956V152.191H222.532V155.168H225.214V152.191H228.79V146.237H231.919V161.122H235.048V155.168H237.73V149.214H241.306V158.145H244.435V161.618H247.564V164.099H250.693V158.641H253.822V161.122H256.951V170.053H260.08V161.122H263.208V170.053H266.337V164.099H269.913V167.076H272.595V161.122H282.876V164.099H286.005V167.076H288.687V170.053H291.816V112H294.945V149.214H298.521V161.122H301.203V170.053H304.779V177H311.484V164.099H314.166V170.55H317.295V164.099H324" stroke="url(#paint5_linear_15_1165)" stroke-width="2"/>
<g opacity="0.3" filter="url(#filter2_f_15_1165)">
<ellipse cx="215" cy="311" rx="131" ry="85" fill="#19DED2"/>
</g>
</g>
<g filter="url(#filter3_bi_15_1165)">
<path d="M231 86.6504C231 90.115 231 91.8474 232.076 92.9237C233.153 94 234.885 94 238.35 94H370.5C379.004 94 383.256 94 386.613 92.6196C391.151 90.7539 394.754 87.1509 396.62 82.6132C398 79.256 398 75.004 398 66.5V66.5C398 57.996 398 53.744 396.62 50.3868C394.754 45.8491 391.151 42.2461 386.613 40.3804C383.256 39 379.004 39 370.5 39H267.748C250.425 39 241.763 39 236.382 44.3816C231 49.7632 231 58.4248 231 75.7479V86.6504Z" fill="#00FF19" fill-opacity="0.1"/>
<path d="M231 86.6504C231 90.115 231 91.8474 232.076 92.9237C233.153 94 234.885 94 238.35 94H370.5C379.004 94 383.256 94 386.613 92.6196C391.151 90.7539 394.754 87.1509 396.62 82.6132C398 79.256 398 75.004 398 66.5V66.5C398 57.996 398 53.744 396.62 50.3868C394.754 45.8491 391.151 42.2461 386.613 40.3804C383.256 39 379.004 39 370.5 39H267.748C250.425 39 241.763 39 236.382 44.3816C231 49.7632 231 58.4248 231 75.7479V86.6504Z" fill="url(#paint6_linear_15_1165)" fill-opacity="0.2"/>
<path d="M238.35 93.5407H370.5C374.758 93.5407 377.929 93.5404 380.456 93.3692C382.978 93.1982 384.825 92.8583 386.439 92.1948C390.863 90.3757 394.376 86.8628 396.195 82.4385C396.858 80.8248 397.198 78.978 397.369 76.4556C397.54 73.9291 397.541 70.7582 397.541 66.5C397.541 62.2418 397.54 59.0709 397.369 56.5444C397.198 54.022 396.858 52.1752 396.195 50.5615C394.376 46.1372 390.863 42.6243 386.439 40.8052C384.825 40.1417 382.978 39.8018 380.456 39.6308C377.929 39.4596 374.758 39.4594 370.5 39.4594H267.748C259.073 39.4594 252.614 39.4603 247.648 40.128C242.695 40.7938 239.298 42.1152 236.706 44.7064C234.115 47.2976 232.794 50.6954 232.128 55.6479C231.46 60.6137 231.459 67.0734 231.459 75.7479V86.6504C231.459 88.3957 231.46 89.6585 231.59 90.6215C231.717 91.5712 231.963 92.1603 232.401 92.5989C232.84 93.0375 233.429 93.2825 234.379 93.4102C235.342 93.5397 236.604 93.5407 238.35 93.5407Z" stroke="url(#paint7_linear_15_1165)" stroke-opacity="0.08" stroke-width="0.918698"/>
</g>
<path d="M271.109 69.8847H268C268.147 71.6192 268.684 72.9348 269.61 73.8314C270.536 74.7281 271.822 75.2352 273.468 75.3528V77.2269H274.769V75.3528C275.871 75.2793 276.775 75.0588 277.481 74.6913C278.187 74.3238 278.745 73.9049 279.157 73.4345C279.583 72.9642 279.877 72.4864 280.039 72.0014C280.2 71.5016 280.281 71.09 280.281 70.7666C280.281 70.3992 280.252 69.9802 280.193 69.5099C280.149 69.0395 279.987 68.5691 279.708 68.0987C279.429 67.6284 278.995 67.18 278.407 66.7538C277.819 66.3128 276.981 65.9453 275.893 65.6513C275.688 65.5925 275.489 65.5411 275.298 65.497C275.122 65.4529 274.945 65.4088 274.769 65.3647V61.4621C275.269 61.4621 275.695 61.6679 276.048 62.0794C276.401 62.491 276.584 62.9908 276.599 63.5787H279.73C279.686 62.8144 279.524 62.1529 279.245 61.5944C278.966 61.0358 278.605 60.5728 278.164 60.2053C277.724 59.8231 277.209 59.5291 276.621 59.3233C276.048 59.1028 275.43 58.9559 274.769 58.8824V57.1846H273.468V58.8824C272.807 58.9265 272.167 59.0587 271.55 59.2792C270.932 59.485 270.389 59.7864 269.918 60.1832C269.448 60.5654 269.066 61.0431 268.772 61.6164C268.492 62.1897 268.353 62.8511 268.353 63.6008C268.353 64.3358 268.478 64.9531 268.728 65.4529C268.977 65.938 269.308 66.3495 269.72 66.6876C270.146 67.011 270.624 67.2756 271.153 67.4814C271.682 67.6725 272.219 67.8415 272.763 67.9885C272.91 68.0179 273.042 68.0546 273.159 68.0987C273.292 68.1281 273.395 68.1575 273.468 68.1869V72.7951C272.792 72.6628 272.226 72.3541 271.77 71.8691C271.315 71.384 271.094 70.7225 271.109 69.8847ZM274.769 72.7951V68.5618C275.636 68.7969 276.246 69.0615 276.599 69.3555C276.966 69.6348 277.15 70.0611 277.15 70.6343C277.15 70.9871 277.077 71.2958 276.93 71.5604C276.783 71.8103 276.592 72.0234 276.356 72.1998C276.136 72.3762 275.879 72.5158 275.585 72.6187C275.305 72.7069 275.034 72.7657 274.769 72.7951ZM273.468 61.4621V65.056C272.763 64.8943 272.255 64.6812 271.947 64.4166C271.638 64.152 271.484 63.7772 271.484 63.2921C271.484 62.9834 271.535 62.7188 271.638 62.4984C271.756 62.2632 271.91 62.0721 272.101 61.9251C272.292 61.7634 272.505 61.6458 272.74 61.5723C272.976 61.4988 273.218 61.4621 273.468 61.4621ZM287.204 65.497H290.203C290.203 65.0854 290.239 64.6738 290.313 64.2623C290.401 63.836 290.541 63.4538 290.732 63.1157C290.923 62.7629 291.173 62.4837 291.482 62.2779C291.805 62.0574 292.194 61.9471 292.65 61.9471C293.326 61.9471 293.878 62.1603 294.304 62.5866C294.745 62.9981 294.965 63.5787 294.965 64.3284C294.965 64.7988 294.855 65.2177 294.635 65.5852C294.429 65.9527 294.164 66.2834 293.841 66.5774C293.532 66.8714 293.187 67.1433 292.805 67.3932C292.422 67.6284 292.062 67.8636 291.724 68.0987C291.063 68.5544 290.431 69.0027 289.828 69.4437C289.24 69.8847 288.725 70.3698 288.285 70.8989C287.844 71.4134 287.491 72.0014 287.226 72.6628C286.976 73.3243 286.851 74.1034 286.851 75H298.184V72.3101H290.886C291.268 71.7809 291.709 71.3179 292.209 70.921C292.709 70.5241 293.223 70.1566 293.753 69.8185C294.282 69.4658 294.804 69.113 295.318 68.7602C295.847 68.4074 296.318 68.0179 296.729 67.5916C297.141 67.1506 297.471 66.6509 297.721 66.0923C297.971 65.5337 298.096 64.8649 298.096 64.0859C298.096 63.3362 297.949 62.66 297.655 62.0574C297.376 61.4547 296.994 60.9476 296.509 60.536C296.024 60.1244 295.458 59.8084 294.811 59.5879C294.179 59.3674 293.51 59.2572 292.805 59.2572C291.878 59.2572 291.055 59.4189 290.335 59.7423C289.629 60.0509 289.042 60.4919 288.571 61.0652C288.101 61.6238 287.748 62.2852 287.513 63.0496C287.278 63.7992 287.175 64.615 287.204 65.497ZM302.234 67.2168C302.234 66.9522 302.234 66.6362 302.234 66.2687C302.249 65.8865 302.278 65.497 302.322 65.1001C302.366 64.7032 302.44 64.3137 302.543 63.9315C302.646 63.5346 302.785 63.1819 302.962 62.8732C303.153 62.5645 303.388 62.3146 303.667 62.1235C303.961 61.9324 304.321 61.8369 304.748 61.8369C305.174 61.8369 305.534 61.9324 305.828 62.1235C306.122 62.3146 306.364 62.5645 306.556 62.8732C306.747 63.1819 306.886 63.5346 306.974 63.9315C307.077 64.3137 307.151 64.7032 307.195 65.1001C307.254 65.497 307.283 65.8865 307.283 66.2687C307.298 66.6362 307.305 66.9522 307.305 67.2168C307.305 67.6578 307.29 68.1943 307.261 68.8263C307.232 69.4437 307.136 70.0464 306.974 70.6343C306.827 71.2076 306.578 71.7 306.225 72.1116C305.887 72.5232 305.394 72.729 304.748 72.729C304.115 72.729 303.63 72.5232 303.292 72.1116C302.954 71.7 302.704 71.2076 302.543 70.6343C302.396 70.0464 302.307 69.4437 302.278 68.8263C302.249 68.1943 302.234 67.6578 302.234 67.2168ZM299.103 67.2168C299.103 68.7602 299.25 70.0537 299.544 71.0974C299.853 72.1263 300.264 72.9495 300.779 73.5668C301.293 74.1842 301.889 74.6252 302.565 74.8898C303.256 75.1543 303.983 75.2866 304.748 75.2866C305.527 75.2866 306.254 75.1543 306.93 74.8898C307.621 74.6252 308.224 74.1842 308.738 73.5668C309.268 72.9495 309.679 72.1263 309.973 71.0974C310.282 70.0537 310.436 68.7602 310.436 67.2168C310.436 65.7175 310.282 64.4607 309.973 63.4465C309.679 62.4175 309.268 61.5944 308.738 60.977C308.224 60.3596 307.621 59.9187 306.93 59.6541C306.254 59.3895 305.527 59.2572 304.748 59.2572C303.983 59.2572 303.256 59.3895 302.565 59.6541C301.889 59.9187 301.293 60.3596 300.779 60.977C300.264 61.5944 299.853 62.4175 299.544 63.4465C299.25 64.4607 299.103 65.7175 299.103 67.2168ZM314.486 67.2168C314.486 66.9522 314.486 66.6362 314.486 66.2687C314.5 65.8865 314.53 65.497 314.574 65.1001C314.618 64.7032 314.691 64.3137 314.794 63.9315C314.897 63.5346 315.037 63.1819 315.213 62.8732C315.404 62.5645 315.64 62.3146 315.919 62.1235C316.213 61.9324 316.573 61.8369 316.999 61.8369C317.426 61.8369 317.786 61.9324 318.08 62.1235C318.374 62.3146 318.616 62.5645 318.807 62.8732C318.998 63.1819 319.138 63.5346 319.226 63.9315C319.329 64.3137 319.403 64.7032 319.447 65.1001C319.505 65.497 319.535 65.8865 319.535 66.2687C319.55 66.6362 319.557 66.9522 319.557 67.2168C319.557 67.6578 319.542 68.1943 319.513 68.8263C319.483 69.4437 319.388 70.0464 319.226 70.6343C319.079 71.2076 318.829 71.7 318.476 72.1116C318.138 72.5232 317.646 72.729 316.999 72.729C316.367 72.729 315.882 72.5232 315.544 72.1116C315.206 71.7 314.956 71.2076 314.794 70.6343C314.647 70.0464 314.559 69.4437 314.53 68.8263C314.5 68.1943 314.486 67.6578 314.486 67.2168ZM311.355 67.2168C311.355 68.7602 311.502 70.0537 311.796 71.0974C312.104 72.1263 312.516 72.9495 313.03 73.5668C313.545 74.1842 314.14 74.6252 314.816 74.8898C315.507 75.1543 316.235 75.2866 316.999 75.2866C317.778 75.2866 318.506 75.1543 319.182 74.8898C319.873 74.6252 320.476 74.1842 320.99 73.5668C321.519 72.9495 321.931 72.1263 322.225 71.0974C322.533 70.0537 322.688 68.7602 322.688 67.2168C322.688 65.7175 322.533 64.4607 322.225 63.4465C321.931 62.4175 321.519 61.5944 320.99 60.977C320.476 60.3596 319.873 59.9187 319.182 59.6541C318.506 59.3895 317.778 59.2572 316.999 59.2572C316.235 59.2572 315.507 59.3895 314.816 59.6541C314.14 59.9187 313.545 60.3596 313.03 60.977C312.516 61.5944 312.104 62.4175 311.796 63.4465C311.502 64.4607 311.355 65.7175 311.355 67.2168ZM330.471 63.6008H335.013L337.372 71.8911H337.46L339.819 63.6008H344.361V75H341.407V66.3348H341.341L338.893 75H335.939L333.491 66.3348H333.425V75H330.471V63.6008ZM347.234 75.1764C347.102 75.1764 346.896 75.1543 346.617 75.1102C346.337 75.0661 346.117 75.0147 345.955 74.9559V72.5967C346.043 72.6261 346.146 72.6481 346.264 72.6628C346.381 72.6628 346.499 72.6628 346.617 72.6628C346.881 72.6628 347.116 72.582 347.322 72.4203C347.543 72.2439 347.719 71.9132 347.851 71.4281C347.998 70.943 348.109 70.2522 348.182 69.3555C348.27 68.4589 348.314 67.2829 348.314 65.8277V63.6008H357.575V75H354.444V65.96H351.225C351.166 67.5769 351.07 68.966 350.938 70.1272C350.806 71.2885 350.593 72.2439 350.299 72.9936C350.019 73.7432 349.63 74.2944 349.13 74.6472C348.645 75 348.013 75.1764 347.234 75.1764ZM359.948 63.6008H362.925V65.056H362.969C363.351 64.4386 363.836 63.9903 364.424 63.711C365.012 63.4318 365.659 63.2921 366.364 63.2921C367.261 63.2921 368.033 63.4612 368.679 63.7992C369.326 64.1373 369.863 64.5856 370.289 65.1442C370.715 65.7028 371.031 66.3569 371.237 67.1065C371.443 67.8415 371.546 68.6132 371.546 69.4217C371.546 70.186 371.443 70.921 371.237 71.6265C371.031 72.3321 370.715 72.9568 370.289 73.5007C369.877 74.0446 369.355 74.4782 368.723 74.8016C368.106 75.1249 367.378 75.2866 366.541 75.2866C365.835 75.2866 365.181 75.147 364.578 74.8677C363.99 74.5737 363.505 74.1474 363.123 73.5889H363.079V78.9908H359.948V63.6008ZM365.703 72.9495C366.217 72.9495 366.643 72.8466 366.982 72.6408C367.334 72.435 367.614 72.1704 367.819 71.847C368.04 71.5089 368.194 71.1268 368.282 70.7005C368.371 70.2595 368.415 69.8038 368.415 69.3335C368.415 68.8778 368.363 68.4295 368.26 67.9885C368.172 67.5475 368.018 67.158 367.797 66.8199C367.577 66.4671 367.29 66.1878 366.937 65.9821C366.599 65.7616 366.18 65.6513 365.681 65.6513C365.166 65.6513 364.733 65.7616 364.38 65.9821C364.042 66.1878 363.762 66.4598 363.542 66.7979C363.336 67.1359 363.189 67.5328 363.101 67.9885C363.013 68.4295 362.969 68.8778 362.969 69.3335C362.969 69.8038 363.013 70.2595 363.101 70.7005C363.204 71.1268 363.358 71.5089 363.564 71.847C363.784 72.1704 364.064 72.435 364.402 72.6408C364.755 72.8466 365.188 72.9495 365.703 72.9495ZM372.391 72.6408H373.758C373.919 72.3174 374.081 71.9132 374.243 71.4281C374.419 70.943 374.574 70.3992 374.706 69.7965C374.853 69.1938 374.97 68.5397 375.059 67.8342C375.147 67.1286 375.191 66.3863 375.191 65.6072V63.6008H384.297V72.6408H385.774V78.1309H382.842V75H375.323V78.1309H372.391V72.6408ZM381.166 72.6408V65.938H378.101V66.2246C378.101 66.9302 378.057 67.6063 377.969 68.2531C377.896 68.8998 377.793 69.5025 377.66 70.0611C377.528 70.6049 377.388 71.0974 377.241 71.5383C377.094 71.9793 376.955 72.3468 376.822 72.6408H381.166Z" fill="#E1E1E1"/>
<path d="M252.035 62.2592C251.976 62.1793 251.896 62.1139 251.803 62.0687C251.71 62.0236 251.606 62 251.501 62C251.396 62 251.292 62.0236 251.199 62.0687C251.106 62.1139 251.026 62.1793 250.967 62.2592L245.116 70.0587C245.048 70.1486 245.009 70.254 245.001 70.3633C244.994 70.4726 245.019 70.5818 245.074 70.6788C245.129 70.7758 245.212 70.8571 245.314 70.9137C245.415 70.9703 245.532 71.0002 245.65 71L257.351 71C257.47 70.9995 257.586 70.9693 257.687 70.9125C257.788 70.8558 257.871 70.7746 257.926 70.6778C257.981 70.581 258.006 70.4722 257.999 70.3631C257.992 70.254 257.953 70.1488 257.886 70.0587L252.035 62.2592Z" fill="#01CD75"/>
<defs>
<filter id="filter0_f_15_1165" x="0.239155" y="109.665" width="401.67" height="245.67" filterUnits="userSpaceOnUse" color-interpolation-filters="sRGB">
<feFlood flood-opacity="0" result="BackgroundImageFix"/>
<feBlend mode="normal" in="SourceGraphic" in2="BackgroundImageFix" result="shape"/>
<feGaussianBlur stdDeviation="18.6675" result="effect1_foregroundBlur_15_1165"/>
</filter>
<filter id="filter1_d_15_1165" x="42" y="0" width="319" height="319" filterUnits="userSpaceOnUse" color-interpolation-filters="sRGB">
<feFlood flood-opacity="0" result="BackgroundImageFix"/>
<feColorMatrix in="SourceAlpha" type="matrix" values="0 0 0 0 0 0 0 0 0 0 0 0 0 0 0 0 0 0 127 0" result="hardAlpha"/>
<feOffset dy="9"/>
<feGaussianBlur stdDeviation="6.5"/>
<feComposite in2="hardAlpha" operator="out"/>
<feColorMatrix type="matrix" values="0 0 0 0 0 0 0 0 0 0 0 0 0 0 0 0 0 0 0.08 0"/>
<feBlend mode="normal" in2="BackgroundImageFix" result="effect1_dropShadow_15_1165"/>
<feBlend mode="normal" in="SourceGraphic" in2="effect1_dropShadow_15_1165" result="shape"/>
</filter>
<filter id="filter2_f_15_1165" x="-36" y="106" width="502" height="410" filterUnits="userSpaceOnUse" color-interpolation-filters="sRGB">
<feFlood flood-opacity="0" result="BackgroundImageFix"/>
<feBlend mode="normal" in="SourceGraphic" in2="BackgroundImageFix" result="shape"/>
<feGaussianBlur stdDeviation="60" result="effect1_foregroundBlur_15_1165"/>
</filter>
<filter id="filter3_bi_15_1165" x="208.951" y="16.9512" width="211.098" height="99.0975" filterUnits="userSpaceOnUse" color-interpolation-filters="sRGB">
<feFlood flood-opacity="0" result="BackgroundImageFix"/>
<feGaussianBlur in="BackgroundImageFix" stdDeviation="11.0244"/>
<feComposite in2="SourceAlpha" operator="in" result="effect1_backgroundBlur_15_1165"/>
<feBlend mode="normal" in="SourceGraphic" in2="effect1_backgroundBlur_15_1165" result="shape"/>
<feColorMatrix in="SourceAlpha" type="matrix" values="0 0 0 0 0 0 0 0 0 0 0 0 0 0 0 0 0 0 127 0" result="hardAlpha"/>
<feOffset dy="1.8374"/>
<feGaussianBlur stdDeviation="5.05284"/>
<feComposite in2="hardAlpha" operator="arithmetic" k2="-1" k3="1"/>
<feColorMatrix type="matrix" values="0 0 0 0 1 0 0 0 0 0.547511 0 0 0 0 0 0 0 0 0.08 0"/>
<feBlend mode="normal" in2="shape" result="effect2_innerShadow_15_1165"/>
</filter>
<radialGradient id="paint0_radial_15_1165" cx="0" cy="0" r="1" gradientUnits="userSpaceOnUse" gradientTransform="translate(201.5 140.535) rotate(90) scale(181.22)">
<stop stop-color="#767575"/>
<stop offset="0.479167" stop-color="#848484" stop-opacity="0.854167"/>
<stop offset="1" stop-color="#D9D9D9" stop-opacity="0"/>
</radialGradient>
<radialGradient id="paint1_radial_15_1165" cx="0" cy="0" r="1" gradientUnits="userSpaceOnUse" gradientTransform="translate(201.074 232.5) rotate(90) scale(85.5 163.5)">
<stop offset="0.213542" stop-color="#161719"/>
<stop offset="1" stop-color="#161719" stop-opacity="0"/>
</radialGradient>
<linearGradient id="paint2_linear_15_1165" x1="201.5" y1="20" x2="201.5" y2="281" gradientUnits="userSpaceOnUse">
<stop stop-color="#1D6F4D" stop-opacity="0"/>
<stop offset="1" stop-color="#1D6F4D"/>
</linearGradient>
<linearGradient id="paint3_linear_15_1165" x1="201.5" y1="20" x2="201.5" y2="281" gradientUnits="userSpaceOnUse">
<stop stop-color="#1BC67F"/>
<stop offset="1" stop-color="#1D6F4D"/>
</linearGradient>
<linearGradient id="paint4_linear_15_1165" x1="214.995" y1="53.5278" x2="246.072" y2="281.182" gradientUnits="userSpaceOnUse">
<stop offset="0.265135" stop-color="#72FFCC" stop-opacity="0"/>
<stop offset="1" stop-color="#00FFB2" stop-opacity="0.12"/>
</linearGradient>
<linearGradient id="paint5_linear_15_1165" x1="197.5" y1="112" x2="197.5" y2="177" gradientUnits="userSpaceOnUse">
<stop stop-color="#3DE09C"/>
<stop offset="1" stop-color="#3DE19D" stop-opacity="0.35"/>
</linearGradient>
<linearGradient id="paint6_linear_15_1165" x1="314.5" y1="94" x2="314.5" y2="39" gradientUnits="userSpaceOnUse">
<stop stop-color="#262626"/>
<stop offset="1" stop-color="#2D2D2D"/>
</linearGradient>
<linearGradient id="paint7_linear_15_1165" x1="335.018" y1="103.36" x2="310.859" y2="37.1307" gradientUnits="userSpaceOnUse">
<stop stop-color="#FF8C00"/>
<stop offset="1" stop-color="#F08300" stop-opacity="0"/>
</linearGradient>
</defs>
</svg>
