<svg width="419" height="372" viewBox="0 0 419 372" fill="none" xmlns="http://www.w3.org/2000/svg">
<mask id="mask0_15_1093" style="mask-type:alpha" maskUnits="userSpaceOnUse" x="57" y="5" width="306" height="306">
<circle cx="209.956" cy="157.784" r="152.784" fill="url(#paint0_radial_15_1093)"/>
</mask>
<g mask="url(#mask0_15_1093)">
<line opacity="0.3" x1="-28.3398" y1="12.6989" x2="448.024" y2="12.6989" stroke="#3B6D5B" stroke-width="0.976786"/>
<line opacity="0.3" x1="-28.3398" y1="33.3381" x2="448.024" y2="33.3381" stroke="#3B6D5B" stroke-width="0.976786"/>
<line opacity="0.3" x1="-28.3398" y1="53.9774" x2="448.024" y2="53.9774" stroke="#3B6D5B" stroke-width="0.976786"/>
<line opacity="0.3" x1="-28.3398" y1="74.6177" x2="448.024" y2="74.6177" stroke="#3B6D5B" stroke-width="0.976786"/>
<line opacity="0.3" x1="-28.3398" y1="95.2572" x2="448.024" y2="95.2572" stroke="#3B6D5B" stroke-width="0.976786"/>
<line opacity="0.3" x1="-28.3398" y1="115.897" x2="448.024" y2="115.897" stroke="#3B6D5B" stroke-width="0.976786"/>
<line opacity="0.3" x1="-28.3398" y1="136.537" x2="448.024" y2="136.537" stroke="#3B6D5B" stroke-width="0.976786"/>
<line opacity="0.3" x1="-28.3398" y1="157.177" x2="448.024" y2="157.177" stroke="#3B6D5B" stroke-width="0.976786"/>
<line opacity="0.3" x1="-28.3398" y1="177.816" x2="448.024" y2="177.816" stroke="#3B6D5B" stroke-width="0.976786"/>
<line opacity="0.3" x1="-28.3398" y1="198.456" x2="448.024" y2="198.456" stroke="#3B6D5B" stroke-width="0.976786"/>
<line opacity="0.3" x1="-28.3398" y1="219.096" x2="448.024" y2="219.096" stroke="#3B6D5B" stroke-width="0.976786"/>
<line opacity="0.3" x1="-28.3398" y1="239.735" x2="448.024" y2="239.735" stroke="#3B6D5B" stroke-width="0.976786"/>
<line opacity="0.3" x1="-28.3398" y1="260.375" x2="448.024" y2="260.375" stroke="#3B6D5B" stroke-width="0.976786"/>
<line opacity="0.3" x1="-28.3398" y1="281.014" x2="448.024" y2="281.014" stroke="#3B6D5B" stroke-width="0.976786"/>
<line opacity="0.3" x1="-28.3398" y1="301.654" x2="448.024" y2="301.654" stroke="#3B6D5B" stroke-width="0.976786"/>
<line opacity="0.3" x1="354.805" y1="-80.5178" x2="354.805" y2="395.846" stroke="#3B6D5B" stroke-width="0.976786"/>
<line opacity="0.3" x1="334.164" y1="-80.5178" x2="334.164" y2="395.846" stroke="#3B6D5B" stroke-width="0.976786"/>
<line opacity="0.3" x1="313.524" y1="-80.5178" x2="313.524" y2="395.846" stroke="#3B6D5B" stroke-width="0.976786"/>
<line opacity="0.3" x1="292.887" y1="-80.5178" x2="292.887" y2="395.846" stroke="#3B6D5B" stroke-width="0.976786"/>
<line opacity="0.3" x1="272.246" y1="-80.5178" x2="272.246" y2="395.846" stroke="#3B6D5B" stroke-width="0.976786"/>
<line opacity="0.3" x1="251.606" y1="-80.5178" x2="251.606" y2="395.846" stroke="#3B6D5B" stroke-width="0.976786"/>
<line opacity="0.3" x1="230.965" y1="-80.5178" x2="230.965" y2="395.846" stroke="#3B6D5B" stroke-width="0.976786"/>
<line opacity="0.3" x1="210.324" y1="-80.5178" x2="210.324" y2="395.846" stroke="#3B6D5B" stroke-width="0.976786"/>
<line opacity="0.3" x1="189.684" y1="-80.5178" x2="189.684" y2="395.846" stroke="#3B6D5B" stroke-width="0.976786"/>
<line opacity="0.3" x1="169.051" y1="-80.5178" x2="169.051" y2="395.846" stroke="#3B6D5B" stroke-width="0.976786"/>
<line opacity="0.3" x1="148.406" y1="-80.5178" x2="148.406" y2="395.846" stroke="#3B6D5B" stroke-width="0.976786"/>
<line opacity="0.3" x1="127.77" y1="-80.5178" x2="127.77" y2="395.846" stroke="#3B6D5B" stroke-width="0.976786"/>
<line opacity="0.3" x1="107.133" y1="-80.5178" x2="107.133" y2="395.846" stroke="#3B6D5B" stroke-width="0.976786"/>
<line opacity="0.3" x1="86.4884" y1="-80.5178" x2="86.4884" y2="395.846" stroke="#3B6D5B" stroke-width="0.976786"/>
<line opacity="0.3" x1="65.8439" y1="-80.5178" x2="65.8438" y2="395.846" stroke="#3B6D5B" stroke-width="0.976786"/>
</g>
<g filter="url(#filter0_f_15_1093)">
<ellipse cx="209.513" cy="243.302" rx="170.513" ry="89.1676" fill="url(#paint1_radial_15_1093)"/>
</g>
<g filter="url(#filter1_d_15_1093)">
<circle cx="209.961" cy="157.784" r="144.441" stroke="#1D2E29" stroke-width="16.6863" shape-rendering="crispEdges"/>
</g>
<circle cx="209.961" cy="157.784" r="134.534" fill="#0D0D0D" fill-opacity="0.2"/>
<circle cx="209.961" cy="157.784" r="134.534" stroke="url(#paint2_linear_15_1093)" stroke-width="3.12869"/>
<circle cx="209.961" cy="157.784" r="134.534" stroke="url(#paint3_linear_15_1093)" stroke-width="3.12869"/>
<mask id="mask1_15_1093" style="mask-type:alpha" maskUnits="userSpaceOnUse" x="85" y="33" width="250" height="250">
<circle cx="209.962" cy="157.784" r="124.626" fill="#D9D9D9"/>
</mask>
<g mask="url(#mask1_15_1093)">
<g opacity="0.3" filter="url(#filter2_f_15_1093)">
<ellipse cx="221.955" cy="310.568" rx="136.619" ry="88.6461" fill="#19DED2"/>
</g>
<ellipse cx="271.493" cy="193.764" rx="68.3097" ry="67.7882" fill="url(#paint4_radial_15_1093)" fill-opacity="0.1" stroke="#3DE19D" stroke-width="3.12869"/>
<ellipse cx="273.58" cy="195.85" rx="61.0094" ry="60.4879" fill="url(#paint5_radial_15_1093)" fill-opacity="0.1"/>
<path d="M231.567 186.117H234.574V196.122C234.574 196.699 234.598 197.285 234.646 197.878C234.71 198.471 234.87 199.008 235.127 199.489C235.4 199.954 235.8 200.339 236.33 200.644C236.875 200.949 237.636 201.101 238.615 201.101C239.593 201.101 240.346 200.949 240.875 200.644C241.421 200.339 241.821 199.954 242.078 199.489C242.351 199.008 242.511 198.471 242.559 197.878C242.623 197.285 242.655 196.699 242.655 196.122V186.117H245.662V197.108C245.662 198.215 245.493 199.177 245.157 199.994C244.82 200.812 244.339 201.502 243.714 202.063C243.104 202.608 242.367 203.017 241.501 203.29C240.635 203.562 239.673 203.698 238.615 203.698C237.556 203.698 236.594 203.562 235.728 203.29C234.862 203.017 234.117 202.608 233.492 202.063C232.882 201.502 232.409 200.812 232.072 199.994C231.736 199.177 231.567 198.215 231.567 197.108V186.117ZM248.805 186.117H251.547V195.882L256.501 190.855H259.869L255.106 195.425L260.326 203.29H256.982L253.182 197.253L251.547 198.84V203.29H248.805V186.117ZM261.651 190.855H264.225V193.26H264.273C264.353 192.923 264.505 192.595 264.73 192.274C264.97 191.953 265.251 191.665 265.572 191.408C265.908 191.135 266.277 190.919 266.678 190.759C267.079 190.598 267.488 190.518 267.905 190.518C268.225 190.518 268.442 190.526 268.554 190.542C268.682 190.558 268.811 190.574 268.939 190.59V193.236C268.746 193.204 268.546 193.18 268.337 193.164C268.145 193.132 267.953 193.116 267.76 193.116C267.295 193.116 266.854 193.212 266.437 193.404C266.037 193.581 265.684 193.853 265.379 194.222C265.074 194.575 264.834 195.016 264.658 195.545C264.481 196.074 264.393 196.683 264.393 197.373V203.29H261.651V190.855ZM280.521 200.524C280.521 200.86 280.561 201.101 280.641 201.245C280.738 201.389 280.914 201.462 281.171 201.462C281.251 201.462 281.347 201.462 281.459 201.462C281.571 201.462 281.7 201.446 281.844 201.414V203.314C281.748 203.346 281.62 203.378 281.459 203.41C281.315 203.458 281.163 203.498 281.002 203.53C280.842 203.562 280.682 203.586 280.521 203.602C280.361 203.618 280.225 203.626 280.112 203.626C279.551 203.626 279.086 203.514 278.717 203.29C278.349 203.065 278.108 202.672 277.996 202.111C277.451 202.64 276.777 203.025 275.975 203.265C275.19 203.506 274.428 203.626 273.691 203.626C273.129 203.626 272.592 203.546 272.079 203.386C271.566 203.241 271.109 203.025 270.708 202.736C270.323 202.432 270.011 202.055 269.77 201.606C269.546 201.141 269.433 200.604 269.433 199.994C269.433 199.225 269.57 198.599 269.842 198.118C270.131 197.637 270.5 197.261 270.949 196.988C271.414 196.715 271.927 196.523 272.488 196.411C273.065 196.282 273.642 196.186 274.22 196.122C274.717 196.026 275.19 195.962 275.639 195.93C276.088 195.882 276.481 195.809 276.817 195.713C277.17 195.617 277.443 195.473 277.635 195.28C277.843 195.072 277.948 194.767 277.948 194.366C277.948 194.014 277.859 193.725 277.683 193.5C277.523 193.276 277.314 193.108 277.058 192.995C276.817 192.867 276.545 192.787 276.24 192.755C275.935 192.707 275.647 192.683 275.374 192.683C274.604 192.683 273.971 192.843 273.474 193.164C272.977 193.484 272.696 193.982 272.632 194.655H269.89C269.938 193.853 270.131 193.188 270.468 192.659C270.804 192.13 271.229 191.705 271.742 191.384C272.271 191.063 272.865 190.839 273.522 190.71C274.18 190.582 274.853 190.518 275.542 190.518C276.152 190.518 276.753 190.582 277.346 190.71C277.94 190.839 278.469 191.047 278.934 191.336C279.415 191.624 279.8 192.001 280.088 192.466C280.377 192.915 280.521 193.468 280.521 194.126V200.524ZM277.779 197.06C277.362 197.333 276.849 197.501 276.24 197.565C275.631 197.613 275.021 197.694 274.412 197.806C274.123 197.854 273.843 197.926 273.57 198.022C273.298 198.102 273.057 198.223 272.849 198.383C272.64 198.527 272.472 198.728 272.344 198.984C272.231 199.225 272.175 199.521 272.175 199.874C272.175 200.179 272.263 200.435 272.44 200.644C272.616 200.852 272.825 201.021 273.065 201.149C273.322 201.261 273.594 201.341 273.883 201.389C274.188 201.438 274.46 201.462 274.701 201.462C275.005 201.462 275.334 201.422 275.687 201.341C276.04 201.261 276.368 201.125 276.673 200.932C276.994 200.74 277.258 200.5 277.467 200.211C277.675 199.906 277.779 199.537 277.779 199.105V197.06ZM283.544 186.117H286.286V188.714H283.544V186.117ZM283.544 190.855H286.286V203.29H283.544V190.855ZM289.273 190.855H291.871V192.683L291.919 192.731C292.336 192.041 292.881 191.504 293.554 191.119C294.228 190.718 294.973 190.518 295.791 190.518C297.154 190.518 298.228 190.871 299.014 191.576C299.8 192.282 300.193 193.34 300.193 194.751V203.29H297.451V195.473C297.419 194.495 297.21 193.789 296.825 193.356C296.44 192.907 295.839 192.683 295.021 192.683C294.556 192.683 294.14 192.771 293.771 192.947C293.402 193.108 293.089 193.34 292.833 193.645C292.576 193.933 292.376 194.278 292.231 194.679C292.087 195.08 292.015 195.505 292.015 195.954V203.29H289.273V190.855ZM311.622 195.978C311.59 195.545 311.494 195.128 311.334 194.727C311.189 194.326 310.981 193.982 310.708 193.693C310.452 193.388 310.131 193.148 309.746 192.971C309.378 192.779 308.961 192.683 308.496 192.683C308.015 192.683 307.574 192.771 307.173 192.947C306.788 193.108 306.451 193.34 306.163 193.645C305.89 193.933 305.666 194.278 305.489 194.679C305.329 195.08 305.241 195.513 305.225 195.978H311.622ZM305.225 197.782C305.225 198.263 305.289 198.728 305.417 199.177C305.561 199.626 305.77 200.019 306.042 200.355C306.315 200.692 306.66 200.965 307.077 201.173C307.494 201.365 307.991 201.462 308.568 201.462C309.37 201.462 310.011 201.293 310.492 200.957C310.989 200.604 311.358 200.083 311.598 199.393H314.196C314.052 200.067 313.803 200.668 313.45 201.197C313.098 201.726 312.673 202.175 312.176 202.544C311.679 202.897 311.117 203.161 310.492 203.338C309.883 203.53 309.241 203.626 308.568 203.626C307.59 203.626 306.724 203.466 305.97 203.145C305.217 202.825 304.575 202.376 304.046 201.798C303.533 201.221 303.14 200.532 302.868 199.73C302.611 198.928 302.483 198.046 302.483 197.084C302.483 196.202 302.619 195.368 302.892 194.583C303.18 193.781 303.581 193.084 304.094 192.49C304.623 191.881 305.257 191.4 305.994 191.047C306.732 190.694 307.566 190.518 308.496 190.518C309.474 190.518 310.348 190.727 311.117 191.143C311.903 191.544 312.552 192.081 313.066 192.755C313.579 193.428 313.947 194.206 314.172 195.088C314.412 195.954 314.477 196.852 314.364 197.782H305.225Z" fill="#3DE19D"/>
<path d="M231.567 186.117H234.574V196.122C234.574 196.699 234.598 197.285 234.646 197.878C234.71 198.471 234.87 199.008 235.127 199.489C235.4 199.954 235.8 200.339 236.33 200.644C236.875 200.949 237.636 201.101 238.615 201.101C239.593 201.101 240.346 200.949 240.875 200.644C241.421 200.339 241.821 199.954 242.078 199.489C242.351 199.008 242.511 198.471 242.559 197.878C242.623 197.285 242.655 196.699 242.655 196.122V186.117H245.662V197.108C245.662 198.215 245.493 199.177 245.157 199.994C244.82 200.812 244.339 201.502 243.714 202.063C243.104 202.608 242.367 203.017 241.501 203.29C240.635 203.562 239.673 203.698 238.615 203.698C237.556 203.698 236.594 203.562 235.728 203.29C234.862 203.017 234.117 202.608 233.492 202.063C232.882 201.502 232.409 200.812 232.072 199.994C231.736 199.177 231.567 198.215 231.567 197.108V186.117ZM248.805 186.117H251.547V195.882L256.501 190.855H259.869L255.106 195.425L260.326 203.29H256.982L253.182 197.253L251.547 198.84V203.29H248.805V186.117ZM261.651 190.855H264.225V193.26H264.273C264.353 192.923 264.505 192.595 264.73 192.274C264.97 191.953 265.251 191.665 265.572 191.408C265.908 191.135 266.277 190.919 266.678 190.759C267.079 190.598 267.488 190.518 267.905 190.518C268.225 190.518 268.442 190.526 268.554 190.542C268.682 190.558 268.811 190.574 268.939 190.59V193.236C268.746 193.204 268.546 193.18 268.337 193.164C268.145 193.132 267.953 193.116 267.76 193.116C267.295 193.116 266.854 193.212 266.437 193.404C266.037 193.581 265.684 193.853 265.379 194.222C265.074 194.575 264.834 195.016 264.658 195.545C264.481 196.074 264.393 196.683 264.393 197.373V203.29H261.651V190.855ZM280.521 200.524C280.521 200.86 280.561 201.101 280.641 201.245C280.738 201.389 280.914 201.462 281.171 201.462C281.251 201.462 281.347 201.462 281.459 201.462C281.571 201.462 281.7 201.446 281.844 201.414V203.314C281.748 203.346 281.62 203.378 281.459 203.41C281.315 203.458 281.163 203.498 281.002 203.53C280.842 203.562 280.682 203.586 280.521 203.602C280.361 203.618 280.225 203.626 280.112 203.626C279.551 203.626 279.086 203.514 278.717 203.29C278.349 203.065 278.108 202.672 277.996 202.111C277.451 202.64 276.777 203.025 275.975 203.265C275.19 203.506 274.428 203.626 273.691 203.626C273.129 203.626 272.592 203.546 272.079 203.386C271.566 203.241 271.109 203.025 270.708 202.736C270.323 202.432 270.011 202.055 269.77 201.606C269.546 201.141 269.433 200.604 269.433 199.994C269.433 199.225 269.57 198.599 269.842 198.118C270.131 197.637 270.5 197.261 270.949 196.988C271.414 196.715 271.927 196.523 272.488 196.411C273.065 196.282 273.642 196.186 274.22 196.122C274.717 196.026 275.19 195.962 275.639 195.93C276.088 195.882 276.481 195.809 276.817 195.713C277.17 195.617 277.443 195.473 277.635 195.28C277.843 195.072 277.948 194.767 277.948 194.366C277.948 194.014 277.859 193.725 277.683 193.5C277.523 193.276 277.314 193.108 277.058 192.995C276.817 192.867 276.545 192.787 276.24 192.755C275.935 192.707 275.647 192.683 275.374 192.683C274.604 192.683 273.971 192.843 273.474 193.164C272.977 193.484 272.696 193.982 272.632 194.655H269.89C269.938 193.853 270.131 193.188 270.468 192.659C270.804 192.13 271.229 191.705 271.742 191.384C272.271 191.063 272.865 190.839 273.522 190.71C274.18 190.582 274.853 190.518 275.542 190.518C276.152 190.518 276.753 190.582 277.346 190.71C277.94 190.839 278.469 191.047 278.934 191.336C279.415 191.624 279.8 192.001 280.088 192.466C280.377 192.915 280.521 193.468 280.521 194.126V200.524ZM277.779 197.06C277.362 197.333 276.849 197.501 276.24 197.565C275.631 197.613 275.021 197.694 274.412 197.806C274.123 197.854 273.843 197.926 273.57 198.022C273.298 198.102 273.057 198.223 272.849 198.383C272.64 198.527 272.472 198.728 272.344 198.984C272.231 199.225 272.175 199.521 272.175 199.874C272.175 200.179 272.263 200.435 272.44 200.644C272.616 200.852 272.825 201.021 273.065 201.149C273.322 201.261 273.594 201.341 273.883 201.389C274.188 201.438 274.46 201.462 274.701 201.462C275.005 201.462 275.334 201.422 275.687 201.341C276.04 201.261 276.368 201.125 276.673 200.932C276.994 200.74 277.258 200.5 277.467 200.211C277.675 199.906 277.779 199.537 277.779 199.105V197.06ZM283.544 186.117H286.286V188.714H283.544V186.117ZM283.544 190.855H286.286V203.29H283.544V190.855ZM289.273 190.855H291.871V192.683L291.919 192.731C292.336 192.041 292.881 191.504 293.554 191.119C294.228 190.718 294.973 190.518 295.791 190.518C297.154 190.518 298.228 190.871 299.014 191.576C299.8 192.282 300.193 193.34 300.193 194.751V203.29H297.451V195.473C297.419 194.495 297.21 193.789 296.825 193.356C296.44 192.907 295.839 192.683 295.021 192.683C294.556 192.683 294.14 192.771 293.771 192.947C293.402 193.108 293.089 193.34 292.833 193.645C292.576 193.933 292.376 194.278 292.231 194.679C292.087 195.08 292.015 195.505 292.015 195.954V203.29H289.273V190.855ZM311.622 195.978C311.59 195.545 311.494 195.128 311.334 194.727C311.189 194.326 310.981 193.982 310.708 193.693C310.452 193.388 310.131 193.148 309.746 192.971C309.378 192.779 308.961 192.683 308.496 192.683C308.015 192.683 307.574 192.771 307.173 192.947C306.788 193.108 306.451 193.34 306.163 193.645C305.89 193.933 305.666 194.278 305.489 194.679C305.329 195.08 305.241 195.513 305.225 195.978H311.622ZM305.225 197.782C305.225 198.263 305.289 198.728 305.417 199.177C305.561 199.626 305.77 200.019 306.042 200.355C306.315 200.692 306.66 200.965 307.077 201.173C307.494 201.365 307.991 201.462 308.568 201.462C309.37 201.462 310.011 201.293 310.492 200.957C310.989 200.604 311.358 200.083 311.598 199.393H314.196C314.052 200.067 313.803 200.668 313.45 201.197C313.098 201.726 312.673 202.175 312.176 202.544C311.679 202.897 311.117 203.161 310.492 203.338C309.883 203.53 309.241 203.626 308.568 203.626C307.59 203.626 306.724 203.466 305.97 203.145C305.217 202.825 304.575 202.376 304.046 201.798C303.533 201.221 303.14 200.532 302.868 199.73C302.611 198.928 302.483 198.046 302.483 197.084C302.483 196.202 302.619 195.368 302.892 194.583C303.18 193.781 303.581 193.084 304.094 192.49C304.623 191.881 305.257 191.4 305.994 191.047C306.732 190.694 307.566 190.518 308.496 190.518C309.474 190.518 310.348 190.727 311.117 191.143C311.903 191.544 312.552 192.081 313.066 192.755C313.579 193.428 313.947 194.206 314.172 195.088C314.412 195.954 314.477 196.852 314.364 197.782H305.225Z" fill="#9EFBD4"/>
<circle cx="180.759" cy="78.5242" r="62.0523" fill="url(#paint6_radial_15_1093)" fill-opacity="0.1" stroke="#3DE19D" stroke-width="3.12869"/>
<ellipse cx="180.764" cy="75.9169" rx="57.8807" ry="57.3593" fill="url(#paint7_radial_15_1093)" fill-opacity="0.1"/>
<path d="M155.392 63.3782H157.642V70.8665C157.642 71.2985 157.66 71.7365 157.696 72.1806C157.744 72.6246 157.864 73.0266 158.056 73.3866C158.26 73.7346 158.56 74.0226 158.956 74.2506C159.364 74.4786 159.934 74.5927 160.666 74.5927C161.398 74.5927 161.962 74.4786 162.358 74.2506C162.766 74.0226 163.066 73.7346 163.258 73.3866C163.462 73.0266 163.582 72.6246 163.618 72.1806C163.666 71.7365 163.69 71.2985 163.69 70.8665V63.3782H165.94V71.6045C165.94 72.4326 165.814 73.1526 165.562 73.7646C165.31 74.3766 164.95 74.8927 164.482 75.3127C164.026 75.7207 163.474 76.0267 162.826 76.2307C162.178 76.4347 161.458 76.5367 160.666 76.5367C159.874 76.5367 159.154 76.4347 158.506 76.2307C157.858 76.0267 157.3 75.7207 156.832 75.3127C156.376 74.8927 156.022 74.3766 155.77 73.7646C155.518 73.1526 155.392 72.4326 155.392 71.6045V63.3782ZM168.239 66.9244H170.183V68.2924L170.219 68.3284C170.531 67.8124 170.939 67.4104 171.443 67.1224C171.947 66.8224 172.505 66.6724 173.117 66.6724C174.137 66.6724 174.941 66.9364 175.529 67.4644C176.117 67.9924 176.411 68.7844 176.411 69.8405V76.2307H174.359V70.3805C174.335 69.6485 174.179 69.1205 173.891 68.7964C173.603 68.4604 173.153 68.2924 172.541 68.2924C172.193 68.2924 171.881 68.3584 171.605 68.4904C171.329 68.6104 171.095 68.7844 170.903 69.0124C170.711 69.2285 170.561 69.4865 170.453 69.7865C170.345 70.0865 170.291 70.4045 170.291 70.7405V76.2307H168.239V66.9244ZM178.629 63.3782H180.681V65.3223H178.629V63.3782ZM178.629 66.9244H180.681V76.2307H178.629V66.9244ZM181.981 66.9244H183.529V64.1343H185.581V66.9244H187.435V68.4544H185.581V73.4226C185.581 73.6386 185.587 73.8246 185.599 73.9806C185.623 74.1366 185.665 74.2686 185.725 74.3766C185.797 74.4846 185.899 74.5687 186.031 74.6287C186.163 74.6767 186.343 74.7007 186.571 74.7007C186.715 74.7007 186.859 74.7007 187.003 74.7007C187.147 74.6887 187.291 74.6647 187.435 74.6287V76.2127C187.207 76.2367 186.985 76.2607 186.769 76.2847C186.553 76.3087 186.331 76.3207 186.103 76.3207C185.563 76.3207 185.125 76.2727 184.789 76.1767C184.465 76.0687 184.207 75.9187 184.015 75.7267C183.835 75.5227 183.709 75.2707 183.637 74.9707C183.577 74.6707 183.541 74.3286 183.529 73.9446V68.4544H181.981V66.9244ZM195.302 70.7585C195.278 70.4345 195.206 70.1225 195.086 69.8225C194.978 69.5225 194.822 69.2645 194.618 69.0484C194.426 68.8204 194.186 68.6404 193.898 68.5084C193.622 68.3644 193.31 68.2924 192.962 68.2924C192.601 68.2924 192.271 68.3584 191.971 68.4904C191.683 68.6104 191.431 68.7844 191.215 69.0124C191.011 69.2285 190.843 69.4865 190.711 69.7865C190.591 70.0865 190.525 70.4105 190.513 70.7585H195.302ZM190.513 72.1086C190.513 72.4686 190.561 72.8166 190.657 73.1526C190.765 73.4886 190.921 73.7826 191.125 74.0346C191.329 74.2866 191.587 74.4906 191.899 74.6467C192.211 74.7907 192.583 74.8627 193.016 74.8627C193.616 74.8627 194.096 74.7367 194.456 74.4846C194.828 74.2206 195.104 73.8306 195.284 73.3146H197.228C197.12 73.8186 196.934 74.2686 196.67 74.6647C196.406 75.0607 196.088 75.3967 195.716 75.6727C195.344 75.9367 194.924 76.1347 194.456 76.2667C194 76.4107 193.52 76.4827 193.016 76.4827C192.283 76.4827 191.635 76.3627 191.071 76.1227C190.507 75.8827 190.027 75.5467 189.631 75.1147C189.247 74.6827 188.953 74.1666 188.749 73.5666C188.557 72.9666 188.461 72.3066 188.461 71.5865C188.461 70.9265 188.563 70.3025 188.767 69.7145C188.983 69.1145 189.283 68.5924 189.667 68.1484C190.063 67.6924 190.537 67.3324 191.089 67.0684C191.641 66.8044 192.265 66.6724 192.962 66.6724C193.694 66.6724 194.348 66.8284 194.924 67.1404C195.512 67.4404 195.998 67.8424 196.382 68.3464C196.766 68.8504 197.042 69.4325 197.21 70.0925C197.39 70.7405 197.438 71.4125 197.354 72.1086H190.513ZM207.68 76.2307H205.736V74.9707H205.7C205.424 75.5107 205.022 75.9007 204.494 76.1407C203.966 76.3687 203.408 76.4827 202.82 76.4827C202.088 76.4827 201.446 76.3567 200.894 76.1047C200.354 75.8407 199.904 75.4867 199.544 75.0427C199.184 74.5987 198.914 74.0766 198.734 73.4766C198.554 72.8646 198.464 72.2106 198.464 71.5145C198.464 70.6745 198.578 69.9485 198.806 69.3365C199.034 68.7244 199.334 68.2204 199.706 67.8244C200.09 67.4284 200.522 67.1404 201.002 66.9604C201.494 66.7684 201.992 66.6724 202.496 66.6724C202.784 66.6724 203.078 66.7024 203.378 66.7624C203.678 66.8104 203.966 66.8944 204.242 67.0144C204.518 67.1344 204.77 67.2904 204.998 67.4824C205.238 67.6624 205.436 67.8784 205.592 68.1304H205.628V63.3782H207.68V76.2307ZM200.516 71.6765C200.516 72.0726 200.564 72.4626 200.66 72.8466C200.768 73.2306 200.924 73.5726 201.128 73.8726C201.344 74.1726 201.614 74.4126 201.938 74.5927C202.262 74.7727 202.646 74.8627 203.09 74.8627C203.546 74.8627 203.936 74.7667 204.26 74.5747C204.596 74.3826 204.866 74.1306 205.07 73.8186C205.286 73.5066 205.442 73.1586 205.538 72.7746C205.646 72.3786 205.7 71.9766 205.7 71.5685C205.7 70.5365 205.466 69.7325 204.998 69.1565C204.542 68.5804 203.918 68.2924 203.126 68.2924C202.646 68.2924 202.238 68.3944 201.902 68.5984C201.578 68.7904 201.308 69.0484 201.092 69.3725C200.888 69.6845 200.738 70.0445 200.642 70.4525C200.558 70.8485 200.516 71.2565 200.516 71.6765ZM157.012 91.9466C157.012 92.4386 157.096 92.8586 157.264 93.2066C157.432 93.5546 157.666 93.8426 157.966 94.0706C158.266 94.2866 158.608 94.4486 158.992 94.5567C159.388 94.6527 159.814 94.7007 160.27 94.7007C160.762 94.7007 161.182 94.6467 161.53 94.5387C161.878 94.4186 162.16 94.2686 162.376 94.0886C162.592 93.9086 162.748 93.7046 162.844 93.4766C162.94 93.2366 162.988 92.9966 162.988 92.7566C162.988 92.2646 162.874 91.9046 162.646 91.6765C162.43 91.4365 162.19 91.2685 161.926 91.1725C161.47 91.0045 160.936 90.8485 160.324 90.7045C159.724 90.5485 158.98 90.3505 158.092 90.1105C157.54 89.9665 157.078 89.7805 156.706 89.5525C156.346 89.3125 156.058 89.0484 155.842 88.7604C155.626 88.4724 155.47 88.1664 155.374 87.8424C155.29 87.5184 155.248 87.1884 155.248 86.8524C155.248 86.2043 155.38 85.6463 155.644 85.1783C155.92 84.6983 156.28 84.3023 156.724 83.9903C157.168 83.6782 157.672 83.4502 158.236 83.3062C158.8 83.1502 159.37 83.0722 159.946 83.0722C160.618 83.0722 161.248 83.1622 161.836 83.3422C162.436 83.5102 162.958 83.7683 163.402 84.1163C163.858 84.4643 164.218 84.8963 164.482 85.4123C164.746 85.9163 164.878 86.5044 164.878 87.1764H162.628C162.568 86.3483 162.286 85.7663 161.782 85.4303C161.278 85.0823 160.636 84.9083 159.856 84.9083C159.592 84.9083 159.322 84.9383 159.046 84.9983C158.77 85.0463 158.518 85.1363 158.29 85.2683C158.062 85.3883 157.87 85.5563 157.714 85.7723C157.57 85.9883 157.498 86.2583 157.498 86.5824C157.498 87.0384 157.636 87.3984 157.912 87.6624C158.2 87.9144 158.572 88.1064 159.028 88.2384C159.076 88.2504 159.262 88.3044 159.586 88.4004C159.922 88.4844 160.294 88.5804 160.702 88.6884C161.11 88.7964 161.506 88.9044 161.89 89.0124C162.286 89.1085 162.568 89.1805 162.736 89.2285C163.156 89.3605 163.522 89.5405 163.834 89.7685C164.146 89.9965 164.404 90.2605 164.608 90.5605C164.824 90.8485 164.98 91.1605 165.076 91.4965C165.184 91.8326 165.238 92.1686 165.238 92.5046C165.238 93.2246 165.088 93.8426 164.788 94.3586C164.5 94.8627 164.116 95.2767 163.636 95.6007C163.156 95.9247 162.61 96.1587 161.998 96.3027C161.386 96.4587 160.762 96.5367 160.126 96.5367C159.394 96.5367 158.704 96.4467 158.056 96.2667C157.408 96.0867 156.844 95.8107 156.364 95.4387C155.884 95.0667 155.5 94.5927 155.212 94.0166C154.924 93.4286 154.774 92.7386 154.762 91.9466H157.012ZM165.984 86.9244H167.532V84.1343H169.584V86.9244H171.438V88.4544H169.584V93.4226C169.584 93.6386 169.59 93.8246 169.602 93.9806C169.626 94.1366 169.668 94.2686 169.728 94.3766C169.8 94.4846 169.902 94.5687 170.034 94.6287C170.166 94.6767 170.346 94.7007 170.574 94.7007C170.718 94.7007 170.862 94.7007 171.006 94.7007C171.15 94.6887 171.294 94.6647 171.438 94.6287V96.2127C171.21 96.2367 170.988 96.2607 170.772 96.2847C170.556 96.3087 170.334 96.3207 170.106 96.3207C169.566 96.3207 169.128 96.2727 168.792 96.1767C168.468 96.0687 168.21 95.9187 168.018 95.7267C167.838 95.5227 167.712 95.2707 167.64 94.9707C167.58 94.6707 167.544 94.3286 167.532 93.9446V88.4544H165.984V86.9244ZM180.709 94.1606C180.709 94.4126 180.739 94.5927 180.799 94.7007C180.871 94.8087 181.003 94.8627 181.195 94.8627C181.255 94.8627 181.327 94.8627 181.411 94.8627C181.495 94.8627 181.591 94.8507 181.699 94.8267V96.2487C181.627 96.2727 181.531 96.2967 181.411 96.3207C181.303 96.3567 181.189 96.3867 181.069 96.4107C180.949 96.4347 180.829 96.4527 180.709 96.4647C180.589 96.4767 180.487 96.4827 180.403 96.4827C179.983 96.4827 179.635 96.3987 179.359 96.2307C179.083 96.0627 178.903 95.7687 178.819 95.3487C178.411 95.7447 177.907 96.0327 177.307 96.2127C176.719 96.3927 176.149 96.4827 175.597 96.4827C175.177 96.4827 174.775 96.4227 174.391 96.3027C174.007 96.1947 173.665 96.0327 173.365 95.8167C173.077 95.5887 172.843 95.3067 172.663 94.9707C172.495 94.6227 172.411 94.2206 172.411 93.7646C172.411 93.1886 172.513 92.7206 172.717 92.3606C172.933 92.0006 173.209 91.7185 173.545 91.5145C173.893 91.3105 174.277 91.1665 174.697 91.0825C175.129 90.9865 175.561 90.9145 175.993 90.8665C176.365 90.7945 176.719 90.7465 177.055 90.7225C177.391 90.6865 177.685 90.6325 177.937 90.5605C178.201 90.4885 178.405 90.3805 178.549 90.2365C178.705 90.0805 178.783 89.8525 178.783 89.5525C178.783 89.2885 178.717 89.0724 178.585 88.9044C178.465 88.7364 178.309 88.6104 178.117 88.5264C177.937 88.4304 177.733 88.3704 177.505 88.3464C177.277 88.3104 177.061 88.2924 176.857 88.2924C176.281 88.2924 175.807 88.4124 175.435 88.6524C175.063 88.8924 174.853 89.2645 174.805 89.7685H172.753C172.789 89.1685 172.933 88.6704 173.185 88.2744C173.437 87.8784 173.755 87.5604 174.139 87.3204C174.535 87.0804 174.979 86.9124 175.471 86.8164C175.963 86.7204 176.467 86.6724 176.983 86.6724C177.439 86.6724 177.889 86.7204 178.333 86.8164C178.777 86.9124 179.173 87.0684 179.521 87.2844C179.881 87.5004 180.169 87.7824 180.385 88.1304C180.601 88.4664 180.709 88.8804 180.709 89.3725V94.1606ZM178.657 91.5685C178.345 91.7725 177.961 91.8986 177.505 91.9466C177.049 91.9826 176.593 92.0426 176.137 92.1266C175.921 92.1626 175.711 92.2166 175.507 92.2886C175.303 92.3486 175.123 92.4386 174.967 92.5586C174.811 92.6666 174.685 92.8166 174.589 93.0086C174.505 93.1886 174.463 93.4106 174.463 93.6746C174.463 93.9026 174.529 94.0946 174.661 94.2506C174.793 94.4066 174.949 94.5327 175.129 94.6287C175.321 94.7127 175.525 94.7727 175.741 94.8087C175.969 94.8447 176.173 94.8627 176.353 94.8627C176.581 94.8627 176.827 94.8327 177.091 94.7727C177.355 94.7127 177.601 94.6107 177.829 94.4666C178.069 94.3226 178.267 94.1426 178.423 93.9266C178.579 93.6986 178.657 93.4226 178.657 93.0986V91.5685ZM181.981 86.9244H183.529V84.1343H185.581V86.9244H187.435V88.4544H185.581V93.4226C185.581 93.6386 185.587 93.8246 185.599 93.9806C185.623 94.1366 185.665 94.2686 185.725 94.3766C185.797 94.4846 185.899 94.5687 186.031 94.6287C186.163 94.6767 186.343 94.7007 186.571 94.7007C186.715 94.7007 186.859 94.7007 187.003 94.7007C187.147 94.6887 187.291 94.6647 187.435 94.6287V96.2127C187.207 96.2367 186.985 96.2607 186.769 96.2847C186.553 96.3087 186.331 96.3207 186.103 96.3207C185.563 96.3207 185.125 96.2727 184.789 96.1767C184.465 96.0687 184.207 95.9187 184.015 95.7267C183.835 95.5227 183.709 95.2707 183.637 94.9707C183.577 94.6707 183.541 94.3286 183.529 93.9446V88.4544H181.981V86.9244ZM195.302 90.7585C195.278 90.4345 195.206 90.1225 195.086 89.8225C194.978 89.5225 194.822 89.2645 194.618 89.0484C194.426 88.8204 194.186 88.6404 193.898 88.5084C193.622 88.3644 193.31 88.2924 192.962 88.2924C192.601 88.2924 192.271 88.3584 191.971 88.4904C191.683 88.6104 191.431 88.7844 191.215 89.0124C191.011 89.2285 190.843 89.4865 190.711 89.7865C190.591 90.0865 190.525 90.4105 190.513 90.7585H195.302ZM190.513 92.1086C190.513 92.4686 190.561 92.8166 190.657 93.1526C190.765 93.4886 190.921 93.7826 191.125 94.0346C191.329 94.2866 191.587 94.4906 191.899 94.6467C192.211 94.7907 192.583 94.8627 193.016 94.8627C193.616 94.8627 194.096 94.7367 194.456 94.4846C194.828 94.2206 195.104 93.8306 195.284 93.3146H197.228C197.12 93.8186 196.934 94.2686 196.67 94.6647C196.406 95.0607 196.088 95.3967 195.716 95.6727C195.344 95.9367 194.924 96.1347 194.456 96.2667C194 96.4107 193.52 96.4827 193.016 96.4827C192.283 96.4827 191.635 96.3627 191.071 96.1227C190.507 95.8827 190.027 95.5467 189.631 95.1147C189.247 94.6827 188.953 94.1666 188.749 93.5666C188.557 92.9666 188.461 92.3066 188.461 91.5865C188.461 90.9265 188.563 90.3025 188.767 89.7145C188.983 89.1145 189.283 88.5924 189.667 88.1484C190.063 87.6924 190.537 87.3324 191.089 87.0684C191.641 86.8044 192.265 86.6724 192.962 86.6724C193.694 86.6724 194.348 86.8284 194.924 87.1404C195.512 87.4404 195.998 87.8424 196.382 88.3464C196.766 88.8504 197.042 89.4325 197.21 90.0925C197.39 90.7405 197.438 91.4125 197.354 92.1086H190.513ZM200.462 93.2426C200.522 93.8426 200.75 94.2626 201.146 94.5026C201.542 94.7427 202.016 94.8627 202.568 94.8627C202.76 94.8627 202.976 94.8507 203.216 94.8267C203.468 94.7907 203.702 94.7307 203.918 94.6467C204.134 94.5627 204.308 94.4426 204.44 94.2866C204.584 94.1186 204.65 93.9026 204.638 93.6386C204.626 93.3746 204.53 93.1586 204.35 92.9906C204.17 92.8226 203.936 92.6906 203.648 92.5946C203.372 92.4866 203.054 92.3966 202.694 92.3246C202.334 92.2526 201.968 92.1746 201.596 92.0906C201.212 92.0066 200.84 91.9046 200.48 91.7845C200.132 91.6645 199.814 91.5025 199.526 91.2985C199.25 91.0945 199.028 90.8365 198.86 90.5245C198.692 90.2005 198.608 89.8045 198.608 89.3365C198.608 88.8324 198.728 88.4124 198.968 88.0764C199.22 87.7284 199.532 87.4524 199.904 87.2484C200.288 87.0324 200.708 86.8824 201.164 86.7984C201.632 86.7144 202.076 86.6724 202.496 86.6724C202.976 86.6724 203.432 86.7264 203.864 86.8344C204.308 86.9304 204.704 87.0924 205.052 87.3204C205.412 87.5484 205.706 87.8484 205.934 88.2204C206.174 88.5804 206.324 89.0184 206.384 89.5345H204.242C204.146 89.0424 203.918 88.7124 203.558 88.5444C203.21 88.3764 202.808 88.2924 202.352 88.2924C202.208 88.2924 202.034 88.3044 201.83 88.3284C201.638 88.3524 201.452 88.4004 201.272 88.4724C201.104 88.5324 200.96 88.6284 200.84 88.7604C200.72 88.8804 200.66 89.0424 200.66 89.2465C200.66 89.4985 200.744 89.7025 200.912 89.8585C201.092 90.0145 201.32 90.1465 201.596 90.2545C201.884 90.3505 202.208 90.4345 202.568 90.5065C202.928 90.5785 203.3 90.6565 203.684 90.7405C204.056 90.8245 204.422 90.9265 204.782 91.0465C205.142 91.1665 205.46 91.3285 205.736 91.5325C206.024 91.7365 206.252 91.9946 206.42 92.3066C206.6 92.6186 206.69 93.0026 206.69 93.4586C206.69 94.0106 206.564 94.4786 206.312 94.8627C206.06 95.2467 205.73 95.5587 205.322 95.7987C204.926 96.0387 204.482 96.2127 203.99 96.3207C203.498 96.4287 203.012 96.4827 202.532 96.4827C201.944 96.4827 201.398 96.4167 200.894 96.2847C200.402 96.1527 199.97 95.9547 199.598 95.6907C199.238 95.4147 198.95 95.0787 198.734 94.6827C198.53 94.2746 198.422 93.7946 198.41 93.2426H200.462Z" fill="#3DE19D"/>
<ellipse cx="125.487" cy="179.163" rx="52.6662" ry="52.1448" fill="url(#paint8_radial_15_1093)" fill-opacity="0.1" stroke="#3DE19D" stroke-width="2.08579"/>
<ellipse cx="122.358" cy="182.292" rx="48.4946" ry="47.9732" fill="url(#paint9_radial_15_1093)" fill-opacity="0.1"/>
<path d="M105.813 172.415H108.159V185.818H105.813V172.415ZM110.737 176.113H112.764V177.539L112.802 177.577C113.127 177.039 113.553 176.62 114.078 176.319C114.604 176.006 115.186 175.85 115.824 175.85C116.888 175.85 117.726 176.125 118.34 176.676C118.953 177.226 119.26 178.052 119.26 179.154V185.818H117.12V179.717C117.094 178.954 116.932 178.403 116.631 178.065C116.331 177.715 115.862 177.539 115.224 177.539C114.861 177.539 114.535 177.608 114.247 177.746C113.96 177.871 113.716 178.052 113.515 178.29C113.315 178.516 113.159 178.785 113.046 179.097C112.933 179.41 112.877 179.742 112.877 180.092V185.818H110.737V176.113ZM130.658 185.818H128.631V184.504H128.593C128.306 185.067 127.886 185.474 127.336 185.724C126.785 185.962 126.203 186.081 125.59 186.081C124.826 186.081 124.157 185.949 123.581 185.686C123.018 185.411 122.549 185.042 122.173 184.579C121.798 184.116 121.516 183.571 121.329 182.946C121.141 182.307 121.047 181.625 121.047 180.9C121.047 180.024 121.166 179.266 121.404 178.628C121.641 177.99 121.954 177.464 122.342 177.051C122.743 176.638 123.193 176.338 123.694 176.15C124.207 175.95 124.726 175.85 125.252 175.85C125.552 175.85 125.859 175.881 126.172 175.944C126.485 175.994 126.785 176.081 127.073 176.207C127.361 176.332 127.623 176.494 127.861 176.695C128.112 176.882 128.318 177.108 128.481 177.37H128.518V172.415H130.658V185.818ZM123.187 181.069C123.187 181.482 123.237 181.888 123.337 182.289C123.45 182.689 123.613 183.046 123.825 183.359C124.051 183.672 124.332 183.922 124.67 184.11C125.008 184.297 125.408 184.391 125.871 184.391C126.347 184.391 126.754 184.291 127.092 184.091C127.442 183.891 127.724 183.628 127.936 183.302C128.162 182.977 128.324 182.614 128.424 182.214C128.537 181.801 128.593 181.381 128.593 180.956C128.593 179.88 128.349 179.041 127.861 178.44C127.386 177.84 126.735 177.539 125.909 177.539C125.408 177.539 124.983 177.646 124.632 177.858C124.295 178.059 124.013 178.328 123.788 178.666C123.575 178.991 123.419 179.367 123.318 179.792C123.231 180.205 123.187 180.631 123.187 181.069ZM133.049 172.415H135.189V174.442H133.049V172.415ZM133.049 176.113H135.189V185.818H133.049V176.113ZM145.649 183.659C145.649 183.922 145.68 184.11 145.742 184.222C145.818 184.335 145.955 184.391 146.155 184.391C146.218 184.391 146.293 184.391 146.381 184.391C146.468 184.391 146.568 184.379 146.681 184.354V185.837C146.606 185.862 146.506 185.887 146.381 185.912C146.268 185.949 146.149 185.981 146.024 186.006C145.899 186.031 145.774 186.049 145.649 186.062C145.523 186.074 145.417 186.081 145.329 186.081C144.891 186.081 144.529 185.993 144.241 185.818C143.953 185.643 143.765 185.336 143.678 184.898C143.252 185.311 142.726 185.611 142.101 185.799C141.487 185.987 140.893 186.081 140.317 186.081C139.879 186.081 139.46 186.018 139.06 185.893C138.659 185.78 138.302 185.611 137.99 185.386C137.689 185.148 137.445 184.854 137.257 184.504C137.082 184.141 136.995 183.722 136.995 183.246C136.995 182.645 137.101 182.157 137.314 181.782C137.539 181.406 137.827 181.112 138.177 180.9C138.54 180.687 138.941 180.537 139.379 180.449C139.829 180.349 140.28 180.274 140.73 180.224C141.118 180.149 141.487 180.099 141.838 180.074C142.188 180.036 142.495 179.98 142.758 179.905C143.033 179.83 143.246 179.717 143.396 179.567C143.559 179.404 143.64 179.166 143.64 178.853C143.64 178.578 143.571 178.353 143.433 178.178C143.308 178.002 143.146 177.871 142.945 177.783C142.758 177.683 142.545 177.621 142.307 177.596C142.069 177.558 141.844 177.539 141.631 177.539C141.031 177.539 140.536 177.665 140.148 177.915C139.76 178.165 139.541 178.553 139.491 179.079H137.351C137.389 178.453 137.539 177.934 137.802 177.521C138.065 177.108 138.396 176.776 138.797 176.526C139.21 176.275 139.673 176.1 140.186 176C140.699 175.9 141.225 175.85 141.763 175.85C142.238 175.85 142.708 175.9 143.171 176C143.634 176.1 144.047 176.263 144.41 176.488C144.785 176.713 145.085 177.007 145.311 177.37C145.536 177.721 145.649 178.153 145.649 178.666V183.659ZM143.509 180.956C143.183 181.169 142.783 181.3 142.307 181.35C141.832 181.388 141.356 181.45 140.88 181.538C140.655 181.575 140.436 181.632 140.223 181.707C140.011 181.769 139.823 181.863 139.66 181.988C139.498 182.101 139.366 182.257 139.266 182.458C139.178 182.645 139.135 182.877 139.135 183.152C139.135 183.39 139.204 183.59 139.341 183.753C139.479 183.916 139.642 184.047 139.829 184.147C140.029 184.235 140.242 184.297 140.467 184.335C140.705 184.372 140.918 184.391 141.106 184.391C141.344 184.391 141.6 184.36 141.875 184.297C142.151 184.235 142.407 184.128 142.645 183.978C142.895 183.828 143.102 183.64 143.265 183.415C143.427 183.177 143.509 182.889 143.509 182.552V180.956Z" fill="#3DE19D"/>
<circle cx="285.575" cy="84.2599" r="42.7587" fill="url(#paint10_radial_15_1093)" fill-opacity="0.1" stroke="#3DE19D" stroke-width="2.08579"/>
<ellipse cx="286.089" cy="81.1313" rx="39.1086" ry="38.5871" fill="url(#paint11_radial_15_1093)" fill-opacity="0.1"/>
<path d="M272.47 81.4413C272.378 81.087 272.253 80.7614 272.093 80.4643C271.933 80.1672 271.727 79.9101 271.476 79.693C271.224 79.4759 270.927 79.3102 270.585 79.196C270.253 79.0703 269.865 79.0074 269.419 79.0074C268.768 79.0074 268.202 79.1388 267.722 79.4016C267.254 79.6644 266.871 80.0187 266.574 80.4643C266.277 80.8985 266.054 81.3956 265.905 81.9555C265.768 82.5154 265.7 83.0867 265.7 83.6694C265.7 84.2522 265.768 84.8235 265.905 85.3834C266.054 85.9433 266.277 86.4461 266.574 86.8917C266.871 87.3259 267.254 87.6744 267.722 87.9372C268.202 88.2 268.768 88.3315 269.419 88.3315C269.899 88.3315 270.322 88.2515 270.687 88.0915C271.053 87.9201 271.367 87.6916 271.63 87.4059C271.893 87.1088 272.099 86.766 272.247 86.3775C272.396 85.989 272.493 85.5719 272.538 85.1263H274.63C274.584 85.8576 274.424 86.5261 274.15 87.1317C273.887 87.7373 273.527 88.2629 273.07 88.7085C272.613 89.1427 272.076 89.4798 271.459 89.7198C270.842 89.9597 270.162 90.0797 269.419 90.0797C268.505 90.0797 267.682 89.914 266.951 89.5827C266.231 89.2399 265.62 88.7771 265.117 88.1943C264.614 87.6116 264.226 86.9317 263.951 86.1547C263.689 85.3777 263.557 84.5493 263.557 83.6694C263.557 82.801 263.689 81.9783 263.951 81.2013C264.226 80.4243 264.614 79.7444 265.117 79.1617C265.62 78.5789 266.231 78.1162 266.951 77.7734C267.682 77.4306 268.505 77.2592 269.419 77.2592C270.105 77.2592 270.75 77.3563 271.356 77.5505C271.961 77.7334 272.493 78.0076 272.95 78.3732C273.418 78.7275 273.795 79.1617 274.081 79.6759C274.367 80.1901 274.544 80.7785 274.612 81.4413H272.47ZM276.304 77.5505H278.258V82.0926H278.292C278.532 81.6926 278.886 81.3613 279.355 81.0985C279.835 80.8242 280.366 80.6871 280.949 80.6871C281.92 80.6871 282.685 80.9385 283.245 81.4413C283.805 81.944 284.085 82.6982 284.085 83.7037V89.7883H282.131V84.2179C282.108 83.5209 281.96 83.0181 281.686 82.7096C281.411 82.3897 280.983 82.2297 280.4 82.2297C280.069 82.2297 279.772 82.2925 279.509 82.4182C279.246 82.5325 279.023 82.6982 278.84 82.9153C278.658 83.121 278.515 83.3666 278.412 83.6523C278.309 83.938 278.258 84.2408 278.258 84.5607V89.7883H276.304V77.5505ZM286.197 77.5505H288.151V79.4016H286.197V77.5505ZM286.197 80.9271H288.151V89.7883H286.197V80.9271ZM290.28 80.9271H292.131V82.2297L292.165 82.264C292.462 81.7726 292.851 81.3898 293.331 81.1156C293.811 80.8299 294.342 80.6871 294.925 80.6871C295.896 80.6871 296.662 80.9385 297.222 81.4413C297.781 81.944 298.061 82.6982 298.061 83.7037V89.7883H296.108V84.2179C296.085 83.5209 295.936 83.0181 295.662 82.7096C295.388 82.3897 294.959 82.2297 294.376 82.2297C294.045 82.2297 293.748 82.2925 293.485 82.4182C293.222 82.5325 292.999 82.6982 292.817 82.9153C292.634 83.121 292.491 83.3666 292.388 83.6523C292.285 83.938 292.234 84.2408 292.234 84.5607V89.7883H290.28V80.9271ZM307.543 87.8173C307.543 88.0572 307.572 88.2286 307.629 88.3315C307.698 88.4343 307.823 88.4857 308.006 88.4857C308.063 88.4857 308.132 88.4857 308.212 88.4857C308.292 88.4857 308.383 88.4743 308.486 88.4514V89.8055C308.418 89.8283 308.326 89.8512 308.212 89.874C308.109 89.9083 308.001 89.9369 307.886 89.9597C307.772 89.9826 307.658 89.9997 307.543 90.0111C307.429 90.0226 307.332 90.0283 307.252 90.0283C306.852 90.0283 306.521 89.9483 306.258 89.7883C305.995 89.6284 305.824 89.3484 305.744 88.9485C305.355 89.3256 304.875 89.5998 304.304 89.7712C303.744 89.9426 303.201 90.0283 302.676 90.0283C302.276 90.0283 301.893 89.9712 301.527 89.8569C301.162 89.7541 300.836 89.5998 300.55 89.3941C300.276 89.177 300.053 88.9085 299.882 88.5885C299.722 88.2572 299.642 87.8744 299.642 87.4402C299.642 86.8917 299.739 86.4461 299.933 86.1033C300.139 85.7605 300.402 85.492 300.722 85.2977C301.053 85.1035 301.419 84.9663 301.819 84.8864C302.23 84.7949 302.642 84.7264 303.053 84.6807C303.407 84.6121 303.744 84.5664 304.064 84.5436C304.384 84.5093 304.664 84.4579 304.904 84.3893C305.155 84.3207 305.35 84.2179 305.487 84.0808C305.635 83.9322 305.71 83.7151 305.71 83.4295C305.71 83.1781 305.647 82.9724 305.521 82.8124C305.407 82.6525 305.258 82.5325 305.075 82.4525C304.904 82.3611 304.71 82.304 304.493 82.2811C304.275 82.2468 304.07 82.2297 303.876 82.2297C303.327 82.2297 302.876 82.344 302.522 82.5725C302.167 82.801 301.967 83.1552 301.922 83.6352H299.968C300.002 83.0638 300.139 82.5896 300.379 82.2126C300.619 81.8355 300.922 81.5327 301.287 81.3041C301.665 81.0756 302.087 80.9156 302.556 80.8242C303.024 80.7328 303.504 80.6871 303.996 80.6871C304.43 80.6871 304.858 80.7328 305.281 80.8242C305.704 80.9156 306.081 81.0642 306.412 81.2699C306.755 81.4755 307.029 81.7441 307.235 82.0754C307.441 82.3954 307.543 82.7896 307.543 83.2581V87.8173ZM305.59 85.3491C305.292 85.5434 304.927 85.6634 304.493 85.7091C304.058 85.7433 303.624 85.8005 303.19 85.8805C302.984 85.9147 302.784 85.9662 302.59 86.0347C302.396 86.0919 302.224 86.1776 302.076 86.2918C301.927 86.3947 301.807 86.5375 301.716 86.7203C301.636 86.8917 301.596 87.1031 301.596 87.3545C301.596 87.5716 301.659 87.7544 301.785 87.903C301.91 88.0515 302.059 88.1715 302.23 88.2629C302.413 88.3429 302.607 88.4 302.813 88.4343C303.03 88.4686 303.224 88.4857 303.396 88.4857C303.613 88.4857 303.847 88.4571 304.098 88.4C304.35 88.3429 304.584 88.2458 304.801 88.1086C305.03 87.9715 305.218 87.8001 305.367 87.5944C305.515 87.3773 305.59 87.1145 305.59 86.806V85.3491Z" fill="#3DE19D"/>
<circle cx="180.761" cy="250.602" r="38.0657" fill="url(#paint12_radial_15_1093)" fill-opacity="0.1" stroke="#3DE19D" stroke-width="2.08579"/>
<ellipse cx="180.761" cy="252.167" rx="32.8512" ry="32.3298" fill="url(#paint13_radial_15_1093)" fill-opacity="0.1"/>
<path d="M157.263 245.802H158.89L161.13 252.873H161.155L163.445 245.802H165.035L161.981 254.737H160.242L157.263 245.802ZM165.887 245.802H167.314V247.153H165.887V245.802ZM165.887 248.267H167.314V254.737H165.887V248.267ZM173.311 250.933C173.294 250.708 173.244 250.491 173.161 250.282C173.085 250.073 172.977 249.894 172.835 249.744C172.702 249.585 172.535 249.46 172.335 249.368C172.143 249.268 171.926 249.218 171.684 249.218C171.434 249.218 171.204 249.264 170.996 249.356C170.795 249.439 170.62 249.56 170.47 249.719C170.328 249.869 170.211 250.048 170.119 250.257C170.036 250.466 169.99 250.691 169.982 250.933H173.311ZM169.982 251.871C169.982 252.122 170.015 252.364 170.082 252.597C170.157 252.831 170.266 253.035 170.407 253.211C170.549 253.386 170.729 253.528 170.945 253.636C171.162 253.736 171.421 253.786 171.721 253.786C172.139 253.786 172.472 253.699 172.723 253.523C172.981 253.34 173.173 253.069 173.298 252.71H174.65C174.575 253.06 174.445 253.373 174.262 253.649C174.078 253.924 173.857 254.157 173.599 254.349C173.34 254.533 173.048 254.671 172.723 254.762C172.406 254.862 172.072 254.913 171.721 254.913C171.212 254.913 170.762 254.829 170.37 254.662C169.978 254.495 169.644 254.262 169.369 253.961C169.102 253.661 168.897 253.302 168.755 252.885C168.622 252.468 168.555 252.009 168.555 251.508C168.555 251.05 168.626 250.616 168.768 250.207C168.918 249.79 169.127 249.427 169.394 249.118C169.669 248.801 169.999 248.551 170.382 248.367C170.766 248.184 171.2 248.092 171.684 248.092C172.193 248.092 172.647 248.2 173.048 248.417C173.457 248.626 173.795 248.905 174.062 249.256C174.329 249.606 174.521 250.011 174.637 250.47C174.762 250.92 174.796 251.388 174.737 251.871H169.982ZM175.171 248.267H176.248V246.327H177.674V248.267H178.963V249.331H177.674V252.785C177.674 252.935 177.678 253.064 177.687 253.173C177.703 253.281 177.733 253.373 177.774 253.448C177.824 253.523 177.895 253.582 177.987 253.623C178.079 253.657 178.204 253.674 178.363 253.674C178.463 253.674 178.563 253.674 178.663 253.674C178.763 253.665 178.863 253.649 178.963 253.623V254.725C178.805 254.741 178.65 254.758 178.5 254.775C178.35 254.792 178.196 254.8 178.037 254.8C177.662 254.8 177.357 254.767 177.124 254.7C176.898 254.625 176.719 254.52 176.585 254.387C176.46 254.245 176.373 254.07 176.323 253.861C176.281 253.653 176.256 253.415 176.248 253.148V249.331H175.171V248.267ZM179.99 248.267H181.341V249.218L181.366 249.243C181.583 248.885 181.867 248.605 182.217 248.405C182.568 248.196 182.956 248.092 183.381 248.092C184.09 248.092 184.649 248.276 185.058 248.643C185.467 249.01 185.671 249.56 185.671 250.295V254.737H184.245V250.67C184.228 250.161 184.119 249.794 183.919 249.569C183.719 249.335 183.406 249.218 182.981 249.218C182.739 249.218 182.522 249.264 182.33 249.356C182.138 249.439 181.975 249.56 181.842 249.719C181.708 249.869 181.604 250.048 181.529 250.257C181.454 250.466 181.416 250.687 181.416 250.92V254.737H179.99V248.267ZM192.595 253.298C192.595 253.473 192.615 253.598 192.657 253.674C192.707 253.749 192.799 253.786 192.933 253.786C192.974 253.786 193.024 253.786 193.083 253.786C193.141 253.786 193.208 253.778 193.283 253.761V254.75C193.233 254.767 193.166 254.783 193.083 254.8C193.008 254.825 192.928 254.846 192.845 254.862C192.761 254.879 192.678 254.892 192.595 254.9C192.511 254.908 192.44 254.913 192.382 254.913C192.09 254.913 191.848 254.854 191.656 254.737C191.464 254.621 191.339 254.416 191.281 254.124C190.997 254.399 190.646 254.6 190.229 254.725C189.821 254.85 189.424 254.913 189.04 254.913C188.748 254.913 188.469 254.871 188.202 254.787C187.935 254.712 187.697 254.6 187.489 254.449C187.288 254.291 187.126 254.095 187.001 253.861C186.884 253.619 186.825 253.34 186.825 253.023C186.825 252.622 186.896 252.297 187.038 252.047C187.188 251.796 187.38 251.6 187.614 251.458C187.856 251.317 188.123 251.216 188.415 251.158C188.715 251.091 189.015 251.041 189.316 251.008C189.574 250.958 189.821 250.924 190.054 250.908C190.288 250.883 190.492 250.845 190.667 250.795C190.851 250.745 190.993 250.67 191.093 250.57C191.201 250.461 191.256 250.303 191.256 250.094C191.256 249.911 191.21 249.761 191.118 249.644C191.034 249.527 190.926 249.439 190.792 249.381C190.667 249.314 190.526 249.273 190.367 249.256C190.208 249.231 190.058 249.218 189.916 249.218C189.516 249.218 189.186 249.302 188.928 249.469C188.669 249.635 188.523 249.894 188.49 250.245H187.063C187.088 249.827 187.188 249.481 187.363 249.206C187.539 248.93 187.76 248.709 188.027 248.543C188.302 248.376 188.611 248.259 188.953 248.192C189.295 248.125 189.645 248.092 190.004 248.092C190.321 248.092 190.634 248.125 190.943 248.192C191.251 248.259 191.527 248.367 191.769 248.517C192.019 248.668 192.219 248.864 192.369 249.106C192.52 249.339 192.595 249.627 192.595 249.969V253.298ZM191.168 251.496C190.951 251.638 190.684 251.725 190.367 251.759C190.05 251.784 189.733 251.826 189.416 251.884C189.266 251.909 189.12 251.947 188.978 251.997C188.836 252.038 188.711 252.101 188.602 252.184C188.494 252.259 188.406 252.364 188.34 252.497C188.281 252.622 188.252 252.777 188.252 252.96C188.252 253.119 188.298 253.252 188.39 253.361C188.481 253.469 188.59 253.557 188.715 253.623C188.849 253.682 188.99 253.724 189.141 253.749C189.299 253.774 189.441 253.786 189.566 253.786C189.725 253.786 189.896 253.765 190.079 253.724C190.263 253.682 190.434 253.611 190.592 253.511C190.759 253.411 190.897 253.286 191.005 253.135C191.114 252.977 191.168 252.785 191.168 252.56V251.496ZM194.13 248.267H195.481V249.168H195.519C195.627 249.01 195.744 248.864 195.869 248.73C195.994 248.597 196.132 248.484 196.282 248.392C196.441 248.301 196.62 248.23 196.82 248.18C197.021 248.121 197.25 248.092 197.509 248.092C197.901 248.092 198.264 248.18 198.597 248.355C198.94 248.53 199.182 248.801 199.323 249.168C199.565 248.835 199.845 248.572 200.162 248.38C200.479 248.188 200.875 248.092 201.351 248.092C202.035 248.092 202.565 248.259 202.94 248.593C203.324 248.926 203.516 249.485 203.516 250.27V254.737H202.089V250.958C202.089 250.699 202.081 250.466 202.064 250.257C202.047 250.04 201.997 249.857 201.914 249.706C201.839 249.548 201.722 249.427 201.563 249.343C201.405 249.26 201.188 249.218 200.913 249.218C200.429 249.218 200.078 249.368 199.861 249.669C199.645 249.969 199.536 250.395 199.536 250.945V254.737H198.109V250.582C198.109 250.132 198.026 249.794 197.859 249.569C197.701 249.335 197.404 249.218 196.971 249.218C196.787 249.218 196.608 249.256 196.432 249.331C196.266 249.406 196.115 249.514 195.982 249.656C195.857 249.798 195.752 249.973 195.669 250.182C195.594 250.391 195.556 250.628 195.556 250.895V254.737H194.13V248.267Z" fill="#3DE19D"/>
</g>
<defs>
<filter id="filter0_f_15_1093" x="0.063427" y="115.198" width="418.9" height="256.208" filterUnits="userSpaceOnUse" color-interpolation-filters="sRGB">
<feFlood flood-opacity="0" result="BackgroundImageFix"/>
<feBlend mode="normal" in="SourceGraphic" in2="BackgroundImageFix" result="shape"/>
<feGaussianBlur stdDeviation="19.4683" result="effect1_foregroundBlur_15_1093"/>
</filter>
<filter id="filter1_d_15_1093" x="43.6194" y="0.828418" width="332.684" height="332.684" filterUnits="userSpaceOnUse" color-interpolation-filters="sRGB">
<feFlood flood-opacity="0" result="BackgroundImageFix"/>
<feColorMatrix in="SourceAlpha" type="matrix" values="0 0 0 0 0 0 0 0 0 0 0 0 0 0 0 0 0 0 127 0" result="hardAlpha"/>
<feOffset dy="9.38606"/>
<feGaussianBlur stdDeviation="6.77882"/>
<feComposite in2="hardAlpha" operator="out"/>
<feColorMatrix type="matrix" values="0 0 0 0 0 0 0 0 0 0 0 0 0 0 0 0 0 0 0.08 0"/>
<feBlend mode="normal" in2="BackgroundImageFix" result="effect1_dropShadow_15_1093"/>
<feBlend mode="normal" in="SourceGraphic" in2="effect1_dropShadow_15_1093" result="shape"/>
</filter>
<filter id="filter2_f_15_1093" x="-39.8115" y="96.7746" width="523.534" height="427.587" filterUnits="userSpaceOnUse" color-interpolation-filters="sRGB">
<feFlood flood-opacity="0" result="BackgroundImageFix"/>
<feBlend mode="normal" in="SourceGraphic" in2="BackgroundImageFix" result="shape"/>
<feGaussianBlur stdDeviation="62.5737" result="effect1_foregroundBlur_15_1093"/>
</filter>
<radialGradient id="paint0_radial_15_1093" cx="0" cy="0" r="1" gradientUnits="userSpaceOnUse" gradientTransform="translate(209.956 147.392) rotate(90) scale(188.993)">
<stop stop-color="#767575"/>
<stop offset="0.479167" stop-color="#848484" stop-opacity="0.854167"/>
<stop offset="1" stop-color="#D9D9D9" stop-opacity="0"/>
</radialGradient>
<radialGradient id="paint1_radial_15_1093" cx="0" cy="0" r="1" gradientUnits="userSpaceOnUse" gradientTransform="translate(209.513 243.302) rotate(90) scale(89.1676 170.513)">
<stop offset="0.213542" stop-color="#161719"/>
<stop offset="1" stop-color="#161719" stop-opacity="0"/>
</radialGradient>
<linearGradient id="paint2_linear_15_1093" x1="209.961" y1="21.6863" x2="209.961" y2="293.882" gradientUnits="userSpaceOnUse">
<stop stop-color="#1D6F4D" stop-opacity="0"/>
<stop offset="1" stop-color="#1D6F4D"/>
</linearGradient>
<linearGradient id="paint3_linear_15_1093" x1="209.961" y1="21.6863" x2="209.961" y2="293.882" gradientUnits="userSpaceOnUse">
<stop stop-color="#1BC67F"/>
<stop offset="1" stop-color="#1D6F4D"/>
</linearGradient>
<radialGradient id="paint4_radial_15_1093" cx="0" cy="0" r="1" gradientUnits="userSpaceOnUse" gradientTransform="translate(271.493 193.764) rotate(90) scale(67.7882 68.3097)">
<stop stop-color="#3DE19D"/>
<stop offset="1" stop-color="#3DE19D" stop-opacity="0"/>
</radialGradient>
<radialGradient id="paint5_radial_15_1093" cx="0" cy="0" r="1" gradientUnits="userSpaceOnUse" gradientTransform="translate(273.58 195.85) rotate(90) scale(60.4879 61.0094)">
<stop stop-color="#3DE19D" stop-opacity="0"/>
<stop offset="1" stop-color="#3DE19D" stop-opacity="0.78"/>
</radialGradient>
<radialGradient id="paint6_radial_15_1093" cx="0" cy="0" r="1" gradientUnits="userSpaceOnUse" gradientTransform="translate(180.759 78.5242) rotate(90) scale(62.0523)">
<stop stop-color="#3DE19D"/>
<stop offset="1" stop-color="#3DE19D" stop-opacity="0"/>
</radialGradient>
<radialGradient id="paint7_radial_15_1093" cx="0" cy="0" r="1" gradientUnits="userSpaceOnUse" gradientTransform="translate(180.764 75.9169) rotate(90) scale(57.3593 57.8807)">
<stop stop-color="#3DE19D" stop-opacity="0"/>
<stop offset="1" stop-color="#3DE19D" stop-opacity="0.78"/>
</radialGradient>
<radialGradient id="paint8_radial_15_1093" cx="0" cy="0" r="1" gradientUnits="userSpaceOnUse" gradientTransform="translate(125.487 179.163) rotate(90) scale(52.1448 52.6662)">
<stop stop-color="#3DE19D"/>
<stop offset="1" stop-color="#3DE19D" stop-opacity="0"/>
</radialGradient>
<radialGradient id="paint9_radial_15_1093" cx="0" cy="0" r="1" gradientUnits="userSpaceOnUse" gradientTransform="translate(122.358 182.292) rotate(90) scale(47.9732 48.4946)">
<stop stop-color="#3DE19D" stop-opacity="0"/>
<stop offset="1" stop-color="#3DE19D" stop-opacity="0.78"/>
</radialGradient>
<radialGradient id="paint10_radial_15_1093" cx="0" cy="0" r="1" gradientUnits="userSpaceOnUse" gradientTransform="translate(285.575 84.2599) rotate(90) scale(42.7587)">
<stop stop-color="#3DE19D"/>
<stop offset="1" stop-color="#3DE19D" stop-opacity="0"/>
</radialGradient>
<radialGradient id="paint11_radial_15_1093" cx="0" cy="0" r="1" gradientUnits="userSpaceOnUse" gradientTransform="translate(286.089 81.1313) rotate(90) scale(38.5871 39.1086)">
<stop stop-color="#3DE19D" stop-opacity="0"/>
<stop offset="1" stop-color="#3DE19D" stop-opacity="0.78"/>
</radialGradient>
<radialGradient id="paint12_radial_15_1093" cx="0" cy="0" r="1" gradientUnits="userSpaceOnUse" gradientTransform="translate(180.761 250.602) rotate(90) scale(38.0657)">
<stop stop-color="#3DE19D"/>
<stop offset="1" stop-color="#3DE19D" stop-opacity="0"/>
</radialGradient>
<radialGradient id="paint13_radial_15_1093" cx="0" cy="0" r="1" gradientUnits="userSpaceOnUse" gradientTransform="translate(180.761 252.167) rotate(90) scale(32.3298 32.8512)">
<stop stop-color="#3DE19D" stop-opacity="0"/>
<stop offset="1" stop-color="#3DE19D" stop-opacity="0.78"/>
</radialGradient>
</defs>
</svg>
