<svg width="32" height="32" viewBox="0 0 32 32" fill="none" xmlns="http://www.w3.org/2000/svg">
<path d="M15.9897 32C24.8294 32 31.9897 24.8397 31.9897 16C31.9897 7.16034 24.8294 0 15.9897 0C7.15003 0 0 7.16034 0 16C0 24.8397 7.16033 32 15.9897 32Z" fill="#008CE3"/>
<path d="M18.4305 8.9942H12.1459L11.6308 11.8995L17.2972 11.9098C20.0893 11.9098 20.9135 12.9195 20.8929 14.5988C20.8826 15.4643 20.5117 16.9169 20.3468 17.3909C19.9141 18.6478 19.0384 20.0901 15.7209 20.0798H10.209L9.68359 22.9955H15.9476C18.1524 22.9955 19.1002 22.7379 20.0893 22.2743C22.294 21.2543 23.6128 19.0805 24.1382 16.237C24.9315 12.0026 23.9528 8.9942 18.4305 8.9942Z" fill="white"/>
<path d="M9.44646 14.537C7.79804 14.537 7.56108 15.6085 7.40654 16.2576C7.20049 17.1024 7.13867 17.4527 7.13867 17.4527H13.5675C15.2159 17.4527 15.4529 16.3812 15.6074 15.7322C15.8135 14.8873 15.8753 14.537 15.8753 14.537H9.44646Z" fill="white"/>
</svg>
